solid OpenSCAD_Model
  facet normal 0.0980136 0.995185 -0
    outer loop
      vertex 0.975451 4.90393 0
      vertex 0 5 4
      vertex 0.975451 4.90393 4
    endloop
  endfacet
  facet normal 0.0980136 0.995185 0
    outer loop
      vertex 0 5 4
      vertex 0.975451 4.90393 0
      vertex 0 5 0
    endloop
  endfacet
  facet normal 0.95694 0.290285 -2.36206e-18
    outer loop
      vertex 4.90393 0.975451 4
      vertex 4.6194 1.91342 0
      vertex 4.6194 1.91342 4
    endloop
  endfacet
  facet normal 0.95694 0.290285 -2.36206e-18
    outer loop
      vertex 4.6194 1.91342 0
      vertex 4.90393 0.975451 4
      vertex 4.90393 0.975451 0
    endloop
  endfacet
  facet normal 0.995185 0.0980136 -3.82635e-20
    outer loop
      vertex 5 0 4
      vertex 4.90393 0.975451 0
      vertex 4.90393 0.975451 4
    endloop
  endfacet
  facet normal 0.995185 0.0980136 -3.82635e-20
    outer loop
      vertex 4.90393 0.975451 0
      vertex 5 0 4
      vertex 5 0 0
    endloop
  endfacet
  facet normal 0.88192 0.471399 -4.55475e-18
    outer loop
      vertex 4.6194 1.91342 4
      vertex 4.15735 2.77785 0
      vertex 4.15735 2.77785 4
    endloop
  endfacet
  facet normal 0.88192 0.471399 -4.55475e-18
    outer loop
      vertex 4.15735 2.77785 0
      vertex 4.6194 1.91342 4
      vertex 4.6194 1.91342 0
    endloop
  endfacet
  facet normal -0.634398 0.773006 0
    outer loop
      vertex -2.77785 4.15735 0
      vertex -3.53553 3.53553 4
      vertex -2.77785 4.15735 4
    endloop
  endfacet
  facet normal -0.634398 0.773006 0
    outer loop
      vertex -3.53553 3.53553 4
      vertex -2.77785 4.15735 0
      vertex -3.53553 3.53553 0
    endloop
  endfacet
  facet normal 0 0 1
    outer loop
      vertex 2 0 4
      vertex 5 0 4
      vertex 4.90393 0.975451 4
    endloop
  endfacet
  facet normal 0 0 1
    outer loop
      vertex 1.93185 0.517637 4
      vertex 4.90393 0.975451 4
      vertex 4.6194 1.91342 4
    endloop
  endfacet
  facet normal 0 0 1
    outer loop
      vertex 5 0 4
      vertex 2 0 4
      vertex 4.90393 -0.975451 4
    endloop
  endfacet
  facet normal 0 0 1
    outer loop
      vertex 1.73205 1 4
      vertex 4.6194 1.91342 4
      vertex 4.15735 2.77785 4
    endloop
  endfacet
  facet normal -0 0 1
    outer loop
      vertex 1.93185 -0.517637 4
      vertex 4.90393 -0.975451 4
      vertex 2 0 4
    endloop
  endfacet
  facet normal 0 0 1
    outer loop
      vertex 1.41421 1.41421 4
      vertex 4.15735 2.77785 4
      vertex 3.53553 3.53553 4
    endloop
  endfacet
  facet normal 0 0 1
    outer loop
      vertex 4.90393 -0.975451 4
      vertex 1.93185 -0.517637 4
      vertex 4.6194 -1.91342 4
    endloop
  endfacet
  facet normal 0 0 1
    outer loop
      vertex 1.41421 1.41421 4
      vertex 3.53553 3.53553 4
      vertex 2.77785 4.15735 4
    endloop
  endfacet
  facet normal -0 0 1
    outer loop
      vertex 1.73205 -1 4
      vertex 4.6194 -1.91342 4
      vertex 1.93185 -0.517637 4
    endloop
  endfacet
  facet normal 0 0 1
    outer loop
      vertex 4.6194 -1.91342 4
      vertex 1.73205 -1 4
      vertex 4.15735 -2.77785 4
    endloop
  endfacet
  facet normal 0 0 1
    outer loop
      vertex 4.90393 0.975451 4
      vertex 1.93185 0.517637 4
      vertex 2 0 4
    endloop
  endfacet
  facet normal 0 0 1
    outer loop
      vertex 1 1.73205 4
      vertex 2.77785 4.15735 4
      vertex 1.91342 4.6194 4
    endloop
  endfacet
  facet normal 0 0 1
    outer loop
      vertex 4.6194 1.91342 4
      vertex 1.73205 1 4
      vertex 1.93185 0.517637 4
    endloop
  endfacet
  facet normal 0 0 1
    outer loop
      vertex 4.15735 2.77785 4
      vertex 1.41421 1.41421 4
      vertex 1.73205 1 4
    endloop
  endfacet
  facet normal 0 0 1
    outer loop
      vertex 2.77785 4.15735 4
      vertex 1 1.73205 4
      vertex 1.41421 1.41421 4
    endloop
  endfacet
  facet normal 0 0 1
    outer loop
      vertex 0.517637 1.93185 4
      vertex 1.91342 4.6194 4
      vertex 0.975451 4.90393 4
    endloop
  endfacet
  facet normal 0 0 1
    outer loop
      vertex 1.91342 4.6194 4
      vertex 0.517637 1.93185 4
      vertex 1 1.73205 4
    endloop
  endfacet
  facet normal 0 0 1
    outer loop
      vertex 0 2 4
      vertex 0.975451 4.90393 4
      vertex 0 5 4
    endloop
  endfacet
  facet normal 0 0 1
    outer loop
      vertex 0.975451 4.90393 4
      vertex 0 2 4
      vertex 0.517637 1.93185 4
    endloop
  endfacet
  facet normal -0 0 1
    outer loop
      vertex -0.975451 4.90393 4
      vertex 0 2 4
      vertex 0 5 4
    endloop
  endfacet
  facet normal 0 0 1
    outer loop
      vertex 0 2 4
      vertex -0.975451 4.90393 4
      vertex -0.517637 1.93185 4
    endloop
  endfacet
  facet normal -0 0 1
    outer loop
      vertex -1.91342 4.6194 4
      vertex -0.517637 1.93185 4
      vertex -0.975451 4.90393 4
    endloop
  endfacet
  facet normal 0 0 1
    outer loop
      vertex -0.517637 1.93185 4
      vertex -1.91342 4.6194 4
      vertex -1 1.73205 4
    endloop
  endfacet
  facet normal -0 0 1
    outer loop
      vertex -2.77785 4.15735 4
      vertex -1 1.73205 4
      vertex -1.91342 4.6194 4
    endloop
  endfacet
  facet normal 0 0 1
    outer loop
      vertex -1 1.73205 4
      vertex -2.77785 4.15735 4
      vertex -1.41421 1.41421 4
    endloop
  endfacet
  facet normal -0 0 1
    outer loop
      vertex -3.53553 3.53553 4
      vertex -1.41421 1.41421 4
      vertex -2.77785 4.15735 4
    endloop
  endfacet
  facet normal -0 0 1
    outer loop
      vertex -4.15735 2.77785 4
      vertex -1.41421 1.41421 4
      vertex -3.53553 3.53553 4
    endloop
  endfacet
  facet normal 0 0 1
    outer loop
      vertex -1.41421 1.41421 4
      vertex -4.15735 2.77785 4
      vertex -1.73205 1 4
    endloop
  endfacet
  facet normal -0 0 1
    outer loop
      vertex 1.41421 -1.41421 4
      vertex 4.15735 -2.77785 4
      vertex 1.73205 -1 4
    endloop
  endfacet
  facet normal 0 0 1
    outer loop
      vertex 4.15735 -2.77785 4
      vertex 1.41421 -1.41421 4
      vertex 3.53553 -3.53553 4
    endloop
  endfacet
  facet normal 0 0 1
    outer loop
      vertex 3.53553 -3.53553 4
      vertex 1.41421 -1.41421 4
      vertex 2.77785 -4.15735 4
    endloop
  endfacet
  facet normal -0 0 1
    outer loop
      vertex 1 -1.73205 4
      vertex 2.77785 -4.15735 4
      vertex 1.41421 -1.41421 4
    endloop
  endfacet
  facet normal 0 0 1
    outer loop
      vertex 2.77785 -4.15735 4
      vertex 1 -1.73205 4
      vertex 1.91342 -4.6194 4
    endloop
  endfacet
  facet normal -0 0 1
    outer loop
      vertex 0.517637 -1.93185 4
      vertex 1.91342 -4.6194 4
      vertex 1 -1.73205 4
    endloop
  endfacet
  facet normal 0 0 1
    outer loop
      vertex 1.91342 -4.6194 4
      vertex 0.517637 -1.93185 4
      vertex 0.975451 -4.90393 4
    endloop
  endfacet
  facet normal -0 0 1
    outer loop
      vertex 0 -2 4
      vertex 0.975451 -4.90393 4
      vertex 0.517637 -1.93185 4
    endloop
  endfacet
  facet normal 0 0 1
    outer loop
      vertex 0 -2 4
      vertex 0 -5 4
      vertex 0.975451 -4.90393 4
    endloop
  endfacet
  facet normal 0 0 1
    outer loop
      vertex -0.975451 -4.90393 4
      vertex 0 -2 4
      vertex -0.517637 -1.93185 4
    endloop
  endfacet
  facet normal 0 0 1
    outer loop
      vertex 0 -2 4
      vertex -0.975451 -4.90393 4
      vertex 0 -5 4
    endloop
  endfacet
  facet normal 0 0 1
    outer loop
      vertex -1.91342 -4.6194 4
      vertex -0.517637 -1.93185 4
      vertex -1 -1.73205 4
    endloop
  endfacet
  facet normal 0 0 1
    outer loop
      vertex -2.77785 -4.15735 4
      vertex -1 -1.73205 4
      vertex -1.41421 -1.41421 4
    endloop
  endfacet
  facet normal 0 0 1
    outer loop
      vertex -4.15735 -2.77785 4
      vertex -1.41421 -1.41421 4
      vertex -1.73205 -1 4
    endloop
  endfacet
  facet normal 0 0 1
    outer loop
      vertex -0.517637 -1.93185 4
      vertex -1.91342 -4.6194 4
      vertex -0.975451 -4.90393 4
    endloop
  endfacet
  facet normal 0 0 1
    outer loop
      vertex -4.6194 -1.91342 4
      vertex -1.73205 -1 4
      vertex -1.93185 -0.517637 4
    endloop
  endfacet
  facet normal 0 0 1
    outer loop
      vertex -4.90393 -0.975451 4
      vertex -1.93185 -0.517637 4
      vertex -2 0 4
    endloop
  endfacet
  facet normal -0 0 1
    outer loop
      vertex -4.6194 1.91342 4
      vertex -1.73205 1 4
      vertex -4.15735 2.77785 4
    endloop
  endfacet
  facet normal 0 0 1
    outer loop
      vertex -1 -1.73205 4
      vertex -2.77785 -4.15735 4
      vertex -1.91342 -4.6194 4
    endloop
  endfacet
  facet normal 0 0 1
    outer loop
      vertex -1.73205 1 4
      vertex -4.6194 1.91342 4
      vertex -1.93185 0.517637 4
    endloop
  endfacet
  facet normal 0 0 1
    outer loop
      vertex -1.41421 -1.41421 4
      vertex -3.53553 -3.53553 4
      vertex -2.77785 -4.15735 4
    endloop
  endfacet
  facet normal -0 0 1
    outer loop
      vertex -4.90393 0.975451 4
      vertex -1.93185 0.517637 4
      vertex -4.6194 1.91342 4
    endloop
  endfacet
  facet normal 0 0 1
    outer loop
      vertex -1.41421 -1.41421 4
      vertex -4.15735 -2.77785 4
      vertex -3.53553 -3.53553 4
    endloop
  endfacet
  facet normal 0 0 1
    outer loop
      vertex -1.93185 0.517637 4
      vertex -4.90393 0.975451 4
      vertex -2 0 4
    endloop
  endfacet
  facet normal 0 0 1
    outer loop
      vertex -1.73205 -1 4
      vertex -4.6194 -1.91342 4
      vertex -4.15735 -2.77785 4
    endloop
  endfacet
  facet normal 0 0 1
    outer loop
      vertex -5 0 4
      vertex -2 0 4
      vertex -4.90393 0.975451 4
    endloop
  endfacet
  facet normal 0 0 1
    outer loop
      vertex -1.93185 -0.517637 4
      vertex -4.90393 -0.975451 4
      vertex -4.6194 -1.91342 4
    endloop
  endfacet
  facet normal 0 0 1
    outer loop
      vertex -2 0 4
      vertex -5 0 4
      vertex -4.90393 -0.975451 4
    endloop
  endfacet
  facet normal 0.773006 0.634398 -3.55747e-19
    outer loop
      vertex 4.15735 2.77785 4
      vertex 3.53553 3.53553 0
      vertex 3.53553 3.53553 4
    endloop
  endfacet
  facet normal 0.773006 0.634398 -3.55747e-19
    outer loop
      vertex 3.53553 3.53553 0
      vertex 4.15735 2.77785 4
      vertex 4.15735 2.77785 0
    endloop
  endfacet
  facet normal -0.773006 0.634398 3.55747e-19
    outer loop
      vertex -4.15735 2.77785 0
      vertex -3.53553 3.53553 4
      vertex -3.53553 3.53553 0
    endloop
  endfacet
  facet normal -0.773006 0.634398 3.55747e-19
    outer loop
      vertex -3.53553 3.53553 4
      vertex -4.15735 2.77785 0
      vertex -4.15735 2.77785 4
    endloop
  endfacet
  facet normal -0.88192 -0.471399 -4.55475e-18
    outer loop
      vertex -4.15735 -2.77785 0
      vertex -4.6194 -1.91342 4
      vertex -4.6194 -1.91342 0
    endloop
  endfacet
  facet normal -0.88192 -0.471399 -4.55475e-18
    outer loop
      vertex -4.6194 -1.91342 4
      vertex -4.15735 -2.77785 0
      vertex -4.15735 -2.77785 4
    endloop
  endfacet
  facet normal 0.88192 -0.471399 4.55475e-18
    outer loop
      vertex 4.15735 -2.77785 4
      vertex 4.6194 -1.91342 0
      vertex 4.6194 -1.91342 4
    endloop
  endfacet
  facet normal 0.88192 -0.471399 4.55475e-18
    outer loop
      vertex 4.6194 -1.91342 0
      vertex 4.15735 -2.77785 4
      vertex 4.15735 -2.77785 0
    endloop
  endfacet
  facet normal -0.290285 0.95694 0
    outer loop
      vertex -0.975451 4.90393 0
      vertex -1.91342 4.6194 4
      vertex -0.975451 4.90393 4
    endloop
  endfacet
  facet normal -0.290285 0.95694 0
    outer loop
      vertex -1.91342 4.6194 4
      vertex -0.975451 4.90393 0
      vertex -1.91342 4.6194 0
    endloop
  endfacet
  facet normal 0.290285 -0.95694 0
    outer loop
      vertex 0.975451 -4.90393 0
      vertex 1.91342 -4.6194 4
      vertex 0.975451 -4.90393 4
    endloop
  endfacet
  facet normal 0.290285 -0.95694 0
    outer loop
      vertex 1.91342 -4.6194 4
      vertex 0.975451 -4.90393 0
      vertex 1.91342 -4.6194 0
    endloop
  endfacet
  facet normal 0.634398 0.773006 -0
    outer loop
      vertex 3.53553 3.53553 0
      vertex 2.77785 4.15735 4
      vertex 3.53553 3.53553 4
    endloop
  endfacet
  facet normal 0.634398 0.773006 0
    outer loop
      vertex 2.77785 4.15735 4
      vertex 3.53553 3.53553 0
      vertex 2.77785 4.15735 0
    endloop
  endfacet
  facet normal -0.0980136 0.995185 0
    outer loop
      vertex 0 5 0
      vertex -0.975451 4.90393 4
      vertex 0 5 4
    endloop
  endfacet
  facet normal -0.0980136 0.995185 0
    outer loop
      vertex -0.975451 4.90393 4
      vertex 0 5 0
      vertex -0.975451 4.90393 0
    endloop
  endfacet
  facet normal 0.634398 -0.773006 0
    outer loop
      vertex 2.77785 -4.15735 0
      vertex 3.53553 -3.53553 4
      vertex 2.77785 -4.15735 4
    endloop
  endfacet
  facet normal 0.634398 -0.773006 0
    outer loop
      vertex 3.53553 -3.53553 4
      vertex 2.77785 -4.15735 0
      vertex 3.53553 -3.53553 0
    endloop
  endfacet
  facet normal 0.471399 -0.88192 0
    outer loop
      vertex 1.91342 -4.6194 0
      vertex 2.77785 -4.15735 4
      vertex 1.91342 -4.6194 4
    endloop
  endfacet
  facet normal 0.471399 -0.88192 0
    outer loop
      vertex 2.77785 -4.15735 4
      vertex 1.91342 -4.6194 0
      vertex 2.77785 -4.15735 0
    endloop
  endfacet
  facet normal -0.634398 -0.773006 0
    outer loop
      vertex -3.53553 -3.53553 0
      vertex -2.77785 -4.15735 4
      vertex -3.53553 -3.53553 4
    endloop
  endfacet
  facet normal -0.634398 -0.773006 -0
    outer loop
      vertex -2.77785 -4.15735 4
      vertex -3.53553 -3.53553 0
      vertex -2.77785 -4.15735 0
    endloop
  endfacet
  facet normal 0 0 -1
    outer loop
      vertex 2 0 0
      vertex 5 0 0
      vertex 4.90393 -0.975451 0
    endloop
  endfacet
  facet normal 0 0 -1
    outer loop
      vertex 1.93185 -0.517637 0
      vertex 4.90393 -0.975451 0
      vertex 4.6194 -1.91342 0
    endloop
  endfacet
  facet normal 0 0 -1
    outer loop
      vertex 5 0 0
      vertex 2 0 0
      vertex 4.90393 0.975451 0
    endloop
  endfacet
  facet normal 0 0 -1
    outer loop
      vertex 1.73205 -1 0
      vertex 4.6194 -1.91342 0
      vertex 4.15735 -2.77785 0
    endloop
  endfacet
  facet normal 0 0 -1
    outer loop
      vertex 1.93185 0.517637 0
      vertex 4.90393 0.975451 0
      vertex 2 0 0
    endloop
  endfacet
  facet normal 0 0 -1
    outer loop
      vertex 1.41421 -1.41421 0
      vertex 4.15735 -2.77785 0
      vertex 3.53553 -3.53553 0
    endloop
  endfacet
  facet normal -0 0 -1
    outer loop
      vertex 4.90393 0.975451 0
      vertex 1.93185 0.517637 0
      vertex 4.6194 1.91342 0
    endloop
  endfacet
  facet normal 0 0 -1
    outer loop
      vertex 1.41421 -1.41421 0
      vertex 3.53553 -3.53553 0
      vertex 2.77785 -4.15735 0
    endloop
  endfacet
  facet normal 0 0 -1
    outer loop
      vertex 1.73205 1 0
      vertex 4.6194 1.91342 0
      vertex 1.93185 0.517637 0
    endloop
  endfacet
  facet normal -0 0 -1
    outer loop
      vertex 4.6194 1.91342 0
      vertex 1.73205 1 0
      vertex 4.15735 2.77785 0
    endloop
  endfacet
  facet normal 0 0 -1
    outer loop
      vertex 4.90393 -0.975451 0
      vertex 1.93185 -0.517637 0
      vertex 2 0 0
    endloop
  endfacet
  facet normal 0 0 -1
    outer loop
      vertex 1 -1.73205 0
      vertex 2.77785 -4.15735 0
      vertex 1.91342 -4.6194 0
    endloop
  endfacet
  facet normal 0 0 -1
    outer loop
      vertex 4.6194 -1.91342 0
      vertex 1.73205 -1 0
      vertex 1.93185 -0.517637 0
    endloop
  endfacet
  facet normal 0 0 -1
    outer loop
      vertex 4.15735 -2.77785 0
      vertex 1.41421 -1.41421 0
      vertex 1.73205 -1 0
    endloop
  endfacet
  facet normal 0 0 -1
    outer loop
      vertex 2.77785 -4.15735 0
      vertex 1 -1.73205 0
      vertex 1.41421 -1.41421 0
    endloop
  endfacet
  facet normal 0 0 -1
    outer loop
      vertex 0.517637 -1.93185 0
      vertex 1.91342 -4.6194 0
      vertex 0.975451 -4.90393 0
    endloop
  endfacet
  facet normal 0 0 -1
    outer loop
      vertex 1.91342 -4.6194 0
      vertex 0.517637 -1.93185 0
      vertex 1 -1.73205 0
    endloop
  endfacet
  facet normal 0 0 -1
    outer loop
      vertex 0 -2 0
      vertex 0.975451 -4.90393 0
      vertex 0 -5 0
    endloop
  endfacet
  facet normal 0 0 -1
    outer loop
      vertex 0.975451 -4.90393 0
      vertex 0 -2 0
      vertex 0.517637 -1.93185 0
    endloop
  endfacet
  facet normal 0 0 -1
    outer loop
      vertex -0.975451 -4.90393 0
      vertex 0 -2 0
      vertex 0 -5 0
    endloop
  endfacet
  facet normal -0 0 -1
    outer loop
      vertex 0 -2 0
      vertex -0.975451 -4.90393 0
      vertex -0.517637 -1.93185 0
    endloop
  endfacet
  facet normal 0 0 -1
    outer loop
      vertex -1.91342 -4.6194 0
      vertex -0.517637 -1.93185 0
      vertex -0.975451 -4.90393 0
    endloop
  endfacet
  facet normal -0 0 -1
    outer loop
      vertex -0.517637 -1.93185 0
      vertex -1.91342 -4.6194 0
      vertex -1 -1.73205 0
    endloop
  endfacet
  facet normal 0 0 -1
    outer loop
      vertex -2.77785 -4.15735 0
      vertex -1 -1.73205 0
      vertex -1.91342 -4.6194 0
    endloop
  endfacet
  facet normal -0 0 -1
    outer loop
      vertex -1 -1.73205 0
      vertex -2.77785 -4.15735 0
      vertex -1.41421 -1.41421 0
    endloop
  endfacet
  facet normal 0 0 -1
    outer loop
      vertex -3.53553 -3.53553 0
      vertex -1.41421 -1.41421 0
      vertex -2.77785 -4.15735 0
    endloop
  endfacet
  facet normal 0 0 -1
    outer loop
      vertex -4.15735 -2.77785 0
      vertex -1.41421 -1.41421 0
      vertex -3.53553 -3.53553 0
    endloop
  endfacet
  facet normal -0 0 -1
    outer loop
      vertex -1.41421 -1.41421 0
      vertex -4.15735 -2.77785 0
      vertex -1.73205 -1 0
    endloop
  endfacet
  facet normal 0 0 -1
    outer loop
      vertex 1.41421 1.41421 0
      vertex 4.15735 2.77785 0
      vertex 1.73205 1 0
    endloop
  endfacet
  facet normal -0 0 -1
    outer loop
      vertex 4.15735 2.77785 0
      vertex 1.41421 1.41421 0
      vertex 3.53553 3.53553 0
    endloop
  endfacet
  facet normal -0 0 -1
    outer loop
      vertex 3.53553 3.53553 0
      vertex 1.41421 1.41421 0
      vertex 2.77785 4.15735 0
    endloop
  endfacet
  facet normal 0 0 -1
    outer loop
      vertex 1 1.73205 0
      vertex 2.77785 4.15735 0
      vertex 1.41421 1.41421 0
    endloop
  endfacet
  facet normal -0 0 -1
    outer loop
      vertex 2.77785 4.15735 0
      vertex 1 1.73205 0
      vertex 1.91342 4.6194 0
    endloop
  endfacet
  facet normal 0 0 -1
    outer loop
      vertex 0.517637 1.93185 0
      vertex 1.91342 4.6194 0
      vertex 1 1.73205 0
    endloop
  endfacet
  facet normal -0 0 -1
    outer loop
      vertex 1.91342 4.6194 0
      vertex 0.517637 1.93185 0
      vertex 0.975451 4.90393 0
    endloop
  endfacet
  facet normal 0 0 -1
    outer loop
      vertex 0 2 0
      vertex 0.975451 4.90393 0
      vertex 0.517637 1.93185 0
    endloop
  endfacet
  facet normal 0 0 -1
    outer loop
      vertex 0 2 0
      vertex 0 5 0
      vertex 0.975451 4.90393 0
    endloop
  endfacet
  facet normal 0 0 -1
    outer loop
      vertex -0.975451 4.90393 0
      vertex 0 2 0
      vertex -0.517637 1.93185 0
    endloop
  endfacet
  facet normal 0 0 -1
    outer loop
      vertex 0 2 0
      vertex -0.975451 4.90393 0
      vertex 0 5 0
    endloop
  endfacet
  facet normal 0 0 -1
    outer loop
      vertex -1.91342 4.6194 0
      vertex -0.517637 1.93185 0
      vertex -1 1.73205 0
    endloop
  endfacet
  facet normal 0 0 -1
    outer loop
      vertex -2.77785 4.15735 0
      vertex -1 1.73205 0
      vertex -1.41421 1.41421 0
    endloop
  endfacet
  facet normal 0 0 -1
    outer loop
      vertex -4.15735 2.77785 0
      vertex -1.41421 1.41421 0
      vertex -1.73205 1 0
    endloop
  endfacet
  facet normal 0 0 -1
    outer loop
      vertex -0.517637 1.93185 0
      vertex -1.91342 4.6194 0
      vertex -0.975451 4.90393 0
    endloop
  endfacet
  facet normal 0 0 -1
    outer loop
      vertex -4.6194 1.91342 0
      vertex -1.73205 1 0
      vertex -1.93185 0.517637 0
    endloop
  endfacet
  facet normal 0 0 -1
    outer loop
      vertex -4.90393 0.975451 0
      vertex -1.93185 0.517637 0
      vertex -2 0 0
    endloop
  endfacet
  facet normal 0 0 -1
    outer loop
      vertex -4.6194 -1.91342 0
      vertex -1.73205 -1 0
      vertex -4.15735 -2.77785 0
    endloop
  endfacet
  facet normal 0 0 -1
    outer loop
      vertex -1 1.73205 0
      vertex -2.77785 4.15735 0
      vertex -1.91342 4.6194 0
    endloop
  endfacet
  facet normal -0 0 -1
    outer loop
      vertex -1.73205 -1 0
      vertex -4.6194 -1.91342 0
      vertex -1.93185 -0.517637 0
    endloop
  endfacet
  facet normal 0 0 -1
    outer loop
      vertex -1.41421 1.41421 0
      vertex -3.53553 3.53553 0
      vertex -2.77785 4.15735 0
    endloop
  endfacet
  facet normal 0 0 -1
    outer loop
      vertex -4.90393 -0.975451 0
      vertex -1.93185 -0.517637 0
      vertex -4.6194 -1.91342 0
    endloop
  endfacet
  facet normal 0 0 -1
    outer loop
      vertex -1.41421 1.41421 0
      vertex -4.15735 2.77785 0
      vertex -3.53553 3.53553 0
    endloop
  endfacet
  facet normal -0 0 -1
    outer loop
      vertex -1.93185 -0.517637 0
      vertex -4.90393 -0.975451 0
      vertex -2 0 0
    endloop
  endfacet
  facet normal 0 0 -1
    outer loop
      vertex -1.73205 1 0
      vertex -4.6194 1.91342 0
      vertex -4.15735 2.77785 0
    endloop
  endfacet
  facet normal 0 0 -1
    outer loop
      vertex -5 0 0
      vertex -2 0 0
      vertex -4.90393 -0.975451 0
    endloop
  endfacet
  facet normal 0 0 -1
    outer loop
      vertex -1.93185 0.517637 0
      vertex -4.90393 0.975451 0
      vertex -4.6194 1.91342 0
    endloop
  endfacet
  facet normal 0 0 -1
    outer loop
      vertex -2 0 0
      vertex -5 0 0
      vertex -4.90393 0.975451 0
    endloop
  endfacet
  facet normal 0.773006 -0.634398 3.55747e-19
    outer loop
      vertex 3.53553 -3.53553 4
      vertex 4.15735 -2.77785 0
      vertex 4.15735 -2.77785 4
    endloop
  endfacet
  facet normal 0.773006 -0.634398 3.55747e-19
    outer loop
      vertex 4.15735 -2.77785 0
      vertex 3.53553 -3.53553 4
      vertex 3.53553 -3.53553 0
    endloop
  endfacet
  facet normal -0.995185 0.0980136 3.82635e-20
    outer loop
      vertex -5 0 0
      vertex -4.90393 0.975451 4
      vertex -4.90393 0.975451 0
    endloop
  endfacet
  facet normal -0.995185 0.0980136 3.82635e-20
    outer loop
      vertex -4.90393 0.975451 4
      vertex -5 0 0
      vertex -5 0 4
    endloop
  endfacet
  facet normal -0.471399 0.88192 0
    outer loop
      vertex -1.91342 4.6194 0
      vertex -2.77785 4.15735 4
      vertex -1.91342 4.6194 4
    endloop
  endfacet
  facet normal -0.471399 0.88192 0
    outer loop
      vertex -2.77785 4.15735 4
      vertex -1.91342 4.6194 0
      vertex -2.77785 4.15735 0
    endloop
  endfacet
  facet normal 0.471399 0.88192 -0
    outer loop
      vertex 2.77785 4.15735 0
      vertex 1.91342 4.6194 4
      vertex 2.77785 4.15735 4
    endloop
  endfacet
  facet normal 0.471399 0.88192 0
    outer loop
      vertex 1.91342 4.6194 4
      vertex 2.77785 4.15735 0
      vertex 1.91342 4.6194 0
    endloop
  endfacet
  facet normal 0.290285 0.95694 -0
    outer loop
      vertex 1.91342 4.6194 0
      vertex 0.975451 4.90393 4
      vertex 1.91342 4.6194 4
    endloop
  endfacet
  facet normal 0.290285 0.95694 0
    outer loop
      vertex 0.975451 4.90393 4
      vertex 1.91342 4.6194 0
      vertex 0.975451 4.90393 0
    endloop
  endfacet
  facet normal -0.95694 0.290285 2.36206e-18
    outer loop
      vertex -4.90393 0.975451 0
      vertex -4.6194 1.91342 4
      vertex -4.6194 1.91342 0
    endloop
  endfacet
  facet normal -0.95694 0.290285 2.36206e-18
    outer loop
      vertex -4.6194 1.91342 4
      vertex -4.90393 0.975451 0
      vertex -4.90393 0.975451 4
    endloop
  endfacet
  facet normal 0.0980136 -0.995185 0
    outer loop
      vertex 0 -5 0
      vertex 0.975451 -4.90393 4
      vertex 0 -5 4
    endloop
  endfacet
  facet normal 0.0980136 -0.995185 0
    outer loop
      vertex 0.975451 -4.90393 4
      vertex 0 -5 0
      vertex 0.975451 -4.90393 0
    endloop
  endfacet
  facet normal -0.88192 0.471399 4.55475e-18
    outer loop
      vertex -4.6194 1.91342 0
      vertex -4.15735 2.77785 4
      vertex -4.15735 2.77785 0
    endloop
  endfacet
  facet normal -0.88192 0.471399 4.55475e-18
    outer loop
      vertex -4.15735 2.77785 4
      vertex -4.6194 1.91342 0
      vertex -4.6194 1.91342 4
    endloop
  endfacet
  facet normal 0.95694 -0.290285 2.36206e-18
    outer loop
      vertex 4.6194 -1.91342 4
      vertex 4.90393 -0.975451 0
      vertex 4.90393 -0.975451 4
    endloop
  endfacet
  facet normal 0.95694 -0.290285 2.36206e-18
    outer loop
      vertex 4.90393 -0.975451 0
      vertex 4.6194 -1.91342 4
      vertex 4.6194 -1.91342 0
    endloop
  endfacet
  facet normal 0.995185 -0.0980136 3.82635e-20
    outer loop
      vertex 4.90393 -0.975451 4
      vertex 5 0 0
      vertex 5 0 4
    endloop
  endfacet
  facet normal 0.995185 -0.0980136 3.82635e-20
    outer loop
      vertex 5 0 0
      vertex 4.90393 -0.975451 4
      vertex 4.90393 -0.975451 0
    endloop
  endfacet
  facet normal -0.95694 -0.290285 -2.36206e-18
    outer loop
      vertex -4.6194 -1.91342 0
      vertex -4.90393 -0.975451 4
      vertex -4.90393 -0.975451 0
    endloop
  endfacet
  facet normal -0.95694 -0.290285 -2.36206e-18
    outer loop
      vertex -4.90393 -0.975451 4
      vertex -4.6194 -1.91342 0
      vertex -4.6194 -1.91342 4
    endloop
  endfacet
  facet normal -0.995185 -0.0980136 -3.82635e-20
    outer loop
      vertex -4.90393 -0.975451 0
      vertex -5 0 4
      vertex -5 0 0
    endloop
  endfacet
  facet normal -0.995185 -0.0980136 -3.82635e-20
    outer loop
      vertex -5 0 4
      vertex -4.90393 -0.975451 0
      vertex -4.90393 -0.975451 4
    endloop
  endfacet
  facet normal -0.773006 -0.634398 -3.55747e-19
    outer loop
      vertex -3.53553 -3.53553 0
      vertex -4.15735 -2.77785 4
      vertex -4.15735 -2.77785 0
    endloop
  endfacet
  facet normal -0.773006 -0.634398 -3.55747e-19
    outer loop
      vertex -4.15735 -2.77785 4
      vertex -3.53553 -3.53553 0
      vertex -3.53553 -3.53553 4
    endloop
  endfacet
  facet normal -0.471399 -0.88192 0
    outer loop
      vertex -2.77785 -4.15735 0
      vertex -1.91342 -4.6194 4
      vertex -2.77785 -4.15735 4
    endloop
  endfacet
  facet normal -0.471399 -0.88192 -0
    outer loop
      vertex -1.91342 -4.6194 4
      vertex -2.77785 -4.15735 0
      vertex -1.91342 -4.6194 0
    endloop
  endfacet
  facet normal -0.0980136 -0.995185 0
    outer loop
      vertex -0.975451 -4.90393 0
      vertex 0 -5 4
      vertex -0.975451 -4.90393 4
    endloop
  endfacet
  facet normal -0.0980136 -0.995185 -0
    outer loop
      vertex 0 -5 4
      vertex -0.975451 -4.90393 0
      vertex 0 -5 0
    endloop
  endfacet
  facet normal -0.290285 -0.95694 0
    outer loop
      vertex -1.91342 -4.6194 0
      vertex -0.975451 -4.90393 4
      vertex -1.91342 -4.6194 4
    endloop
  endfacet
  facet normal -0.290285 -0.95694 -0
    outer loop
      vertex -0.975451 -4.90393 4
      vertex -1.91342 -4.6194 0
      vertex -0.975451 -4.90393 0
    endloop
  endfacet
  facet normal 0.991444 -0.13053 6.84881e-19
    outer loop
      vertex -2 0 4
      vertex -1.93185 0.517637 0
      vertex -1.93185 0.517637 4
    endloop
  endfacet
  facet normal 0.991444 -0.13053 6.84881e-19
    outer loop
      vertex -1.93185 0.517637 0
      vertex -2 0 4
      vertex -2 0 0
    endloop
  endfacet
  facet normal -0.92388 -0.382681 -1.43298e-18
    outer loop
      vertex 1.93185 0.517637 0
      vertex 1.73205 1 4
      vertex 1.73205 1 0
    endloop
  endfacet
  facet normal -0.92388 -0.382681 -1.43298e-18
    outer loop
      vertex 1.73205 1 4
      vertex 1.93185 0.517637 0
      vertex 1.93185 0.517637 4
    endloop
  endfacet
  facet normal -0.991444 -0.13053 -6.84881e-19
    outer loop
      vertex 2 0 0
      vertex 1.93185 0.517637 4
      vertex 1.93185 0.517637 0
    endloop
  endfacet
  facet normal -0.991444 -0.13053 -6.84881e-19
    outer loop
      vertex 1.93185 0.517637 4
      vertex 2 0 0
      vertex 2 0 4
    endloop
  endfacet
  facet normal -0.793348 -0.608768 -2.24327e-18
    outer loop
      vertex 1.73205 1 0
      vertex 1.41421 1.41421 4
      vertex 1.41421 1.41421 0
    endloop
  endfacet
  facet normal -0.793348 -0.608768 -2.24327e-18
    outer loop
      vertex 1.41421 1.41421 4
      vertex 1.73205 1 0
      vertex 1.73205 1 4
    endloop
  endfacet
  facet normal -0.991444 0.13053 6.84881e-19
    outer loop
      vertex 1.93185 -0.517637 0
      vertex 2 0 4
      vertex 2 0 0
    endloop
  endfacet
  facet normal -0.991444 0.13053 6.84881e-19
    outer loop
      vertex 2 0 4
      vertex 1.93185 -0.517637 0
      vertex 1.93185 -0.517637 4
    endloop
  endfacet
  facet normal -0.13053 0.991444 0
    outer loop
      vertex 0.517637 -1.93185 0
      vertex 0 -2 4
      vertex 0.517637 -1.93185 4
    endloop
  endfacet
  facet normal -0.13053 0.991444 0
    outer loop
      vertex 0 -2 4
      vertex 0.517637 -1.93185 0
      vertex 0 -2 0
    endloop
  endfacet
  facet normal 0.92388 -0.382681 1.43298e-18
    outer loop
      vertex -1.93185 0.517637 4
      vertex -1.73205 1 0
      vertex -1.73205 1 4
    endloop
  endfacet
  facet normal 0.92388 -0.382681 1.43298e-18
    outer loop
      vertex -1.73205 1 0
      vertex -1.93185 0.517637 4
      vertex -1.93185 0.517637 0
    endloop
  endfacet
  facet normal -0.608768 0.793348 0
    outer loop
      vertex 1.41421 -1.41421 0
      vertex 1 -1.73205 4
      vertex 1.41421 -1.41421 4
    endloop
  endfacet
  facet normal -0.608768 0.793348 0
    outer loop
      vertex 1 -1.73205 4
      vertex 1.41421 -1.41421 0
      vertex 1 -1.73205 0
    endloop
  endfacet
  facet normal -0.382681 -0.92388 0
    outer loop
      vertex 0.517637 1.93185 0
      vertex 1 1.73205 4
      vertex 0.517637 1.93185 4
    endloop
  endfacet
  facet normal -0.382681 -0.92388 -0
    outer loop
      vertex 1 1.73205 4
      vertex 0.517637 1.93185 0
      vertex 1 1.73205 0
    endloop
  endfacet
  facet normal 0.793348 -0.608768 2.24327e-18
    outer loop
      vertex -1.73205 1 4
      vertex -1.41421 1.41421 0
      vertex -1.41421 1.41421 4
    endloop
  endfacet
  facet normal 0.793348 -0.608768 2.24327e-18
    outer loop
      vertex -1.41421 1.41421 0
      vertex -1.73205 1 4
      vertex -1.73205 1 0
    endloop
  endfacet
  facet normal 0.92388 0.382681 -1.43298e-18
    outer loop
      vertex -1.73205 -1 4
      vertex -1.93185 -0.517637 0
      vertex -1.93185 -0.517637 4
    endloop
  endfacet
  facet normal 0.92388 0.382681 -1.43298e-18
    outer loop
      vertex -1.93185 -0.517637 0
      vertex -1.73205 -1 4
      vertex -1.73205 -1 0
    endloop
  endfacet
  facet normal -0.13053 -0.991444 0
    outer loop
      vertex 0 2 0
      vertex 0.517637 1.93185 4
      vertex 0 2 4
    endloop
  endfacet
  facet normal -0.13053 -0.991444 -0
    outer loop
      vertex 0.517637 1.93185 4
      vertex 0 2 0
      vertex 0.517637 1.93185 0
    endloop
  endfacet
  facet normal 0.382681 -0.92388 0
    outer loop
      vertex -1 1.73205 0
      vertex -0.517637 1.93185 4
      vertex -1 1.73205 4
    endloop
  endfacet
  facet normal 0.382681 -0.92388 0
    outer loop
      vertex -0.517637 1.93185 4
      vertex -1 1.73205 0
      vertex -0.517637 1.93185 0
    endloop
  endfacet
  facet normal 0.13053 -0.991444 0
    outer loop
      vertex -0.517637 1.93185 0
      vertex 0 2 4
      vertex -0.517637 1.93185 4
    endloop
  endfacet
  facet normal 0.13053 -0.991444 0
    outer loop
      vertex 0 2 4
      vertex -0.517637 1.93185 0
      vertex 0 2 0
    endloop
  endfacet
  facet normal 0.608768 0.793348 -0
    outer loop
      vertex -1 -1.73205 0
      vertex -1.41421 -1.41421 4
      vertex -1 -1.73205 4
    endloop
  endfacet
  facet normal 0.608768 0.793348 0
    outer loop
      vertex -1.41421 -1.41421 4
      vertex -1 -1.73205 0
      vertex -1.41421 -1.41421 0
    endloop
  endfacet
  facet normal 0.608768 -0.793348 0
    outer loop
      vertex -1.41421 1.41421 0
      vertex -1 1.73205 4
      vertex -1.41421 1.41421 4
    endloop
  endfacet
  facet normal 0.608768 -0.793348 0
    outer loop
      vertex -1 1.73205 4
      vertex -1.41421 1.41421 0
      vertex -1 1.73205 0
    endloop
  endfacet
  facet normal -0.92388 0.382681 1.43298e-18
    outer loop
      vertex 1.73205 -1 0
      vertex 1.93185 -0.517637 4
      vertex 1.93185 -0.517637 0
    endloop
  endfacet
  facet normal -0.92388 0.382681 1.43298e-18
    outer loop
      vertex 1.93185 -0.517637 4
      vertex 1.73205 -1 0
      vertex 1.73205 -1 4
    endloop
  endfacet
  facet normal -0.793348 0.608768 2.24327e-18
    outer loop
      vertex 1.41421 -1.41421 0
      vertex 1.73205 -1 4
      vertex 1.73205 -1 0
    endloop
  endfacet
  facet normal -0.793348 0.608768 2.24327e-18
    outer loop
      vertex 1.73205 -1 4
      vertex 1.41421 -1.41421 0
      vertex 1.41421 -1.41421 4
    endloop
  endfacet
  facet normal -0.608768 -0.793348 0
    outer loop
      vertex 1 1.73205 0
      vertex 1.41421 1.41421 4
      vertex 1 1.73205 4
    endloop
  endfacet
  facet normal -0.608768 -0.793348 -0
    outer loop
      vertex 1.41421 1.41421 4
      vertex 1 1.73205 0
      vertex 1.41421 1.41421 0
    endloop
  endfacet
  facet normal 0.991444 0.13053 -6.84881e-19
    outer loop
      vertex -1.93185 -0.517637 4
      vertex -2 0 0
      vertex -2 0 4
    endloop
  endfacet
  facet normal 0.991444 0.13053 -6.84881e-19
    outer loop
      vertex -2 0 0
      vertex -1.93185 -0.517637 4
      vertex -1.93185 -0.517637 0
    endloop
  endfacet
  facet normal -0.382681 0.92388 0
    outer loop
      vertex 1 -1.73205 0
      vertex 0.517637 -1.93185 4
      vertex 1 -1.73205 4
    endloop
  endfacet
  facet normal -0.382681 0.92388 0
    outer loop
      vertex 0.517637 -1.93185 4
      vertex 1 -1.73205 0
      vertex 0.517637 -1.93185 0
    endloop
  endfacet
  facet normal 0.793348 0.608768 -2.24327e-18
    outer loop
      vertex -1.41421 -1.41421 4
      vertex -1.73205 -1 0
      vertex -1.73205 -1 4
    endloop
  endfacet
  facet normal 0.793348 0.608768 -2.24327e-18
    outer loop
      vertex -1.73205 -1 0
      vertex -1.41421 -1.41421 4
      vertex -1.41421 -1.41421 0
    endloop
  endfacet
  facet normal 0.382681 0.92388 -0
    outer loop
      vertex -0.517637 -1.93185 0
      vertex -1 -1.73205 4
      vertex -0.517637 -1.93185 4
    endloop
  endfacet
  facet normal 0.382681 0.92388 0
    outer loop
      vertex -1 -1.73205 4
      vertex -0.517637 -1.93185 0
      vertex -1 -1.73205 0
    endloop
  endfacet
  facet normal 0.13053 0.991444 -0
    outer loop
      vertex 0 -2 0
      vertex -0.517637 -1.93185 4
      vertex 0 -2 4
    endloop
  endfacet
  facet normal 0.13053 0.991444 0
    outer loop
      vertex -0.517637 -1.93185 4
      vertex 0 -2 0
      vertex -0.517637 -1.93185 0
    endloop
  endfacet
endsolid OpenSCAD_Model
