%TF.GenerationSoftware,KiCad,Pcbnew,9.0.9.1-unknown-202605141413~ce707d0a6c~ubuntu24.04.1*%
%TF.CreationDate,2026-09-12T18:13:10+00:00*%
%TF.ProjectId,spool-sentry,73706f6f-6c2d-4736-956e-7472792e6b69,rev?*%
%TF.SameCoordinates,Original*%
%TF.FileFunction,Legend,Top*%
%TF.FilePolarity,Positive*%
%FSLAX46Y46*%
G04 Gerber Fmt 4.6, Leading zero omitted, Abs format (unit mm)*
G04 Created by KiCad (PCBNEW 9.0.9.1-unknown-202605141413~ce707d0a6c~ubuntu24.04.1) date 2026-09-12 18:13:10*
%MOMM*%
%LPD*%
G01*
G04 APERTURE LIST*
%ADD10C,0.150000*%
%ADD11C,0.120000*%
G04 APERTURE END LIST*
D10*
X2461905Y-57062295D02*
X2461905Y-57709914D01*
X2461905Y-57709914D02*
X2500000Y-57786104D01*
X2500000Y-57786104D02*
X2538095Y-57824200D01*
X2538095Y-57824200D02*
X2614286Y-57862295D01*
X2614286Y-57862295D02*
X2766667Y-57862295D01*
X2766667Y-57862295D02*
X2842857Y-57824200D01*
X2842857Y-57824200D02*
X2880952Y-57786104D01*
X2880952Y-57786104D02*
X2919048Y-57709914D01*
X2919048Y-57709914D02*
X2919048Y-57062295D01*
X3261904Y-57824200D02*
X3376190Y-57862295D01*
X3376190Y-57862295D02*
X3566666Y-57862295D01*
X3566666Y-57862295D02*
X3642857Y-57824200D01*
X3642857Y-57824200D02*
X3680952Y-57786104D01*
X3680952Y-57786104D02*
X3719047Y-57709914D01*
X3719047Y-57709914D02*
X3719047Y-57633723D01*
X3719047Y-57633723D02*
X3680952Y-57557533D01*
X3680952Y-57557533D02*
X3642857Y-57519438D01*
X3642857Y-57519438D02*
X3566666Y-57481342D01*
X3566666Y-57481342D02*
X3414285Y-57443247D01*
X3414285Y-57443247D02*
X3338095Y-57405152D01*
X3338095Y-57405152D02*
X3300000Y-57367057D01*
X3300000Y-57367057D02*
X3261904Y-57290866D01*
X3261904Y-57290866D02*
X3261904Y-57214676D01*
X3261904Y-57214676D02*
X3300000Y-57138485D01*
X3300000Y-57138485D02*
X3338095Y-57100390D01*
X3338095Y-57100390D02*
X3414285Y-57062295D01*
X3414285Y-57062295D02*
X3604762Y-57062295D01*
X3604762Y-57062295D02*
X3719047Y-57100390D01*
X4328571Y-57443247D02*
X4442857Y-57481342D01*
X4442857Y-57481342D02*
X4480952Y-57519438D01*
X4480952Y-57519438D02*
X4519048Y-57595628D01*
X4519048Y-57595628D02*
X4519048Y-57709914D01*
X4519048Y-57709914D02*
X4480952Y-57786104D01*
X4480952Y-57786104D02*
X4442857Y-57824200D01*
X4442857Y-57824200D02*
X4366667Y-57862295D01*
X4366667Y-57862295D02*
X4061905Y-57862295D01*
X4061905Y-57862295D02*
X4061905Y-57062295D01*
X4061905Y-57062295D02*
X4328571Y-57062295D01*
X4328571Y-57062295D02*
X4404762Y-57100390D01*
X4404762Y-57100390D02*
X4442857Y-57138485D01*
X4442857Y-57138485D02*
X4480952Y-57214676D01*
X4480952Y-57214676D02*
X4480952Y-57290866D01*
X4480952Y-57290866D02*
X4442857Y-57367057D01*
X4442857Y-57367057D02*
X4404762Y-57405152D01*
X4404762Y-57405152D02*
X4328571Y-57443247D01*
X4328571Y-57443247D02*
X4061905Y-57443247D01*
X5852381Y-57062295D02*
X5471429Y-57062295D01*
X5471429Y-57062295D02*
X5433333Y-57443247D01*
X5433333Y-57443247D02*
X5471429Y-57405152D01*
X5471429Y-57405152D02*
X5547619Y-57367057D01*
X5547619Y-57367057D02*
X5738095Y-57367057D01*
X5738095Y-57367057D02*
X5814286Y-57405152D01*
X5814286Y-57405152D02*
X5852381Y-57443247D01*
X5852381Y-57443247D02*
X5890476Y-57519438D01*
X5890476Y-57519438D02*
X5890476Y-57709914D01*
X5890476Y-57709914D02*
X5852381Y-57786104D01*
X5852381Y-57786104D02*
X5814286Y-57824200D01*
X5814286Y-57824200D02*
X5738095Y-57862295D01*
X5738095Y-57862295D02*
X5547619Y-57862295D01*
X5547619Y-57862295D02*
X5471429Y-57824200D01*
X5471429Y-57824200D02*
X5433333Y-57786104D01*
X6119048Y-57062295D02*
X6385715Y-57862295D01*
X6385715Y-57862295D02*
X6652381Y-57062295D01*
X5028571Y-38824200D02*
X5142857Y-38862295D01*
X5142857Y-38862295D02*
X5333333Y-38862295D01*
X5333333Y-38862295D02*
X5409524Y-38824200D01*
X5409524Y-38824200D02*
X5447619Y-38786104D01*
X5447619Y-38786104D02*
X5485714Y-38709914D01*
X5485714Y-38709914D02*
X5485714Y-38633723D01*
X5485714Y-38633723D02*
X5447619Y-38557533D01*
X5447619Y-38557533D02*
X5409524Y-38519438D01*
X5409524Y-38519438D02*
X5333333Y-38481342D01*
X5333333Y-38481342D02*
X5180952Y-38443247D01*
X5180952Y-38443247D02*
X5104762Y-38405152D01*
X5104762Y-38405152D02*
X5066667Y-38367057D01*
X5066667Y-38367057D02*
X5028571Y-38290866D01*
X5028571Y-38290866D02*
X5028571Y-38214676D01*
X5028571Y-38214676D02*
X5066667Y-38138485D01*
X5066667Y-38138485D02*
X5104762Y-38100390D01*
X5104762Y-38100390D02*
X5180952Y-38062295D01*
X5180952Y-38062295D02*
X5371429Y-38062295D01*
X5371429Y-38062295D02*
X5485714Y-38100390D01*
X5828572Y-38862295D02*
X5828572Y-38062295D01*
X5828572Y-38062295D02*
X6019048Y-38062295D01*
X6019048Y-38062295D02*
X6133334Y-38100390D01*
X6133334Y-38100390D02*
X6209524Y-38176580D01*
X6209524Y-38176580D02*
X6247619Y-38252771D01*
X6247619Y-38252771D02*
X6285715Y-38405152D01*
X6285715Y-38405152D02*
X6285715Y-38519438D01*
X6285715Y-38519438D02*
X6247619Y-38671819D01*
X6247619Y-38671819D02*
X6209524Y-38748009D01*
X6209524Y-38748009D02*
X6133334Y-38824200D01*
X6133334Y-38824200D02*
X6019048Y-38862295D01*
X6019048Y-38862295D02*
X5828572Y-38862295D01*
X6590476Y-38633723D02*
X6971429Y-38633723D01*
X6514286Y-38862295D02*
X6780953Y-38062295D01*
X6780953Y-38062295D02*
X7047619Y-38862295D01*
X5371428Y-21362295D02*
X4990476Y-21362295D01*
X4990476Y-21362295D02*
X4990476Y-20562295D01*
X5790476Y-20562295D02*
X5942857Y-20562295D01*
X5942857Y-20562295D02*
X6019047Y-20600390D01*
X6019047Y-20600390D02*
X6095238Y-20676580D01*
X6095238Y-20676580D02*
X6133333Y-20828961D01*
X6133333Y-20828961D02*
X6133333Y-21095628D01*
X6133333Y-21095628D02*
X6095238Y-21248009D01*
X6095238Y-21248009D02*
X6019047Y-21324200D01*
X6019047Y-21324200D02*
X5942857Y-21362295D01*
X5942857Y-21362295D02*
X5790476Y-21362295D01*
X5790476Y-21362295D02*
X5714285Y-21324200D01*
X5714285Y-21324200D02*
X5638095Y-21248009D01*
X5638095Y-21248009D02*
X5599999Y-21095628D01*
X5599999Y-21095628D02*
X5599999Y-20828961D01*
X5599999Y-20828961D02*
X5638095Y-20676580D01*
X5638095Y-20676580D02*
X5714285Y-20600390D01*
X5714285Y-20600390D02*
X5790476Y-20562295D01*
X6438094Y-21133723D02*
X6819047Y-21133723D01*
X6361904Y-21362295D02*
X6628571Y-20562295D01*
X6628571Y-20562295D02*
X6895237Y-21362295D01*
X7161904Y-21362295D02*
X7161904Y-20562295D01*
X7161904Y-20562295D02*
X7352380Y-20562295D01*
X7352380Y-20562295D02*
X7466666Y-20600390D01*
X7466666Y-20600390D02*
X7542856Y-20676580D01*
X7542856Y-20676580D02*
X7580951Y-20752771D01*
X7580951Y-20752771D02*
X7619047Y-20905152D01*
X7619047Y-20905152D02*
X7619047Y-21019438D01*
X7619047Y-21019438D02*
X7580951Y-21171819D01*
X7580951Y-21171819D02*
X7542856Y-21248009D01*
X7542856Y-21248009D02*
X7466666Y-21324200D01*
X7466666Y-21324200D02*
X7352380Y-21362295D01*
X7352380Y-21362295D02*
X7161904Y-21362295D01*
X9028571Y-21286104D02*
X8990475Y-21324200D01*
X8990475Y-21324200D02*
X8876190Y-21362295D01*
X8876190Y-21362295D02*
X8799999Y-21362295D01*
X8799999Y-21362295D02*
X8685713Y-21324200D01*
X8685713Y-21324200D02*
X8609523Y-21248009D01*
X8609523Y-21248009D02*
X8571428Y-21171819D01*
X8571428Y-21171819D02*
X8533332Y-21019438D01*
X8533332Y-21019438D02*
X8533332Y-20905152D01*
X8533332Y-20905152D02*
X8571428Y-20752771D01*
X8571428Y-20752771D02*
X8609523Y-20676580D01*
X8609523Y-20676580D02*
X8685713Y-20600390D01*
X8685713Y-20600390D02*
X8799999Y-20562295D01*
X8799999Y-20562295D02*
X8876190Y-20562295D01*
X8876190Y-20562295D02*
X8990475Y-20600390D01*
X8990475Y-20600390D02*
X9028571Y-20638485D01*
X9371428Y-20943247D02*
X9638094Y-20943247D01*
X9752380Y-21362295D02*
X9371428Y-21362295D01*
X9371428Y-21362295D02*
X9371428Y-20562295D01*
X9371428Y-20562295D02*
X9752380Y-20562295D01*
X10476190Y-21362295D02*
X10095238Y-21362295D01*
X10095238Y-21362295D02*
X10095238Y-20562295D01*
X11123809Y-21362295D02*
X10742857Y-21362295D01*
X10742857Y-21362295D02*
X10742857Y-20562295D01*
X7547618Y-38824200D02*
X7661904Y-38862295D01*
X7661904Y-38862295D02*
X7852380Y-38862295D01*
X7852380Y-38862295D02*
X7928571Y-38824200D01*
X7928571Y-38824200D02*
X7966666Y-38786104D01*
X7966666Y-38786104D02*
X8004761Y-38709914D01*
X8004761Y-38709914D02*
X8004761Y-38633723D01*
X8004761Y-38633723D02*
X7966666Y-38557533D01*
X7966666Y-38557533D02*
X7928571Y-38519438D01*
X7928571Y-38519438D02*
X7852380Y-38481342D01*
X7852380Y-38481342D02*
X7699999Y-38443247D01*
X7699999Y-38443247D02*
X7623809Y-38405152D01*
X7623809Y-38405152D02*
X7585714Y-38367057D01*
X7585714Y-38367057D02*
X7547618Y-38290866D01*
X7547618Y-38290866D02*
X7547618Y-38214676D01*
X7547618Y-38214676D02*
X7585714Y-38138485D01*
X7585714Y-38138485D02*
X7623809Y-38100390D01*
X7623809Y-38100390D02*
X7699999Y-38062295D01*
X7699999Y-38062295D02*
X7890476Y-38062295D01*
X7890476Y-38062295D02*
X8004761Y-38100390D01*
X8804762Y-38786104D02*
X8766666Y-38824200D01*
X8766666Y-38824200D02*
X8652381Y-38862295D01*
X8652381Y-38862295D02*
X8576190Y-38862295D01*
X8576190Y-38862295D02*
X8461904Y-38824200D01*
X8461904Y-38824200D02*
X8385714Y-38748009D01*
X8385714Y-38748009D02*
X8347619Y-38671819D01*
X8347619Y-38671819D02*
X8309523Y-38519438D01*
X8309523Y-38519438D02*
X8309523Y-38405152D01*
X8309523Y-38405152D02*
X8347619Y-38252771D01*
X8347619Y-38252771D02*
X8385714Y-38176580D01*
X8385714Y-38176580D02*
X8461904Y-38100390D01*
X8461904Y-38100390D02*
X8576190Y-38062295D01*
X8576190Y-38062295D02*
X8652381Y-38062295D01*
X8652381Y-38062295D02*
X8766666Y-38100390D01*
X8766666Y-38100390D02*
X8804762Y-38138485D01*
X9528571Y-38862295D02*
X9147619Y-38862295D01*
X9147619Y-38862295D02*
X9147619Y-38062295D01*
X14533333Y-69362295D02*
X14800000Y-70162295D01*
X14800000Y-70162295D02*
X15066666Y-69362295D01*
X15599999Y-69743247D02*
X15714285Y-69781342D01*
X15714285Y-69781342D02*
X15752380Y-69819438D01*
X15752380Y-69819438D02*
X15790476Y-69895628D01*
X15790476Y-69895628D02*
X15790476Y-70009914D01*
X15790476Y-70009914D02*
X15752380Y-70086104D01*
X15752380Y-70086104D02*
X15714285Y-70124200D01*
X15714285Y-70124200D02*
X15638095Y-70162295D01*
X15638095Y-70162295D02*
X15333333Y-70162295D01*
X15333333Y-70162295D02*
X15333333Y-69362295D01*
X15333333Y-69362295D02*
X15599999Y-69362295D01*
X15599999Y-69362295D02*
X15676190Y-69400390D01*
X15676190Y-69400390D02*
X15714285Y-69438485D01*
X15714285Y-69438485D02*
X15752380Y-69514676D01*
X15752380Y-69514676D02*
X15752380Y-69590866D01*
X15752380Y-69590866D02*
X15714285Y-69667057D01*
X15714285Y-69667057D02*
X15676190Y-69705152D01*
X15676190Y-69705152D02*
X15599999Y-69743247D01*
X15599999Y-69743247D02*
X15333333Y-69743247D01*
X16133333Y-69362295D02*
X16133333Y-70009914D01*
X16133333Y-70009914D02*
X16171428Y-70086104D01*
X16171428Y-70086104D02*
X16209523Y-70124200D01*
X16209523Y-70124200D02*
X16285714Y-70162295D01*
X16285714Y-70162295D02*
X16438095Y-70162295D01*
X16438095Y-70162295D02*
X16514285Y-70124200D01*
X16514285Y-70124200D02*
X16552380Y-70086104D01*
X16552380Y-70086104D02*
X16590476Y-70009914D01*
X16590476Y-70009914D02*
X16590476Y-69362295D01*
X16933332Y-70124200D02*
X17047618Y-70162295D01*
X17047618Y-70162295D02*
X17238094Y-70162295D01*
X17238094Y-70162295D02*
X17314285Y-70124200D01*
X17314285Y-70124200D02*
X17352380Y-70086104D01*
X17352380Y-70086104D02*
X17390475Y-70009914D01*
X17390475Y-70009914D02*
X17390475Y-69933723D01*
X17390475Y-69933723D02*
X17352380Y-69857533D01*
X17352380Y-69857533D02*
X17314285Y-69819438D01*
X17314285Y-69819438D02*
X17238094Y-69781342D01*
X17238094Y-69781342D02*
X17085713Y-69743247D01*
X17085713Y-69743247D02*
X17009523Y-69705152D01*
X17009523Y-69705152D02*
X16971428Y-69667057D01*
X16971428Y-69667057D02*
X16933332Y-69590866D01*
X16933332Y-69590866D02*
X16933332Y-69514676D01*
X16933332Y-69514676D02*
X16971428Y-69438485D01*
X16971428Y-69438485D02*
X17009523Y-69400390D01*
X17009523Y-69400390D02*
X17085713Y-69362295D01*
X17085713Y-69362295D02*
X17276190Y-69362295D01*
X17276190Y-69362295D02*
X17390475Y-69400390D01*
X9404761Y-27633723D02*
X9785714Y-27633723D01*
X9328571Y-27862295D02*
X9595238Y-27062295D01*
X9595238Y-27062295D02*
X9861904Y-27862295D01*
X10128571Y-27862295D02*
X10128571Y-27062295D01*
X10128571Y-27062295D02*
X10585714Y-27862295D01*
X10585714Y-27862295D02*
X10585714Y-27062295D01*
X10852380Y-27062295D02*
X11309523Y-27062295D01*
X11080951Y-27862295D02*
X11080951Y-27062295D01*
X11576190Y-27443247D02*
X11842856Y-27443247D01*
X11957142Y-27862295D02*
X11576190Y-27862295D01*
X11576190Y-27862295D02*
X11576190Y-27062295D01*
X11576190Y-27062295D02*
X11957142Y-27062295D01*
X12300000Y-27862295D02*
X12300000Y-27062295D01*
X12300000Y-27062295D02*
X12757143Y-27862295D01*
X12757143Y-27862295D02*
X12757143Y-27062295D01*
X13138095Y-27862295D02*
X13138095Y-27062295D01*
X13138095Y-27062295D02*
X13595238Y-27862295D01*
X13595238Y-27862295D02*
X13595238Y-27062295D01*
X13938094Y-27633723D02*
X14319047Y-27633723D01*
X13861904Y-27862295D02*
X14128571Y-27062295D01*
X14128571Y-27062295D02*
X14395237Y-27862295D01*
X15271428Y-27862295D02*
X15271428Y-27062295D01*
X15728571Y-27862295D02*
X15385713Y-27405152D01*
X15728571Y-27062295D02*
X15271428Y-27519438D01*
X16071428Y-27443247D02*
X16338094Y-27443247D01*
X16452380Y-27862295D02*
X16071428Y-27862295D01*
X16071428Y-27862295D02*
X16071428Y-27062295D01*
X16071428Y-27062295D02*
X16452380Y-27062295D01*
X16795238Y-27443247D02*
X17061904Y-27443247D01*
X17176190Y-27862295D02*
X16795238Y-27862295D01*
X16795238Y-27862295D02*
X16795238Y-27062295D01*
X16795238Y-27062295D02*
X17176190Y-27062295D01*
X17519048Y-27862295D02*
X17519048Y-27062295D01*
X17519048Y-27062295D02*
X17823810Y-27062295D01*
X17823810Y-27062295D02*
X17900000Y-27100390D01*
X17900000Y-27100390D02*
X17938095Y-27138485D01*
X17938095Y-27138485D02*
X17976191Y-27214676D01*
X17976191Y-27214676D02*
X17976191Y-27328961D01*
X17976191Y-27328961D02*
X17938095Y-27405152D01*
X17938095Y-27405152D02*
X17900000Y-27443247D01*
X17900000Y-27443247D02*
X17823810Y-27481342D01*
X17823810Y-27481342D02*
X17519048Y-27481342D01*
X18471429Y-27062295D02*
X18623810Y-27062295D01*
X18623810Y-27062295D02*
X18700000Y-27100390D01*
X18700000Y-27100390D02*
X18776191Y-27176580D01*
X18776191Y-27176580D02*
X18814286Y-27328961D01*
X18814286Y-27328961D02*
X18814286Y-27595628D01*
X18814286Y-27595628D02*
X18776191Y-27748009D01*
X18776191Y-27748009D02*
X18700000Y-27824200D01*
X18700000Y-27824200D02*
X18623810Y-27862295D01*
X18623810Y-27862295D02*
X18471429Y-27862295D01*
X18471429Y-27862295D02*
X18395238Y-27824200D01*
X18395238Y-27824200D02*
X18319048Y-27748009D01*
X18319048Y-27748009D02*
X18280952Y-27595628D01*
X18280952Y-27595628D02*
X18280952Y-27328961D01*
X18280952Y-27328961D02*
X18319048Y-27176580D01*
X18319048Y-27176580D02*
X18395238Y-27100390D01*
X18395238Y-27100390D02*
X18471429Y-27062295D01*
X19157143Y-27062295D02*
X19157143Y-27709914D01*
X19157143Y-27709914D02*
X19195238Y-27786104D01*
X19195238Y-27786104D02*
X19233333Y-27824200D01*
X19233333Y-27824200D02*
X19309524Y-27862295D01*
X19309524Y-27862295D02*
X19461905Y-27862295D01*
X19461905Y-27862295D02*
X19538095Y-27824200D01*
X19538095Y-27824200D02*
X19576190Y-27786104D01*
X19576190Y-27786104D02*
X19614286Y-27709914D01*
X19614286Y-27709914D02*
X19614286Y-27062295D01*
X19880952Y-27062295D02*
X20338095Y-27062295D01*
X20109523Y-27862295D02*
X20109523Y-27062295D01*
X21214286Y-27557533D02*
X21823810Y-27557533D01*
X22814286Y-27862295D02*
X22814286Y-27062295D01*
X22814286Y-27062295D02*
X23271429Y-27862295D01*
X23271429Y-27862295D02*
X23271429Y-27062295D01*
X23804762Y-27062295D02*
X23957143Y-27062295D01*
X23957143Y-27062295D02*
X24033333Y-27100390D01*
X24033333Y-27100390D02*
X24109524Y-27176580D01*
X24109524Y-27176580D02*
X24147619Y-27328961D01*
X24147619Y-27328961D02*
X24147619Y-27595628D01*
X24147619Y-27595628D02*
X24109524Y-27748009D01*
X24109524Y-27748009D02*
X24033333Y-27824200D01*
X24033333Y-27824200D02*
X23957143Y-27862295D01*
X23957143Y-27862295D02*
X23804762Y-27862295D01*
X23804762Y-27862295D02*
X23728571Y-27824200D01*
X23728571Y-27824200D02*
X23652381Y-27748009D01*
X23652381Y-27748009D02*
X23614285Y-27595628D01*
X23614285Y-27595628D02*
X23614285Y-27328961D01*
X23614285Y-27328961D02*
X23652381Y-27176580D01*
X23652381Y-27176580D02*
X23728571Y-27100390D01*
X23728571Y-27100390D02*
X23804762Y-27062295D01*
X25557143Y-27786104D02*
X25519047Y-27824200D01*
X25519047Y-27824200D02*
X25404762Y-27862295D01*
X25404762Y-27862295D02*
X25328571Y-27862295D01*
X25328571Y-27862295D02*
X25214285Y-27824200D01*
X25214285Y-27824200D02*
X25138095Y-27748009D01*
X25138095Y-27748009D02*
X25100000Y-27671819D01*
X25100000Y-27671819D02*
X25061904Y-27519438D01*
X25061904Y-27519438D02*
X25061904Y-27405152D01*
X25061904Y-27405152D02*
X25100000Y-27252771D01*
X25100000Y-27252771D02*
X25138095Y-27176580D01*
X25138095Y-27176580D02*
X25214285Y-27100390D01*
X25214285Y-27100390D02*
X25328571Y-27062295D01*
X25328571Y-27062295D02*
X25404762Y-27062295D01*
X25404762Y-27062295D02*
X25519047Y-27100390D01*
X25519047Y-27100390D02*
X25557143Y-27138485D01*
X26052381Y-27062295D02*
X26204762Y-27062295D01*
X26204762Y-27062295D02*
X26280952Y-27100390D01*
X26280952Y-27100390D02*
X26357143Y-27176580D01*
X26357143Y-27176580D02*
X26395238Y-27328961D01*
X26395238Y-27328961D02*
X26395238Y-27595628D01*
X26395238Y-27595628D02*
X26357143Y-27748009D01*
X26357143Y-27748009D02*
X26280952Y-27824200D01*
X26280952Y-27824200D02*
X26204762Y-27862295D01*
X26204762Y-27862295D02*
X26052381Y-27862295D01*
X26052381Y-27862295D02*
X25976190Y-27824200D01*
X25976190Y-27824200D02*
X25900000Y-27748009D01*
X25900000Y-27748009D02*
X25861904Y-27595628D01*
X25861904Y-27595628D02*
X25861904Y-27328961D01*
X25861904Y-27328961D02*
X25900000Y-27176580D01*
X25900000Y-27176580D02*
X25976190Y-27100390D01*
X25976190Y-27100390D02*
X26052381Y-27062295D01*
X26738095Y-27862295D02*
X26738095Y-27062295D01*
X26738095Y-27062295D02*
X27042857Y-27062295D01*
X27042857Y-27062295D02*
X27119047Y-27100390D01*
X27119047Y-27100390D02*
X27157142Y-27138485D01*
X27157142Y-27138485D02*
X27195238Y-27214676D01*
X27195238Y-27214676D02*
X27195238Y-27328961D01*
X27195238Y-27328961D02*
X27157142Y-27405152D01*
X27157142Y-27405152D02*
X27119047Y-27443247D01*
X27119047Y-27443247D02*
X27042857Y-27481342D01*
X27042857Y-27481342D02*
X26738095Y-27481342D01*
X27538095Y-27862295D02*
X27538095Y-27062295D01*
X27538095Y-27062295D02*
X27842857Y-27062295D01*
X27842857Y-27062295D02*
X27919047Y-27100390D01*
X27919047Y-27100390D02*
X27957142Y-27138485D01*
X27957142Y-27138485D02*
X27995238Y-27214676D01*
X27995238Y-27214676D02*
X27995238Y-27328961D01*
X27995238Y-27328961D02*
X27957142Y-27405152D01*
X27957142Y-27405152D02*
X27919047Y-27443247D01*
X27919047Y-27443247D02*
X27842857Y-27481342D01*
X27842857Y-27481342D02*
X27538095Y-27481342D01*
X28338095Y-27443247D02*
X28604761Y-27443247D01*
X28719047Y-27862295D02*
X28338095Y-27862295D01*
X28338095Y-27862295D02*
X28338095Y-27062295D01*
X28338095Y-27062295D02*
X28719047Y-27062295D01*
X29519048Y-27862295D02*
X29252381Y-27481342D01*
X29061905Y-27862295D02*
X29061905Y-27062295D01*
X29061905Y-27062295D02*
X29366667Y-27062295D01*
X29366667Y-27062295D02*
X29442857Y-27100390D01*
X29442857Y-27100390D02*
X29480952Y-27138485D01*
X29480952Y-27138485D02*
X29519048Y-27214676D01*
X29519048Y-27214676D02*
X29519048Y-27328961D01*
X29519048Y-27328961D02*
X29480952Y-27405152D01*
X29480952Y-27405152D02*
X29442857Y-27443247D01*
X29442857Y-27443247D02*
X29366667Y-27481342D01*
X29366667Y-27481342D02*
X29061905Y-27481342D01*
X30471429Y-27557533D02*
X31080953Y-27557533D01*
X32071429Y-27862295D02*
X32071429Y-27062295D01*
X32071429Y-27062295D02*
X32528572Y-27862295D01*
X32528572Y-27862295D02*
X32528572Y-27062295D01*
X33061905Y-27062295D02*
X33214286Y-27062295D01*
X33214286Y-27062295D02*
X33290476Y-27100390D01*
X33290476Y-27100390D02*
X33366667Y-27176580D01*
X33366667Y-27176580D02*
X33404762Y-27328961D01*
X33404762Y-27328961D02*
X33404762Y-27595628D01*
X33404762Y-27595628D02*
X33366667Y-27748009D01*
X33366667Y-27748009D02*
X33290476Y-27824200D01*
X33290476Y-27824200D02*
X33214286Y-27862295D01*
X33214286Y-27862295D02*
X33061905Y-27862295D01*
X33061905Y-27862295D02*
X32985714Y-27824200D01*
X32985714Y-27824200D02*
X32909524Y-27748009D01*
X32909524Y-27748009D02*
X32871428Y-27595628D01*
X32871428Y-27595628D02*
X32871428Y-27328961D01*
X32871428Y-27328961D02*
X32909524Y-27176580D01*
X32909524Y-27176580D02*
X32985714Y-27100390D01*
X32985714Y-27100390D02*
X33061905Y-27062295D01*
X34357143Y-27862295D02*
X34357143Y-27062295D01*
X34357143Y-27062295D02*
X34623809Y-27633723D01*
X34623809Y-27633723D02*
X34890476Y-27062295D01*
X34890476Y-27062295D02*
X34890476Y-27862295D01*
X35271429Y-27443247D02*
X35538095Y-27443247D01*
X35652381Y-27862295D02*
X35271429Y-27862295D01*
X35271429Y-27862295D02*
X35271429Y-27062295D01*
X35271429Y-27062295D02*
X35652381Y-27062295D01*
X35880953Y-27062295D02*
X36338096Y-27062295D01*
X36109524Y-27862295D02*
X36109524Y-27062295D01*
X36566667Y-27633723D02*
X36947620Y-27633723D01*
X36490477Y-27862295D02*
X36757144Y-27062295D01*
X36757144Y-27062295D02*
X37023810Y-27862295D01*
X37671429Y-27862295D02*
X37290477Y-27862295D01*
X37290477Y-27862295D02*
X37290477Y-27062295D01*
X22933333Y-19062295D02*
X23200000Y-19862295D01*
X23200000Y-19862295D02*
X23466666Y-19062295D01*
X23999999Y-19443247D02*
X24114285Y-19481342D01*
X24114285Y-19481342D02*
X24152380Y-19519438D01*
X24152380Y-19519438D02*
X24190476Y-19595628D01*
X24190476Y-19595628D02*
X24190476Y-19709914D01*
X24190476Y-19709914D02*
X24152380Y-19786104D01*
X24152380Y-19786104D02*
X24114285Y-19824200D01*
X24114285Y-19824200D02*
X24038095Y-19862295D01*
X24038095Y-19862295D02*
X23733333Y-19862295D01*
X23733333Y-19862295D02*
X23733333Y-19062295D01*
X23733333Y-19062295D02*
X23999999Y-19062295D01*
X23999999Y-19062295D02*
X24076190Y-19100390D01*
X24076190Y-19100390D02*
X24114285Y-19138485D01*
X24114285Y-19138485D02*
X24152380Y-19214676D01*
X24152380Y-19214676D02*
X24152380Y-19290866D01*
X24152380Y-19290866D02*
X24114285Y-19367057D01*
X24114285Y-19367057D02*
X24076190Y-19405152D01*
X24076190Y-19405152D02*
X23999999Y-19443247D01*
X23999999Y-19443247D02*
X23733333Y-19443247D01*
X24952380Y-19100390D02*
X24876190Y-19062295D01*
X24876190Y-19062295D02*
X24761904Y-19062295D01*
X24761904Y-19062295D02*
X24647618Y-19100390D01*
X24647618Y-19100390D02*
X24571428Y-19176580D01*
X24571428Y-19176580D02*
X24533333Y-19252771D01*
X24533333Y-19252771D02*
X24495237Y-19405152D01*
X24495237Y-19405152D02*
X24495237Y-19519438D01*
X24495237Y-19519438D02*
X24533333Y-19671819D01*
X24533333Y-19671819D02*
X24571428Y-19748009D01*
X24571428Y-19748009D02*
X24647618Y-19824200D01*
X24647618Y-19824200D02*
X24761904Y-19862295D01*
X24761904Y-19862295D02*
X24838095Y-19862295D01*
X24838095Y-19862295D02*
X24952380Y-19824200D01*
X24952380Y-19824200D02*
X24990476Y-19786104D01*
X24990476Y-19786104D02*
X24990476Y-19519438D01*
X24990476Y-19519438D02*
X24838095Y-19519438D01*
X23166666Y-22133723D02*
X23547619Y-22133723D01*
X23090476Y-22362295D02*
X23357143Y-21562295D01*
X23357143Y-21562295D02*
X23623809Y-22362295D01*
X23776190Y-21562295D02*
X24042857Y-22362295D01*
X24042857Y-22362295D02*
X24309523Y-21562295D01*
X24576190Y-22362295D02*
X24576190Y-21562295D01*
X24576190Y-21562295D02*
X24766666Y-21562295D01*
X24766666Y-21562295D02*
X24880952Y-21600390D01*
X24880952Y-21600390D02*
X24957142Y-21676580D01*
X24957142Y-21676580D02*
X24995237Y-21752771D01*
X24995237Y-21752771D02*
X25033333Y-21905152D01*
X25033333Y-21905152D02*
X25033333Y-22019438D01*
X25033333Y-22019438D02*
X24995237Y-22171819D01*
X24995237Y-22171819D02*
X24957142Y-22248009D01*
X24957142Y-22248009D02*
X24880952Y-22324200D01*
X24880952Y-22324200D02*
X24766666Y-22362295D01*
X24766666Y-22362295D02*
X24576190Y-22362295D01*
X25376190Y-22362295D02*
X25376190Y-21562295D01*
X25376190Y-21562295D02*
X25566666Y-21562295D01*
X25566666Y-21562295D02*
X25680952Y-21600390D01*
X25680952Y-21600390D02*
X25757142Y-21676580D01*
X25757142Y-21676580D02*
X25795237Y-21752771D01*
X25795237Y-21752771D02*
X25833333Y-21905152D01*
X25833333Y-21905152D02*
X25833333Y-22019438D01*
X25833333Y-22019438D02*
X25795237Y-22171819D01*
X25795237Y-22171819D02*
X25757142Y-22248009D01*
X25757142Y-22248009D02*
X25680952Y-22324200D01*
X25680952Y-22324200D02*
X25566666Y-22362295D01*
X25566666Y-22362295D02*
X25376190Y-22362295D01*
X10985715Y-1162295D02*
X10985715Y-1809914D01*
X10985715Y-1809914D02*
X11023810Y-1886104D01*
X11023810Y-1886104D02*
X11061905Y-1924200D01*
X11061905Y-1924200D02*
X11138096Y-1962295D01*
X11138096Y-1962295D02*
X11290477Y-1962295D01*
X11290477Y-1962295D02*
X11366667Y-1924200D01*
X11366667Y-1924200D02*
X11404762Y-1886104D01*
X11404762Y-1886104D02*
X11442858Y-1809914D01*
X11442858Y-1809914D02*
X11442858Y-1162295D01*
X11785714Y-1924200D02*
X11900000Y-1962295D01*
X11900000Y-1962295D02*
X12090476Y-1962295D01*
X12090476Y-1962295D02*
X12166667Y-1924200D01*
X12166667Y-1924200D02*
X12204762Y-1886104D01*
X12204762Y-1886104D02*
X12242857Y-1809914D01*
X12242857Y-1809914D02*
X12242857Y-1733723D01*
X12242857Y-1733723D02*
X12204762Y-1657533D01*
X12204762Y-1657533D02*
X12166667Y-1619438D01*
X12166667Y-1619438D02*
X12090476Y-1581342D01*
X12090476Y-1581342D02*
X11938095Y-1543247D01*
X11938095Y-1543247D02*
X11861905Y-1505152D01*
X11861905Y-1505152D02*
X11823810Y-1467057D01*
X11823810Y-1467057D02*
X11785714Y-1390866D01*
X11785714Y-1390866D02*
X11785714Y-1314676D01*
X11785714Y-1314676D02*
X11823810Y-1238485D01*
X11823810Y-1238485D02*
X11861905Y-1200390D01*
X11861905Y-1200390D02*
X11938095Y-1162295D01*
X11938095Y-1162295D02*
X12128572Y-1162295D01*
X12128572Y-1162295D02*
X12242857Y-1200390D01*
X12852381Y-1543247D02*
X12966667Y-1581342D01*
X12966667Y-1581342D02*
X13004762Y-1619438D01*
X13004762Y-1619438D02*
X13042858Y-1695628D01*
X13042858Y-1695628D02*
X13042858Y-1809914D01*
X13042858Y-1809914D02*
X13004762Y-1886104D01*
X13004762Y-1886104D02*
X12966667Y-1924200D01*
X12966667Y-1924200D02*
X12890477Y-1962295D01*
X12890477Y-1962295D02*
X12585715Y-1962295D01*
X12585715Y-1962295D02*
X12585715Y-1162295D01*
X12585715Y-1162295D02*
X12852381Y-1162295D01*
X12852381Y-1162295D02*
X12928572Y-1200390D01*
X12928572Y-1200390D02*
X12966667Y-1238485D01*
X12966667Y-1238485D02*
X13004762Y-1314676D01*
X13004762Y-1314676D02*
X13004762Y-1390866D01*
X13004762Y-1390866D02*
X12966667Y-1467057D01*
X12966667Y-1467057D02*
X12928572Y-1505152D01*
X12928572Y-1505152D02*
X12852381Y-1543247D01*
X12852381Y-1543247D02*
X12585715Y-1543247D01*
X14376191Y-1162295D02*
X13995239Y-1162295D01*
X13995239Y-1162295D02*
X13957143Y-1543247D01*
X13957143Y-1543247D02*
X13995239Y-1505152D01*
X13995239Y-1505152D02*
X14071429Y-1467057D01*
X14071429Y-1467057D02*
X14261905Y-1467057D01*
X14261905Y-1467057D02*
X14338096Y-1505152D01*
X14338096Y-1505152D02*
X14376191Y-1543247D01*
X14376191Y-1543247D02*
X14414286Y-1619438D01*
X14414286Y-1619438D02*
X14414286Y-1809914D01*
X14414286Y-1809914D02*
X14376191Y-1886104D01*
X14376191Y-1886104D02*
X14338096Y-1924200D01*
X14338096Y-1924200D02*
X14261905Y-1962295D01*
X14261905Y-1962295D02*
X14071429Y-1962295D01*
X14071429Y-1962295D02*
X13995239Y-1924200D01*
X13995239Y-1924200D02*
X13957143Y-1886104D01*
X14642858Y-1162295D02*
X14909525Y-1962295D01*
X14909525Y-1962295D02*
X15176191Y-1162295D01*
X16014286Y-1924200D02*
X16128572Y-1962295D01*
X16128572Y-1962295D02*
X16319048Y-1962295D01*
X16319048Y-1962295D02*
X16395239Y-1924200D01*
X16395239Y-1924200D02*
X16433334Y-1886104D01*
X16433334Y-1886104D02*
X16471429Y-1809914D01*
X16471429Y-1809914D02*
X16471429Y-1733723D01*
X16471429Y-1733723D02*
X16433334Y-1657533D01*
X16433334Y-1657533D02*
X16395239Y-1619438D01*
X16395239Y-1619438D02*
X16319048Y-1581342D01*
X16319048Y-1581342D02*
X16166667Y-1543247D01*
X16166667Y-1543247D02*
X16090477Y-1505152D01*
X16090477Y-1505152D02*
X16052382Y-1467057D01*
X16052382Y-1467057D02*
X16014286Y-1390866D01*
X16014286Y-1390866D02*
X16014286Y-1314676D01*
X16014286Y-1314676D02*
X16052382Y-1238485D01*
X16052382Y-1238485D02*
X16090477Y-1200390D01*
X16090477Y-1200390D02*
X16166667Y-1162295D01*
X16166667Y-1162295D02*
X16357144Y-1162295D01*
X16357144Y-1162295D02*
X16471429Y-1200390D01*
X16814287Y-1543247D02*
X17080953Y-1543247D01*
X17195239Y-1962295D02*
X16814287Y-1962295D01*
X16814287Y-1962295D02*
X16814287Y-1162295D01*
X16814287Y-1162295D02*
X17195239Y-1162295D01*
X17919049Y-1962295D02*
X17538097Y-1962295D01*
X17538097Y-1962295D02*
X17538097Y-1162295D01*
X18071430Y-1162295D02*
X18338097Y-1962295D01*
X18338097Y-1962295D02*
X18604763Y-1162295D01*
X19633335Y-1162295D02*
X19785716Y-1162295D01*
X19785716Y-1162295D02*
X19861906Y-1200390D01*
X19861906Y-1200390D02*
X19938097Y-1276580D01*
X19938097Y-1276580D02*
X19976192Y-1428961D01*
X19976192Y-1428961D02*
X19976192Y-1695628D01*
X19976192Y-1695628D02*
X19938097Y-1848009D01*
X19938097Y-1848009D02*
X19861906Y-1924200D01*
X19861906Y-1924200D02*
X19785716Y-1962295D01*
X19785716Y-1962295D02*
X19633335Y-1962295D01*
X19633335Y-1962295D02*
X19557144Y-1924200D01*
X19557144Y-1924200D02*
X19480954Y-1848009D01*
X19480954Y-1848009D02*
X19442858Y-1695628D01*
X19442858Y-1695628D02*
X19442858Y-1428961D01*
X19442858Y-1428961D02*
X19480954Y-1276580D01*
X19480954Y-1276580D02*
X19557144Y-1200390D01*
X19557144Y-1200390D02*
X19633335Y-1162295D01*
X20319049Y-1962295D02*
X20319049Y-1162295D01*
X20319049Y-1162295D02*
X20776192Y-1962295D01*
X20776192Y-1962295D02*
X20776192Y-1162295D01*
X21538096Y-1962295D02*
X21157144Y-1962295D01*
X21157144Y-1962295D02*
X21157144Y-1162295D01*
X21957144Y-1581342D02*
X21957144Y-1962295D01*
X21690477Y-1162295D02*
X21957144Y-1581342D01*
X21957144Y-1581342D02*
X22223810Y-1162295D01*
X23100001Y-1657533D02*
X23709525Y-1657533D01*
X24852382Y-1162295D02*
X25004763Y-1162295D01*
X25004763Y-1162295D02*
X25080953Y-1200390D01*
X25080953Y-1200390D02*
X25157144Y-1276580D01*
X25157144Y-1276580D02*
X25195239Y-1428961D01*
X25195239Y-1428961D02*
X25195239Y-1695628D01*
X25195239Y-1695628D02*
X25157144Y-1848009D01*
X25157144Y-1848009D02*
X25080953Y-1924200D01*
X25080953Y-1924200D02*
X25004763Y-1962295D01*
X25004763Y-1962295D02*
X24852382Y-1962295D01*
X24852382Y-1962295D02*
X24776191Y-1924200D01*
X24776191Y-1924200D02*
X24700001Y-1848009D01*
X24700001Y-1848009D02*
X24661905Y-1695628D01*
X24661905Y-1695628D02*
X24661905Y-1428961D01*
X24661905Y-1428961D02*
X24700001Y-1276580D01*
X24700001Y-1276580D02*
X24776191Y-1200390D01*
X24776191Y-1200390D02*
X24852382Y-1162295D01*
X25804762Y-1543247D02*
X25919048Y-1581342D01*
X25919048Y-1581342D02*
X25957143Y-1619438D01*
X25957143Y-1619438D02*
X25995239Y-1695628D01*
X25995239Y-1695628D02*
X25995239Y-1809914D01*
X25995239Y-1809914D02*
X25957143Y-1886104D01*
X25957143Y-1886104D02*
X25919048Y-1924200D01*
X25919048Y-1924200D02*
X25842858Y-1962295D01*
X25842858Y-1962295D02*
X25538096Y-1962295D01*
X25538096Y-1962295D02*
X25538096Y-1162295D01*
X25538096Y-1162295D02*
X25804762Y-1162295D01*
X25804762Y-1162295D02*
X25880953Y-1200390D01*
X25880953Y-1200390D02*
X25919048Y-1238485D01*
X25919048Y-1238485D02*
X25957143Y-1314676D01*
X25957143Y-1314676D02*
X25957143Y-1390866D01*
X25957143Y-1390866D02*
X25919048Y-1467057D01*
X25919048Y-1467057D02*
X25880953Y-1505152D01*
X25880953Y-1505152D02*
X25804762Y-1543247D01*
X25804762Y-1543247D02*
X25538096Y-1543247D01*
X26300000Y-1924200D02*
X26414286Y-1962295D01*
X26414286Y-1962295D02*
X26604762Y-1962295D01*
X26604762Y-1962295D02*
X26680953Y-1924200D01*
X26680953Y-1924200D02*
X26719048Y-1886104D01*
X26719048Y-1886104D02*
X26757143Y-1809914D01*
X26757143Y-1809914D02*
X26757143Y-1733723D01*
X26757143Y-1733723D02*
X26719048Y-1657533D01*
X26719048Y-1657533D02*
X26680953Y-1619438D01*
X26680953Y-1619438D02*
X26604762Y-1581342D01*
X26604762Y-1581342D02*
X26452381Y-1543247D01*
X26452381Y-1543247D02*
X26376191Y-1505152D01*
X26376191Y-1505152D02*
X26338096Y-1467057D01*
X26338096Y-1467057D02*
X26300000Y-1390866D01*
X26300000Y-1390866D02*
X26300000Y-1314676D01*
X26300000Y-1314676D02*
X26338096Y-1238485D01*
X26338096Y-1238485D02*
X26376191Y-1200390D01*
X26376191Y-1200390D02*
X26452381Y-1162295D01*
X26452381Y-1162295D02*
X26642858Y-1162295D01*
X26642858Y-1162295D02*
X26757143Y-1200390D01*
X27100001Y-1543247D02*
X27366667Y-1543247D01*
X27480953Y-1962295D02*
X27100001Y-1962295D01*
X27100001Y-1962295D02*
X27100001Y-1162295D01*
X27100001Y-1162295D02*
X27480953Y-1162295D01*
X28280954Y-1962295D02*
X28014287Y-1581342D01*
X27823811Y-1962295D02*
X27823811Y-1162295D01*
X27823811Y-1162295D02*
X28128573Y-1162295D01*
X28128573Y-1162295D02*
X28204763Y-1200390D01*
X28204763Y-1200390D02*
X28242858Y-1238485D01*
X28242858Y-1238485D02*
X28280954Y-1314676D01*
X28280954Y-1314676D02*
X28280954Y-1428961D01*
X28280954Y-1428961D02*
X28242858Y-1505152D01*
X28242858Y-1505152D02*
X28204763Y-1543247D01*
X28204763Y-1543247D02*
X28128573Y-1581342D01*
X28128573Y-1581342D02*
X27823811Y-1581342D01*
X28509525Y-1162295D02*
X28776192Y-1962295D01*
X28776192Y-1962295D02*
X29042858Y-1162295D01*
X29271429Y-1733723D02*
X29652382Y-1733723D01*
X29195239Y-1962295D02*
X29461906Y-1162295D01*
X29461906Y-1162295D02*
X29728572Y-1962295D01*
X29880953Y-1162295D02*
X30338096Y-1162295D01*
X30109524Y-1962295D02*
X30109524Y-1162295D01*
X30604763Y-1962295D02*
X30604763Y-1162295D01*
X31138096Y-1162295D02*
X31290477Y-1162295D01*
X31290477Y-1162295D02*
X31366667Y-1200390D01*
X31366667Y-1200390D02*
X31442858Y-1276580D01*
X31442858Y-1276580D02*
X31480953Y-1428961D01*
X31480953Y-1428961D02*
X31480953Y-1695628D01*
X31480953Y-1695628D02*
X31442858Y-1848009D01*
X31442858Y-1848009D02*
X31366667Y-1924200D01*
X31366667Y-1924200D02*
X31290477Y-1962295D01*
X31290477Y-1962295D02*
X31138096Y-1962295D01*
X31138096Y-1962295D02*
X31061905Y-1924200D01*
X31061905Y-1924200D02*
X30985715Y-1848009D01*
X30985715Y-1848009D02*
X30947619Y-1695628D01*
X30947619Y-1695628D02*
X30947619Y-1428961D01*
X30947619Y-1428961D02*
X30985715Y-1276580D01*
X30985715Y-1276580D02*
X31061905Y-1200390D01*
X31061905Y-1200390D02*
X31138096Y-1162295D01*
X31823810Y-1962295D02*
X31823810Y-1162295D01*
X31823810Y-1162295D02*
X32280953Y-1962295D01*
X32280953Y-1962295D02*
X32280953Y-1162295D01*
X33423810Y-1162295D02*
X33576191Y-1162295D01*
X33576191Y-1162295D02*
X33652381Y-1200390D01*
X33652381Y-1200390D02*
X33728572Y-1276580D01*
X33728572Y-1276580D02*
X33766667Y-1428961D01*
X33766667Y-1428961D02*
X33766667Y-1695628D01*
X33766667Y-1695628D02*
X33728572Y-1848009D01*
X33728572Y-1848009D02*
X33652381Y-1924200D01*
X33652381Y-1924200D02*
X33576191Y-1962295D01*
X33576191Y-1962295D02*
X33423810Y-1962295D01*
X33423810Y-1962295D02*
X33347619Y-1924200D01*
X33347619Y-1924200D02*
X33271429Y-1848009D01*
X33271429Y-1848009D02*
X33233333Y-1695628D01*
X33233333Y-1695628D02*
X33233333Y-1428961D01*
X33233333Y-1428961D02*
X33271429Y-1276580D01*
X33271429Y-1276580D02*
X33347619Y-1200390D01*
X33347619Y-1200390D02*
X33423810Y-1162295D01*
X34109524Y-1962295D02*
X34109524Y-1162295D01*
X34109524Y-1162295D02*
X34566667Y-1962295D01*
X34566667Y-1962295D02*
X34566667Y-1162295D01*
X35328571Y-1962295D02*
X34947619Y-1962295D01*
X34947619Y-1962295D02*
X34947619Y-1162295D01*
X35747619Y-1581342D02*
X35747619Y-1962295D01*
X35480952Y-1162295D02*
X35747619Y-1581342D01*
X35747619Y-1581342D02*
X36014285Y-1162295D01*
X36890476Y-1657533D02*
X37500000Y-1657533D01*
X38490476Y-1962295D02*
X38490476Y-1162295D01*
X38490476Y-1162295D02*
X38757142Y-1733723D01*
X38757142Y-1733723D02*
X39023809Y-1162295D01*
X39023809Y-1162295D02*
X39023809Y-1962295D01*
X39404762Y-1962295D02*
X39404762Y-1162295D01*
X39671428Y-1162295D02*
X40128571Y-1162295D01*
X39899999Y-1962295D02*
X39899999Y-1162295D01*
X41904762Y-14333723D02*
X42285715Y-14333723D01*
X41828572Y-14562295D02*
X42095239Y-13762295D01*
X42095239Y-13762295D02*
X42361905Y-14562295D01*
X42628572Y-14562295D02*
X42628572Y-13762295D01*
X43009524Y-14562295D02*
X43009524Y-13762295D01*
X43009524Y-13762295D02*
X43466667Y-14562295D01*
X43466667Y-14562295D02*
X43466667Y-13762295D01*
X43847619Y-14257533D02*
X44457143Y-14257533D01*
X44152381Y-14562295D02*
X44152381Y-13952771D01*
X43347619Y-40062295D02*
X42966667Y-40062295D01*
X42966667Y-40062295D02*
X42928571Y-40443247D01*
X42928571Y-40443247D02*
X42966667Y-40405152D01*
X42966667Y-40405152D02*
X43042857Y-40367057D01*
X43042857Y-40367057D02*
X43233333Y-40367057D01*
X43233333Y-40367057D02*
X43309524Y-40405152D01*
X43309524Y-40405152D02*
X43347619Y-40443247D01*
X43347619Y-40443247D02*
X43385714Y-40519438D01*
X43385714Y-40519438D02*
X43385714Y-40709914D01*
X43385714Y-40709914D02*
X43347619Y-40786104D01*
X43347619Y-40786104D02*
X43309524Y-40824200D01*
X43309524Y-40824200D02*
X43233333Y-40862295D01*
X43233333Y-40862295D02*
X43042857Y-40862295D01*
X43042857Y-40862295D02*
X42966667Y-40824200D01*
X42966667Y-40824200D02*
X42928571Y-40786104D01*
X43614286Y-40062295D02*
X43880953Y-40862295D01*
X43880953Y-40862295D02*
X44147619Y-40062295D01*
X42890476Y-43600390D02*
X42814286Y-43562295D01*
X42814286Y-43562295D02*
X42700000Y-43562295D01*
X42700000Y-43562295D02*
X42585714Y-43600390D01*
X42585714Y-43600390D02*
X42509524Y-43676580D01*
X42509524Y-43676580D02*
X42471429Y-43752771D01*
X42471429Y-43752771D02*
X42433333Y-43905152D01*
X42433333Y-43905152D02*
X42433333Y-44019438D01*
X42433333Y-44019438D02*
X42471429Y-44171819D01*
X42471429Y-44171819D02*
X42509524Y-44248009D01*
X42509524Y-44248009D02*
X42585714Y-44324200D01*
X42585714Y-44324200D02*
X42700000Y-44362295D01*
X42700000Y-44362295D02*
X42776191Y-44362295D01*
X42776191Y-44362295D02*
X42890476Y-44324200D01*
X42890476Y-44324200D02*
X42928572Y-44286104D01*
X42928572Y-44286104D02*
X42928572Y-44019438D01*
X42928572Y-44019438D02*
X42776191Y-44019438D01*
X43271429Y-44362295D02*
X43271429Y-43562295D01*
X43271429Y-43562295D02*
X43728572Y-44362295D01*
X43728572Y-44362295D02*
X43728572Y-43562295D01*
X44109524Y-44362295D02*
X44109524Y-43562295D01*
X44109524Y-43562295D02*
X44300000Y-43562295D01*
X44300000Y-43562295D02*
X44414286Y-43600390D01*
X44414286Y-43600390D02*
X44490476Y-43676580D01*
X44490476Y-43676580D02*
X44528571Y-43752771D01*
X44528571Y-43752771D02*
X44566667Y-43905152D01*
X44566667Y-43905152D02*
X44566667Y-44019438D01*
X44566667Y-44019438D02*
X44528571Y-44171819D01*
X44528571Y-44171819D02*
X44490476Y-44248009D01*
X44490476Y-44248009D02*
X44414286Y-44324200D01*
X44414286Y-44324200D02*
X44300000Y-44362295D01*
X44300000Y-44362295D02*
X44109524Y-44362295D01*
X42509523Y-47062295D02*
X43004761Y-47062295D01*
X43004761Y-47062295D02*
X42738095Y-47367057D01*
X42738095Y-47367057D02*
X42852380Y-47367057D01*
X42852380Y-47367057D02*
X42928571Y-47405152D01*
X42928571Y-47405152D02*
X42966666Y-47443247D01*
X42966666Y-47443247D02*
X43004761Y-47519438D01*
X43004761Y-47519438D02*
X43004761Y-47709914D01*
X43004761Y-47709914D02*
X42966666Y-47786104D01*
X42966666Y-47786104D02*
X42928571Y-47824200D01*
X42928571Y-47824200D02*
X42852380Y-47862295D01*
X42852380Y-47862295D02*
X42623809Y-47862295D01*
X42623809Y-47862295D02*
X42547618Y-47824200D01*
X42547618Y-47824200D02*
X42509523Y-47786104D01*
X43233333Y-47062295D02*
X43500000Y-47862295D01*
X43500000Y-47862295D02*
X43766666Y-47062295D01*
X43957142Y-47062295D02*
X44452380Y-47062295D01*
X44452380Y-47062295D02*
X44185714Y-47367057D01*
X44185714Y-47367057D02*
X44299999Y-47367057D01*
X44299999Y-47367057D02*
X44376190Y-47405152D01*
X44376190Y-47405152D02*
X44414285Y-47443247D01*
X44414285Y-47443247D02*
X44452380Y-47519438D01*
X44452380Y-47519438D02*
X44452380Y-47709914D01*
X44452380Y-47709914D02*
X44414285Y-47786104D01*
X44414285Y-47786104D02*
X44376190Y-47824200D01*
X44376190Y-47824200D02*
X44299999Y-47862295D01*
X44299999Y-47862295D02*
X44071428Y-47862295D01*
X44071428Y-47862295D02*
X43995237Y-47824200D01*
X43995237Y-47824200D02*
X43957142Y-47786104D01*
X44204762Y-17133723D02*
X44585715Y-17133723D01*
X44128572Y-17362295D02*
X44395239Y-16562295D01*
X44395239Y-16562295D02*
X44661905Y-17362295D01*
X44928572Y-17362295D02*
X44928572Y-16562295D01*
X45309524Y-17362295D02*
X45309524Y-16562295D01*
X45309524Y-16562295D02*
X45766667Y-17362295D01*
X45766667Y-17362295D02*
X45766667Y-16562295D01*
X46147619Y-17057533D02*
X46757143Y-17057533D01*
X44666666Y-64962295D02*
X45123809Y-64962295D01*
X44895237Y-65762295D02*
X44895237Y-64962295D01*
X45352380Y-65533723D02*
X45733333Y-65533723D01*
X45276190Y-65762295D02*
X45542857Y-64962295D01*
X45542857Y-64962295D02*
X45809523Y-65762295D01*
X46533333Y-65762295D02*
X46266666Y-65381342D01*
X46076190Y-65762295D02*
X46076190Y-64962295D01*
X46076190Y-64962295D02*
X46380952Y-64962295D01*
X46380952Y-64962295D02*
X46457142Y-65000390D01*
X46457142Y-65000390D02*
X46495237Y-65038485D01*
X46495237Y-65038485D02*
X46533333Y-65114676D01*
X46533333Y-65114676D02*
X46533333Y-65228961D01*
X46533333Y-65228961D02*
X46495237Y-65305152D01*
X46495237Y-65305152D02*
X46457142Y-65343247D01*
X46457142Y-65343247D02*
X46380952Y-65381342D01*
X46380952Y-65381342D02*
X46076190Y-65381342D01*
X46876190Y-65343247D02*
X47142856Y-65343247D01*
X47257142Y-65762295D02*
X46876190Y-65762295D01*
X46876190Y-65762295D02*
X46876190Y-64962295D01*
X46876190Y-64962295D02*
X47257142Y-64962295D01*
X48214285Y-5562295D02*
X48214285Y-6209914D01*
X48214285Y-6209914D02*
X48252380Y-6286104D01*
X48252380Y-6286104D02*
X48290475Y-6324200D01*
X48290475Y-6324200D02*
X48366666Y-6362295D01*
X48366666Y-6362295D02*
X48519047Y-6362295D01*
X48519047Y-6362295D02*
X48595237Y-6324200D01*
X48595237Y-6324200D02*
X48633332Y-6286104D01*
X48633332Y-6286104D02*
X48671428Y-6209914D01*
X48671428Y-6209914D02*
X48671428Y-5562295D01*
X49014284Y-6133723D02*
X49395237Y-6133723D01*
X48938094Y-6362295D02*
X49204761Y-5562295D01*
X49204761Y-5562295D02*
X49471427Y-6362295D01*
X50195237Y-6362295D02*
X49928570Y-5981342D01*
X49738094Y-6362295D02*
X49738094Y-5562295D01*
X49738094Y-5562295D02*
X50042856Y-5562295D01*
X50042856Y-5562295D02*
X50119046Y-5600390D01*
X50119046Y-5600390D02*
X50157141Y-5638485D01*
X50157141Y-5638485D02*
X50195237Y-5714676D01*
X50195237Y-5714676D02*
X50195237Y-5828961D01*
X50195237Y-5828961D02*
X50157141Y-5905152D01*
X50157141Y-5905152D02*
X50119046Y-5943247D01*
X50119046Y-5943247D02*
X50042856Y-5981342D01*
X50042856Y-5981342D02*
X49738094Y-5981342D01*
X50423808Y-5562295D02*
X50880951Y-5562295D01*
X50652379Y-6362295D02*
X50652379Y-5562295D01*
X51680951Y-5562295D02*
X52176189Y-5562295D01*
X52176189Y-5562295D02*
X51909523Y-5867057D01*
X51909523Y-5867057D02*
X52023808Y-5867057D01*
X52023808Y-5867057D02*
X52099999Y-5905152D01*
X52099999Y-5905152D02*
X52138094Y-5943247D01*
X52138094Y-5943247D02*
X52176189Y-6019438D01*
X52176189Y-6019438D02*
X52176189Y-6209914D01*
X52176189Y-6209914D02*
X52138094Y-6286104D01*
X52138094Y-6286104D02*
X52099999Y-6324200D01*
X52099999Y-6324200D02*
X52023808Y-6362295D01*
X52023808Y-6362295D02*
X51795237Y-6362295D01*
X51795237Y-6362295D02*
X51719046Y-6324200D01*
X51719046Y-6324200D02*
X51680951Y-6286104D01*
X52404761Y-5562295D02*
X52671428Y-6362295D01*
X52671428Y-6362295D02*
X52938094Y-5562295D01*
X53128570Y-5562295D02*
X53623808Y-5562295D01*
X53623808Y-5562295D02*
X53357142Y-5867057D01*
X53357142Y-5867057D02*
X53471427Y-5867057D01*
X53471427Y-5867057D02*
X53547618Y-5905152D01*
X53547618Y-5905152D02*
X53585713Y-5943247D01*
X53585713Y-5943247D02*
X53623808Y-6019438D01*
X53623808Y-6019438D02*
X53623808Y-6209914D01*
X53623808Y-6209914D02*
X53585713Y-6286104D01*
X53585713Y-6286104D02*
X53547618Y-6324200D01*
X53547618Y-6324200D02*
X53471427Y-6362295D01*
X53471427Y-6362295D02*
X53242856Y-6362295D01*
X53242856Y-6362295D02*
X53166665Y-6324200D01*
X53166665Y-6324200D02*
X53128570Y-6286104D01*
X54995237Y-5600390D02*
X54919047Y-5562295D01*
X54919047Y-5562295D02*
X54804761Y-5562295D01*
X54804761Y-5562295D02*
X54690475Y-5600390D01*
X54690475Y-5600390D02*
X54614285Y-5676580D01*
X54614285Y-5676580D02*
X54576190Y-5752771D01*
X54576190Y-5752771D02*
X54538094Y-5905152D01*
X54538094Y-5905152D02*
X54538094Y-6019438D01*
X54538094Y-6019438D02*
X54576190Y-6171819D01*
X54576190Y-6171819D02*
X54614285Y-6248009D01*
X54614285Y-6248009D02*
X54690475Y-6324200D01*
X54690475Y-6324200D02*
X54804761Y-6362295D01*
X54804761Y-6362295D02*
X54880952Y-6362295D01*
X54880952Y-6362295D02*
X54995237Y-6324200D01*
X54995237Y-6324200D02*
X55033333Y-6286104D01*
X55033333Y-6286104D02*
X55033333Y-6019438D01*
X55033333Y-6019438D02*
X54880952Y-6019438D01*
X55376190Y-6362295D02*
X55376190Y-5562295D01*
X55376190Y-5562295D02*
X55833333Y-6362295D01*
X55833333Y-6362295D02*
X55833333Y-5562295D01*
X56214285Y-6362295D02*
X56214285Y-5562295D01*
X56214285Y-5562295D02*
X56404761Y-5562295D01*
X56404761Y-5562295D02*
X56519047Y-5600390D01*
X56519047Y-5600390D02*
X56595237Y-5676580D01*
X56595237Y-5676580D02*
X56633332Y-5752771D01*
X56633332Y-5752771D02*
X56671428Y-5905152D01*
X56671428Y-5905152D02*
X56671428Y-6019438D01*
X56671428Y-6019438D02*
X56633332Y-6171819D01*
X56633332Y-6171819D02*
X56595237Y-6248009D01*
X56595237Y-6248009D02*
X56519047Y-6324200D01*
X56519047Y-6324200D02*
X56404761Y-6362295D01*
X56404761Y-6362295D02*
X56214285Y-6362295D01*
X57509523Y-5562295D02*
X57966666Y-5562295D01*
X57738094Y-6362295D02*
X57738094Y-5562295D01*
X58157142Y-5562295D02*
X58690476Y-6362295D01*
X58690476Y-5562295D02*
X58157142Y-6362295D01*
X60061905Y-6362295D02*
X59795238Y-5981342D01*
X59604762Y-6362295D02*
X59604762Y-5562295D01*
X59604762Y-5562295D02*
X59909524Y-5562295D01*
X59909524Y-5562295D02*
X59985714Y-5600390D01*
X59985714Y-5600390D02*
X60023809Y-5638485D01*
X60023809Y-5638485D02*
X60061905Y-5714676D01*
X60061905Y-5714676D02*
X60061905Y-5828961D01*
X60061905Y-5828961D02*
X60023809Y-5905152D01*
X60023809Y-5905152D02*
X59985714Y-5943247D01*
X59985714Y-5943247D02*
X59909524Y-5981342D01*
X59909524Y-5981342D02*
X59604762Y-5981342D01*
X60328571Y-5562295D02*
X60861905Y-6362295D01*
X60861905Y-5562295D02*
X60328571Y-6362295D01*
X21309523Y-73407200D02*
X21452380Y-73454819D01*
X21452380Y-73454819D02*
X21690475Y-73454819D01*
X21690475Y-73454819D02*
X21785713Y-73407200D01*
X21785713Y-73407200D02*
X21833332Y-73359580D01*
X21833332Y-73359580D02*
X21880951Y-73264342D01*
X21880951Y-73264342D02*
X21880951Y-73169104D01*
X21880951Y-73169104D02*
X21833332Y-73073866D01*
X21833332Y-73073866D02*
X21785713Y-73026247D01*
X21785713Y-73026247D02*
X21690475Y-72978628D01*
X21690475Y-72978628D02*
X21499999Y-72931009D01*
X21499999Y-72931009D02*
X21404761Y-72883390D01*
X21404761Y-72883390D02*
X21357142Y-72835771D01*
X21357142Y-72835771D02*
X21309523Y-72740533D01*
X21309523Y-72740533D02*
X21309523Y-72645295D01*
X21309523Y-72645295D02*
X21357142Y-72550057D01*
X21357142Y-72550057D02*
X21404761Y-72502438D01*
X21404761Y-72502438D02*
X21499999Y-72454819D01*
X21499999Y-72454819D02*
X21738094Y-72454819D01*
X21738094Y-72454819D02*
X21880951Y-72502438D01*
X22309523Y-73454819D02*
X22309523Y-72454819D01*
X22309523Y-72454819D02*
X22690475Y-72454819D01*
X22690475Y-72454819D02*
X22785713Y-72502438D01*
X22785713Y-72502438D02*
X22833332Y-72550057D01*
X22833332Y-72550057D02*
X22880951Y-72645295D01*
X22880951Y-72645295D02*
X22880951Y-72788152D01*
X22880951Y-72788152D02*
X22833332Y-72883390D01*
X22833332Y-72883390D02*
X22785713Y-72931009D01*
X22785713Y-72931009D02*
X22690475Y-72978628D01*
X22690475Y-72978628D02*
X22309523Y-72978628D01*
X23499999Y-72454819D02*
X23690475Y-72454819D01*
X23690475Y-72454819D02*
X23785713Y-72502438D01*
X23785713Y-72502438D02*
X23880951Y-72597676D01*
X23880951Y-72597676D02*
X23928570Y-72788152D01*
X23928570Y-72788152D02*
X23928570Y-73121485D01*
X23928570Y-73121485D02*
X23880951Y-73311961D01*
X23880951Y-73311961D02*
X23785713Y-73407200D01*
X23785713Y-73407200D02*
X23690475Y-73454819D01*
X23690475Y-73454819D02*
X23499999Y-73454819D01*
X23499999Y-73454819D02*
X23404761Y-73407200D01*
X23404761Y-73407200D02*
X23309523Y-73311961D01*
X23309523Y-73311961D02*
X23261904Y-73121485D01*
X23261904Y-73121485D02*
X23261904Y-72788152D01*
X23261904Y-72788152D02*
X23309523Y-72597676D01*
X23309523Y-72597676D02*
X23404761Y-72502438D01*
X23404761Y-72502438D02*
X23499999Y-72454819D01*
X24547618Y-72454819D02*
X24738094Y-72454819D01*
X24738094Y-72454819D02*
X24833332Y-72502438D01*
X24833332Y-72502438D02*
X24928570Y-72597676D01*
X24928570Y-72597676D02*
X24976189Y-72788152D01*
X24976189Y-72788152D02*
X24976189Y-73121485D01*
X24976189Y-73121485D02*
X24928570Y-73311961D01*
X24928570Y-73311961D02*
X24833332Y-73407200D01*
X24833332Y-73407200D02*
X24738094Y-73454819D01*
X24738094Y-73454819D02*
X24547618Y-73454819D01*
X24547618Y-73454819D02*
X24452380Y-73407200D01*
X24452380Y-73407200D02*
X24357142Y-73311961D01*
X24357142Y-73311961D02*
X24309523Y-73121485D01*
X24309523Y-73121485D02*
X24309523Y-72788152D01*
X24309523Y-72788152D02*
X24357142Y-72597676D01*
X24357142Y-72597676D02*
X24452380Y-72502438D01*
X24452380Y-72502438D02*
X24547618Y-72454819D01*
X25880951Y-73454819D02*
X25404761Y-73454819D01*
X25404761Y-73454819D02*
X25404761Y-72454819D01*
X26928571Y-73407200D02*
X27071428Y-73454819D01*
X27071428Y-73454819D02*
X27309523Y-73454819D01*
X27309523Y-73454819D02*
X27404761Y-73407200D01*
X27404761Y-73407200D02*
X27452380Y-73359580D01*
X27452380Y-73359580D02*
X27499999Y-73264342D01*
X27499999Y-73264342D02*
X27499999Y-73169104D01*
X27499999Y-73169104D02*
X27452380Y-73073866D01*
X27452380Y-73073866D02*
X27404761Y-73026247D01*
X27404761Y-73026247D02*
X27309523Y-72978628D01*
X27309523Y-72978628D02*
X27119047Y-72931009D01*
X27119047Y-72931009D02*
X27023809Y-72883390D01*
X27023809Y-72883390D02*
X26976190Y-72835771D01*
X26976190Y-72835771D02*
X26928571Y-72740533D01*
X26928571Y-72740533D02*
X26928571Y-72645295D01*
X26928571Y-72645295D02*
X26976190Y-72550057D01*
X26976190Y-72550057D02*
X27023809Y-72502438D01*
X27023809Y-72502438D02*
X27119047Y-72454819D01*
X27119047Y-72454819D02*
X27357142Y-72454819D01*
X27357142Y-72454819D02*
X27499999Y-72502438D01*
X27928571Y-72931009D02*
X28261904Y-72931009D01*
X28404761Y-73454819D02*
X27928571Y-73454819D01*
X27928571Y-73454819D02*
X27928571Y-72454819D01*
X27928571Y-72454819D02*
X28404761Y-72454819D01*
X28833333Y-73454819D02*
X28833333Y-72454819D01*
X28833333Y-72454819D02*
X29404761Y-73454819D01*
X29404761Y-73454819D02*
X29404761Y-72454819D01*
X29738095Y-72454819D02*
X30309523Y-72454819D01*
X30023809Y-73454819D02*
X30023809Y-72454819D01*
X31214285Y-73454819D02*
X30880952Y-72978628D01*
X30642857Y-73454819D02*
X30642857Y-72454819D01*
X30642857Y-72454819D02*
X31023809Y-72454819D01*
X31023809Y-72454819D02*
X31119047Y-72502438D01*
X31119047Y-72502438D02*
X31166666Y-72550057D01*
X31166666Y-72550057D02*
X31214285Y-72645295D01*
X31214285Y-72645295D02*
X31214285Y-72788152D01*
X31214285Y-72788152D02*
X31166666Y-72883390D01*
X31166666Y-72883390D02*
X31119047Y-72931009D01*
X31119047Y-72931009D02*
X31023809Y-72978628D01*
X31023809Y-72978628D02*
X30642857Y-72978628D01*
X31833333Y-72978628D02*
X31833333Y-73454819D01*
X31500000Y-72454819D02*
X31833333Y-72978628D01*
X31833333Y-72978628D02*
X32166666Y-72454819D01*
X34595238Y-73359580D02*
X34547619Y-73407200D01*
X34547619Y-73407200D02*
X34404762Y-73454819D01*
X34404762Y-73454819D02*
X34309524Y-73454819D01*
X34309524Y-73454819D02*
X34166667Y-73407200D01*
X34166667Y-73407200D02*
X34071429Y-73311961D01*
X34071429Y-73311961D02*
X34023810Y-73216723D01*
X34023810Y-73216723D02*
X33976191Y-73026247D01*
X33976191Y-73026247D02*
X33976191Y-72883390D01*
X33976191Y-72883390D02*
X34023810Y-72692914D01*
X34023810Y-72692914D02*
X34071429Y-72597676D01*
X34071429Y-72597676D02*
X34166667Y-72502438D01*
X34166667Y-72502438D02*
X34309524Y-72454819D01*
X34309524Y-72454819D02*
X34404762Y-72454819D01*
X34404762Y-72454819D02*
X34547619Y-72502438D01*
X34547619Y-72502438D02*
X34595238Y-72550057D01*
X34976191Y-73169104D02*
X35452381Y-73169104D01*
X34880953Y-73454819D02*
X35214286Y-72454819D01*
X35214286Y-72454819D02*
X35547619Y-73454819D01*
X36452381Y-73454819D02*
X36119048Y-72978628D01*
X35880953Y-73454819D02*
X35880953Y-72454819D01*
X35880953Y-72454819D02*
X36261905Y-72454819D01*
X36261905Y-72454819D02*
X36357143Y-72502438D01*
X36357143Y-72502438D02*
X36404762Y-72550057D01*
X36404762Y-72550057D02*
X36452381Y-72645295D01*
X36452381Y-72645295D02*
X36452381Y-72788152D01*
X36452381Y-72788152D02*
X36404762Y-72883390D01*
X36404762Y-72883390D02*
X36357143Y-72931009D01*
X36357143Y-72931009D02*
X36261905Y-72978628D01*
X36261905Y-72978628D02*
X35880953Y-72978628D01*
X37452381Y-73454819D02*
X37119048Y-72978628D01*
X36880953Y-73454819D02*
X36880953Y-72454819D01*
X36880953Y-72454819D02*
X37261905Y-72454819D01*
X37261905Y-72454819D02*
X37357143Y-72502438D01*
X37357143Y-72502438D02*
X37404762Y-72550057D01*
X37404762Y-72550057D02*
X37452381Y-72645295D01*
X37452381Y-72645295D02*
X37452381Y-72788152D01*
X37452381Y-72788152D02*
X37404762Y-72883390D01*
X37404762Y-72883390D02*
X37357143Y-72931009D01*
X37357143Y-72931009D02*
X37261905Y-72978628D01*
X37261905Y-72978628D02*
X36880953Y-72978628D01*
X37880953Y-73454819D02*
X37880953Y-72454819D01*
X38357143Y-72931009D02*
X38690476Y-72931009D01*
X38833333Y-73454819D02*
X38357143Y-73454819D01*
X38357143Y-73454819D02*
X38357143Y-72454819D01*
X38357143Y-72454819D02*
X38833333Y-72454819D01*
X39833333Y-73454819D02*
X39500000Y-72978628D01*
X39261905Y-73454819D02*
X39261905Y-72454819D01*
X39261905Y-72454819D02*
X39642857Y-72454819D01*
X39642857Y-72454819D02*
X39738095Y-72502438D01*
X39738095Y-72502438D02*
X39785714Y-72550057D01*
X39785714Y-72550057D02*
X39833333Y-72645295D01*
X39833333Y-72645295D02*
X39833333Y-72788152D01*
X39833333Y-72788152D02*
X39785714Y-72883390D01*
X39785714Y-72883390D02*
X39738095Y-72931009D01*
X39738095Y-72931009D02*
X39642857Y-72978628D01*
X39642857Y-72978628D02*
X39261905Y-72978628D01*
X42357143Y-73454819D02*
X42023810Y-72978628D01*
X41785715Y-73454819D02*
X41785715Y-72454819D01*
X41785715Y-72454819D02*
X42166667Y-72454819D01*
X42166667Y-72454819D02*
X42261905Y-72502438D01*
X42261905Y-72502438D02*
X42309524Y-72550057D01*
X42309524Y-72550057D02*
X42357143Y-72645295D01*
X42357143Y-72645295D02*
X42357143Y-72788152D01*
X42357143Y-72788152D02*
X42309524Y-72883390D01*
X42309524Y-72883390D02*
X42261905Y-72931009D01*
X42261905Y-72931009D02*
X42166667Y-72978628D01*
X42166667Y-72978628D02*
X41785715Y-72978628D01*
X42785715Y-72931009D02*
X43119048Y-72931009D01*
X43261905Y-73454819D02*
X42785715Y-73454819D01*
X42785715Y-73454819D02*
X42785715Y-72454819D01*
X42785715Y-72454819D02*
X43261905Y-72454819D01*
X43547620Y-72454819D02*
X43880953Y-73454819D01*
X43880953Y-73454819D02*
X44214286Y-72454819D01*
X45261906Y-73169104D02*
X45738096Y-73169104D01*
X45166668Y-73454819D02*
X45500001Y-72454819D01*
X45500001Y-72454819D02*
X45833334Y-73454819D01*
X46357144Y-72454819D02*
X46452382Y-72454819D01*
X46452382Y-72454819D02*
X46547620Y-72502438D01*
X46547620Y-72502438D02*
X46595239Y-72550057D01*
X46595239Y-72550057D02*
X46642858Y-72645295D01*
X46642858Y-72645295D02*
X46690477Y-72835771D01*
X46690477Y-72835771D02*
X46690477Y-73073866D01*
X46690477Y-73073866D02*
X46642858Y-73264342D01*
X46642858Y-73264342D02*
X46595239Y-73359580D01*
X46595239Y-73359580D02*
X46547620Y-73407200D01*
X46547620Y-73407200D02*
X46452382Y-73454819D01*
X46452382Y-73454819D02*
X46357144Y-73454819D01*
X46357144Y-73454819D02*
X46261906Y-73407200D01*
X46261906Y-73407200D02*
X46214287Y-73359580D01*
X46214287Y-73359580D02*
X46166668Y-73264342D01*
X46166668Y-73264342D02*
X46119049Y-73073866D01*
X46119049Y-73073866D02*
X46119049Y-72835771D01*
X46119049Y-72835771D02*
X46166668Y-72645295D01*
X46166668Y-72645295D02*
X46214287Y-72550057D01*
X46214287Y-72550057D02*
X46261906Y-72502438D01*
X46261906Y-72502438D02*
X46357144Y-72454819D01*
X41666667Y-72007200D02*
X41809524Y-72054819D01*
X41809524Y-72054819D02*
X42047619Y-72054819D01*
X42047619Y-72054819D02*
X42142857Y-72007200D01*
X42142857Y-72007200D02*
X42190476Y-71959580D01*
X42190476Y-71959580D02*
X42238095Y-71864342D01*
X42238095Y-71864342D02*
X42238095Y-71769104D01*
X42238095Y-71769104D02*
X42190476Y-71673866D01*
X42190476Y-71673866D02*
X42142857Y-71626247D01*
X42142857Y-71626247D02*
X42047619Y-71578628D01*
X42047619Y-71578628D02*
X41857143Y-71531009D01*
X41857143Y-71531009D02*
X41761905Y-71483390D01*
X41761905Y-71483390D02*
X41714286Y-71435771D01*
X41714286Y-71435771D02*
X41666667Y-71340533D01*
X41666667Y-71340533D02*
X41666667Y-71245295D01*
X41666667Y-71245295D02*
X41714286Y-71150057D01*
X41714286Y-71150057D02*
X41761905Y-71102438D01*
X41761905Y-71102438D02*
X41857143Y-71054819D01*
X41857143Y-71054819D02*
X42095238Y-71054819D01*
X42095238Y-71054819D02*
X42238095Y-71102438D01*
X42571429Y-71054819D02*
X42809524Y-72054819D01*
X42809524Y-72054819D02*
X43000000Y-71340533D01*
X43000000Y-71340533D02*
X43190476Y-72054819D01*
X43190476Y-72054819D02*
X43428572Y-71054819D01*
X44333333Y-72054819D02*
X43761905Y-72054819D01*
X44047619Y-72054819D02*
X44047619Y-71054819D01*
X44047619Y-71054819D02*
X43952381Y-71197676D01*
X43952381Y-71197676D02*
X43857143Y-71292914D01*
X43857143Y-71292914D02*
X43761905Y-71340533D01*
X38838095Y-13754819D02*
X39409523Y-13754819D01*
X39123809Y-14754819D02*
X39123809Y-13754819D01*
X39742857Y-14754819D02*
X39742857Y-13754819D01*
X39742857Y-13754819D02*
X40123809Y-13754819D01*
X40123809Y-13754819D02*
X40219047Y-13802438D01*
X40219047Y-13802438D02*
X40266666Y-13850057D01*
X40266666Y-13850057D02*
X40314285Y-13945295D01*
X40314285Y-13945295D02*
X40314285Y-14088152D01*
X40314285Y-14088152D02*
X40266666Y-14183390D01*
X40266666Y-14183390D02*
X40219047Y-14231009D01*
X40219047Y-14231009D02*
X40123809Y-14278628D01*
X40123809Y-14278628D02*
X39742857Y-14278628D01*
X40885714Y-14183390D02*
X40790476Y-14135771D01*
X40790476Y-14135771D02*
X40742857Y-14088152D01*
X40742857Y-14088152D02*
X40695238Y-13992914D01*
X40695238Y-13992914D02*
X40695238Y-13945295D01*
X40695238Y-13945295D02*
X40742857Y-13850057D01*
X40742857Y-13850057D02*
X40790476Y-13802438D01*
X40790476Y-13802438D02*
X40885714Y-13754819D01*
X40885714Y-13754819D02*
X41076190Y-13754819D01*
X41076190Y-13754819D02*
X41171428Y-13802438D01*
X41171428Y-13802438D02*
X41219047Y-13850057D01*
X41219047Y-13850057D02*
X41266666Y-13945295D01*
X41266666Y-13945295D02*
X41266666Y-13992914D01*
X41266666Y-13992914D02*
X41219047Y-14088152D01*
X41219047Y-14088152D02*
X41171428Y-14135771D01*
X41171428Y-14135771D02*
X41076190Y-14183390D01*
X41076190Y-14183390D02*
X40885714Y-14183390D01*
X40885714Y-14183390D02*
X40790476Y-14231009D01*
X40790476Y-14231009D02*
X40742857Y-14278628D01*
X40742857Y-14278628D02*
X40695238Y-14373866D01*
X40695238Y-14373866D02*
X40695238Y-14564342D01*
X40695238Y-14564342D02*
X40742857Y-14659580D01*
X40742857Y-14659580D02*
X40790476Y-14707200D01*
X40790476Y-14707200D02*
X40885714Y-14754819D01*
X40885714Y-14754819D02*
X41076190Y-14754819D01*
X41076190Y-14754819D02*
X41171428Y-14707200D01*
X41171428Y-14707200D02*
X41219047Y-14659580D01*
X41219047Y-14659580D02*
X41266666Y-14564342D01*
X41266666Y-14564342D02*
X41266666Y-14373866D01*
X41266666Y-14373866D02*
X41219047Y-14278628D01*
X41219047Y-14278628D02*
X41171428Y-14231009D01*
X41171428Y-14231009D02*
X41076190Y-14183390D01*
X48666666Y-2954819D02*
X48666666Y-3669104D01*
X48666666Y-3669104D02*
X48619047Y-3811961D01*
X48619047Y-3811961D02*
X48523809Y-3907200D01*
X48523809Y-3907200D02*
X48380952Y-3954819D01*
X48380952Y-3954819D02*
X48285714Y-3954819D01*
X49047619Y-2954819D02*
X49666666Y-2954819D01*
X49666666Y-2954819D02*
X49333333Y-3335771D01*
X49333333Y-3335771D02*
X49476190Y-3335771D01*
X49476190Y-3335771D02*
X49571428Y-3383390D01*
X49571428Y-3383390D02*
X49619047Y-3431009D01*
X49619047Y-3431009D02*
X49666666Y-3526247D01*
X49666666Y-3526247D02*
X49666666Y-3764342D01*
X49666666Y-3764342D02*
X49619047Y-3859580D01*
X49619047Y-3859580D02*
X49571428Y-3907200D01*
X49571428Y-3907200D02*
X49476190Y-3954819D01*
X49476190Y-3954819D02*
X49190476Y-3954819D01*
X49190476Y-3954819D02*
X49095238Y-3907200D01*
X49095238Y-3907200D02*
X49047619Y-3859580D01*
X10738095Y-71254819D02*
X11309523Y-71254819D01*
X11023809Y-72254819D02*
X11023809Y-71254819D01*
X11642857Y-72254819D02*
X11642857Y-71254819D01*
X11642857Y-71254819D02*
X12023809Y-71254819D01*
X12023809Y-71254819D02*
X12119047Y-71302438D01*
X12119047Y-71302438D02*
X12166666Y-71350057D01*
X12166666Y-71350057D02*
X12214285Y-71445295D01*
X12214285Y-71445295D02*
X12214285Y-71588152D01*
X12214285Y-71588152D02*
X12166666Y-71683390D01*
X12166666Y-71683390D02*
X12119047Y-71731009D01*
X12119047Y-71731009D02*
X12023809Y-71778628D01*
X12023809Y-71778628D02*
X11642857Y-71778628D01*
X13166666Y-72254819D02*
X12595238Y-72254819D01*
X12880952Y-72254819D02*
X12880952Y-71254819D01*
X12880952Y-71254819D02*
X12785714Y-71397676D01*
X12785714Y-71397676D02*
X12690476Y-71492914D01*
X12690476Y-71492914D02*
X12595238Y-71540533D01*
X35738095Y-14554819D02*
X35738095Y-15364342D01*
X35738095Y-15364342D02*
X35785714Y-15459580D01*
X35785714Y-15459580D02*
X35833333Y-15507200D01*
X35833333Y-15507200D02*
X35928571Y-15554819D01*
X35928571Y-15554819D02*
X36119047Y-15554819D01*
X36119047Y-15554819D02*
X36214285Y-15507200D01*
X36214285Y-15507200D02*
X36261904Y-15459580D01*
X36261904Y-15459580D02*
X36309523Y-15364342D01*
X36309523Y-15364342D02*
X36309523Y-14554819D01*
X36738095Y-14650057D02*
X36785714Y-14602438D01*
X36785714Y-14602438D02*
X36880952Y-14554819D01*
X36880952Y-14554819D02*
X37119047Y-14554819D01*
X37119047Y-14554819D02*
X37214285Y-14602438D01*
X37214285Y-14602438D02*
X37261904Y-14650057D01*
X37261904Y-14650057D02*
X37309523Y-14745295D01*
X37309523Y-14745295D02*
X37309523Y-14840533D01*
X37309523Y-14840533D02*
X37261904Y-14983390D01*
X37261904Y-14983390D02*
X36690476Y-15554819D01*
X36690476Y-15554819D02*
X37309523Y-15554819D01*
X38738095Y-37454819D02*
X39309523Y-37454819D01*
X39023809Y-38454819D02*
X39023809Y-37454819D01*
X39642857Y-38454819D02*
X39642857Y-37454819D01*
X39642857Y-37454819D02*
X40023809Y-37454819D01*
X40023809Y-37454819D02*
X40119047Y-37502438D01*
X40119047Y-37502438D02*
X40166666Y-37550057D01*
X40166666Y-37550057D02*
X40214285Y-37645295D01*
X40214285Y-37645295D02*
X40214285Y-37788152D01*
X40214285Y-37788152D02*
X40166666Y-37883390D01*
X40166666Y-37883390D02*
X40119047Y-37931009D01*
X40119047Y-37931009D02*
X40023809Y-37978628D01*
X40023809Y-37978628D02*
X39642857Y-37978628D01*
X40595238Y-37550057D02*
X40642857Y-37502438D01*
X40642857Y-37502438D02*
X40738095Y-37454819D01*
X40738095Y-37454819D02*
X40976190Y-37454819D01*
X40976190Y-37454819D02*
X41071428Y-37502438D01*
X41071428Y-37502438D02*
X41119047Y-37550057D01*
X41119047Y-37550057D02*
X41166666Y-37645295D01*
X41166666Y-37645295D02*
X41166666Y-37740533D01*
X41166666Y-37740533D02*
X41119047Y-37883390D01*
X41119047Y-37883390D02*
X40547619Y-38454819D01*
X40547619Y-38454819D02*
X41166666Y-38454819D01*
X38838095Y-6154819D02*
X39409523Y-6154819D01*
X39123809Y-7154819D02*
X39123809Y-6154819D01*
X39742857Y-7154819D02*
X39742857Y-6154819D01*
X39742857Y-6154819D02*
X40123809Y-6154819D01*
X40123809Y-6154819D02*
X40219047Y-6202438D01*
X40219047Y-6202438D02*
X40266666Y-6250057D01*
X40266666Y-6250057D02*
X40314285Y-6345295D01*
X40314285Y-6345295D02*
X40314285Y-6488152D01*
X40314285Y-6488152D02*
X40266666Y-6583390D01*
X40266666Y-6583390D02*
X40219047Y-6631009D01*
X40219047Y-6631009D02*
X40123809Y-6678628D01*
X40123809Y-6678628D02*
X39742857Y-6678628D01*
X40790476Y-7154819D02*
X40980952Y-7154819D01*
X40980952Y-7154819D02*
X41076190Y-7107200D01*
X41076190Y-7107200D02*
X41123809Y-7059580D01*
X41123809Y-7059580D02*
X41219047Y-6916723D01*
X41219047Y-6916723D02*
X41266666Y-6726247D01*
X41266666Y-6726247D02*
X41266666Y-6345295D01*
X41266666Y-6345295D02*
X41219047Y-6250057D01*
X41219047Y-6250057D02*
X41171428Y-6202438D01*
X41171428Y-6202438D02*
X41076190Y-6154819D01*
X41076190Y-6154819D02*
X40885714Y-6154819D01*
X40885714Y-6154819D02*
X40790476Y-6202438D01*
X40790476Y-6202438D02*
X40742857Y-6250057D01*
X40742857Y-6250057D02*
X40695238Y-6345295D01*
X40695238Y-6345295D02*
X40695238Y-6583390D01*
X40695238Y-6583390D02*
X40742857Y-6678628D01*
X40742857Y-6678628D02*
X40790476Y-6726247D01*
X40790476Y-6726247D02*
X40885714Y-6773866D01*
X40885714Y-6773866D02*
X41076190Y-6773866D01*
X41076190Y-6773866D02*
X41171428Y-6726247D01*
X41171428Y-6726247D02*
X41219047Y-6678628D01*
X41219047Y-6678628D02*
X41266666Y-6583390D01*
X55261905Y-71054819D02*
X55261905Y-70054819D01*
X55261905Y-70054819D02*
X55500000Y-70054819D01*
X55500000Y-70054819D02*
X55642857Y-70102438D01*
X55642857Y-70102438D02*
X55738095Y-70197676D01*
X55738095Y-70197676D02*
X55785714Y-70292914D01*
X55785714Y-70292914D02*
X55833333Y-70483390D01*
X55833333Y-70483390D02*
X55833333Y-70626247D01*
X55833333Y-70626247D02*
X55785714Y-70816723D01*
X55785714Y-70816723D02*
X55738095Y-70911961D01*
X55738095Y-70911961D02*
X55642857Y-71007200D01*
X55642857Y-71007200D02*
X55500000Y-71054819D01*
X55500000Y-71054819D02*
X55261905Y-71054819D01*
X56166667Y-70054819D02*
X56785714Y-70054819D01*
X56785714Y-70054819D02*
X56452381Y-70435771D01*
X56452381Y-70435771D02*
X56595238Y-70435771D01*
X56595238Y-70435771D02*
X56690476Y-70483390D01*
X56690476Y-70483390D02*
X56738095Y-70531009D01*
X56738095Y-70531009D02*
X56785714Y-70626247D01*
X56785714Y-70626247D02*
X56785714Y-70864342D01*
X56785714Y-70864342D02*
X56738095Y-70959580D01*
X56738095Y-70959580D02*
X56690476Y-71007200D01*
X56690476Y-71007200D02*
X56595238Y-71054819D01*
X56595238Y-71054819D02*
X56309524Y-71054819D01*
X56309524Y-71054819D02*
X56214286Y-71007200D01*
X56214286Y-71007200D02*
X56166667Y-70959580D01*
X6338095Y-31154819D02*
X6909523Y-31154819D01*
X6623809Y-32154819D02*
X6623809Y-31154819D01*
X7242857Y-32154819D02*
X7242857Y-31154819D01*
X7242857Y-31154819D02*
X7623809Y-31154819D01*
X7623809Y-31154819D02*
X7719047Y-31202438D01*
X7719047Y-31202438D02*
X7766666Y-31250057D01*
X7766666Y-31250057D02*
X7814285Y-31345295D01*
X7814285Y-31345295D02*
X7814285Y-31488152D01*
X7814285Y-31488152D02*
X7766666Y-31583390D01*
X7766666Y-31583390D02*
X7719047Y-31631009D01*
X7719047Y-31631009D02*
X7623809Y-31678628D01*
X7623809Y-31678628D02*
X7242857Y-31678628D01*
X8147619Y-31154819D02*
X8814285Y-31154819D01*
X8814285Y-31154819D02*
X8385714Y-32154819D01*
X38738095Y-49254819D02*
X39309523Y-49254819D01*
X39023809Y-50254819D02*
X39023809Y-49254819D01*
X39642857Y-50254819D02*
X39642857Y-49254819D01*
X39642857Y-49254819D02*
X40023809Y-49254819D01*
X40023809Y-49254819D02*
X40119047Y-49302438D01*
X40119047Y-49302438D02*
X40166666Y-49350057D01*
X40166666Y-49350057D02*
X40214285Y-49445295D01*
X40214285Y-49445295D02*
X40214285Y-49588152D01*
X40214285Y-49588152D02*
X40166666Y-49683390D01*
X40166666Y-49683390D02*
X40119047Y-49731009D01*
X40119047Y-49731009D02*
X40023809Y-49778628D01*
X40023809Y-49778628D02*
X39642857Y-49778628D01*
X41071428Y-49588152D02*
X41071428Y-50254819D01*
X40833333Y-49207200D02*
X40595238Y-49921485D01*
X40595238Y-49921485D02*
X41214285Y-49921485D01*
X3838095Y-35754819D02*
X4409523Y-35754819D01*
X4123809Y-36754819D02*
X4123809Y-35754819D01*
X4742857Y-36754819D02*
X4742857Y-35754819D01*
X4742857Y-35754819D02*
X5123809Y-35754819D01*
X5123809Y-35754819D02*
X5219047Y-35802438D01*
X5219047Y-35802438D02*
X5266666Y-35850057D01*
X5266666Y-35850057D02*
X5314285Y-35945295D01*
X5314285Y-35945295D02*
X5314285Y-36088152D01*
X5314285Y-36088152D02*
X5266666Y-36183390D01*
X5266666Y-36183390D02*
X5219047Y-36231009D01*
X5219047Y-36231009D02*
X5123809Y-36278628D01*
X5123809Y-36278628D02*
X4742857Y-36278628D01*
X6171428Y-35754819D02*
X5980952Y-35754819D01*
X5980952Y-35754819D02*
X5885714Y-35802438D01*
X5885714Y-35802438D02*
X5838095Y-35850057D01*
X5838095Y-35850057D02*
X5742857Y-35992914D01*
X5742857Y-35992914D02*
X5695238Y-36183390D01*
X5695238Y-36183390D02*
X5695238Y-36564342D01*
X5695238Y-36564342D02*
X5742857Y-36659580D01*
X5742857Y-36659580D02*
X5790476Y-36707200D01*
X5790476Y-36707200D02*
X5885714Y-36754819D01*
X5885714Y-36754819D02*
X6076190Y-36754819D01*
X6076190Y-36754819D02*
X6171428Y-36707200D01*
X6171428Y-36707200D02*
X6219047Y-36659580D01*
X6219047Y-36659580D02*
X6266666Y-36564342D01*
X6266666Y-36564342D02*
X6266666Y-36326247D01*
X6266666Y-36326247D02*
X6219047Y-36231009D01*
X6219047Y-36231009D02*
X6171428Y-36183390D01*
X6171428Y-36183390D02*
X6076190Y-36135771D01*
X6076190Y-36135771D02*
X5885714Y-36135771D01*
X5885714Y-36135771D02*
X5790476Y-36183390D01*
X5790476Y-36183390D02*
X5742857Y-36231009D01*
X5742857Y-36231009D02*
X5695238Y-36326247D01*
X28261905Y-22754819D02*
X28833333Y-22754819D01*
X28547619Y-23754819D02*
X28547619Y-22754819D01*
X29166667Y-23754819D02*
X29166667Y-22754819D01*
X29166667Y-22754819D02*
X29547619Y-22754819D01*
X29547619Y-22754819D02*
X29642857Y-22802438D01*
X29642857Y-22802438D02*
X29690476Y-22850057D01*
X29690476Y-22850057D02*
X29738095Y-22945295D01*
X29738095Y-22945295D02*
X29738095Y-23088152D01*
X29738095Y-23088152D02*
X29690476Y-23183390D01*
X29690476Y-23183390D02*
X29642857Y-23231009D01*
X29642857Y-23231009D02*
X29547619Y-23278628D01*
X29547619Y-23278628D02*
X29166667Y-23278628D01*
X30690476Y-23754819D02*
X30119048Y-23754819D01*
X30404762Y-23754819D02*
X30404762Y-22754819D01*
X30404762Y-22754819D02*
X30309524Y-22897676D01*
X30309524Y-22897676D02*
X30214286Y-22992914D01*
X30214286Y-22992914D02*
X30119048Y-23040533D01*
X31309524Y-22754819D02*
X31404762Y-22754819D01*
X31404762Y-22754819D02*
X31500000Y-22802438D01*
X31500000Y-22802438D02*
X31547619Y-22850057D01*
X31547619Y-22850057D02*
X31595238Y-22945295D01*
X31595238Y-22945295D02*
X31642857Y-23135771D01*
X31642857Y-23135771D02*
X31642857Y-23373866D01*
X31642857Y-23373866D02*
X31595238Y-23564342D01*
X31595238Y-23564342D02*
X31547619Y-23659580D01*
X31547619Y-23659580D02*
X31500000Y-23707200D01*
X31500000Y-23707200D02*
X31404762Y-23754819D01*
X31404762Y-23754819D02*
X31309524Y-23754819D01*
X31309524Y-23754819D02*
X31214286Y-23707200D01*
X31214286Y-23707200D02*
X31166667Y-23659580D01*
X31166667Y-23659580D02*
X31119048Y-23564342D01*
X31119048Y-23564342D02*
X31071429Y-23373866D01*
X31071429Y-23373866D02*
X31071429Y-23135771D01*
X31071429Y-23135771D02*
X31119048Y-22945295D01*
X31119048Y-22945295D02*
X31166667Y-22850057D01*
X31166667Y-22850057D02*
X31214286Y-22802438D01*
X31214286Y-22802438D02*
X31309524Y-22754819D01*
X36038095Y-43454819D02*
X36609523Y-43454819D01*
X36323809Y-44454819D02*
X36323809Y-43454819D01*
X36942857Y-44454819D02*
X36942857Y-43454819D01*
X36942857Y-43454819D02*
X37323809Y-43454819D01*
X37323809Y-43454819D02*
X37419047Y-43502438D01*
X37419047Y-43502438D02*
X37466666Y-43550057D01*
X37466666Y-43550057D02*
X37514285Y-43645295D01*
X37514285Y-43645295D02*
X37514285Y-43788152D01*
X37514285Y-43788152D02*
X37466666Y-43883390D01*
X37466666Y-43883390D02*
X37419047Y-43931009D01*
X37419047Y-43931009D02*
X37323809Y-43978628D01*
X37323809Y-43978628D02*
X36942857Y-43978628D01*
X37847619Y-43454819D02*
X38466666Y-43454819D01*
X38466666Y-43454819D02*
X38133333Y-43835771D01*
X38133333Y-43835771D02*
X38276190Y-43835771D01*
X38276190Y-43835771D02*
X38371428Y-43883390D01*
X38371428Y-43883390D02*
X38419047Y-43931009D01*
X38419047Y-43931009D02*
X38466666Y-44026247D01*
X38466666Y-44026247D02*
X38466666Y-44264342D01*
X38466666Y-44264342D02*
X38419047Y-44359580D01*
X38419047Y-44359580D02*
X38371428Y-44407200D01*
X38371428Y-44407200D02*
X38276190Y-44454819D01*
X38276190Y-44454819D02*
X37990476Y-44454819D01*
X37990476Y-44454819D02*
X37895238Y-44407200D01*
X37895238Y-44407200D02*
X37847619Y-44359580D01*
X26238095Y-18154819D02*
X26809523Y-18154819D01*
X26523809Y-19154819D02*
X26523809Y-18154819D01*
X27142857Y-19154819D02*
X27142857Y-18154819D01*
X27142857Y-18154819D02*
X27523809Y-18154819D01*
X27523809Y-18154819D02*
X27619047Y-18202438D01*
X27619047Y-18202438D02*
X27666666Y-18250057D01*
X27666666Y-18250057D02*
X27714285Y-18345295D01*
X27714285Y-18345295D02*
X27714285Y-18488152D01*
X27714285Y-18488152D02*
X27666666Y-18583390D01*
X27666666Y-18583390D02*
X27619047Y-18631009D01*
X27619047Y-18631009D02*
X27523809Y-18678628D01*
X27523809Y-18678628D02*
X27142857Y-18678628D01*
X28619047Y-18154819D02*
X28142857Y-18154819D01*
X28142857Y-18154819D02*
X28095238Y-18631009D01*
X28095238Y-18631009D02*
X28142857Y-18583390D01*
X28142857Y-18583390D02*
X28238095Y-18535771D01*
X28238095Y-18535771D02*
X28476190Y-18535771D01*
X28476190Y-18535771D02*
X28571428Y-18583390D01*
X28571428Y-18583390D02*
X28619047Y-18631009D01*
X28619047Y-18631009D02*
X28666666Y-18726247D01*
X28666666Y-18726247D02*
X28666666Y-18964342D01*
X28666666Y-18964342D02*
X28619047Y-19059580D01*
X28619047Y-19059580D02*
X28571428Y-19107200D01*
X28571428Y-19107200D02*
X28476190Y-19154819D01*
X28476190Y-19154819D02*
X28238095Y-19154819D01*
X28238095Y-19154819D02*
X28142857Y-19107200D01*
X28142857Y-19107200D02*
X28095238Y-19059580D01*
X22738095Y-45954819D02*
X22738095Y-46764342D01*
X22738095Y-46764342D02*
X22785714Y-46859580D01*
X22785714Y-46859580D02*
X22833333Y-46907200D01*
X22833333Y-46907200D02*
X22928571Y-46954819D01*
X22928571Y-46954819D02*
X23119047Y-46954819D01*
X23119047Y-46954819D02*
X23214285Y-46907200D01*
X23214285Y-46907200D02*
X23261904Y-46859580D01*
X23261904Y-46859580D02*
X23309523Y-46764342D01*
X23309523Y-46764342D02*
X23309523Y-45954819D01*
X24309523Y-46954819D02*
X23738095Y-46954819D01*
X24023809Y-46954819D02*
X24023809Y-45954819D01*
X24023809Y-45954819D02*
X23928571Y-46097676D01*
X23928571Y-46097676D02*
X23833333Y-46192914D01*
X23833333Y-46192914D02*
X23738095Y-46240533D01*
X59754819Y-44761904D02*
X60564342Y-44761904D01*
X60564342Y-44761904D02*
X60659580Y-44714285D01*
X60659580Y-44714285D02*
X60707200Y-44666666D01*
X60707200Y-44666666D02*
X60754819Y-44571428D01*
X60754819Y-44571428D02*
X60754819Y-44380952D01*
X60754819Y-44380952D02*
X60707200Y-44285714D01*
X60707200Y-44285714D02*
X60659580Y-44238095D01*
X60659580Y-44238095D02*
X60564342Y-44190476D01*
X60564342Y-44190476D02*
X59754819Y-44190476D01*
X59754819Y-43809523D02*
X59754819Y-43190476D01*
X59754819Y-43190476D02*
X60135771Y-43523809D01*
X60135771Y-43523809D02*
X60135771Y-43380952D01*
X60135771Y-43380952D02*
X60183390Y-43285714D01*
X60183390Y-43285714D02*
X60231009Y-43238095D01*
X60231009Y-43238095D02*
X60326247Y-43190476D01*
X60326247Y-43190476D02*
X60564342Y-43190476D01*
X60564342Y-43190476D02*
X60659580Y-43238095D01*
X60659580Y-43238095D02*
X60707200Y-43285714D01*
X60707200Y-43285714D02*
X60754819Y-43380952D01*
X60754819Y-43380952D02*
X60754819Y-43666666D01*
X60754819Y-43666666D02*
X60707200Y-43761904D01*
X60707200Y-43761904D02*
X60659580Y-43809523D01*
D11*
%TO.C,C5*%
X40990000Y-16640580D02*
X40990000Y-16359420D01*
X42010000Y-16640580D02*
X42010000Y-16359420D01*
%TO.C,SW1*%
X43800000Y-67300000D02*
X43800000Y-67420000D01*
X43800000Y-68430000D02*
X43800000Y-69570000D01*
X43800000Y-70580000D02*
X43800000Y-70700000D01*
X43800000Y-70700000D02*
X48200000Y-70700000D01*
X48200000Y-67300000D02*
X43800000Y-67300000D01*
X48200000Y-67420000D02*
X48200000Y-67300000D01*
X48200000Y-69570000D02*
X48200000Y-68430000D01*
X48200000Y-70700000D02*
X48200000Y-70580000D01*
%TO.C,TP8*%
X41950000Y-12000000D02*
G75*
G02*
X40050000Y-12000000I-950000J0D01*
G01*
X40050000Y-12000000D02*
G75*
G02*
X41950000Y-12000000I950000J0D01*
G01*
%TO.C,J3*%
X44670000Y-2170000D02*
X46000000Y-2170000D01*
X44670000Y-3500000D02*
X44670000Y-2170000D01*
X44670000Y-4770000D02*
X44670000Y-12450000D01*
X44670000Y-4770000D02*
X47330000Y-4770000D01*
X44670000Y-12450000D02*
X47330000Y-12450000D01*
X47330000Y-4770000D02*
X47330000Y-12450000D01*
%TO.C,R8*%
X54162742Y-63977500D02*
X54637258Y-63977500D01*
X54162742Y-65022500D02*
X54637258Y-65022500D01*
%TO.C,TP1*%
X12950000Y-69500000D02*
G75*
G02*
X11050000Y-69500000I-950000J0D01*
G01*
X11050000Y-69500000D02*
G75*
G02*
X12950000Y-69500000I950000J0D01*
G01*
%TO.C,U2*%
X36500000Y-15940000D02*
X34550000Y-15940000D01*
X36500000Y-15940000D02*
X38450000Y-15940000D01*
X36500000Y-26060000D02*
X34550000Y-26060000D01*
X36500000Y-26060000D02*
X38450000Y-26060000D01*
X33800000Y-15995000D02*
X33560000Y-15665000D01*
X34040000Y-15665000D01*
X33800000Y-15995000D01*
G36*
X33800000Y-15995000D02*
G01*
X33560000Y-15665000D01*
X34040000Y-15665000D01*
X33800000Y-15995000D01*
G37*
%TO.C,C6*%
X31490000Y-17140580D02*
X31490000Y-16859420D01*
X32510000Y-17140580D02*
X32510000Y-16859420D01*
%TO.C,R6*%
X38762742Y-31077500D02*
X39237258Y-31077500D01*
X38762742Y-32122500D02*
X39237258Y-32122500D01*
%TO.C,TP2*%
X40950000Y-40500000D02*
G75*
G02*
X39050000Y-40500000I-950000J0D01*
G01*
X39050000Y-40500000D02*
G75*
G02*
X40950000Y-40500000I950000J0D01*
G01*
%TO.C,R7*%
X51262742Y-68477500D02*
X51737258Y-68477500D01*
X51262742Y-69522500D02*
X51737258Y-69522500D01*
%TO.C,TP9*%
X41950000Y-9000000D02*
G75*
G02*
X40050000Y-9000000I-950000J0D01*
G01*
X40050000Y-9000000D02*
G75*
G02*
X41950000Y-9000000I950000J0D01*
G01*
%TO.C,R9*%
X57462742Y-63977500D02*
X57937258Y-63977500D01*
X57462742Y-65022500D02*
X57937258Y-65022500D01*
%TO.C,D3*%
X53800000Y-66490000D02*
X57500000Y-66490000D01*
X54500000Y-69510000D02*
X57500000Y-69510000D01*
%TO.C,TP7*%
X9450000Y-34000000D02*
G75*
G02*
X7550000Y-34000000I-950000J0D01*
G01*
X7550000Y-34000000D02*
G75*
G02*
X9450000Y-34000000I950000J0D01*
G01*
%TO.C,C10*%
X51359420Y-70990000D02*
X51640580Y-70990000D01*
X51359420Y-72010000D02*
X51640580Y-72010000D01*
%TO.C,TP4*%
X40950000Y-47500000D02*
G75*
G02*
X39050000Y-47500000I-950000J0D01*
G01*
X39050000Y-47500000D02*
G75*
G02*
X40950000Y-47500000I950000J0D01*
G01*
%TO.C,TP6*%
X6950000Y-34000000D02*
G75*
G02*
X5050000Y-34000000I-950000J0D01*
G01*
X5050000Y-34000000D02*
G75*
G02*
X6950000Y-34000000I950000J0D01*
G01*
%TO.C,TP10*%
X30950000Y-21000000D02*
G75*
G02*
X29050000Y-21000000I-950000J0D01*
G01*
X29050000Y-21000000D02*
G75*
G02*
X30950000Y-21000000I950000J0D01*
G01*
%TO.C,TP3*%
X40950000Y-44000000D02*
G75*
G02*
X39050000Y-44000000I-950000J0D01*
G01*
X39050000Y-44000000D02*
G75*
G02*
X40950000Y-44000000I950000J0D01*
G01*
%TO.C,TP5*%
X28450000Y-21000000D02*
G75*
G02*
X26550000Y-21000000I-950000J0D01*
G01*
X26550000Y-21000000D02*
G75*
G02*
X28450000Y-21000000I950000J0D01*
G01*
%TO.C,U1*%
X13385000Y-36820000D02*
X14825000Y-36820000D01*
X14825000Y-36250000D02*
X14825000Y-36820000D01*
X14825000Y-36250000D02*
X30000000Y-36250000D01*
X14825000Y-38340000D02*
X14825000Y-39360000D01*
X14825000Y-40880000D02*
X14825000Y-41900000D01*
X14825000Y-43420000D02*
X14825000Y-44440000D01*
X14825000Y-45960000D02*
X14825000Y-46980000D01*
X14825000Y-48500000D02*
X14825000Y-49520000D01*
X14825000Y-51040000D02*
X14825000Y-52060000D01*
X14825000Y-53580000D02*
X14825000Y-54150000D01*
X14825000Y-54150000D02*
X30000000Y-54150000D01*
X30000000Y-36250000D02*
X30000000Y-36820000D01*
X30000000Y-38340000D02*
X30000000Y-39360000D01*
X30000000Y-40880000D02*
X30000000Y-41900000D01*
X30000000Y-43420000D02*
X30000000Y-44440000D01*
X30000000Y-45960000D02*
X30000000Y-46980000D01*
X30000000Y-48500000D02*
X30000000Y-49520000D01*
X30000000Y-51040000D02*
X30000000Y-52060000D01*
X30000000Y-53580000D02*
X30000000Y-54150000D01*
%TO.C,R5*%
X35262742Y-31077500D02*
X35737258Y-31077500D01*
X35262742Y-32122500D02*
X35737258Y-32122500D01*
%TO.C,C4*%
X40990000Y-20140580D02*
X40990000Y-19859420D01*
X42010000Y-20140580D02*
X42010000Y-19859420D01*
%TO.C,U3*%
X61140000Y-44750000D02*
X61140000Y-43250000D01*
X62860000Y-44750000D02*
X62860000Y-43250000D01*
X61400000Y-45480000D02*
X61120000Y-45200000D01*
X61400000Y-45200000D01*
X61400000Y-45480000D01*
G36*
X61400000Y-45480000D02*
G01*
X61120000Y-45200000D01*
X61400000Y-45200000D01*
X61400000Y-45480000D01*
G37*
%TO.C,C9*%
X40990000Y-27640580D02*
X40990000Y-27359420D01*
X42010000Y-27640580D02*
X42010000Y-27359420D01*
%TO.C,C3*%
X35288748Y-39590000D02*
X36711252Y-39590000D01*
X35288748Y-41410000D02*
X36711252Y-41410000D01*
%TO.C,R10*%
X60762742Y-63977500D02*
X61237258Y-63977500D01*
X60762742Y-65022500D02*
X61237258Y-65022500D01*
%TO.C,C7*%
X40990000Y-24140580D02*
X40990000Y-23859420D01*
X42010000Y-24140580D02*
X42010000Y-23859420D01*
%TD*%
M02*
