%TF.GenerationSoftware,KiCad,Pcbnew,9.0.9.1-unknown-202605141413~ce707d0a6c~ubuntu24.04.1*%
%TF.CreationDate,2026-09-12T18:13:10+00:00*%
%TF.ProjectId,spool-sentry,73706f6f-6c2d-4736-956e-7472792e6b69,rev?*%
%TF.SameCoordinates,Original*%
%TF.FileFunction,Other,User*%
%FSLAX46Y46*%
G04 Gerber Fmt 4.6, Leading zero omitted, Abs format (unit mm)*
G04 Created by KiCad (PCBNEW 9.0.9.1-unknown-202605141413~ce707d0a6c~ubuntu24.04.1) date 2026-09-12 18:13:10*
%MOMM*%
%LPD*%
G01*
G04 APERTURE LIST*
%ADD10C,0.050000*%
G04 APERTURE END LIST*
D10*
%TO.C,D1*%
X7200000Y-59850000D02*
X7200000Y-62150000D01*
X7200000Y-59850000D02*
X11600000Y-59850000D01*
X11600000Y-59850000D02*
X11600000Y-62150000D01*
X11600000Y-62150000D02*
X7200000Y-62150000D01*
%TO.C,F1*%
X12000000Y-59050000D02*
X17900000Y-59050000D01*
X12000000Y-62950000D02*
X12000000Y-59050000D01*
X17900000Y-59050000D02*
X17900000Y-62950000D01*
X17900000Y-62950000D02*
X12000000Y-62950000D01*
%TO.C,R1*%
X26820000Y-60270000D02*
X29780000Y-60270000D01*
X26820000Y-61730000D02*
X26820000Y-60270000D01*
X29780000Y-60270000D02*
X29780000Y-61730000D01*
X29780000Y-61730000D02*
X26820000Y-61730000D01*
%TO.C,R3*%
X29020000Y-11270000D02*
X31980000Y-11270000D01*
X29020000Y-12730000D02*
X29020000Y-11270000D01*
X31980000Y-11270000D02*
X31980000Y-12730000D01*
X31980000Y-12730000D02*
X29020000Y-12730000D01*
%TO.C,C1*%
X12700000Y-63850000D02*
X17300000Y-63850000D01*
X12700000Y-66150000D02*
X12700000Y-63850000D01*
X17300000Y-63850000D02*
X17300000Y-66150000D01*
X17300000Y-66150000D02*
X12700000Y-66150000D01*
%TO.C,J2*%
X100000Y-8280000D02*
X100000Y-17720000D01*
X100000Y-17720000D02*
X6500000Y-17720000D01*
X6500000Y-8280000D02*
X100000Y-8280000D01*
X6500000Y-17720000D02*
X6500000Y-8280000D01*
%TO.C,R2*%
X30420000Y-60270000D02*
X33380000Y-60270000D01*
X30420000Y-61730000D02*
X30420000Y-60270000D01*
X33380000Y-60270000D02*
X33380000Y-61730000D01*
X33380000Y-61730000D02*
X30420000Y-61730000D01*
%TO.C,R4*%
X29020000Y-8270000D02*
X31980000Y-8270000D01*
X29020000Y-9730000D02*
X29020000Y-8270000D01*
X31980000Y-8270000D02*
X31980000Y-9730000D01*
X31980000Y-9730000D02*
X29020000Y-9730000D01*
%TO.C,J1*%
X7360000Y-62680000D02*
X-1580000Y-62680000D01*
X-1580000Y-73320000D01*
X7360000Y-73320000D01*
X7360000Y-62680000D01*
%TO.C,C8*%
X32520000Y-9770000D02*
X35480000Y-9770000D01*
X32520000Y-11230000D02*
X32520000Y-9770000D01*
X35480000Y-9770000D02*
X35480000Y-11230000D01*
X35480000Y-11230000D02*
X32520000Y-11230000D01*
%TO.C,C11*%
X9020000Y-63770000D02*
X11980000Y-63770000D01*
X9020000Y-65230000D02*
X9020000Y-63770000D01*
X11980000Y-63770000D02*
X11980000Y-65230000D01*
X11980000Y-65230000D02*
X9020000Y-65230000D01*
%TO.C,D2*%
X18250000Y-59250000D02*
X25250000Y-59250000D01*
X18250000Y-62750000D02*
X18250000Y-59250000D01*
X25250000Y-59250000D02*
X25250000Y-62750000D01*
X25250000Y-62750000D02*
X18250000Y-62750000D01*
%TO.C,C2*%
X21020000Y-64270000D02*
X23980000Y-64270000D01*
X21020000Y-65730000D02*
X21020000Y-64270000D01*
X23980000Y-64270000D02*
X23980000Y-65730000D01*
X23980000Y-65730000D02*
X21020000Y-65730000D01*
%TD*%
M02*
