%TF.GenerationSoftware,KiCad,Pcbnew,9.0.9.1-unknown-202605141413~ce707d0a6c~ubuntu24.04.1*%
%TF.CreationDate,2026-09-12T18:13:10+00:00*%
%TF.ProjectId,spool-sentry,73706f6f-6c2d-4736-956e-7472792e6b69,rev?*%
%TF.SameCoordinates,Original*%
%TF.FileFunction,Legend,Bot*%
%TF.FilePolarity,Positive*%
%FSLAX46Y46*%
G04 Gerber Fmt 4.6, Leading zero omitted, Abs format (unit mm)*
G04 Created by KiCad (PCBNEW 9.0.9.1-unknown-202605141413~ce707d0a6c~ubuntu24.04.1) date 2026-09-12 18:13:10*
%MOMM*%
%LPD*%
G01*
G04 APERTURE LIST*
%ADD10C,0.150000*%
%ADD11C,0.120000*%
G04 APERTURE END LIST*
D10*
X10138094Y-63354819D02*
X10138094Y-62354819D01*
X10138094Y-62354819D02*
X9899999Y-62354819D01*
X9899999Y-62354819D02*
X9757142Y-62402438D01*
X9757142Y-62402438D02*
X9661904Y-62497676D01*
X9661904Y-62497676D02*
X9614285Y-62592914D01*
X9614285Y-62592914D02*
X9566666Y-62783390D01*
X9566666Y-62783390D02*
X9566666Y-62926247D01*
X9566666Y-62926247D02*
X9614285Y-63116723D01*
X9614285Y-63116723D02*
X9661904Y-63211961D01*
X9661904Y-63211961D02*
X9757142Y-63307200D01*
X9757142Y-63307200D02*
X9899999Y-63354819D01*
X9899999Y-63354819D02*
X10138094Y-63354819D01*
X8614285Y-63354819D02*
X9185713Y-63354819D01*
X8899999Y-63354819D02*
X8899999Y-62354819D01*
X8899999Y-62354819D02*
X8995237Y-62497676D01*
X8995237Y-62497676D02*
X9090475Y-62592914D01*
X9090475Y-62592914D02*
X9185713Y-62640533D01*
X2754819Y-12666666D02*
X3469104Y-12666666D01*
X3469104Y-12666666D02*
X3611961Y-12619047D01*
X3611961Y-12619047D02*
X3707200Y-12523809D01*
X3707200Y-12523809D02*
X3754819Y-12380952D01*
X3754819Y-12380952D02*
X3754819Y-12285714D01*
X2850057Y-13095238D02*
X2802438Y-13142857D01*
X2802438Y-13142857D02*
X2754819Y-13238095D01*
X2754819Y-13238095D02*
X2754819Y-13476190D01*
X2754819Y-13476190D02*
X2802438Y-13571428D01*
X2802438Y-13571428D02*
X2850057Y-13619047D01*
X2850057Y-13619047D02*
X2945295Y-13666666D01*
X2945295Y-13666666D02*
X3040533Y-13666666D01*
X3040533Y-13666666D02*
X3183390Y-13619047D01*
X3183390Y-13619047D02*
X3754819Y-13047619D01*
X3754819Y-13047619D02*
X3754819Y-13666666D01*
X3145180Y-68333333D02*
X2430895Y-68333333D01*
X2430895Y-68333333D02*
X2288038Y-68380952D01*
X2288038Y-68380952D02*
X2192800Y-68476190D01*
X2192800Y-68476190D02*
X2145180Y-68619047D01*
X2145180Y-68619047D02*
X2145180Y-68714285D01*
X2145180Y-67333333D02*
X2145180Y-67904761D01*
X2145180Y-67619047D02*
X3145180Y-67619047D01*
X3145180Y-67619047D02*
X3002323Y-67714285D01*
X3002323Y-67714285D02*
X2907085Y-67809523D01*
X2907085Y-67809523D02*
X2859466Y-67904761D01*
X22488094Y-58454819D02*
X22488094Y-57454819D01*
X22488094Y-57454819D02*
X22249999Y-57454819D01*
X22249999Y-57454819D02*
X22107142Y-57502438D01*
X22107142Y-57502438D02*
X22011904Y-57597676D01*
X22011904Y-57597676D02*
X21964285Y-57692914D01*
X21964285Y-57692914D02*
X21916666Y-57883390D01*
X21916666Y-57883390D02*
X21916666Y-58026247D01*
X21916666Y-58026247D02*
X21964285Y-58216723D01*
X21964285Y-58216723D02*
X22011904Y-58311961D01*
X22011904Y-58311961D02*
X22107142Y-58407200D01*
X22107142Y-58407200D02*
X22249999Y-58454819D01*
X22249999Y-58454819D02*
X22488094Y-58454819D01*
X21535713Y-57550057D02*
X21488094Y-57502438D01*
X21488094Y-57502438D02*
X21392856Y-57454819D01*
X21392856Y-57454819D02*
X21154761Y-57454819D01*
X21154761Y-57454819D02*
X21059523Y-57502438D01*
X21059523Y-57502438D02*
X21011904Y-57550057D01*
X21011904Y-57550057D02*
X20964285Y-57645295D01*
X20964285Y-57645295D02*
X20964285Y-57740533D01*
X20964285Y-57740533D02*
X21011904Y-57883390D01*
X21011904Y-57883390D02*
X21583332Y-58454819D01*
X21583332Y-58454819D02*
X20964285Y-58454819D01*
D11*
%TO.C,D1*%
X7190000Y-60000000D02*
X7190000Y-62000000D01*
X7190000Y-60000000D02*
X11050000Y-60000000D01*
X7190000Y-62000000D02*
X11050000Y-62000000D01*
%TO.C,F1*%
X16336252Y-59290000D02*
X13563748Y-59290000D01*
X16336252Y-62710000D02*
X13563748Y-62710000D01*
%TO.C,R1*%
X28062742Y-60477500D02*
X28537258Y-60477500D01*
X28062742Y-61522500D02*
X28537258Y-61522500D01*
%TO.C,R3*%
X30262742Y-11477500D02*
X30737258Y-11477500D01*
X30262742Y-12522500D02*
X30737258Y-12522500D01*
%TO.C,C1*%
X14288748Y-64090000D02*
X15711252Y-64090000D01*
X14288748Y-65910000D02*
X15711252Y-65910000D01*
%TO.C,J2*%
X740000Y-10035000D02*
X740000Y-15965000D01*
X3560000Y-8765000D02*
X5010000Y-8765000D01*
X3560000Y-17235000D02*
X5010000Y-17235000D01*
X5010000Y-8765000D02*
X5010000Y-10565000D01*
X5010000Y-10565000D02*
X6000000Y-10565000D01*
X5010000Y-17235000D02*
X5010000Y-15435000D01*
%TO.C,R2*%
X31662742Y-60477500D02*
X32137258Y-60477500D01*
X31662742Y-61522500D02*
X32137258Y-61522500D01*
%TO.C,R4*%
X30262742Y-8477500D02*
X30737258Y-8477500D01*
X30262742Y-9522500D02*
X30737258Y-9522500D01*
%TO.C,J1*%
X2700000Y-63330000D02*
X4400000Y-63330000D01*
X2700000Y-72670000D02*
X4400000Y-72670000D01*
%TO.C,C8*%
X33859420Y-9990000D02*
X34140580Y-9990000D01*
X33859420Y-11010000D02*
X34140580Y-11010000D01*
%TO.C,C11*%
X10359420Y-63990000D02*
X10640580Y-63990000D01*
X10359420Y-65010000D02*
X10640580Y-65010000D01*
%TO.C,D2*%
X25260000Y-59350000D02*
X19750000Y-59350000D01*
X25260000Y-62650000D02*
X19750000Y-62650000D01*
X25260000Y-62650000D02*
X25260000Y-59350000D01*
%TO.C,C2*%
X22359420Y-64490000D02*
X22640580Y-64490000D01*
X22359420Y-65510000D02*
X22640580Y-65510000D01*
%TD*%
M02*
