%TF.GenerationSoftware,KiCad,Pcbnew,9.0.9.1-unknown-202605141413~ce707d0a6c~ubuntu24.04.1*%
%TF.CreationDate,2026-09-12T18:13:10+00:00*%
%TF.ProjectId,spool-sentry,73706f6f-6c2d-4736-956e-7472792e6b69,rev?*%
%TF.SameCoordinates,Original*%
%TF.FileFunction,OtherDrawing,Comment*%
%FSLAX46Y46*%
G04 Gerber Fmt 4.6, Leading zero omitted, Abs format (unit mm)*
G04 Created by KiCad (PCBNEW 9.0.9.1-unknown-202605141413~ce707d0a6c~ubuntu24.04.1) date 2026-09-12 18:13:10*
%MOMM*%
%LPD*%
G01*
G04 APERTURE LIST*
%ADD10C,0.100000*%
%ADD11C,0.120000*%
G04 APERTURE END LIST*
D10*
X-726109Y-69714285D02*
X-226109Y-69714285D01*
X-226109Y-69714285D02*
X-226109Y-69523809D01*
X-226109Y-69523809D02*
X-249919Y-69476190D01*
X-249919Y-69476190D02*
X-273728Y-69452380D01*
X-273728Y-69452380D02*
X-321347Y-69428571D01*
X-321347Y-69428571D02*
X-392776Y-69428571D01*
X-392776Y-69428571D02*
X-440395Y-69452380D01*
X-440395Y-69452380D02*
X-464204Y-69476190D01*
X-464204Y-69476190D02*
X-488014Y-69523809D01*
X-488014Y-69523809D02*
X-488014Y-69714285D01*
X-678490Y-68928571D02*
X-702300Y-68952380D01*
X-702300Y-68952380D02*
X-726109Y-69023809D01*
X-726109Y-69023809D02*
X-726109Y-69071428D01*
X-726109Y-69071428D02*
X-702300Y-69142856D01*
X-702300Y-69142856D02*
X-654680Y-69190475D01*
X-654680Y-69190475D02*
X-607061Y-69214285D01*
X-607061Y-69214285D02*
X-511823Y-69238094D01*
X-511823Y-69238094D02*
X-440395Y-69238094D01*
X-440395Y-69238094D02*
X-345157Y-69214285D01*
X-345157Y-69214285D02*
X-297538Y-69190475D01*
X-297538Y-69190475D02*
X-249919Y-69142856D01*
X-249919Y-69142856D02*
X-226109Y-69071428D01*
X-226109Y-69071428D02*
X-226109Y-69023809D01*
X-226109Y-69023809D02*
X-249919Y-68952380D01*
X-249919Y-68952380D02*
X-273728Y-68928571D01*
X-464204Y-68547618D02*
X-488014Y-68476190D01*
X-488014Y-68476190D02*
X-511823Y-68452380D01*
X-511823Y-68452380D02*
X-559442Y-68428571D01*
X-559442Y-68428571D02*
X-630871Y-68428571D01*
X-630871Y-68428571D02*
X-678490Y-68452380D01*
X-678490Y-68452380D02*
X-702300Y-68476190D01*
X-702300Y-68476190D02*
X-726109Y-68523809D01*
X-726109Y-68523809D02*
X-726109Y-68714285D01*
X-726109Y-68714285D02*
X-226109Y-68714285D01*
X-226109Y-68714285D02*
X-226109Y-68547618D01*
X-226109Y-68547618D02*
X-249919Y-68499999D01*
X-249919Y-68499999D02*
X-273728Y-68476190D01*
X-273728Y-68476190D02*
X-321347Y-68452380D01*
X-321347Y-68452380D02*
X-368966Y-68452380D01*
X-368966Y-68452380D02*
X-416585Y-68476190D01*
X-416585Y-68476190D02*
X-440395Y-68499999D01*
X-440395Y-68499999D02*
X-464204Y-68547618D01*
X-464204Y-68547618D02*
X-464204Y-68714285D01*
X-464204Y-67833333D02*
X-464204Y-67666666D01*
X-726109Y-67595238D02*
X-726109Y-67833333D01*
X-726109Y-67833333D02*
X-226109Y-67833333D01*
X-226109Y-67833333D02*
X-226109Y-67595238D01*
X-726109Y-67166666D02*
X-226109Y-67166666D01*
X-702300Y-67166666D02*
X-726109Y-67214285D01*
X-726109Y-67214285D02*
X-726109Y-67309523D01*
X-726109Y-67309523D02*
X-702300Y-67357142D01*
X-702300Y-67357142D02*
X-678490Y-67380952D01*
X-678490Y-67380952D02*
X-630871Y-67404761D01*
X-630871Y-67404761D02*
X-488014Y-67404761D01*
X-488014Y-67404761D02*
X-440395Y-67380952D01*
X-440395Y-67380952D02*
X-416585Y-67357142D01*
X-416585Y-67357142D02*
X-392776Y-67309523D01*
X-392776Y-67309523D02*
X-392776Y-67214285D01*
X-392776Y-67214285D02*
X-416585Y-67166666D01*
X-392776Y-66714285D02*
X-797538Y-66714285D01*
X-797538Y-66714285D02*
X-845157Y-66738095D01*
X-845157Y-66738095D02*
X-868966Y-66761904D01*
X-868966Y-66761904D02*
X-892776Y-66809523D01*
X-892776Y-66809523D02*
X-892776Y-66880952D01*
X-892776Y-66880952D02*
X-868966Y-66928571D01*
X-702300Y-66714285D02*
X-726109Y-66761904D01*
X-726109Y-66761904D02*
X-726109Y-66857142D01*
X-726109Y-66857142D02*
X-702300Y-66904761D01*
X-702300Y-66904761D02*
X-678490Y-66928571D01*
X-678490Y-66928571D02*
X-630871Y-66952380D01*
X-630871Y-66952380D02*
X-488014Y-66952380D01*
X-488014Y-66952380D02*
X-440395Y-66928571D01*
X-440395Y-66928571D02*
X-416585Y-66904761D01*
X-416585Y-66904761D02*
X-392776Y-66857142D01*
X-392776Y-66857142D02*
X-392776Y-66761904D01*
X-392776Y-66761904D02*
X-416585Y-66714285D01*
X-702300Y-66285714D02*
X-726109Y-66333333D01*
X-726109Y-66333333D02*
X-726109Y-66428571D01*
X-726109Y-66428571D02*
X-702300Y-66476190D01*
X-702300Y-66476190D02*
X-654680Y-66499999D01*
X-654680Y-66499999D02*
X-464204Y-66499999D01*
X-464204Y-66499999D02*
X-416585Y-66476190D01*
X-416585Y-66476190D02*
X-392776Y-66428571D01*
X-392776Y-66428571D02*
X-392776Y-66333333D01*
X-392776Y-66333333D02*
X-416585Y-66285714D01*
X-416585Y-66285714D02*
X-464204Y-66261904D01*
X-464204Y-66261904D02*
X-511823Y-66261904D01*
X-511823Y-66261904D02*
X-559442Y-66499999D01*
%TO.C,U1*%
D11*
X15425000Y-37700000D02*
X30425000Y-37700000D01*
X30425000Y-52700000D01*
X15425000Y-52700000D01*
X15425000Y-37700000D01*
X19500000Y-34500000D02*
X26500000Y-34500000D01*
X26500000Y-39000000D01*
X19500000Y-39000000D01*
X19500000Y-34500000D01*
D10*
%TO.C,J1*%
X-1075000Y-73000000D02*
X-1075000Y-63000000D01*
%TD*%
M02*
