%TF.GenerationSoftware,KiCad,Pcbnew,9.0.9.1-unknown-202605141413~ce707d0a6c~ubuntu24.04.1*%
%TF.CreationDate,2026-09-12T18:13:10+00:00*%
%TF.ProjectId,spool-sentry,73706f6f-6c2d-4736-956e-7472792e6b69,rev?*%
%TF.SameCoordinates,Original*%
%TF.FileFunction,Paste,Top*%
%TF.FilePolarity,Positive*%
%FSLAX46Y46*%
G04 Gerber Fmt 4.6, Leading zero omitted, Abs format (unit mm)*
G04 Created by KiCad (PCBNEW 9.0.9.1-unknown-202605141413~ce707d0a6c~ubuntu24.04.1) date 2026-09-12 18:13:10*
%MOMM*%
%LPD*%
G01*
G04 APERTURE LIST*
G04 Aperture macros list*
%AMRoundRect*
0 Rectangle with rounded corners*
0 $1 Rounding radius*
0 $2 $3 $4 $5 $6 $7 $8 $9 X,Y pos of 4 corners*
0 Add a 4 corners polygon primitive as box body*
4,1,4,$2,$3,$4,$5,$6,$7,$8,$9,$2,$3,0*
0 Add four circle primitives for the rounded corners*
1,1,$1+$1,$2,$3*
1,1,$1+$1,$4,$5*
1,1,$1+$1,$6,$7*
1,1,$1+$1,$8,$9*
0 Add four rect primitives between the rounded corners*
20,1,$1+$1,$2,$3,$4,$5,0*
20,1,$1+$1,$4,$5,$6,$7,0*
20,1,$1+$1,$6,$7,$8,$9,0*
20,1,$1+$1,$8,$9,$2,$3,0*%
G04 Aperture macros list end*
%ADD10RoundRect,0.225000X0.250000X-0.225000X0.250000X0.225000X-0.250000X0.225000X-0.250000X-0.225000X0*%
%ADD11R,1.050000X0.650000*%
%ADD12RoundRect,0.200000X-0.200000X-0.275000X0.200000X-0.275000X0.200000X0.275000X-0.200000X0.275000X0*%
%ADD13RoundRect,0.150000X-0.825000X-0.150000X0.825000X-0.150000X0.825000X0.150000X-0.825000X0.150000X0*%
%ADD14R,1.600000X0.500000*%
%ADD15RoundRect,0.225000X-0.225000X-0.250000X0.225000X-0.250000X0.225000X0.250000X-0.225000X0.250000X0*%
%ADD16R,3.150000X1.000000*%
%ADD17R,0.300000X0.500000*%
%ADD18RoundRect,0.250000X-0.325000X-0.650000X0.325000X-0.650000X0.325000X0.650000X-0.325000X0.650000X0*%
%ADD19RoundRect,0.250000X-0.300000X-0.300000X0.300000X-0.300000X0.300000X0.300000X-0.300000X0.300000X0*%
%ADD20RoundRect,0.250000X0.312500X1.450000X-0.312500X1.450000X-0.312500X-1.450000X0.312500X-1.450000X0*%
%ADD21RoundRect,0.150000X-0.700000X0.150000X-0.700000X-0.150000X0.700000X-0.150000X0.700000X0.150000X0*%
%ADD22RoundRect,0.250000X-1.100000X0.250000X-1.100000X-0.250000X1.100000X-0.250000X1.100000X0.250000X0*%
%ADD23RoundRect,0.150000X-0.425000X0.150000X-0.425000X-0.150000X0.425000X-0.150000X0.425000X0.150000X0*%
%ADD24RoundRect,0.075000X-0.500000X0.075000X-0.500000X-0.075000X0.500000X-0.075000X0.500000X0.075000X0*%
%ADD25O,2.100000X1.000000*%
%ADD26O,1.800000X1.000000*%
%ADD27RoundRect,0.250000X1.000000X0.650000X-1.000000X0.650000X-1.000000X-0.650000X1.000000X-0.650000X0*%
G04 APERTURE END LIST*
D10*
%TO.C,C5*%
X41500000Y-17275000D03*
X41500000Y-15725000D03*
%TD*%
D11*
%TO.C,SW1*%
X43925000Y-67925000D03*
X48075000Y-67925000D03*
X43925000Y-70075000D03*
X48075000Y-70075000D03*
%TD*%
D12*
%TO.C,R8*%
X53575000Y-64500000D03*
X55225000Y-64500000D03*
%TD*%
D13*
%TO.C,U2*%
X34025000Y-16555000D03*
X34025000Y-17825000D03*
X34025000Y-19095000D03*
X34025000Y-20365000D03*
X34025000Y-21635000D03*
X34025000Y-22905000D03*
X34025000Y-24175000D03*
X34025000Y-25445000D03*
X38975000Y-25445000D03*
X38975000Y-24175000D03*
X38975000Y-22905000D03*
X38975000Y-21635000D03*
X38975000Y-20365000D03*
X38975000Y-19095000D03*
X38975000Y-17825000D03*
X38975000Y-16555000D03*
%TD*%
D10*
%TO.C,C6*%
X32000000Y-17775000D03*
X32000000Y-16225000D03*
%TD*%
D12*
%TO.C,R6*%
X38175000Y-31600000D03*
X39825000Y-31600000D03*
%TD*%
%TO.C,R7*%
X50675000Y-69000000D03*
X52325000Y-69000000D03*
%TD*%
%TO.C,R9*%
X56875000Y-64500000D03*
X58525000Y-64500000D03*
%TD*%
D14*
%TO.C,D3*%
X54525000Y-67100000D03*
X54525000Y-68000000D03*
X54525000Y-68900000D03*
X57475000Y-68900000D03*
X57475000Y-68000000D03*
X57475000Y-67100000D03*
%TD*%
D15*
%TO.C,C10*%
X50725000Y-71500000D03*
X52275000Y-71500000D03*
%TD*%
D16*
%TO.C,U1*%
X14900000Y-37580000D03*
X14900000Y-40120000D03*
X14900000Y-42660000D03*
X14900000Y-45200000D03*
X14900000Y-47740000D03*
X14900000Y-50280000D03*
X14900000Y-52820000D03*
X30925000Y-52820000D03*
X30925000Y-50280000D03*
X30925000Y-47740000D03*
X30925000Y-45200000D03*
X30925000Y-42660000D03*
X30925000Y-40120000D03*
X30925000Y-37580000D03*
%TD*%
D12*
%TO.C,R5*%
X34675000Y-31600000D03*
X36325000Y-31600000D03*
%TD*%
D10*
%TO.C,C4*%
X41500000Y-20775000D03*
X41500000Y-19225000D03*
%TD*%
D17*
%TO.C,U3*%
X61600000Y-44700000D03*
X62400000Y-44700000D03*
X62400000Y-43300000D03*
X61600000Y-43300000D03*
%TD*%
D10*
%TO.C,C9*%
X41500000Y-28275000D03*
X41500000Y-26725000D03*
%TD*%
D18*
%TO.C,C3*%
X34525000Y-40500000D03*
X37475000Y-40500000D03*
%TD*%
D12*
%TO.C,R10*%
X60175000Y-64500000D03*
X61825000Y-64500000D03*
%TD*%
D10*
%TO.C,C7*%
X41500000Y-24775000D03*
X41500000Y-23225000D03*
%TD*%
D19*
%TO.C,D1*%
X8000000Y-61000000D03*
X10800000Y-61000000D03*
%TD*%
D20*
%TO.C,F1*%
X17087500Y-61000000D03*
X12812500Y-61000000D03*
%TD*%
D12*
%TO.C,R1*%
X27475000Y-61000000D03*
X29125000Y-61000000D03*
%TD*%
%TO.C,R3*%
X29675000Y-12000000D03*
X31325000Y-12000000D03*
%TD*%
D18*
%TO.C,C1*%
X13525000Y-65000000D03*
X16475000Y-65000000D03*
%TD*%
D21*
%TO.C,J2*%
X5150000Y-11125000D03*
X5150000Y-12375000D03*
X5150000Y-13625000D03*
X5150000Y-14875000D03*
D22*
X1950000Y-9275000D03*
X1950000Y-16725000D03*
%TD*%
D12*
%TO.C,R2*%
X31075000Y-61000000D03*
X32725000Y-61000000D03*
%TD*%
%TO.C,R4*%
X29675000Y-9000000D03*
X31325000Y-9000000D03*
%TD*%
D23*
%TO.C,J1*%
X6280000Y-64800000D03*
X6280000Y-65600000D03*
D24*
X6280000Y-66750000D03*
X6280000Y-67750000D03*
X6280000Y-68250000D03*
X6280000Y-69250000D03*
D23*
X6280000Y-70400000D03*
X6280000Y-71200000D03*
X6280000Y-71200000D03*
X6280000Y-70400000D03*
D24*
X6280000Y-69750000D03*
X6280000Y-68750000D03*
X6280000Y-67250000D03*
X6280000Y-66250000D03*
D23*
X6280000Y-65600000D03*
X6280000Y-64800000D03*
D25*
X5705000Y-63680000D03*
D26*
X1525000Y-63680000D03*
D25*
X5705000Y-72320000D03*
D26*
X1525000Y-72320000D03*
%TD*%
D15*
%TO.C,C8*%
X33225000Y-10500000D03*
X34775000Y-10500000D03*
%TD*%
%TO.C,C11*%
X9725000Y-64500000D03*
X11275000Y-64500000D03*
%TD*%
D27*
%TO.C,D2*%
X23750000Y-61000000D03*
X19750000Y-61000000D03*
%TD*%
D15*
%TO.C,C2*%
X21725000Y-65000000D03*
X23275000Y-65000000D03*
%TD*%
M02*
