%TF.GenerationSoftware,KiCad,Pcbnew,9.0.9.1-unknown-202605141413~ce707d0a6c~ubuntu24.04.1*%
%TF.CreationDate,2026-09-12T18:13:10+00:00*%
%TF.ProjectId,spool-sentry,73706f6f-6c2d-4736-956e-7472792e6b69,rev?*%
%TF.SameCoordinates,Original*%
%TF.FileFunction,AssemblyDrawing,Bot*%
%FSLAX46Y46*%
G04 Gerber Fmt 4.6, Leading zero omitted, Abs format (unit mm)*
G04 Created by KiCad (PCBNEW 9.0.9.1-unknown-202605141413~ce707d0a6c~ubuntu24.04.1) date 2026-09-12 18:13:10*
%MOMM*%
%LPD*%
G01*
G04 APERTURE LIST*
%ADD10C,0.150000*%
%ADD11C,0.060000*%
%ADD12C,0.120000*%
%ADD13C,0.100000*%
G04 APERTURE END LIST*
D10*
X14019047Y-63554819D02*
X14019047Y-62554819D01*
X14019047Y-62554819D02*
X13780952Y-62554819D01*
X13780952Y-62554819D02*
X13638095Y-62602438D01*
X13638095Y-62602438D02*
X13542857Y-62697676D01*
X13542857Y-62697676D02*
X13495238Y-62792914D01*
X13495238Y-62792914D02*
X13447619Y-62983390D01*
X13447619Y-62983390D02*
X13447619Y-63126247D01*
X13447619Y-63126247D02*
X13495238Y-63316723D01*
X13495238Y-63316723D02*
X13542857Y-63411961D01*
X13542857Y-63411961D02*
X13638095Y-63507200D01*
X13638095Y-63507200D02*
X13780952Y-63554819D01*
X13780952Y-63554819D02*
X14019047Y-63554819D01*
X13257143Y-63650057D02*
X12495238Y-63650057D01*
X12304761Y-63507200D02*
X12161904Y-63554819D01*
X12161904Y-63554819D02*
X11923809Y-63554819D01*
X11923809Y-63554819D02*
X11828571Y-63507200D01*
X11828571Y-63507200D02*
X11780952Y-63459580D01*
X11780952Y-63459580D02*
X11733333Y-63364342D01*
X11733333Y-63364342D02*
X11733333Y-63269104D01*
X11733333Y-63269104D02*
X11780952Y-63173866D01*
X11780952Y-63173866D02*
X11828571Y-63126247D01*
X11828571Y-63126247D02*
X11923809Y-63078628D01*
X11923809Y-63078628D02*
X12114285Y-63031009D01*
X12114285Y-63031009D02*
X12209523Y-62983390D01*
X12209523Y-62983390D02*
X12257142Y-62935771D01*
X12257142Y-62935771D02*
X12304761Y-62840533D01*
X12304761Y-62840533D02*
X12304761Y-62745295D01*
X12304761Y-62745295D02*
X12257142Y-62650057D01*
X12257142Y-62650057D02*
X12209523Y-62602438D01*
X12209523Y-62602438D02*
X12114285Y-62554819D01*
X12114285Y-62554819D02*
X11876190Y-62554819D01*
X11876190Y-62554819D02*
X11733333Y-62602438D01*
X11114285Y-62554819D02*
X10923809Y-62554819D01*
X10923809Y-62554819D02*
X10828571Y-62602438D01*
X10828571Y-62602438D02*
X10733333Y-62697676D01*
X10733333Y-62697676D02*
X10685714Y-62888152D01*
X10685714Y-62888152D02*
X10685714Y-63221485D01*
X10685714Y-63221485D02*
X10733333Y-63411961D01*
X10733333Y-63411961D02*
X10828571Y-63507200D01*
X10828571Y-63507200D02*
X10923809Y-63554819D01*
X10923809Y-63554819D02*
X11114285Y-63554819D01*
X11114285Y-63554819D02*
X11209523Y-63507200D01*
X11209523Y-63507200D02*
X11304761Y-63411961D01*
X11304761Y-63411961D02*
X11352380Y-63221485D01*
X11352380Y-63221485D02*
X11352380Y-62888152D01*
X11352380Y-62888152D02*
X11304761Y-62697676D01*
X11304761Y-62697676D02*
X11209523Y-62602438D01*
X11209523Y-62602438D02*
X11114285Y-62554819D01*
X10257142Y-63554819D02*
X10257142Y-62554819D01*
X10257142Y-62554819D02*
X10019047Y-62554819D01*
X10019047Y-62554819D02*
X9876190Y-62602438D01*
X9876190Y-62602438D02*
X9780952Y-62697676D01*
X9780952Y-62697676D02*
X9733333Y-62792914D01*
X9733333Y-62792914D02*
X9685714Y-62983390D01*
X9685714Y-62983390D02*
X9685714Y-63126247D01*
X9685714Y-63126247D02*
X9733333Y-63316723D01*
X9733333Y-63316723D02*
X9780952Y-63411961D01*
X9780952Y-63411961D02*
X9876190Y-63507200D01*
X9876190Y-63507200D02*
X10019047Y-63554819D01*
X10019047Y-63554819D02*
X10257142Y-63554819D01*
X9257142Y-63173866D02*
X8495238Y-63173866D01*
X7495238Y-63554819D02*
X8066666Y-63554819D01*
X7780952Y-63554819D02*
X7780952Y-62554819D01*
X7780952Y-62554819D02*
X7876190Y-62697676D01*
X7876190Y-62697676D02*
X7971428Y-62792914D01*
X7971428Y-62792914D02*
X8066666Y-62840533D01*
X7114285Y-62650057D02*
X7066666Y-62602438D01*
X7066666Y-62602438D02*
X6971428Y-62554819D01*
X6971428Y-62554819D02*
X6733333Y-62554819D01*
X6733333Y-62554819D02*
X6638095Y-62602438D01*
X6638095Y-62602438D02*
X6590476Y-62650057D01*
X6590476Y-62650057D02*
X6542857Y-62745295D01*
X6542857Y-62745295D02*
X6542857Y-62840533D01*
X6542857Y-62840533D02*
X6590476Y-62983390D01*
X6590476Y-62983390D02*
X7161904Y-63554819D01*
X7161904Y-63554819D02*
X6542857Y-63554819D01*
X6209523Y-62554819D02*
X5590476Y-62554819D01*
X5590476Y-62554819D02*
X5923809Y-62935771D01*
X5923809Y-62935771D02*
X5780952Y-62935771D01*
X5780952Y-62935771D02*
X5685714Y-62983390D01*
X5685714Y-62983390D02*
X5638095Y-63031009D01*
X5638095Y-63031009D02*
X5590476Y-63126247D01*
X5590476Y-63126247D02*
X5590476Y-63364342D01*
X5590476Y-63364342D02*
X5638095Y-63459580D01*
X5638095Y-63459580D02*
X5685714Y-63507200D01*
X5685714Y-63507200D02*
X5780952Y-63554819D01*
X5780952Y-63554819D02*
X6066666Y-63554819D01*
X6066666Y-63554819D02*
X6161904Y-63507200D01*
X6161904Y-63507200D02*
X6209523Y-63459580D01*
X4828571Y-63031009D02*
X5161904Y-63031009D01*
X5161904Y-63554819D02*
X5161904Y-62554819D01*
X5161904Y-62554819D02*
X4685714Y-62554819D01*
X10011094Y-59549819D02*
X10011094Y-58549819D01*
X10011094Y-58549819D02*
X9772999Y-58549819D01*
X9772999Y-58549819D02*
X9630142Y-58597438D01*
X9630142Y-58597438D02*
X9534904Y-58692676D01*
X9534904Y-58692676D02*
X9487285Y-58787914D01*
X9487285Y-58787914D02*
X9439666Y-58978390D01*
X9439666Y-58978390D02*
X9439666Y-59121247D01*
X9439666Y-59121247D02*
X9487285Y-59311723D01*
X9487285Y-59311723D02*
X9534904Y-59406961D01*
X9534904Y-59406961D02*
X9630142Y-59502200D01*
X9630142Y-59502200D02*
X9772999Y-59549819D01*
X9772999Y-59549819D02*
X10011094Y-59549819D01*
X8487285Y-59549819D02*
X9058713Y-59549819D01*
X8772999Y-59549819D02*
X8772999Y-58549819D01*
X8772999Y-58549819D02*
X8868237Y-58692676D01*
X8868237Y-58692676D02*
X8963475Y-58787914D01*
X8963475Y-58787914D02*
X9058713Y-58835533D01*
X22926191Y-58281009D02*
X23259524Y-58281009D01*
X23259524Y-58804819D02*
X23259524Y-57804819D01*
X23259524Y-57804819D02*
X22783334Y-57804819D01*
X21973810Y-58138152D02*
X21973810Y-58804819D01*
X22402381Y-58138152D02*
X22402381Y-58661961D01*
X22402381Y-58661961D02*
X22354762Y-58757200D01*
X22354762Y-58757200D02*
X22259524Y-58804819D01*
X22259524Y-58804819D02*
X22116667Y-58804819D01*
X22116667Y-58804819D02*
X22021429Y-58757200D01*
X22021429Y-58757200D02*
X21973810Y-58709580D01*
X21545238Y-58757200D02*
X21450000Y-58804819D01*
X21450000Y-58804819D02*
X21259524Y-58804819D01*
X21259524Y-58804819D02*
X21164286Y-58757200D01*
X21164286Y-58757200D02*
X21116667Y-58661961D01*
X21116667Y-58661961D02*
X21116667Y-58614342D01*
X21116667Y-58614342D02*
X21164286Y-58519104D01*
X21164286Y-58519104D02*
X21259524Y-58471485D01*
X21259524Y-58471485D02*
X21402381Y-58471485D01*
X21402381Y-58471485D02*
X21497619Y-58423866D01*
X21497619Y-58423866D02*
X21545238Y-58328628D01*
X21545238Y-58328628D02*
X21545238Y-58281009D01*
X21545238Y-58281009D02*
X21497619Y-58185771D01*
X21497619Y-58185771D02*
X21402381Y-58138152D01*
X21402381Y-58138152D02*
X21259524Y-58138152D01*
X21259524Y-58138152D02*
X21164286Y-58185771D01*
X20307143Y-58757200D02*
X20402381Y-58804819D01*
X20402381Y-58804819D02*
X20592857Y-58804819D01*
X20592857Y-58804819D02*
X20688095Y-58757200D01*
X20688095Y-58757200D02*
X20735714Y-58661961D01*
X20735714Y-58661961D02*
X20735714Y-58281009D01*
X20735714Y-58281009D02*
X20688095Y-58185771D01*
X20688095Y-58185771D02*
X20592857Y-58138152D01*
X20592857Y-58138152D02*
X20402381Y-58138152D01*
X20402381Y-58138152D02*
X20307143Y-58185771D01*
X20307143Y-58185771D02*
X20259524Y-58281009D01*
X20259524Y-58281009D02*
X20259524Y-58376247D01*
X20259524Y-58376247D02*
X20735714Y-58471485D01*
X20069048Y-58900057D02*
X19307143Y-58900057D01*
X18545238Y-58804819D02*
X19116666Y-58804819D01*
X18830952Y-58804819D02*
X18830952Y-57804819D01*
X18830952Y-57804819D02*
X18926190Y-57947676D01*
X18926190Y-57947676D02*
X19021428Y-58042914D01*
X19021428Y-58042914D02*
X19116666Y-58090533D01*
X17973809Y-58233390D02*
X18069047Y-58185771D01*
X18069047Y-58185771D02*
X18116666Y-58138152D01*
X18116666Y-58138152D02*
X18164285Y-58042914D01*
X18164285Y-58042914D02*
X18164285Y-57995295D01*
X18164285Y-57995295D02*
X18116666Y-57900057D01*
X18116666Y-57900057D02*
X18069047Y-57852438D01*
X18069047Y-57852438D02*
X17973809Y-57804819D01*
X17973809Y-57804819D02*
X17783333Y-57804819D01*
X17783333Y-57804819D02*
X17688095Y-57852438D01*
X17688095Y-57852438D02*
X17640476Y-57900057D01*
X17640476Y-57900057D02*
X17592857Y-57995295D01*
X17592857Y-57995295D02*
X17592857Y-58042914D01*
X17592857Y-58042914D02*
X17640476Y-58138152D01*
X17640476Y-58138152D02*
X17688095Y-58185771D01*
X17688095Y-58185771D02*
X17783333Y-58233390D01*
X17783333Y-58233390D02*
X17973809Y-58233390D01*
X17973809Y-58233390D02*
X18069047Y-58281009D01*
X18069047Y-58281009D02*
X18116666Y-58328628D01*
X18116666Y-58328628D02*
X18164285Y-58423866D01*
X18164285Y-58423866D02*
X18164285Y-58614342D01*
X18164285Y-58614342D02*
X18116666Y-58709580D01*
X18116666Y-58709580D02*
X18069047Y-58757200D01*
X18069047Y-58757200D02*
X17973809Y-58804819D01*
X17973809Y-58804819D02*
X17783333Y-58804819D01*
X17783333Y-58804819D02*
X17688095Y-58757200D01*
X17688095Y-58757200D02*
X17640476Y-58709580D01*
X17640476Y-58709580D02*
X17592857Y-58614342D01*
X17592857Y-58614342D02*
X17592857Y-58423866D01*
X17592857Y-58423866D02*
X17640476Y-58328628D01*
X17640476Y-58328628D02*
X17688095Y-58281009D01*
X17688095Y-58281009D02*
X17783333Y-58233390D01*
X16640476Y-58804819D02*
X17211904Y-58804819D01*
X16926190Y-58804819D02*
X16926190Y-57804819D01*
X16926190Y-57804819D02*
X17021428Y-57947676D01*
X17021428Y-57947676D02*
X17116666Y-58042914D01*
X17116666Y-58042914D02*
X17211904Y-58090533D01*
X16259523Y-57900057D02*
X16211904Y-57852438D01*
X16211904Y-57852438D02*
X16116666Y-57804819D01*
X16116666Y-57804819D02*
X15878571Y-57804819D01*
X15878571Y-57804819D02*
X15783333Y-57852438D01*
X15783333Y-57852438D02*
X15735714Y-57900057D01*
X15735714Y-57900057D02*
X15688095Y-57995295D01*
X15688095Y-57995295D02*
X15688095Y-58090533D01*
X15688095Y-58090533D02*
X15735714Y-58233390D01*
X15735714Y-58233390D02*
X16307142Y-58804819D01*
X16307142Y-58804819D02*
X15688095Y-58804819D01*
X15497619Y-58900057D02*
X14735714Y-58900057D01*
X14069047Y-58138152D02*
X14069047Y-58804819D01*
X14307142Y-57757200D02*
X14545237Y-58471485D01*
X14545237Y-58471485D02*
X13926190Y-58471485D01*
X13069047Y-57804819D02*
X13545237Y-57804819D01*
X13545237Y-57804819D02*
X13592856Y-58281009D01*
X13592856Y-58281009D02*
X13545237Y-58233390D01*
X13545237Y-58233390D02*
X13449999Y-58185771D01*
X13449999Y-58185771D02*
X13211904Y-58185771D01*
X13211904Y-58185771D02*
X13116666Y-58233390D01*
X13116666Y-58233390D02*
X13069047Y-58281009D01*
X13069047Y-58281009D02*
X13021428Y-58376247D01*
X13021428Y-58376247D02*
X13021428Y-58614342D01*
X13021428Y-58614342D02*
X13069047Y-58709580D01*
X13069047Y-58709580D02*
X13116666Y-58757200D01*
X13116666Y-58757200D02*
X13211904Y-58804819D01*
X13211904Y-58804819D02*
X13449999Y-58804819D01*
X13449999Y-58804819D02*
X13545237Y-58757200D01*
X13545237Y-58757200D02*
X13592856Y-58709580D01*
X12688094Y-57804819D02*
X12069047Y-57804819D01*
X12069047Y-57804819D02*
X12402380Y-58185771D01*
X12402380Y-58185771D02*
X12259523Y-58185771D01*
X12259523Y-58185771D02*
X12164285Y-58233390D01*
X12164285Y-58233390D02*
X12116666Y-58281009D01*
X12116666Y-58281009D02*
X12069047Y-58376247D01*
X12069047Y-58376247D02*
X12069047Y-58614342D01*
X12069047Y-58614342D02*
X12116666Y-58709580D01*
X12116666Y-58709580D02*
X12164285Y-58757200D01*
X12164285Y-58757200D02*
X12259523Y-58804819D01*
X12259523Y-58804819D02*
X12545237Y-58804819D01*
X12545237Y-58804819D02*
X12640475Y-58757200D01*
X12640475Y-58757200D02*
X12688094Y-58709580D01*
X11688094Y-57900057D02*
X11640475Y-57852438D01*
X11640475Y-57852438D02*
X11545237Y-57804819D01*
X11545237Y-57804819D02*
X11307142Y-57804819D01*
X11307142Y-57804819D02*
X11211904Y-57852438D01*
X11211904Y-57852438D02*
X11164285Y-57900057D01*
X11164285Y-57900057D02*
X11116666Y-57995295D01*
X11116666Y-57995295D02*
X11116666Y-58090533D01*
X11116666Y-58090533D02*
X11164285Y-58233390D01*
X11164285Y-58233390D02*
X11735713Y-58804819D01*
X11735713Y-58804819D02*
X11116666Y-58804819D01*
X10688094Y-58804819D02*
X10688094Y-57804819D01*
X10688094Y-57804819D02*
X10354761Y-58519104D01*
X10354761Y-58519104D02*
X10021428Y-57804819D01*
X10021428Y-57804819D02*
X10021428Y-58804819D01*
X9164285Y-58757200D02*
X9259523Y-58804819D01*
X9259523Y-58804819D02*
X9449999Y-58804819D01*
X9449999Y-58804819D02*
X9545237Y-58757200D01*
X9545237Y-58757200D02*
X9592856Y-58661961D01*
X9592856Y-58661961D02*
X9592856Y-58281009D01*
X9592856Y-58281009D02*
X9545237Y-58185771D01*
X9545237Y-58185771D02*
X9449999Y-58138152D01*
X9449999Y-58138152D02*
X9259523Y-58138152D01*
X9259523Y-58138152D02*
X9164285Y-58185771D01*
X9164285Y-58185771D02*
X9116666Y-58281009D01*
X9116666Y-58281009D02*
X9116666Y-58376247D01*
X9116666Y-58376247D02*
X9592856Y-58471485D01*
X8830951Y-58138152D02*
X8449999Y-58138152D01*
X8688094Y-57804819D02*
X8688094Y-58661961D01*
X8688094Y-58661961D02*
X8640475Y-58757200D01*
X8640475Y-58757200D02*
X8545237Y-58804819D01*
X8545237Y-58804819D02*
X8449999Y-58804819D01*
X8116665Y-58804819D02*
X8116665Y-58138152D01*
X8116665Y-58328628D02*
X8069046Y-58233390D01*
X8069046Y-58233390D02*
X8021427Y-58185771D01*
X8021427Y-58185771D02*
X7926189Y-58138152D01*
X7926189Y-58138152D02*
X7830951Y-58138152D01*
X7497617Y-58804819D02*
X7497617Y-58138152D01*
X7497617Y-57804819D02*
X7545236Y-57852438D01*
X7545236Y-57852438D02*
X7497617Y-57900057D01*
X7497617Y-57900057D02*
X7449998Y-57852438D01*
X7449998Y-57852438D02*
X7497617Y-57804819D01*
X7497617Y-57804819D02*
X7497617Y-57900057D01*
X6592856Y-58757200D02*
X6688094Y-58804819D01*
X6688094Y-58804819D02*
X6878570Y-58804819D01*
X6878570Y-58804819D02*
X6973808Y-58757200D01*
X6973808Y-58757200D02*
X7021427Y-58709580D01*
X7021427Y-58709580D02*
X7069046Y-58614342D01*
X7069046Y-58614342D02*
X7069046Y-58328628D01*
X7069046Y-58328628D02*
X7021427Y-58233390D01*
X7021427Y-58233390D02*
X6973808Y-58185771D01*
X6973808Y-58185771D02*
X6878570Y-58138152D01*
X6878570Y-58138152D02*
X6688094Y-58138152D01*
X6688094Y-58138152D02*
X6592856Y-58185771D01*
X15283333Y-60931009D02*
X15616666Y-60931009D01*
X15616666Y-61454819D02*
X15616666Y-60454819D01*
X15616666Y-60454819D02*
X15140476Y-60454819D01*
X14235714Y-61454819D02*
X14807142Y-61454819D01*
X14521428Y-61454819D02*
X14521428Y-60454819D01*
X14521428Y-60454819D02*
X14616666Y-60597676D01*
X14616666Y-60597676D02*
X14711904Y-60692914D01*
X14711904Y-60692914D02*
X14807142Y-60740533D01*
X34823810Y-62884819D02*
X35157143Y-62408628D01*
X35395238Y-62884819D02*
X35395238Y-61884819D01*
X35395238Y-61884819D02*
X35014286Y-61884819D01*
X35014286Y-61884819D02*
X34919048Y-61932438D01*
X34919048Y-61932438D02*
X34871429Y-61980057D01*
X34871429Y-61980057D02*
X34823810Y-62075295D01*
X34823810Y-62075295D02*
X34823810Y-62218152D01*
X34823810Y-62218152D02*
X34871429Y-62313390D01*
X34871429Y-62313390D02*
X34919048Y-62361009D01*
X34919048Y-62361009D02*
X35014286Y-62408628D01*
X35014286Y-62408628D02*
X35395238Y-62408628D01*
X34633334Y-62980057D02*
X33871429Y-62980057D01*
X33442857Y-61884819D02*
X33347619Y-61884819D01*
X33347619Y-61884819D02*
X33252381Y-61932438D01*
X33252381Y-61932438D02*
X33204762Y-61980057D01*
X33204762Y-61980057D02*
X33157143Y-62075295D01*
X33157143Y-62075295D02*
X33109524Y-62265771D01*
X33109524Y-62265771D02*
X33109524Y-62503866D01*
X33109524Y-62503866D02*
X33157143Y-62694342D01*
X33157143Y-62694342D02*
X33204762Y-62789580D01*
X33204762Y-62789580D02*
X33252381Y-62837200D01*
X33252381Y-62837200D02*
X33347619Y-62884819D01*
X33347619Y-62884819D02*
X33442857Y-62884819D01*
X33442857Y-62884819D02*
X33538095Y-62837200D01*
X33538095Y-62837200D02*
X33585714Y-62789580D01*
X33585714Y-62789580D02*
X33633333Y-62694342D01*
X33633333Y-62694342D02*
X33680952Y-62503866D01*
X33680952Y-62503866D02*
X33680952Y-62265771D01*
X33680952Y-62265771D02*
X33633333Y-62075295D01*
X33633333Y-62075295D02*
X33585714Y-61980057D01*
X33585714Y-61980057D02*
X33538095Y-61932438D01*
X33538095Y-61932438D02*
X33442857Y-61884819D01*
X32252381Y-61884819D02*
X32442857Y-61884819D01*
X32442857Y-61884819D02*
X32538095Y-61932438D01*
X32538095Y-61932438D02*
X32585714Y-61980057D01*
X32585714Y-61980057D02*
X32680952Y-62122914D01*
X32680952Y-62122914D02*
X32728571Y-62313390D01*
X32728571Y-62313390D02*
X32728571Y-62694342D01*
X32728571Y-62694342D02*
X32680952Y-62789580D01*
X32680952Y-62789580D02*
X32633333Y-62837200D01*
X32633333Y-62837200D02*
X32538095Y-62884819D01*
X32538095Y-62884819D02*
X32347619Y-62884819D01*
X32347619Y-62884819D02*
X32252381Y-62837200D01*
X32252381Y-62837200D02*
X32204762Y-62789580D01*
X32204762Y-62789580D02*
X32157143Y-62694342D01*
X32157143Y-62694342D02*
X32157143Y-62456247D01*
X32157143Y-62456247D02*
X32204762Y-62361009D01*
X32204762Y-62361009D02*
X32252381Y-62313390D01*
X32252381Y-62313390D02*
X32347619Y-62265771D01*
X32347619Y-62265771D02*
X32538095Y-62265771D01*
X32538095Y-62265771D02*
X32633333Y-62313390D01*
X32633333Y-62313390D02*
X32680952Y-62361009D01*
X32680952Y-62361009D02*
X32728571Y-62456247D01*
X31538095Y-61884819D02*
X31442857Y-61884819D01*
X31442857Y-61884819D02*
X31347619Y-61932438D01*
X31347619Y-61932438D02*
X31300000Y-61980057D01*
X31300000Y-61980057D02*
X31252381Y-62075295D01*
X31252381Y-62075295D02*
X31204762Y-62265771D01*
X31204762Y-62265771D02*
X31204762Y-62503866D01*
X31204762Y-62503866D02*
X31252381Y-62694342D01*
X31252381Y-62694342D02*
X31300000Y-62789580D01*
X31300000Y-62789580D02*
X31347619Y-62837200D01*
X31347619Y-62837200D02*
X31442857Y-62884819D01*
X31442857Y-62884819D02*
X31538095Y-62884819D01*
X31538095Y-62884819D02*
X31633333Y-62837200D01*
X31633333Y-62837200D02*
X31680952Y-62789580D01*
X31680952Y-62789580D02*
X31728571Y-62694342D01*
X31728571Y-62694342D02*
X31776190Y-62503866D01*
X31776190Y-62503866D02*
X31776190Y-62265771D01*
X31776190Y-62265771D02*
X31728571Y-62075295D01*
X31728571Y-62075295D02*
X31680952Y-61980057D01*
X31680952Y-61980057D02*
X31633333Y-61932438D01*
X31633333Y-61932438D02*
X31538095Y-61884819D01*
X30871428Y-61884819D02*
X30252381Y-61884819D01*
X30252381Y-61884819D02*
X30585714Y-62265771D01*
X30585714Y-62265771D02*
X30442857Y-62265771D01*
X30442857Y-62265771D02*
X30347619Y-62313390D01*
X30347619Y-62313390D02*
X30300000Y-62361009D01*
X30300000Y-62361009D02*
X30252381Y-62456247D01*
X30252381Y-62456247D02*
X30252381Y-62694342D01*
X30252381Y-62694342D02*
X30300000Y-62789580D01*
X30300000Y-62789580D02*
X30347619Y-62837200D01*
X30347619Y-62837200D02*
X30442857Y-62884819D01*
X30442857Y-62884819D02*
X30728571Y-62884819D01*
X30728571Y-62884819D02*
X30823809Y-62837200D01*
X30823809Y-62837200D02*
X30871428Y-62789580D01*
X30061905Y-62980057D02*
X29300000Y-62980057D01*
X28538095Y-62884819D02*
X29109523Y-62884819D01*
X28823809Y-62884819D02*
X28823809Y-61884819D01*
X28823809Y-61884819D02*
X28919047Y-62027676D01*
X28919047Y-62027676D02*
X29014285Y-62122914D01*
X29014285Y-62122914D02*
X29109523Y-62170533D01*
X27680952Y-61884819D02*
X27871428Y-61884819D01*
X27871428Y-61884819D02*
X27966666Y-61932438D01*
X27966666Y-61932438D02*
X28014285Y-61980057D01*
X28014285Y-61980057D02*
X28109523Y-62122914D01*
X28109523Y-62122914D02*
X28157142Y-62313390D01*
X28157142Y-62313390D02*
X28157142Y-62694342D01*
X28157142Y-62694342D02*
X28109523Y-62789580D01*
X28109523Y-62789580D02*
X28061904Y-62837200D01*
X28061904Y-62837200D02*
X27966666Y-62884819D01*
X27966666Y-62884819D02*
X27776190Y-62884819D01*
X27776190Y-62884819D02*
X27680952Y-62837200D01*
X27680952Y-62837200D02*
X27633333Y-62789580D01*
X27633333Y-62789580D02*
X27585714Y-62694342D01*
X27585714Y-62694342D02*
X27585714Y-62456247D01*
X27585714Y-62456247D02*
X27633333Y-62361009D01*
X27633333Y-62361009D02*
X27680952Y-62313390D01*
X27680952Y-62313390D02*
X27776190Y-62265771D01*
X27776190Y-62265771D02*
X27966666Y-62265771D01*
X27966666Y-62265771D02*
X28061904Y-62313390D01*
X28061904Y-62313390D02*
X28109523Y-62361009D01*
X28109523Y-62361009D02*
X28157142Y-62456247D01*
X26966666Y-61884819D02*
X26871428Y-61884819D01*
X26871428Y-61884819D02*
X26776190Y-61932438D01*
X26776190Y-61932438D02*
X26728571Y-61980057D01*
X26728571Y-61980057D02*
X26680952Y-62075295D01*
X26680952Y-62075295D02*
X26633333Y-62265771D01*
X26633333Y-62265771D02*
X26633333Y-62503866D01*
X26633333Y-62503866D02*
X26680952Y-62694342D01*
X26680952Y-62694342D02*
X26728571Y-62789580D01*
X26728571Y-62789580D02*
X26776190Y-62837200D01*
X26776190Y-62837200D02*
X26871428Y-62884819D01*
X26871428Y-62884819D02*
X26966666Y-62884819D01*
X26966666Y-62884819D02*
X27061904Y-62837200D01*
X27061904Y-62837200D02*
X27109523Y-62789580D01*
X27109523Y-62789580D02*
X27157142Y-62694342D01*
X27157142Y-62694342D02*
X27204761Y-62503866D01*
X27204761Y-62503866D02*
X27204761Y-62265771D01*
X27204761Y-62265771D02*
X27157142Y-62075295D01*
X27157142Y-62075295D02*
X27109523Y-61980057D01*
X27109523Y-61980057D02*
X27061904Y-61932438D01*
X27061904Y-61932438D02*
X26966666Y-61884819D01*
X26061904Y-62313390D02*
X26157142Y-62265771D01*
X26157142Y-62265771D02*
X26204761Y-62218152D01*
X26204761Y-62218152D02*
X26252380Y-62122914D01*
X26252380Y-62122914D02*
X26252380Y-62075295D01*
X26252380Y-62075295D02*
X26204761Y-61980057D01*
X26204761Y-61980057D02*
X26157142Y-61932438D01*
X26157142Y-61932438D02*
X26061904Y-61884819D01*
X26061904Y-61884819D02*
X25871428Y-61884819D01*
X25871428Y-61884819D02*
X25776190Y-61932438D01*
X25776190Y-61932438D02*
X25728571Y-61980057D01*
X25728571Y-61980057D02*
X25680952Y-62075295D01*
X25680952Y-62075295D02*
X25680952Y-62122914D01*
X25680952Y-62122914D02*
X25728571Y-62218152D01*
X25728571Y-62218152D02*
X25776190Y-62265771D01*
X25776190Y-62265771D02*
X25871428Y-62313390D01*
X25871428Y-62313390D02*
X26061904Y-62313390D01*
X26061904Y-62313390D02*
X26157142Y-62361009D01*
X26157142Y-62361009D02*
X26204761Y-62408628D01*
X26204761Y-62408628D02*
X26252380Y-62503866D01*
X26252380Y-62503866D02*
X26252380Y-62694342D01*
X26252380Y-62694342D02*
X26204761Y-62789580D01*
X26204761Y-62789580D02*
X26157142Y-62837200D01*
X26157142Y-62837200D02*
X26061904Y-62884819D01*
X26061904Y-62884819D02*
X25871428Y-62884819D01*
X25871428Y-62884819D02*
X25776190Y-62837200D01*
X25776190Y-62837200D02*
X25728571Y-62789580D01*
X25728571Y-62789580D02*
X25680952Y-62694342D01*
X25680952Y-62694342D02*
X25680952Y-62503866D01*
X25680952Y-62503866D02*
X25728571Y-62408628D01*
X25728571Y-62408628D02*
X25776190Y-62361009D01*
X25776190Y-62361009D02*
X25871428Y-62313390D01*
X25252380Y-62884819D02*
X25252380Y-61884819D01*
X25252380Y-61884819D02*
X24919047Y-62599104D01*
X24919047Y-62599104D02*
X24585714Y-61884819D01*
X24585714Y-61884819D02*
X24585714Y-62884819D01*
X23728571Y-62837200D02*
X23823809Y-62884819D01*
X23823809Y-62884819D02*
X24014285Y-62884819D01*
X24014285Y-62884819D02*
X24109523Y-62837200D01*
X24109523Y-62837200D02*
X24157142Y-62741961D01*
X24157142Y-62741961D02*
X24157142Y-62361009D01*
X24157142Y-62361009D02*
X24109523Y-62265771D01*
X24109523Y-62265771D02*
X24014285Y-62218152D01*
X24014285Y-62218152D02*
X23823809Y-62218152D01*
X23823809Y-62218152D02*
X23728571Y-62265771D01*
X23728571Y-62265771D02*
X23680952Y-62361009D01*
X23680952Y-62361009D02*
X23680952Y-62456247D01*
X23680952Y-62456247D02*
X24157142Y-62551485D01*
X23395237Y-62218152D02*
X23014285Y-62218152D01*
X23252380Y-61884819D02*
X23252380Y-62741961D01*
X23252380Y-62741961D02*
X23204761Y-62837200D01*
X23204761Y-62837200D02*
X23109523Y-62884819D01*
X23109523Y-62884819D02*
X23014285Y-62884819D01*
X22680951Y-62884819D02*
X22680951Y-62218152D01*
X22680951Y-62408628D02*
X22633332Y-62313390D01*
X22633332Y-62313390D02*
X22585713Y-62265771D01*
X22585713Y-62265771D02*
X22490475Y-62218152D01*
X22490475Y-62218152D02*
X22395237Y-62218152D01*
X22061903Y-62884819D02*
X22061903Y-62218152D01*
X22061903Y-61884819D02*
X22109522Y-61932438D01*
X22109522Y-61932438D02*
X22061903Y-61980057D01*
X22061903Y-61980057D02*
X22014284Y-61932438D01*
X22014284Y-61932438D02*
X22061903Y-61884819D01*
X22061903Y-61884819D02*
X22061903Y-61980057D01*
X21157142Y-62837200D02*
X21252380Y-62884819D01*
X21252380Y-62884819D02*
X21442856Y-62884819D01*
X21442856Y-62884819D02*
X21538094Y-62837200D01*
X21538094Y-62837200D02*
X21585713Y-62789580D01*
X21585713Y-62789580D02*
X21633332Y-62694342D01*
X21633332Y-62694342D02*
X21633332Y-62408628D01*
X21633332Y-62408628D02*
X21585713Y-62313390D01*
X21585713Y-62313390D02*
X21538094Y-62265771D01*
X21538094Y-62265771D02*
X21442856Y-62218152D01*
X21442856Y-62218152D02*
X21252380Y-62218152D01*
X21252380Y-62218152D02*
X21157142Y-62265771D01*
D11*
X28366666Y-61181927D02*
X28499999Y-60991451D01*
X28595237Y-61181927D02*
X28595237Y-60781927D01*
X28595237Y-60781927D02*
X28442856Y-60781927D01*
X28442856Y-60781927D02*
X28404761Y-60800975D01*
X28404761Y-60800975D02*
X28385714Y-60820022D01*
X28385714Y-60820022D02*
X28366666Y-60858118D01*
X28366666Y-60858118D02*
X28366666Y-60915260D01*
X28366666Y-60915260D02*
X28385714Y-60953356D01*
X28385714Y-60953356D02*
X28404761Y-60972403D01*
X28404761Y-60972403D02*
X28442856Y-60991451D01*
X28442856Y-60991451D02*
X28595237Y-60991451D01*
X27985714Y-61181927D02*
X28214285Y-61181927D01*
X28099999Y-61181927D02*
X28099999Y-60781927D01*
X28099999Y-60781927D02*
X28138095Y-60839070D01*
X28138095Y-60839070D02*
X28176190Y-60877165D01*
X28176190Y-60877165D02*
X28214285Y-60896213D01*
D10*
X37023810Y-13884819D02*
X37357143Y-13408628D01*
X37595238Y-13884819D02*
X37595238Y-12884819D01*
X37595238Y-12884819D02*
X37214286Y-12884819D01*
X37214286Y-12884819D02*
X37119048Y-12932438D01*
X37119048Y-12932438D02*
X37071429Y-12980057D01*
X37071429Y-12980057D02*
X37023810Y-13075295D01*
X37023810Y-13075295D02*
X37023810Y-13218152D01*
X37023810Y-13218152D02*
X37071429Y-13313390D01*
X37071429Y-13313390D02*
X37119048Y-13361009D01*
X37119048Y-13361009D02*
X37214286Y-13408628D01*
X37214286Y-13408628D02*
X37595238Y-13408628D01*
X36833334Y-13980057D02*
X36071429Y-13980057D01*
X35642857Y-12884819D02*
X35547619Y-12884819D01*
X35547619Y-12884819D02*
X35452381Y-12932438D01*
X35452381Y-12932438D02*
X35404762Y-12980057D01*
X35404762Y-12980057D02*
X35357143Y-13075295D01*
X35357143Y-13075295D02*
X35309524Y-13265771D01*
X35309524Y-13265771D02*
X35309524Y-13503866D01*
X35309524Y-13503866D02*
X35357143Y-13694342D01*
X35357143Y-13694342D02*
X35404762Y-13789580D01*
X35404762Y-13789580D02*
X35452381Y-13837200D01*
X35452381Y-13837200D02*
X35547619Y-13884819D01*
X35547619Y-13884819D02*
X35642857Y-13884819D01*
X35642857Y-13884819D02*
X35738095Y-13837200D01*
X35738095Y-13837200D02*
X35785714Y-13789580D01*
X35785714Y-13789580D02*
X35833333Y-13694342D01*
X35833333Y-13694342D02*
X35880952Y-13503866D01*
X35880952Y-13503866D02*
X35880952Y-13265771D01*
X35880952Y-13265771D02*
X35833333Y-13075295D01*
X35833333Y-13075295D02*
X35785714Y-12980057D01*
X35785714Y-12980057D02*
X35738095Y-12932438D01*
X35738095Y-12932438D02*
X35642857Y-12884819D01*
X34452381Y-12884819D02*
X34642857Y-12884819D01*
X34642857Y-12884819D02*
X34738095Y-12932438D01*
X34738095Y-12932438D02*
X34785714Y-12980057D01*
X34785714Y-12980057D02*
X34880952Y-13122914D01*
X34880952Y-13122914D02*
X34928571Y-13313390D01*
X34928571Y-13313390D02*
X34928571Y-13694342D01*
X34928571Y-13694342D02*
X34880952Y-13789580D01*
X34880952Y-13789580D02*
X34833333Y-13837200D01*
X34833333Y-13837200D02*
X34738095Y-13884819D01*
X34738095Y-13884819D02*
X34547619Y-13884819D01*
X34547619Y-13884819D02*
X34452381Y-13837200D01*
X34452381Y-13837200D02*
X34404762Y-13789580D01*
X34404762Y-13789580D02*
X34357143Y-13694342D01*
X34357143Y-13694342D02*
X34357143Y-13456247D01*
X34357143Y-13456247D02*
X34404762Y-13361009D01*
X34404762Y-13361009D02*
X34452381Y-13313390D01*
X34452381Y-13313390D02*
X34547619Y-13265771D01*
X34547619Y-13265771D02*
X34738095Y-13265771D01*
X34738095Y-13265771D02*
X34833333Y-13313390D01*
X34833333Y-13313390D02*
X34880952Y-13361009D01*
X34880952Y-13361009D02*
X34928571Y-13456247D01*
X33738095Y-12884819D02*
X33642857Y-12884819D01*
X33642857Y-12884819D02*
X33547619Y-12932438D01*
X33547619Y-12932438D02*
X33500000Y-12980057D01*
X33500000Y-12980057D02*
X33452381Y-13075295D01*
X33452381Y-13075295D02*
X33404762Y-13265771D01*
X33404762Y-13265771D02*
X33404762Y-13503866D01*
X33404762Y-13503866D02*
X33452381Y-13694342D01*
X33452381Y-13694342D02*
X33500000Y-13789580D01*
X33500000Y-13789580D02*
X33547619Y-13837200D01*
X33547619Y-13837200D02*
X33642857Y-13884819D01*
X33642857Y-13884819D02*
X33738095Y-13884819D01*
X33738095Y-13884819D02*
X33833333Y-13837200D01*
X33833333Y-13837200D02*
X33880952Y-13789580D01*
X33880952Y-13789580D02*
X33928571Y-13694342D01*
X33928571Y-13694342D02*
X33976190Y-13503866D01*
X33976190Y-13503866D02*
X33976190Y-13265771D01*
X33976190Y-13265771D02*
X33928571Y-13075295D01*
X33928571Y-13075295D02*
X33880952Y-12980057D01*
X33880952Y-12980057D02*
X33833333Y-12932438D01*
X33833333Y-12932438D02*
X33738095Y-12884819D01*
X33071428Y-12884819D02*
X32452381Y-12884819D01*
X32452381Y-12884819D02*
X32785714Y-13265771D01*
X32785714Y-13265771D02*
X32642857Y-13265771D01*
X32642857Y-13265771D02*
X32547619Y-13313390D01*
X32547619Y-13313390D02*
X32500000Y-13361009D01*
X32500000Y-13361009D02*
X32452381Y-13456247D01*
X32452381Y-13456247D02*
X32452381Y-13694342D01*
X32452381Y-13694342D02*
X32500000Y-13789580D01*
X32500000Y-13789580D02*
X32547619Y-13837200D01*
X32547619Y-13837200D02*
X32642857Y-13884819D01*
X32642857Y-13884819D02*
X32928571Y-13884819D01*
X32928571Y-13884819D02*
X33023809Y-13837200D01*
X33023809Y-13837200D02*
X33071428Y-13789580D01*
X32261905Y-13980057D02*
X31500000Y-13980057D01*
X30738095Y-13884819D02*
X31309523Y-13884819D01*
X31023809Y-13884819D02*
X31023809Y-12884819D01*
X31023809Y-12884819D02*
X31119047Y-13027676D01*
X31119047Y-13027676D02*
X31214285Y-13122914D01*
X31214285Y-13122914D02*
X31309523Y-13170533D01*
X29880952Y-12884819D02*
X30071428Y-12884819D01*
X30071428Y-12884819D02*
X30166666Y-12932438D01*
X30166666Y-12932438D02*
X30214285Y-12980057D01*
X30214285Y-12980057D02*
X30309523Y-13122914D01*
X30309523Y-13122914D02*
X30357142Y-13313390D01*
X30357142Y-13313390D02*
X30357142Y-13694342D01*
X30357142Y-13694342D02*
X30309523Y-13789580D01*
X30309523Y-13789580D02*
X30261904Y-13837200D01*
X30261904Y-13837200D02*
X30166666Y-13884819D01*
X30166666Y-13884819D02*
X29976190Y-13884819D01*
X29976190Y-13884819D02*
X29880952Y-13837200D01*
X29880952Y-13837200D02*
X29833333Y-13789580D01*
X29833333Y-13789580D02*
X29785714Y-13694342D01*
X29785714Y-13694342D02*
X29785714Y-13456247D01*
X29785714Y-13456247D02*
X29833333Y-13361009D01*
X29833333Y-13361009D02*
X29880952Y-13313390D01*
X29880952Y-13313390D02*
X29976190Y-13265771D01*
X29976190Y-13265771D02*
X30166666Y-13265771D01*
X30166666Y-13265771D02*
X30261904Y-13313390D01*
X30261904Y-13313390D02*
X30309523Y-13361009D01*
X30309523Y-13361009D02*
X30357142Y-13456247D01*
X29166666Y-12884819D02*
X29071428Y-12884819D01*
X29071428Y-12884819D02*
X28976190Y-12932438D01*
X28976190Y-12932438D02*
X28928571Y-12980057D01*
X28928571Y-12980057D02*
X28880952Y-13075295D01*
X28880952Y-13075295D02*
X28833333Y-13265771D01*
X28833333Y-13265771D02*
X28833333Y-13503866D01*
X28833333Y-13503866D02*
X28880952Y-13694342D01*
X28880952Y-13694342D02*
X28928571Y-13789580D01*
X28928571Y-13789580D02*
X28976190Y-13837200D01*
X28976190Y-13837200D02*
X29071428Y-13884819D01*
X29071428Y-13884819D02*
X29166666Y-13884819D01*
X29166666Y-13884819D02*
X29261904Y-13837200D01*
X29261904Y-13837200D02*
X29309523Y-13789580D01*
X29309523Y-13789580D02*
X29357142Y-13694342D01*
X29357142Y-13694342D02*
X29404761Y-13503866D01*
X29404761Y-13503866D02*
X29404761Y-13265771D01*
X29404761Y-13265771D02*
X29357142Y-13075295D01*
X29357142Y-13075295D02*
X29309523Y-12980057D01*
X29309523Y-12980057D02*
X29261904Y-12932438D01*
X29261904Y-12932438D02*
X29166666Y-12884819D01*
X28261904Y-13313390D02*
X28357142Y-13265771D01*
X28357142Y-13265771D02*
X28404761Y-13218152D01*
X28404761Y-13218152D02*
X28452380Y-13122914D01*
X28452380Y-13122914D02*
X28452380Y-13075295D01*
X28452380Y-13075295D02*
X28404761Y-12980057D01*
X28404761Y-12980057D02*
X28357142Y-12932438D01*
X28357142Y-12932438D02*
X28261904Y-12884819D01*
X28261904Y-12884819D02*
X28071428Y-12884819D01*
X28071428Y-12884819D02*
X27976190Y-12932438D01*
X27976190Y-12932438D02*
X27928571Y-12980057D01*
X27928571Y-12980057D02*
X27880952Y-13075295D01*
X27880952Y-13075295D02*
X27880952Y-13122914D01*
X27880952Y-13122914D02*
X27928571Y-13218152D01*
X27928571Y-13218152D02*
X27976190Y-13265771D01*
X27976190Y-13265771D02*
X28071428Y-13313390D01*
X28071428Y-13313390D02*
X28261904Y-13313390D01*
X28261904Y-13313390D02*
X28357142Y-13361009D01*
X28357142Y-13361009D02*
X28404761Y-13408628D01*
X28404761Y-13408628D02*
X28452380Y-13503866D01*
X28452380Y-13503866D02*
X28452380Y-13694342D01*
X28452380Y-13694342D02*
X28404761Y-13789580D01*
X28404761Y-13789580D02*
X28357142Y-13837200D01*
X28357142Y-13837200D02*
X28261904Y-13884819D01*
X28261904Y-13884819D02*
X28071428Y-13884819D01*
X28071428Y-13884819D02*
X27976190Y-13837200D01*
X27976190Y-13837200D02*
X27928571Y-13789580D01*
X27928571Y-13789580D02*
X27880952Y-13694342D01*
X27880952Y-13694342D02*
X27880952Y-13503866D01*
X27880952Y-13503866D02*
X27928571Y-13408628D01*
X27928571Y-13408628D02*
X27976190Y-13361009D01*
X27976190Y-13361009D02*
X28071428Y-13313390D01*
X27452380Y-13884819D02*
X27452380Y-12884819D01*
X27452380Y-12884819D02*
X27119047Y-13599104D01*
X27119047Y-13599104D02*
X26785714Y-12884819D01*
X26785714Y-12884819D02*
X26785714Y-13884819D01*
X25928571Y-13837200D02*
X26023809Y-13884819D01*
X26023809Y-13884819D02*
X26214285Y-13884819D01*
X26214285Y-13884819D02*
X26309523Y-13837200D01*
X26309523Y-13837200D02*
X26357142Y-13741961D01*
X26357142Y-13741961D02*
X26357142Y-13361009D01*
X26357142Y-13361009D02*
X26309523Y-13265771D01*
X26309523Y-13265771D02*
X26214285Y-13218152D01*
X26214285Y-13218152D02*
X26023809Y-13218152D01*
X26023809Y-13218152D02*
X25928571Y-13265771D01*
X25928571Y-13265771D02*
X25880952Y-13361009D01*
X25880952Y-13361009D02*
X25880952Y-13456247D01*
X25880952Y-13456247D02*
X26357142Y-13551485D01*
X25595237Y-13218152D02*
X25214285Y-13218152D01*
X25452380Y-12884819D02*
X25452380Y-13741961D01*
X25452380Y-13741961D02*
X25404761Y-13837200D01*
X25404761Y-13837200D02*
X25309523Y-13884819D01*
X25309523Y-13884819D02*
X25214285Y-13884819D01*
X24880951Y-13884819D02*
X24880951Y-13218152D01*
X24880951Y-13408628D02*
X24833332Y-13313390D01*
X24833332Y-13313390D02*
X24785713Y-13265771D01*
X24785713Y-13265771D02*
X24690475Y-13218152D01*
X24690475Y-13218152D02*
X24595237Y-13218152D01*
X24261903Y-13884819D02*
X24261903Y-13218152D01*
X24261903Y-12884819D02*
X24309522Y-12932438D01*
X24309522Y-12932438D02*
X24261903Y-12980057D01*
X24261903Y-12980057D02*
X24214284Y-12932438D01*
X24214284Y-12932438D02*
X24261903Y-12884819D01*
X24261903Y-12884819D02*
X24261903Y-12980057D01*
X23357142Y-13837200D02*
X23452380Y-13884819D01*
X23452380Y-13884819D02*
X23642856Y-13884819D01*
X23642856Y-13884819D02*
X23738094Y-13837200D01*
X23738094Y-13837200D02*
X23785713Y-13789580D01*
X23785713Y-13789580D02*
X23833332Y-13694342D01*
X23833332Y-13694342D02*
X23833332Y-13408628D01*
X23833332Y-13408628D02*
X23785713Y-13313390D01*
X23785713Y-13313390D02*
X23738094Y-13265771D01*
X23738094Y-13265771D02*
X23642856Y-13218152D01*
X23642856Y-13218152D02*
X23452380Y-13218152D01*
X23452380Y-13218152D02*
X23357142Y-13265771D01*
D11*
X30566666Y-12181927D02*
X30699999Y-11991451D01*
X30795237Y-12181927D02*
X30795237Y-11781927D01*
X30795237Y-11781927D02*
X30642856Y-11781927D01*
X30642856Y-11781927D02*
X30604761Y-11800975D01*
X30604761Y-11800975D02*
X30585714Y-11820022D01*
X30585714Y-11820022D02*
X30566666Y-11858118D01*
X30566666Y-11858118D02*
X30566666Y-11915260D01*
X30566666Y-11915260D02*
X30585714Y-11953356D01*
X30585714Y-11953356D02*
X30604761Y-11972403D01*
X30604761Y-11972403D02*
X30642856Y-11991451D01*
X30642856Y-11991451D02*
X30795237Y-11991451D01*
X30433333Y-11781927D02*
X30185714Y-11781927D01*
X30185714Y-11781927D02*
X30319047Y-11934308D01*
X30319047Y-11934308D02*
X30261904Y-11934308D01*
X30261904Y-11934308D02*
X30223809Y-11953356D01*
X30223809Y-11953356D02*
X30204761Y-11972403D01*
X30204761Y-11972403D02*
X30185714Y-12010499D01*
X30185714Y-12010499D02*
X30185714Y-12105737D01*
X30185714Y-12105737D02*
X30204761Y-12143832D01*
X30204761Y-12143832D02*
X30223809Y-12162880D01*
X30223809Y-12162880D02*
X30261904Y-12181927D01*
X30261904Y-12181927D02*
X30376190Y-12181927D01*
X30376190Y-12181927D02*
X30414285Y-12162880D01*
X30414285Y-12162880D02*
X30433333Y-12143832D01*
D10*
X21523810Y-67209580D02*
X21571429Y-67257200D01*
X21571429Y-67257200D02*
X21714286Y-67304819D01*
X21714286Y-67304819D02*
X21809524Y-67304819D01*
X21809524Y-67304819D02*
X21952381Y-67257200D01*
X21952381Y-67257200D02*
X22047619Y-67161961D01*
X22047619Y-67161961D02*
X22095238Y-67066723D01*
X22095238Y-67066723D02*
X22142857Y-66876247D01*
X22142857Y-66876247D02*
X22142857Y-66733390D01*
X22142857Y-66733390D02*
X22095238Y-66542914D01*
X22095238Y-66542914D02*
X22047619Y-66447676D01*
X22047619Y-66447676D02*
X21952381Y-66352438D01*
X21952381Y-66352438D02*
X21809524Y-66304819D01*
X21809524Y-66304819D02*
X21714286Y-66304819D01*
X21714286Y-66304819D02*
X21571429Y-66352438D01*
X21571429Y-66352438D02*
X21523810Y-66400057D01*
X21333334Y-67400057D02*
X20571429Y-67400057D01*
X19809524Y-67304819D02*
X20380952Y-67304819D01*
X20095238Y-67304819D02*
X20095238Y-66304819D01*
X20095238Y-66304819D02*
X20190476Y-66447676D01*
X20190476Y-66447676D02*
X20285714Y-66542914D01*
X20285714Y-66542914D02*
X20380952Y-66590533D01*
X19428571Y-66400057D02*
X19380952Y-66352438D01*
X19380952Y-66352438D02*
X19285714Y-66304819D01*
X19285714Y-66304819D02*
X19047619Y-66304819D01*
X19047619Y-66304819D02*
X18952381Y-66352438D01*
X18952381Y-66352438D02*
X18904762Y-66400057D01*
X18904762Y-66400057D02*
X18857143Y-66495295D01*
X18857143Y-66495295D02*
X18857143Y-66590533D01*
X18857143Y-66590533D02*
X18904762Y-66733390D01*
X18904762Y-66733390D02*
X19476190Y-67304819D01*
X19476190Y-67304819D02*
X18857143Y-67304819D01*
X18238095Y-66304819D02*
X18142857Y-66304819D01*
X18142857Y-66304819D02*
X18047619Y-66352438D01*
X18047619Y-66352438D02*
X18000000Y-66400057D01*
X18000000Y-66400057D02*
X17952381Y-66495295D01*
X17952381Y-66495295D02*
X17904762Y-66685771D01*
X17904762Y-66685771D02*
X17904762Y-66923866D01*
X17904762Y-66923866D02*
X17952381Y-67114342D01*
X17952381Y-67114342D02*
X18000000Y-67209580D01*
X18000000Y-67209580D02*
X18047619Y-67257200D01*
X18047619Y-67257200D02*
X18142857Y-67304819D01*
X18142857Y-67304819D02*
X18238095Y-67304819D01*
X18238095Y-67304819D02*
X18333333Y-67257200D01*
X18333333Y-67257200D02*
X18380952Y-67209580D01*
X18380952Y-67209580D02*
X18428571Y-67114342D01*
X18428571Y-67114342D02*
X18476190Y-66923866D01*
X18476190Y-66923866D02*
X18476190Y-66685771D01*
X18476190Y-66685771D02*
X18428571Y-66495295D01*
X18428571Y-66495295D02*
X18380952Y-66400057D01*
X18380952Y-66400057D02*
X18333333Y-66352438D01*
X18333333Y-66352438D02*
X18238095Y-66304819D01*
X17047619Y-66304819D02*
X17238095Y-66304819D01*
X17238095Y-66304819D02*
X17333333Y-66352438D01*
X17333333Y-66352438D02*
X17380952Y-66400057D01*
X17380952Y-66400057D02*
X17476190Y-66542914D01*
X17476190Y-66542914D02*
X17523809Y-66733390D01*
X17523809Y-66733390D02*
X17523809Y-67114342D01*
X17523809Y-67114342D02*
X17476190Y-67209580D01*
X17476190Y-67209580D02*
X17428571Y-67257200D01*
X17428571Y-67257200D02*
X17333333Y-67304819D01*
X17333333Y-67304819D02*
X17142857Y-67304819D01*
X17142857Y-67304819D02*
X17047619Y-67257200D01*
X17047619Y-67257200D02*
X17000000Y-67209580D01*
X17000000Y-67209580D02*
X16952381Y-67114342D01*
X16952381Y-67114342D02*
X16952381Y-66876247D01*
X16952381Y-66876247D02*
X17000000Y-66781009D01*
X17000000Y-66781009D02*
X17047619Y-66733390D01*
X17047619Y-66733390D02*
X17142857Y-66685771D01*
X17142857Y-66685771D02*
X17333333Y-66685771D01*
X17333333Y-66685771D02*
X17428571Y-66733390D01*
X17428571Y-66733390D02*
X17476190Y-66781009D01*
X17476190Y-66781009D02*
X17523809Y-66876247D01*
X16761905Y-67400057D02*
X16000000Y-67400057D01*
X15857142Y-66304819D02*
X15238095Y-66304819D01*
X15238095Y-66304819D02*
X15571428Y-66685771D01*
X15571428Y-66685771D02*
X15428571Y-66685771D01*
X15428571Y-66685771D02*
X15333333Y-66733390D01*
X15333333Y-66733390D02*
X15285714Y-66781009D01*
X15285714Y-66781009D02*
X15238095Y-66876247D01*
X15238095Y-66876247D02*
X15238095Y-67114342D01*
X15238095Y-67114342D02*
X15285714Y-67209580D01*
X15285714Y-67209580D02*
X15333333Y-67257200D01*
X15333333Y-67257200D02*
X15428571Y-67304819D01*
X15428571Y-67304819D02*
X15714285Y-67304819D01*
X15714285Y-67304819D02*
X15809523Y-67257200D01*
X15809523Y-67257200D02*
X15857142Y-67209580D01*
X14857142Y-66400057D02*
X14809523Y-66352438D01*
X14809523Y-66352438D02*
X14714285Y-66304819D01*
X14714285Y-66304819D02*
X14476190Y-66304819D01*
X14476190Y-66304819D02*
X14380952Y-66352438D01*
X14380952Y-66352438D02*
X14333333Y-66400057D01*
X14333333Y-66400057D02*
X14285714Y-66495295D01*
X14285714Y-66495295D02*
X14285714Y-66590533D01*
X14285714Y-66590533D02*
X14333333Y-66733390D01*
X14333333Y-66733390D02*
X14904761Y-67304819D01*
X14904761Y-67304819D02*
X14285714Y-67304819D01*
X13333333Y-67304819D02*
X13904761Y-67304819D01*
X13619047Y-67304819D02*
X13619047Y-66304819D01*
X13619047Y-66304819D02*
X13714285Y-66447676D01*
X13714285Y-66447676D02*
X13809523Y-66542914D01*
X13809523Y-66542914D02*
X13904761Y-66590533D01*
X12476190Y-66304819D02*
X12666666Y-66304819D01*
X12666666Y-66304819D02*
X12761904Y-66352438D01*
X12761904Y-66352438D02*
X12809523Y-66400057D01*
X12809523Y-66400057D02*
X12904761Y-66542914D01*
X12904761Y-66542914D02*
X12952380Y-66733390D01*
X12952380Y-66733390D02*
X12952380Y-67114342D01*
X12952380Y-67114342D02*
X12904761Y-67209580D01*
X12904761Y-67209580D02*
X12857142Y-67257200D01*
X12857142Y-67257200D02*
X12761904Y-67304819D01*
X12761904Y-67304819D02*
X12571428Y-67304819D01*
X12571428Y-67304819D02*
X12476190Y-67257200D01*
X12476190Y-67257200D02*
X12428571Y-67209580D01*
X12428571Y-67209580D02*
X12380952Y-67114342D01*
X12380952Y-67114342D02*
X12380952Y-66876247D01*
X12380952Y-66876247D02*
X12428571Y-66781009D01*
X12428571Y-66781009D02*
X12476190Y-66733390D01*
X12476190Y-66733390D02*
X12571428Y-66685771D01*
X12571428Y-66685771D02*
X12761904Y-66685771D01*
X12761904Y-66685771D02*
X12857142Y-66733390D01*
X12857142Y-66733390D02*
X12904761Y-66781009D01*
X12904761Y-66781009D02*
X12952380Y-66876247D01*
X11952380Y-67304819D02*
X11952380Y-66304819D01*
X11952380Y-66304819D02*
X11619047Y-67019104D01*
X11619047Y-67019104D02*
X11285714Y-66304819D01*
X11285714Y-66304819D02*
X11285714Y-67304819D01*
X10428571Y-67257200D02*
X10523809Y-67304819D01*
X10523809Y-67304819D02*
X10714285Y-67304819D01*
X10714285Y-67304819D02*
X10809523Y-67257200D01*
X10809523Y-67257200D02*
X10857142Y-67161961D01*
X10857142Y-67161961D02*
X10857142Y-66781009D01*
X10857142Y-66781009D02*
X10809523Y-66685771D01*
X10809523Y-66685771D02*
X10714285Y-66638152D01*
X10714285Y-66638152D02*
X10523809Y-66638152D01*
X10523809Y-66638152D02*
X10428571Y-66685771D01*
X10428571Y-66685771D02*
X10380952Y-66781009D01*
X10380952Y-66781009D02*
X10380952Y-66876247D01*
X10380952Y-66876247D02*
X10857142Y-66971485D01*
X10095237Y-66638152D02*
X9714285Y-66638152D01*
X9952380Y-66304819D02*
X9952380Y-67161961D01*
X9952380Y-67161961D02*
X9904761Y-67257200D01*
X9904761Y-67257200D02*
X9809523Y-67304819D01*
X9809523Y-67304819D02*
X9714285Y-67304819D01*
X9380951Y-67304819D02*
X9380951Y-66638152D01*
X9380951Y-66828628D02*
X9333332Y-66733390D01*
X9333332Y-66733390D02*
X9285713Y-66685771D01*
X9285713Y-66685771D02*
X9190475Y-66638152D01*
X9190475Y-66638152D02*
X9095237Y-66638152D01*
X8761903Y-67304819D02*
X8761903Y-66638152D01*
X8761903Y-66304819D02*
X8809522Y-66352438D01*
X8809522Y-66352438D02*
X8761903Y-66400057D01*
X8761903Y-66400057D02*
X8714284Y-66352438D01*
X8714284Y-66352438D02*
X8761903Y-66304819D01*
X8761903Y-66304819D02*
X8761903Y-66400057D01*
X7857142Y-67257200D02*
X7952380Y-67304819D01*
X7952380Y-67304819D02*
X8142856Y-67304819D01*
X8142856Y-67304819D02*
X8238094Y-67257200D01*
X8238094Y-67257200D02*
X8285713Y-67209580D01*
X8285713Y-67209580D02*
X8333332Y-67114342D01*
X8333332Y-67114342D02*
X8333332Y-66828628D01*
X8333332Y-66828628D02*
X8285713Y-66733390D01*
X8285713Y-66733390D02*
X8238094Y-66685771D01*
X8238094Y-66685771D02*
X8142856Y-66638152D01*
X8142856Y-66638152D02*
X7952380Y-66638152D01*
X7952380Y-66638152D02*
X7857142Y-66685771D01*
D12*
X15133332Y-65287664D02*
X15171428Y-65325760D01*
X15171428Y-65325760D02*
X15285713Y-65363855D01*
X15285713Y-65363855D02*
X15361904Y-65363855D01*
X15361904Y-65363855D02*
X15476190Y-65325760D01*
X15476190Y-65325760D02*
X15552380Y-65249569D01*
X15552380Y-65249569D02*
X15590475Y-65173379D01*
X15590475Y-65173379D02*
X15628571Y-65020998D01*
X15628571Y-65020998D02*
X15628571Y-64906712D01*
X15628571Y-64906712D02*
X15590475Y-64754331D01*
X15590475Y-64754331D02*
X15552380Y-64678140D01*
X15552380Y-64678140D02*
X15476190Y-64601950D01*
X15476190Y-64601950D02*
X15361904Y-64563855D01*
X15361904Y-64563855D02*
X15285713Y-64563855D01*
X15285713Y-64563855D02*
X15171428Y-64601950D01*
X15171428Y-64601950D02*
X15133332Y-64640045D01*
X14371428Y-65363855D02*
X14828571Y-65363855D01*
X14599999Y-65363855D02*
X14599999Y-64563855D01*
X14599999Y-64563855D02*
X14676190Y-64678140D01*
X14676190Y-64678140D02*
X14752380Y-64754331D01*
X14752380Y-64754331D02*
X14828571Y-64792426D01*
D10*
X-1145180Y8095238D02*
X-430895Y8095238D01*
X-430895Y8095238D02*
X-288038Y8142857D01*
X-288038Y8142857D02*
X-192800Y8238095D01*
X-192800Y8238095D02*
X-145180Y8380952D01*
X-145180Y8380952D02*
X-145180Y8476190D01*
X-192800Y7666666D02*
X-145180Y7523809D01*
X-145180Y7523809D02*
X-145180Y7285714D01*
X-145180Y7285714D02*
X-192800Y7190476D01*
X-192800Y7190476D02*
X-240419Y7142857D01*
X-240419Y7142857D02*
X-335657Y7095238D01*
X-335657Y7095238D02*
X-430895Y7095238D01*
X-430895Y7095238D02*
X-526133Y7142857D01*
X-526133Y7142857D02*
X-573752Y7190476D01*
X-573752Y7190476D02*
X-621371Y7285714D01*
X-621371Y7285714D02*
X-668990Y7476190D01*
X-668990Y7476190D02*
X-716609Y7571428D01*
X-716609Y7571428D02*
X-764228Y7619047D01*
X-764228Y7619047D02*
X-859466Y7666666D01*
X-859466Y7666666D02*
X-954704Y7666666D01*
X-954704Y7666666D02*
X-1049942Y7619047D01*
X-1049942Y7619047D02*
X-1097561Y7571428D01*
X-1097561Y7571428D02*
X-1145180Y7476190D01*
X-1145180Y7476190D02*
X-1145180Y7238095D01*
X-1145180Y7238095D02*
X-1097561Y7095238D01*
X-1145180Y6809523D02*
X-1145180Y6238095D01*
X-145180Y6523809D02*
X-1145180Y6523809D01*
X-49942Y6142857D02*
X-49942Y5380952D01*
X-1097561Y4619047D02*
X-1145180Y4714285D01*
X-1145180Y4714285D02*
X-1145180Y4857142D01*
X-1145180Y4857142D02*
X-1097561Y4999999D01*
X-1097561Y4999999D02*
X-1002323Y5095237D01*
X-1002323Y5095237D02*
X-907085Y5142856D01*
X-907085Y5142856D02*
X-716609Y5190475D01*
X-716609Y5190475D02*
X-573752Y5190475D01*
X-573752Y5190475D02*
X-383276Y5142856D01*
X-383276Y5142856D02*
X-288038Y5095237D01*
X-288038Y5095237D02*
X-192800Y4999999D01*
X-192800Y4999999D02*
X-145180Y4857142D01*
X-145180Y4857142D02*
X-145180Y4761904D01*
X-145180Y4761904D02*
X-192800Y4619047D01*
X-192800Y4619047D02*
X-240419Y4571428D01*
X-240419Y4571428D02*
X-573752Y4571428D01*
X-573752Y4571428D02*
X-573752Y4761904D01*
X-145180Y4142856D02*
X-1145180Y4142856D01*
X-668990Y4142856D02*
X-668990Y3571428D01*
X-145180Y3571428D02*
X-1145180Y3571428D01*
X-49942Y3333333D02*
X-49942Y2571428D01*
X-192800Y2380951D02*
X-145180Y2238094D01*
X-145180Y2238094D02*
X-145180Y1999999D01*
X-145180Y1999999D02*
X-192800Y1904761D01*
X-192800Y1904761D02*
X-240419Y1857142D01*
X-240419Y1857142D02*
X-335657Y1809523D01*
X-335657Y1809523D02*
X-430895Y1809523D01*
X-430895Y1809523D02*
X-526133Y1857142D01*
X-526133Y1857142D02*
X-573752Y1904761D01*
X-573752Y1904761D02*
X-621371Y1999999D01*
X-621371Y1999999D02*
X-668990Y2190475D01*
X-668990Y2190475D02*
X-716609Y2285713D01*
X-716609Y2285713D02*
X-764228Y2333332D01*
X-764228Y2333332D02*
X-859466Y2380951D01*
X-859466Y2380951D02*
X-954704Y2380951D01*
X-954704Y2380951D02*
X-1049942Y2333332D01*
X-1049942Y2333332D02*
X-1097561Y2285713D01*
X-1097561Y2285713D02*
X-1145180Y2190475D01*
X-1145180Y2190475D02*
X-1145180Y1952380D01*
X-1145180Y1952380D02*
X-1097561Y1809523D01*
X-145180Y1380951D02*
X-1145180Y1380951D01*
X-1145180Y1380951D02*
X-430895Y1047618D01*
X-430895Y1047618D02*
X-1145180Y714285D01*
X-1145180Y714285D02*
X-145180Y714285D01*
X-1145180Y47618D02*
X-1145180Y-47619D01*
X-1145180Y-47619D02*
X-1097561Y-142857D01*
X-1097561Y-142857D02*
X-1049942Y-190476D01*
X-1049942Y-190476D02*
X-954704Y-238095D01*
X-954704Y-238095D02*
X-764228Y-285714D01*
X-764228Y-285714D02*
X-526133Y-285714D01*
X-526133Y-285714D02*
X-335657Y-238095D01*
X-335657Y-238095D02*
X-240419Y-190476D01*
X-240419Y-190476D02*
X-192800Y-142857D01*
X-192800Y-142857D02*
X-145180Y-47619D01*
X-145180Y-47619D02*
X-145180Y47618D01*
X-145180Y47618D02*
X-192800Y142856D01*
X-192800Y142856D02*
X-240419Y190475D01*
X-240419Y190475D02*
X-335657Y238094D01*
X-335657Y238094D02*
X-526133Y285713D01*
X-526133Y285713D02*
X-764228Y285713D01*
X-764228Y285713D02*
X-954704Y238094D01*
X-954704Y238094D02*
X-1049942Y190475D01*
X-1049942Y190475D02*
X-1097561Y142856D01*
X-1097561Y142856D02*
X-1145180Y47618D01*
X-811847Y-1142857D02*
X-145180Y-1142857D01*
X-1192800Y-904762D02*
X-478514Y-666667D01*
X-478514Y-666667D02*
X-478514Y-1285714D01*
X-668990Y-2000000D02*
X-621371Y-2142857D01*
X-621371Y-2142857D02*
X-573752Y-2190476D01*
X-573752Y-2190476D02*
X-478514Y-2238095D01*
X-478514Y-2238095D02*
X-335657Y-2238095D01*
X-335657Y-2238095D02*
X-240419Y-2190476D01*
X-240419Y-2190476D02*
X-192800Y-2142857D01*
X-192800Y-2142857D02*
X-145180Y-2047619D01*
X-145180Y-2047619D02*
X-145180Y-1666667D01*
X-145180Y-1666667D02*
X-1145180Y-1666667D01*
X-1145180Y-1666667D02*
X-1145180Y-2000000D01*
X-1145180Y-2000000D02*
X-1097561Y-2095238D01*
X-1097561Y-2095238D02*
X-1049942Y-2142857D01*
X-1049942Y-2142857D02*
X-954704Y-2190476D01*
X-954704Y-2190476D02*
X-859466Y-2190476D01*
X-859466Y-2190476D02*
X-764228Y-2142857D01*
X-764228Y-2142857D02*
X-716609Y-2095238D01*
X-716609Y-2095238D02*
X-668990Y-2000000D01*
X-668990Y-2000000D02*
X-668990Y-1666667D01*
X-526133Y-2666667D02*
X-526133Y-3428572D01*
X-1097561Y-4428571D02*
X-1145180Y-4333333D01*
X-1145180Y-4333333D02*
X-1145180Y-4190476D01*
X-1145180Y-4190476D02*
X-1097561Y-4047619D01*
X-1097561Y-4047619D02*
X-1002323Y-3952381D01*
X-1002323Y-3952381D02*
X-907085Y-3904762D01*
X-907085Y-3904762D02*
X-716609Y-3857143D01*
X-716609Y-3857143D02*
X-573752Y-3857143D01*
X-573752Y-3857143D02*
X-383276Y-3904762D01*
X-383276Y-3904762D02*
X-288038Y-3952381D01*
X-288038Y-3952381D02*
X-192800Y-4047619D01*
X-192800Y-4047619D02*
X-145180Y-4190476D01*
X-145180Y-4190476D02*
X-145180Y-4285714D01*
X-145180Y-4285714D02*
X-192800Y-4428571D01*
X-192800Y-4428571D02*
X-240419Y-4476190D01*
X-240419Y-4476190D02*
X-573752Y-4476190D01*
X-573752Y-4476190D02*
X-573752Y-4285714D01*
X-145180Y-4904762D02*
X-1145180Y-4904762D01*
X-668990Y-4904762D02*
X-668990Y-5476190D01*
X-145180Y-5476190D02*
X-1145180Y-5476190D01*
X-192800Y-5904762D02*
X-145180Y-6047619D01*
X-145180Y-6047619D02*
X-145180Y-6285714D01*
X-145180Y-6285714D02*
X-192800Y-6380952D01*
X-192800Y-6380952D02*
X-240419Y-6428571D01*
X-240419Y-6428571D02*
X-335657Y-6476190D01*
X-335657Y-6476190D02*
X-430895Y-6476190D01*
X-430895Y-6476190D02*
X-526133Y-6428571D01*
X-526133Y-6428571D02*
X-573752Y-6380952D01*
X-573752Y-6380952D02*
X-621371Y-6285714D01*
X-621371Y-6285714D02*
X-668990Y-6095238D01*
X-668990Y-6095238D02*
X-716609Y-6000000D01*
X-716609Y-6000000D02*
X-764228Y-5952381D01*
X-764228Y-5952381D02*
X-859466Y-5904762D01*
X-859466Y-5904762D02*
X-954704Y-5904762D01*
X-954704Y-5904762D02*
X-1049942Y-5952381D01*
X-1049942Y-5952381D02*
X-1097561Y-6000000D01*
X-1097561Y-6000000D02*
X-1145180Y-6095238D01*
X-1145180Y-6095238D02*
X-1145180Y-6333333D01*
X-1145180Y-6333333D02*
X-1097561Y-6476190D01*
X-526133Y-6904762D02*
X-526133Y-7666667D01*
X-1145180Y-8000000D02*
X-1145180Y-8571428D01*
X-145180Y-8285714D02*
X-1145180Y-8285714D01*
X-668990Y-9238095D02*
X-621371Y-9380952D01*
X-621371Y-9380952D02*
X-573752Y-9428571D01*
X-573752Y-9428571D02*
X-478514Y-9476190D01*
X-478514Y-9476190D02*
X-335657Y-9476190D01*
X-335657Y-9476190D02*
X-240419Y-9428571D01*
X-240419Y-9428571D02*
X-192800Y-9380952D01*
X-192800Y-9380952D02*
X-145180Y-9285714D01*
X-145180Y-9285714D02*
X-145180Y-8904762D01*
X-145180Y-8904762D02*
X-1145180Y-8904762D01*
X-1145180Y-8904762D02*
X-1145180Y-9238095D01*
X-1145180Y-9238095D02*
X-1097561Y-9333333D01*
X-1097561Y-9333333D02*
X-1049942Y-9380952D01*
X-1049942Y-9380952D02*
X-954704Y-9428571D01*
X-954704Y-9428571D02*
X-859466Y-9428571D01*
X-859466Y-9428571D02*
X-764228Y-9380952D01*
X-764228Y-9380952D02*
X-716609Y-9333333D01*
X-716609Y-9333333D02*
X-668990Y-9238095D01*
X-668990Y-9238095D02*
X-668990Y-8904762D01*
X-49942Y-9666667D02*
X-49942Y-10428571D01*
X-145180Y-11190476D02*
X-145180Y-10619048D01*
X-145180Y-10904762D02*
X-1145180Y-10904762D01*
X-1145180Y-10904762D02*
X-1002323Y-10809524D01*
X-1002323Y-10809524D02*
X-907085Y-10714286D01*
X-907085Y-10714286D02*
X-859466Y-10619048D01*
X-145180Y-11523810D02*
X-811847Y-12047619D01*
X-811847Y-11523810D02*
X-145180Y-12047619D01*
X-1145180Y-12619048D02*
X-1145180Y-12714286D01*
X-1145180Y-12714286D02*
X-1097561Y-12809524D01*
X-1097561Y-12809524D02*
X-1049942Y-12857143D01*
X-1049942Y-12857143D02*
X-954704Y-12904762D01*
X-954704Y-12904762D02*
X-764228Y-12952381D01*
X-764228Y-12952381D02*
X-526133Y-12952381D01*
X-526133Y-12952381D02*
X-335657Y-12904762D01*
X-335657Y-12904762D02*
X-240419Y-12857143D01*
X-240419Y-12857143D02*
X-192800Y-12809524D01*
X-192800Y-12809524D02*
X-145180Y-12714286D01*
X-145180Y-12714286D02*
X-145180Y-12619048D01*
X-145180Y-12619048D02*
X-192800Y-12523810D01*
X-192800Y-12523810D02*
X-240419Y-12476191D01*
X-240419Y-12476191D02*
X-335657Y-12428572D01*
X-335657Y-12428572D02*
X-526133Y-12380953D01*
X-526133Y-12380953D02*
X-764228Y-12380953D01*
X-764228Y-12380953D02*
X-954704Y-12428572D01*
X-954704Y-12428572D02*
X-1049942Y-12476191D01*
X-1049942Y-12476191D02*
X-1097561Y-12523810D01*
X-1097561Y-12523810D02*
X-1145180Y-12619048D01*
X-811847Y-13809524D02*
X-145180Y-13809524D01*
X-1192800Y-13571429D02*
X-478514Y-13333334D01*
X-478514Y-13333334D02*
X-478514Y-13952381D01*
X-526133Y-14333334D02*
X-526133Y-15095239D01*
X-145180Y-16095238D02*
X-145180Y-15523810D01*
X-145180Y-15809524D02*
X-1145180Y-15809524D01*
X-1145180Y-15809524D02*
X-1002323Y-15714286D01*
X-1002323Y-15714286D02*
X-907085Y-15619048D01*
X-907085Y-15619048D02*
X-859466Y-15523810D01*
X-145180Y-16523810D02*
X-1145180Y-16523810D01*
X-1145180Y-16523810D02*
X-430895Y-16857143D01*
X-430895Y-16857143D02*
X-1145180Y-17190476D01*
X-1145180Y-17190476D02*
X-145180Y-17190476D01*
X-145180Y-17666667D02*
X-1145180Y-17666667D01*
X-1145180Y-17666667D02*
X-1145180Y-18047619D01*
X-1145180Y-18047619D02*
X-1097561Y-18142857D01*
X-1097561Y-18142857D02*
X-1049942Y-18190476D01*
X-1049942Y-18190476D02*
X-954704Y-18238095D01*
X-954704Y-18238095D02*
X-811847Y-18238095D01*
X-811847Y-18238095D02*
X-716609Y-18190476D01*
X-716609Y-18190476D02*
X-668990Y-18142857D01*
X-668990Y-18142857D02*
X-621371Y-18047619D01*
X-621371Y-18047619D02*
X-621371Y-17666667D01*
X-49942Y-18428572D02*
X-49942Y-19190476D01*
X-145180Y-19428572D02*
X-1145180Y-19428572D01*
X-1145180Y-19428572D02*
X-1145180Y-19809524D01*
X-1145180Y-19809524D02*
X-1097561Y-19904762D01*
X-1097561Y-19904762D02*
X-1049942Y-19952381D01*
X-1049942Y-19952381D02*
X-954704Y-20000000D01*
X-954704Y-20000000D02*
X-811847Y-20000000D01*
X-811847Y-20000000D02*
X-716609Y-19952381D01*
X-716609Y-19952381D02*
X-668990Y-19904762D01*
X-668990Y-19904762D02*
X-621371Y-19809524D01*
X-621371Y-19809524D02*
X-621371Y-19428572D01*
X-145180Y-20952381D02*
X-145180Y-20380953D01*
X-145180Y-20666667D02*
X-1145180Y-20666667D01*
X-1145180Y-20666667D02*
X-1002323Y-20571429D01*
X-1002323Y-20571429D02*
X-907085Y-20476191D01*
X-907085Y-20476191D02*
X-859466Y-20380953D01*
X-240419Y-21380953D02*
X-192800Y-21428572D01*
X-192800Y-21428572D02*
X-145180Y-21380953D01*
X-145180Y-21380953D02*
X-192800Y-21333334D01*
X-192800Y-21333334D02*
X-240419Y-21380953D01*
X-240419Y-21380953D02*
X-145180Y-21380953D01*
X-1049942Y-21809524D02*
X-1097561Y-21857143D01*
X-1097561Y-21857143D02*
X-1145180Y-21952381D01*
X-1145180Y-21952381D02*
X-1145180Y-22190476D01*
X-1145180Y-22190476D02*
X-1097561Y-22285714D01*
X-1097561Y-22285714D02*
X-1049942Y-22333333D01*
X-1049942Y-22333333D02*
X-954704Y-22380952D01*
X-954704Y-22380952D02*
X-859466Y-22380952D01*
X-859466Y-22380952D02*
X-716609Y-22333333D01*
X-716609Y-22333333D02*
X-145180Y-21761905D01*
X-145180Y-21761905D02*
X-145180Y-22380952D01*
X-1145180Y-23285714D02*
X-1145180Y-22809524D01*
X-1145180Y-22809524D02*
X-668990Y-22761905D01*
X-668990Y-22761905D02*
X-716609Y-22809524D01*
X-716609Y-22809524D02*
X-764228Y-22904762D01*
X-764228Y-22904762D02*
X-764228Y-23142857D01*
X-764228Y-23142857D02*
X-716609Y-23238095D01*
X-716609Y-23238095D02*
X-668990Y-23285714D01*
X-668990Y-23285714D02*
X-573752Y-23333333D01*
X-573752Y-23333333D02*
X-335657Y-23333333D01*
X-335657Y-23333333D02*
X-240419Y-23285714D01*
X-240419Y-23285714D02*
X-192800Y-23238095D01*
X-192800Y-23238095D02*
X-145180Y-23142857D01*
X-145180Y-23142857D02*
X-145180Y-22904762D01*
X-145180Y-22904762D02*
X-192800Y-22809524D01*
X-192800Y-22809524D02*
X-240419Y-22761905D01*
X-145180Y-23761905D02*
X-811847Y-23761905D01*
X-716609Y-23761905D02*
X-764228Y-23809524D01*
X-764228Y-23809524D02*
X-811847Y-23904762D01*
X-811847Y-23904762D02*
X-811847Y-24047619D01*
X-811847Y-24047619D02*
X-764228Y-24142857D01*
X-764228Y-24142857D02*
X-668990Y-24190476D01*
X-668990Y-24190476D02*
X-145180Y-24190476D01*
X-668990Y-24190476D02*
X-764228Y-24238095D01*
X-764228Y-24238095D02*
X-811847Y-24333333D01*
X-811847Y-24333333D02*
X-811847Y-24476190D01*
X-811847Y-24476190D02*
X-764228Y-24571429D01*
X-764228Y-24571429D02*
X-668990Y-24619048D01*
X-668990Y-24619048D02*
X-145180Y-24619048D01*
X-145180Y-25095238D02*
X-811847Y-25095238D01*
X-716609Y-25095238D02*
X-764228Y-25142857D01*
X-764228Y-25142857D02*
X-811847Y-25238095D01*
X-811847Y-25238095D02*
X-811847Y-25380952D01*
X-811847Y-25380952D02*
X-764228Y-25476190D01*
X-764228Y-25476190D02*
X-668990Y-25523809D01*
X-668990Y-25523809D02*
X-145180Y-25523809D01*
X-668990Y-25523809D02*
X-764228Y-25571428D01*
X-764228Y-25571428D02*
X-811847Y-25666666D01*
X-811847Y-25666666D02*
X-811847Y-25809523D01*
X-811847Y-25809523D02*
X-764228Y-25904762D01*
X-764228Y-25904762D02*
X-668990Y-25952381D01*
X-668990Y-25952381D02*
X-145180Y-25952381D01*
X-49942Y-26190476D02*
X-49942Y-26952380D01*
X-145180Y-27190476D02*
X-1145180Y-27190476D01*
X-668990Y-27190476D02*
X-668990Y-27761904D01*
X-145180Y-27761904D02*
X-1145180Y-27761904D01*
X-145180Y-28380952D02*
X-192800Y-28285714D01*
X-192800Y-28285714D02*
X-240419Y-28238095D01*
X-240419Y-28238095D02*
X-335657Y-28190476D01*
X-335657Y-28190476D02*
X-621371Y-28190476D01*
X-621371Y-28190476D02*
X-716609Y-28238095D01*
X-716609Y-28238095D02*
X-764228Y-28285714D01*
X-764228Y-28285714D02*
X-811847Y-28380952D01*
X-811847Y-28380952D02*
X-811847Y-28523809D01*
X-811847Y-28523809D02*
X-764228Y-28619047D01*
X-764228Y-28619047D02*
X-716609Y-28666666D01*
X-716609Y-28666666D02*
X-621371Y-28714285D01*
X-621371Y-28714285D02*
X-335657Y-28714285D01*
X-335657Y-28714285D02*
X-240419Y-28666666D01*
X-240419Y-28666666D02*
X-192800Y-28619047D01*
X-192800Y-28619047D02*
X-145180Y-28523809D01*
X-145180Y-28523809D02*
X-145180Y-28380952D01*
X-145180Y-29142857D02*
X-811847Y-29142857D01*
X-621371Y-29142857D02*
X-716609Y-29190476D01*
X-716609Y-29190476D02*
X-764228Y-29238095D01*
X-764228Y-29238095D02*
X-811847Y-29333333D01*
X-811847Y-29333333D02*
X-811847Y-29428571D01*
X-145180Y-29761905D02*
X-811847Y-29761905D01*
X-1145180Y-29761905D02*
X-1097561Y-29714286D01*
X-1097561Y-29714286D02*
X-1049942Y-29761905D01*
X-1049942Y-29761905D02*
X-1097561Y-29809524D01*
X-1097561Y-29809524D02*
X-1145180Y-29761905D01*
X-1145180Y-29761905D02*
X-1049942Y-29761905D01*
X-811847Y-30142857D02*
X-811847Y-30666666D01*
X-811847Y-30666666D02*
X-145180Y-30142857D01*
X-145180Y-30142857D02*
X-145180Y-30666666D01*
X-145180Y-31190476D02*
X-192800Y-31095238D01*
X-192800Y-31095238D02*
X-240419Y-31047619D01*
X-240419Y-31047619D02*
X-335657Y-31000000D01*
X-335657Y-31000000D02*
X-621371Y-31000000D01*
X-621371Y-31000000D02*
X-716609Y-31047619D01*
X-716609Y-31047619D02*
X-764228Y-31095238D01*
X-764228Y-31095238D02*
X-811847Y-31190476D01*
X-811847Y-31190476D02*
X-811847Y-31333333D01*
X-811847Y-31333333D02*
X-764228Y-31428571D01*
X-764228Y-31428571D02*
X-716609Y-31476190D01*
X-716609Y-31476190D02*
X-621371Y-31523809D01*
X-621371Y-31523809D02*
X-335657Y-31523809D01*
X-335657Y-31523809D02*
X-240419Y-31476190D01*
X-240419Y-31476190D02*
X-192800Y-31428571D01*
X-192800Y-31428571D02*
X-145180Y-31333333D01*
X-145180Y-31333333D02*
X-145180Y-31190476D01*
X-811847Y-31952381D02*
X-145180Y-31952381D01*
X-716609Y-31952381D02*
X-764228Y-32000000D01*
X-764228Y-32000000D02*
X-811847Y-32095238D01*
X-811847Y-32095238D02*
X-811847Y-32238095D01*
X-811847Y-32238095D02*
X-764228Y-32333333D01*
X-764228Y-32333333D02*
X-668990Y-32380952D01*
X-668990Y-32380952D02*
X-145180Y-32380952D01*
X-811847Y-32714286D02*
X-811847Y-33095238D01*
X-1145180Y-32857143D02*
X-288038Y-32857143D01*
X-288038Y-32857143D02*
X-192800Y-32904762D01*
X-192800Y-32904762D02*
X-145180Y-33000000D01*
X-145180Y-33000000D02*
X-145180Y-33095238D01*
X-145180Y-33857143D02*
X-668990Y-33857143D01*
X-668990Y-33857143D02*
X-764228Y-33809524D01*
X-764228Y-33809524D02*
X-811847Y-33714286D01*
X-811847Y-33714286D02*
X-811847Y-33523810D01*
X-811847Y-33523810D02*
X-764228Y-33428572D01*
X-192800Y-33857143D02*
X-145180Y-33761905D01*
X-145180Y-33761905D02*
X-145180Y-33523810D01*
X-145180Y-33523810D02*
X-192800Y-33428572D01*
X-192800Y-33428572D02*
X-288038Y-33380953D01*
X-288038Y-33380953D02*
X-383276Y-33380953D01*
X-383276Y-33380953D02*
X-478514Y-33428572D01*
X-478514Y-33428572D02*
X-526133Y-33523810D01*
X-526133Y-33523810D02*
X-526133Y-33761905D01*
X-526133Y-33761905D02*
X-573752Y-33857143D01*
X-145180Y-34476191D02*
X-192800Y-34380953D01*
X-192800Y-34380953D02*
X-288038Y-34333334D01*
X-288038Y-34333334D02*
X-1145180Y-34333334D01*
X2754819Y-12666666D02*
X3469104Y-12666666D01*
X3469104Y-12666666D02*
X3611961Y-12619047D01*
X3611961Y-12619047D02*
X3707200Y-12523809D01*
X3707200Y-12523809D02*
X3754819Y-12380952D01*
X3754819Y-12380952D02*
X3754819Y-12285714D01*
X2850057Y-13095238D02*
X2802438Y-13142857D01*
X2802438Y-13142857D02*
X2754819Y-13238095D01*
X2754819Y-13238095D02*
X2754819Y-13476190D01*
X2754819Y-13476190D02*
X2802438Y-13571428D01*
X2802438Y-13571428D02*
X2850057Y-13619047D01*
X2850057Y-13619047D02*
X2945295Y-13666666D01*
X2945295Y-13666666D02*
X3040533Y-13666666D01*
X3040533Y-13666666D02*
X3183390Y-13619047D01*
X3183390Y-13619047D02*
X3754819Y-13047619D01*
X3754819Y-13047619D02*
X3754819Y-13666666D01*
X38423810Y-62884819D02*
X38757143Y-62408628D01*
X38995238Y-62884819D02*
X38995238Y-61884819D01*
X38995238Y-61884819D02*
X38614286Y-61884819D01*
X38614286Y-61884819D02*
X38519048Y-61932438D01*
X38519048Y-61932438D02*
X38471429Y-61980057D01*
X38471429Y-61980057D02*
X38423810Y-62075295D01*
X38423810Y-62075295D02*
X38423810Y-62218152D01*
X38423810Y-62218152D02*
X38471429Y-62313390D01*
X38471429Y-62313390D02*
X38519048Y-62361009D01*
X38519048Y-62361009D02*
X38614286Y-62408628D01*
X38614286Y-62408628D02*
X38995238Y-62408628D01*
X38233334Y-62980057D02*
X37471429Y-62980057D01*
X37042857Y-61884819D02*
X36947619Y-61884819D01*
X36947619Y-61884819D02*
X36852381Y-61932438D01*
X36852381Y-61932438D02*
X36804762Y-61980057D01*
X36804762Y-61980057D02*
X36757143Y-62075295D01*
X36757143Y-62075295D02*
X36709524Y-62265771D01*
X36709524Y-62265771D02*
X36709524Y-62503866D01*
X36709524Y-62503866D02*
X36757143Y-62694342D01*
X36757143Y-62694342D02*
X36804762Y-62789580D01*
X36804762Y-62789580D02*
X36852381Y-62837200D01*
X36852381Y-62837200D02*
X36947619Y-62884819D01*
X36947619Y-62884819D02*
X37042857Y-62884819D01*
X37042857Y-62884819D02*
X37138095Y-62837200D01*
X37138095Y-62837200D02*
X37185714Y-62789580D01*
X37185714Y-62789580D02*
X37233333Y-62694342D01*
X37233333Y-62694342D02*
X37280952Y-62503866D01*
X37280952Y-62503866D02*
X37280952Y-62265771D01*
X37280952Y-62265771D02*
X37233333Y-62075295D01*
X37233333Y-62075295D02*
X37185714Y-61980057D01*
X37185714Y-61980057D02*
X37138095Y-61932438D01*
X37138095Y-61932438D02*
X37042857Y-61884819D01*
X35852381Y-61884819D02*
X36042857Y-61884819D01*
X36042857Y-61884819D02*
X36138095Y-61932438D01*
X36138095Y-61932438D02*
X36185714Y-61980057D01*
X36185714Y-61980057D02*
X36280952Y-62122914D01*
X36280952Y-62122914D02*
X36328571Y-62313390D01*
X36328571Y-62313390D02*
X36328571Y-62694342D01*
X36328571Y-62694342D02*
X36280952Y-62789580D01*
X36280952Y-62789580D02*
X36233333Y-62837200D01*
X36233333Y-62837200D02*
X36138095Y-62884819D01*
X36138095Y-62884819D02*
X35947619Y-62884819D01*
X35947619Y-62884819D02*
X35852381Y-62837200D01*
X35852381Y-62837200D02*
X35804762Y-62789580D01*
X35804762Y-62789580D02*
X35757143Y-62694342D01*
X35757143Y-62694342D02*
X35757143Y-62456247D01*
X35757143Y-62456247D02*
X35804762Y-62361009D01*
X35804762Y-62361009D02*
X35852381Y-62313390D01*
X35852381Y-62313390D02*
X35947619Y-62265771D01*
X35947619Y-62265771D02*
X36138095Y-62265771D01*
X36138095Y-62265771D02*
X36233333Y-62313390D01*
X36233333Y-62313390D02*
X36280952Y-62361009D01*
X36280952Y-62361009D02*
X36328571Y-62456247D01*
X35138095Y-61884819D02*
X35042857Y-61884819D01*
X35042857Y-61884819D02*
X34947619Y-61932438D01*
X34947619Y-61932438D02*
X34900000Y-61980057D01*
X34900000Y-61980057D02*
X34852381Y-62075295D01*
X34852381Y-62075295D02*
X34804762Y-62265771D01*
X34804762Y-62265771D02*
X34804762Y-62503866D01*
X34804762Y-62503866D02*
X34852381Y-62694342D01*
X34852381Y-62694342D02*
X34900000Y-62789580D01*
X34900000Y-62789580D02*
X34947619Y-62837200D01*
X34947619Y-62837200D02*
X35042857Y-62884819D01*
X35042857Y-62884819D02*
X35138095Y-62884819D01*
X35138095Y-62884819D02*
X35233333Y-62837200D01*
X35233333Y-62837200D02*
X35280952Y-62789580D01*
X35280952Y-62789580D02*
X35328571Y-62694342D01*
X35328571Y-62694342D02*
X35376190Y-62503866D01*
X35376190Y-62503866D02*
X35376190Y-62265771D01*
X35376190Y-62265771D02*
X35328571Y-62075295D01*
X35328571Y-62075295D02*
X35280952Y-61980057D01*
X35280952Y-61980057D02*
X35233333Y-61932438D01*
X35233333Y-61932438D02*
X35138095Y-61884819D01*
X34471428Y-61884819D02*
X33852381Y-61884819D01*
X33852381Y-61884819D02*
X34185714Y-62265771D01*
X34185714Y-62265771D02*
X34042857Y-62265771D01*
X34042857Y-62265771D02*
X33947619Y-62313390D01*
X33947619Y-62313390D02*
X33900000Y-62361009D01*
X33900000Y-62361009D02*
X33852381Y-62456247D01*
X33852381Y-62456247D02*
X33852381Y-62694342D01*
X33852381Y-62694342D02*
X33900000Y-62789580D01*
X33900000Y-62789580D02*
X33947619Y-62837200D01*
X33947619Y-62837200D02*
X34042857Y-62884819D01*
X34042857Y-62884819D02*
X34328571Y-62884819D01*
X34328571Y-62884819D02*
X34423809Y-62837200D01*
X34423809Y-62837200D02*
X34471428Y-62789580D01*
X33661905Y-62980057D02*
X32900000Y-62980057D01*
X32138095Y-62884819D02*
X32709523Y-62884819D01*
X32423809Y-62884819D02*
X32423809Y-61884819D01*
X32423809Y-61884819D02*
X32519047Y-62027676D01*
X32519047Y-62027676D02*
X32614285Y-62122914D01*
X32614285Y-62122914D02*
X32709523Y-62170533D01*
X31280952Y-61884819D02*
X31471428Y-61884819D01*
X31471428Y-61884819D02*
X31566666Y-61932438D01*
X31566666Y-61932438D02*
X31614285Y-61980057D01*
X31614285Y-61980057D02*
X31709523Y-62122914D01*
X31709523Y-62122914D02*
X31757142Y-62313390D01*
X31757142Y-62313390D02*
X31757142Y-62694342D01*
X31757142Y-62694342D02*
X31709523Y-62789580D01*
X31709523Y-62789580D02*
X31661904Y-62837200D01*
X31661904Y-62837200D02*
X31566666Y-62884819D01*
X31566666Y-62884819D02*
X31376190Y-62884819D01*
X31376190Y-62884819D02*
X31280952Y-62837200D01*
X31280952Y-62837200D02*
X31233333Y-62789580D01*
X31233333Y-62789580D02*
X31185714Y-62694342D01*
X31185714Y-62694342D02*
X31185714Y-62456247D01*
X31185714Y-62456247D02*
X31233333Y-62361009D01*
X31233333Y-62361009D02*
X31280952Y-62313390D01*
X31280952Y-62313390D02*
X31376190Y-62265771D01*
X31376190Y-62265771D02*
X31566666Y-62265771D01*
X31566666Y-62265771D02*
X31661904Y-62313390D01*
X31661904Y-62313390D02*
X31709523Y-62361009D01*
X31709523Y-62361009D02*
X31757142Y-62456247D01*
X30566666Y-61884819D02*
X30471428Y-61884819D01*
X30471428Y-61884819D02*
X30376190Y-61932438D01*
X30376190Y-61932438D02*
X30328571Y-61980057D01*
X30328571Y-61980057D02*
X30280952Y-62075295D01*
X30280952Y-62075295D02*
X30233333Y-62265771D01*
X30233333Y-62265771D02*
X30233333Y-62503866D01*
X30233333Y-62503866D02*
X30280952Y-62694342D01*
X30280952Y-62694342D02*
X30328571Y-62789580D01*
X30328571Y-62789580D02*
X30376190Y-62837200D01*
X30376190Y-62837200D02*
X30471428Y-62884819D01*
X30471428Y-62884819D02*
X30566666Y-62884819D01*
X30566666Y-62884819D02*
X30661904Y-62837200D01*
X30661904Y-62837200D02*
X30709523Y-62789580D01*
X30709523Y-62789580D02*
X30757142Y-62694342D01*
X30757142Y-62694342D02*
X30804761Y-62503866D01*
X30804761Y-62503866D02*
X30804761Y-62265771D01*
X30804761Y-62265771D02*
X30757142Y-62075295D01*
X30757142Y-62075295D02*
X30709523Y-61980057D01*
X30709523Y-61980057D02*
X30661904Y-61932438D01*
X30661904Y-61932438D02*
X30566666Y-61884819D01*
X29661904Y-62313390D02*
X29757142Y-62265771D01*
X29757142Y-62265771D02*
X29804761Y-62218152D01*
X29804761Y-62218152D02*
X29852380Y-62122914D01*
X29852380Y-62122914D02*
X29852380Y-62075295D01*
X29852380Y-62075295D02*
X29804761Y-61980057D01*
X29804761Y-61980057D02*
X29757142Y-61932438D01*
X29757142Y-61932438D02*
X29661904Y-61884819D01*
X29661904Y-61884819D02*
X29471428Y-61884819D01*
X29471428Y-61884819D02*
X29376190Y-61932438D01*
X29376190Y-61932438D02*
X29328571Y-61980057D01*
X29328571Y-61980057D02*
X29280952Y-62075295D01*
X29280952Y-62075295D02*
X29280952Y-62122914D01*
X29280952Y-62122914D02*
X29328571Y-62218152D01*
X29328571Y-62218152D02*
X29376190Y-62265771D01*
X29376190Y-62265771D02*
X29471428Y-62313390D01*
X29471428Y-62313390D02*
X29661904Y-62313390D01*
X29661904Y-62313390D02*
X29757142Y-62361009D01*
X29757142Y-62361009D02*
X29804761Y-62408628D01*
X29804761Y-62408628D02*
X29852380Y-62503866D01*
X29852380Y-62503866D02*
X29852380Y-62694342D01*
X29852380Y-62694342D02*
X29804761Y-62789580D01*
X29804761Y-62789580D02*
X29757142Y-62837200D01*
X29757142Y-62837200D02*
X29661904Y-62884819D01*
X29661904Y-62884819D02*
X29471428Y-62884819D01*
X29471428Y-62884819D02*
X29376190Y-62837200D01*
X29376190Y-62837200D02*
X29328571Y-62789580D01*
X29328571Y-62789580D02*
X29280952Y-62694342D01*
X29280952Y-62694342D02*
X29280952Y-62503866D01*
X29280952Y-62503866D02*
X29328571Y-62408628D01*
X29328571Y-62408628D02*
X29376190Y-62361009D01*
X29376190Y-62361009D02*
X29471428Y-62313390D01*
X28852380Y-62884819D02*
X28852380Y-61884819D01*
X28852380Y-61884819D02*
X28519047Y-62599104D01*
X28519047Y-62599104D02*
X28185714Y-61884819D01*
X28185714Y-61884819D02*
X28185714Y-62884819D01*
X27328571Y-62837200D02*
X27423809Y-62884819D01*
X27423809Y-62884819D02*
X27614285Y-62884819D01*
X27614285Y-62884819D02*
X27709523Y-62837200D01*
X27709523Y-62837200D02*
X27757142Y-62741961D01*
X27757142Y-62741961D02*
X27757142Y-62361009D01*
X27757142Y-62361009D02*
X27709523Y-62265771D01*
X27709523Y-62265771D02*
X27614285Y-62218152D01*
X27614285Y-62218152D02*
X27423809Y-62218152D01*
X27423809Y-62218152D02*
X27328571Y-62265771D01*
X27328571Y-62265771D02*
X27280952Y-62361009D01*
X27280952Y-62361009D02*
X27280952Y-62456247D01*
X27280952Y-62456247D02*
X27757142Y-62551485D01*
X26995237Y-62218152D02*
X26614285Y-62218152D01*
X26852380Y-61884819D02*
X26852380Y-62741961D01*
X26852380Y-62741961D02*
X26804761Y-62837200D01*
X26804761Y-62837200D02*
X26709523Y-62884819D01*
X26709523Y-62884819D02*
X26614285Y-62884819D01*
X26280951Y-62884819D02*
X26280951Y-62218152D01*
X26280951Y-62408628D02*
X26233332Y-62313390D01*
X26233332Y-62313390D02*
X26185713Y-62265771D01*
X26185713Y-62265771D02*
X26090475Y-62218152D01*
X26090475Y-62218152D02*
X25995237Y-62218152D01*
X25661903Y-62884819D02*
X25661903Y-62218152D01*
X25661903Y-61884819D02*
X25709522Y-61932438D01*
X25709522Y-61932438D02*
X25661903Y-61980057D01*
X25661903Y-61980057D02*
X25614284Y-61932438D01*
X25614284Y-61932438D02*
X25661903Y-61884819D01*
X25661903Y-61884819D02*
X25661903Y-61980057D01*
X24757142Y-62837200D02*
X24852380Y-62884819D01*
X24852380Y-62884819D02*
X25042856Y-62884819D01*
X25042856Y-62884819D02*
X25138094Y-62837200D01*
X25138094Y-62837200D02*
X25185713Y-62789580D01*
X25185713Y-62789580D02*
X25233332Y-62694342D01*
X25233332Y-62694342D02*
X25233332Y-62408628D01*
X25233332Y-62408628D02*
X25185713Y-62313390D01*
X25185713Y-62313390D02*
X25138094Y-62265771D01*
X25138094Y-62265771D02*
X25042856Y-62218152D01*
X25042856Y-62218152D02*
X24852380Y-62218152D01*
X24852380Y-62218152D02*
X24757142Y-62265771D01*
D11*
X31966666Y-61181927D02*
X32099999Y-60991451D01*
X32195237Y-61181927D02*
X32195237Y-60781927D01*
X32195237Y-60781927D02*
X32042856Y-60781927D01*
X32042856Y-60781927D02*
X32004761Y-60800975D01*
X32004761Y-60800975D02*
X31985714Y-60820022D01*
X31985714Y-60820022D02*
X31966666Y-60858118D01*
X31966666Y-60858118D02*
X31966666Y-60915260D01*
X31966666Y-60915260D02*
X31985714Y-60953356D01*
X31985714Y-60953356D02*
X32004761Y-60972403D01*
X32004761Y-60972403D02*
X32042856Y-60991451D01*
X32042856Y-60991451D02*
X32195237Y-60991451D01*
X31814285Y-60820022D02*
X31795237Y-60800975D01*
X31795237Y-60800975D02*
X31757142Y-60781927D01*
X31757142Y-60781927D02*
X31661904Y-60781927D01*
X31661904Y-60781927D02*
X31623809Y-60800975D01*
X31623809Y-60800975D02*
X31604761Y-60820022D01*
X31604761Y-60820022D02*
X31585714Y-60858118D01*
X31585714Y-60858118D02*
X31585714Y-60896213D01*
X31585714Y-60896213D02*
X31604761Y-60953356D01*
X31604761Y-60953356D02*
X31833333Y-61181927D01*
X31833333Y-61181927D02*
X31585714Y-61181927D01*
D10*
X37023810Y-10884819D02*
X37357143Y-10408628D01*
X37595238Y-10884819D02*
X37595238Y-9884819D01*
X37595238Y-9884819D02*
X37214286Y-9884819D01*
X37214286Y-9884819D02*
X37119048Y-9932438D01*
X37119048Y-9932438D02*
X37071429Y-9980057D01*
X37071429Y-9980057D02*
X37023810Y-10075295D01*
X37023810Y-10075295D02*
X37023810Y-10218152D01*
X37023810Y-10218152D02*
X37071429Y-10313390D01*
X37071429Y-10313390D02*
X37119048Y-10361009D01*
X37119048Y-10361009D02*
X37214286Y-10408628D01*
X37214286Y-10408628D02*
X37595238Y-10408628D01*
X36833334Y-10980057D02*
X36071429Y-10980057D01*
X35642857Y-9884819D02*
X35547619Y-9884819D01*
X35547619Y-9884819D02*
X35452381Y-9932438D01*
X35452381Y-9932438D02*
X35404762Y-9980057D01*
X35404762Y-9980057D02*
X35357143Y-10075295D01*
X35357143Y-10075295D02*
X35309524Y-10265771D01*
X35309524Y-10265771D02*
X35309524Y-10503866D01*
X35309524Y-10503866D02*
X35357143Y-10694342D01*
X35357143Y-10694342D02*
X35404762Y-10789580D01*
X35404762Y-10789580D02*
X35452381Y-10837200D01*
X35452381Y-10837200D02*
X35547619Y-10884819D01*
X35547619Y-10884819D02*
X35642857Y-10884819D01*
X35642857Y-10884819D02*
X35738095Y-10837200D01*
X35738095Y-10837200D02*
X35785714Y-10789580D01*
X35785714Y-10789580D02*
X35833333Y-10694342D01*
X35833333Y-10694342D02*
X35880952Y-10503866D01*
X35880952Y-10503866D02*
X35880952Y-10265771D01*
X35880952Y-10265771D02*
X35833333Y-10075295D01*
X35833333Y-10075295D02*
X35785714Y-9980057D01*
X35785714Y-9980057D02*
X35738095Y-9932438D01*
X35738095Y-9932438D02*
X35642857Y-9884819D01*
X34452381Y-9884819D02*
X34642857Y-9884819D01*
X34642857Y-9884819D02*
X34738095Y-9932438D01*
X34738095Y-9932438D02*
X34785714Y-9980057D01*
X34785714Y-9980057D02*
X34880952Y-10122914D01*
X34880952Y-10122914D02*
X34928571Y-10313390D01*
X34928571Y-10313390D02*
X34928571Y-10694342D01*
X34928571Y-10694342D02*
X34880952Y-10789580D01*
X34880952Y-10789580D02*
X34833333Y-10837200D01*
X34833333Y-10837200D02*
X34738095Y-10884819D01*
X34738095Y-10884819D02*
X34547619Y-10884819D01*
X34547619Y-10884819D02*
X34452381Y-10837200D01*
X34452381Y-10837200D02*
X34404762Y-10789580D01*
X34404762Y-10789580D02*
X34357143Y-10694342D01*
X34357143Y-10694342D02*
X34357143Y-10456247D01*
X34357143Y-10456247D02*
X34404762Y-10361009D01*
X34404762Y-10361009D02*
X34452381Y-10313390D01*
X34452381Y-10313390D02*
X34547619Y-10265771D01*
X34547619Y-10265771D02*
X34738095Y-10265771D01*
X34738095Y-10265771D02*
X34833333Y-10313390D01*
X34833333Y-10313390D02*
X34880952Y-10361009D01*
X34880952Y-10361009D02*
X34928571Y-10456247D01*
X33738095Y-9884819D02*
X33642857Y-9884819D01*
X33642857Y-9884819D02*
X33547619Y-9932438D01*
X33547619Y-9932438D02*
X33500000Y-9980057D01*
X33500000Y-9980057D02*
X33452381Y-10075295D01*
X33452381Y-10075295D02*
X33404762Y-10265771D01*
X33404762Y-10265771D02*
X33404762Y-10503866D01*
X33404762Y-10503866D02*
X33452381Y-10694342D01*
X33452381Y-10694342D02*
X33500000Y-10789580D01*
X33500000Y-10789580D02*
X33547619Y-10837200D01*
X33547619Y-10837200D02*
X33642857Y-10884819D01*
X33642857Y-10884819D02*
X33738095Y-10884819D01*
X33738095Y-10884819D02*
X33833333Y-10837200D01*
X33833333Y-10837200D02*
X33880952Y-10789580D01*
X33880952Y-10789580D02*
X33928571Y-10694342D01*
X33928571Y-10694342D02*
X33976190Y-10503866D01*
X33976190Y-10503866D02*
X33976190Y-10265771D01*
X33976190Y-10265771D02*
X33928571Y-10075295D01*
X33928571Y-10075295D02*
X33880952Y-9980057D01*
X33880952Y-9980057D02*
X33833333Y-9932438D01*
X33833333Y-9932438D02*
X33738095Y-9884819D01*
X33071428Y-9884819D02*
X32452381Y-9884819D01*
X32452381Y-9884819D02*
X32785714Y-10265771D01*
X32785714Y-10265771D02*
X32642857Y-10265771D01*
X32642857Y-10265771D02*
X32547619Y-10313390D01*
X32547619Y-10313390D02*
X32500000Y-10361009D01*
X32500000Y-10361009D02*
X32452381Y-10456247D01*
X32452381Y-10456247D02*
X32452381Y-10694342D01*
X32452381Y-10694342D02*
X32500000Y-10789580D01*
X32500000Y-10789580D02*
X32547619Y-10837200D01*
X32547619Y-10837200D02*
X32642857Y-10884819D01*
X32642857Y-10884819D02*
X32928571Y-10884819D01*
X32928571Y-10884819D02*
X33023809Y-10837200D01*
X33023809Y-10837200D02*
X33071428Y-10789580D01*
X32261905Y-10980057D02*
X31500000Y-10980057D01*
X30738095Y-10884819D02*
X31309523Y-10884819D01*
X31023809Y-10884819D02*
X31023809Y-9884819D01*
X31023809Y-9884819D02*
X31119047Y-10027676D01*
X31119047Y-10027676D02*
X31214285Y-10122914D01*
X31214285Y-10122914D02*
X31309523Y-10170533D01*
X29880952Y-9884819D02*
X30071428Y-9884819D01*
X30071428Y-9884819D02*
X30166666Y-9932438D01*
X30166666Y-9932438D02*
X30214285Y-9980057D01*
X30214285Y-9980057D02*
X30309523Y-10122914D01*
X30309523Y-10122914D02*
X30357142Y-10313390D01*
X30357142Y-10313390D02*
X30357142Y-10694342D01*
X30357142Y-10694342D02*
X30309523Y-10789580D01*
X30309523Y-10789580D02*
X30261904Y-10837200D01*
X30261904Y-10837200D02*
X30166666Y-10884819D01*
X30166666Y-10884819D02*
X29976190Y-10884819D01*
X29976190Y-10884819D02*
X29880952Y-10837200D01*
X29880952Y-10837200D02*
X29833333Y-10789580D01*
X29833333Y-10789580D02*
X29785714Y-10694342D01*
X29785714Y-10694342D02*
X29785714Y-10456247D01*
X29785714Y-10456247D02*
X29833333Y-10361009D01*
X29833333Y-10361009D02*
X29880952Y-10313390D01*
X29880952Y-10313390D02*
X29976190Y-10265771D01*
X29976190Y-10265771D02*
X30166666Y-10265771D01*
X30166666Y-10265771D02*
X30261904Y-10313390D01*
X30261904Y-10313390D02*
X30309523Y-10361009D01*
X30309523Y-10361009D02*
X30357142Y-10456247D01*
X29166666Y-9884819D02*
X29071428Y-9884819D01*
X29071428Y-9884819D02*
X28976190Y-9932438D01*
X28976190Y-9932438D02*
X28928571Y-9980057D01*
X28928571Y-9980057D02*
X28880952Y-10075295D01*
X28880952Y-10075295D02*
X28833333Y-10265771D01*
X28833333Y-10265771D02*
X28833333Y-10503866D01*
X28833333Y-10503866D02*
X28880952Y-10694342D01*
X28880952Y-10694342D02*
X28928571Y-10789580D01*
X28928571Y-10789580D02*
X28976190Y-10837200D01*
X28976190Y-10837200D02*
X29071428Y-10884819D01*
X29071428Y-10884819D02*
X29166666Y-10884819D01*
X29166666Y-10884819D02*
X29261904Y-10837200D01*
X29261904Y-10837200D02*
X29309523Y-10789580D01*
X29309523Y-10789580D02*
X29357142Y-10694342D01*
X29357142Y-10694342D02*
X29404761Y-10503866D01*
X29404761Y-10503866D02*
X29404761Y-10265771D01*
X29404761Y-10265771D02*
X29357142Y-10075295D01*
X29357142Y-10075295D02*
X29309523Y-9980057D01*
X29309523Y-9980057D02*
X29261904Y-9932438D01*
X29261904Y-9932438D02*
X29166666Y-9884819D01*
X28261904Y-10313390D02*
X28357142Y-10265771D01*
X28357142Y-10265771D02*
X28404761Y-10218152D01*
X28404761Y-10218152D02*
X28452380Y-10122914D01*
X28452380Y-10122914D02*
X28452380Y-10075295D01*
X28452380Y-10075295D02*
X28404761Y-9980057D01*
X28404761Y-9980057D02*
X28357142Y-9932438D01*
X28357142Y-9932438D02*
X28261904Y-9884819D01*
X28261904Y-9884819D02*
X28071428Y-9884819D01*
X28071428Y-9884819D02*
X27976190Y-9932438D01*
X27976190Y-9932438D02*
X27928571Y-9980057D01*
X27928571Y-9980057D02*
X27880952Y-10075295D01*
X27880952Y-10075295D02*
X27880952Y-10122914D01*
X27880952Y-10122914D02*
X27928571Y-10218152D01*
X27928571Y-10218152D02*
X27976190Y-10265771D01*
X27976190Y-10265771D02*
X28071428Y-10313390D01*
X28071428Y-10313390D02*
X28261904Y-10313390D01*
X28261904Y-10313390D02*
X28357142Y-10361009D01*
X28357142Y-10361009D02*
X28404761Y-10408628D01*
X28404761Y-10408628D02*
X28452380Y-10503866D01*
X28452380Y-10503866D02*
X28452380Y-10694342D01*
X28452380Y-10694342D02*
X28404761Y-10789580D01*
X28404761Y-10789580D02*
X28357142Y-10837200D01*
X28357142Y-10837200D02*
X28261904Y-10884819D01*
X28261904Y-10884819D02*
X28071428Y-10884819D01*
X28071428Y-10884819D02*
X27976190Y-10837200D01*
X27976190Y-10837200D02*
X27928571Y-10789580D01*
X27928571Y-10789580D02*
X27880952Y-10694342D01*
X27880952Y-10694342D02*
X27880952Y-10503866D01*
X27880952Y-10503866D02*
X27928571Y-10408628D01*
X27928571Y-10408628D02*
X27976190Y-10361009D01*
X27976190Y-10361009D02*
X28071428Y-10313390D01*
X27452380Y-10884819D02*
X27452380Y-9884819D01*
X27452380Y-9884819D02*
X27119047Y-10599104D01*
X27119047Y-10599104D02*
X26785714Y-9884819D01*
X26785714Y-9884819D02*
X26785714Y-10884819D01*
X25928571Y-10837200D02*
X26023809Y-10884819D01*
X26023809Y-10884819D02*
X26214285Y-10884819D01*
X26214285Y-10884819D02*
X26309523Y-10837200D01*
X26309523Y-10837200D02*
X26357142Y-10741961D01*
X26357142Y-10741961D02*
X26357142Y-10361009D01*
X26357142Y-10361009D02*
X26309523Y-10265771D01*
X26309523Y-10265771D02*
X26214285Y-10218152D01*
X26214285Y-10218152D02*
X26023809Y-10218152D01*
X26023809Y-10218152D02*
X25928571Y-10265771D01*
X25928571Y-10265771D02*
X25880952Y-10361009D01*
X25880952Y-10361009D02*
X25880952Y-10456247D01*
X25880952Y-10456247D02*
X26357142Y-10551485D01*
X25595237Y-10218152D02*
X25214285Y-10218152D01*
X25452380Y-9884819D02*
X25452380Y-10741961D01*
X25452380Y-10741961D02*
X25404761Y-10837200D01*
X25404761Y-10837200D02*
X25309523Y-10884819D01*
X25309523Y-10884819D02*
X25214285Y-10884819D01*
X24880951Y-10884819D02*
X24880951Y-10218152D01*
X24880951Y-10408628D02*
X24833332Y-10313390D01*
X24833332Y-10313390D02*
X24785713Y-10265771D01*
X24785713Y-10265771D02*
X24690475Y-10218152D01*
X24690475Y-10218152D02*
X24595237Y-10218152D01*
X24261903Y-10884819D02*
X24261903Y-10218152D01*
X24261903Y-9884819D02*
X24309522Y-9932438D01*
X24309522Y-9932438D02*
X24261903Y-9980057D01*
X24261903Y-9980057D02*
X24214284Y-9932438D01*
X24214284Y-9932438D02*
X24261903Y-9884819D01*
X24261903Y-9884819D02*
X24261903Y-9980057D01*
X23357142Y-10837200D02*
X23452380Y-10884819D01*
X23452380Y-10884819D02*
X23642856Y-10884819D01*
X23642856Y-10884819D02*
X23738094Y-10837200D01*
X23738094Y-10837200D02*
X23785713Y-10789580D01*
X23785713Y-10789580D02*
X23833332Y-10694342D01*
X23833332Y-10694342D02*
X23833332Y-10408628D01*
X23833332Y-10408628D02*
X23785713Y-10313390D01*
X23785713Y-10313390D02*
X23738094Y-10265771D01*
X23738094Y-10265771D02*
X23642856Y-10218152D01*
X23642856Y-10218152D02*
X23452380Y-10218152D01*
X23452380Y-10218152D02*
X23357142Y-10265771D01*
D11*
X30566666Y-9181927D02*
X30699999Y-8991451D01*
X30795237Y-9181927D02*
X30795237Y-8781927D01*
X30795237Y-8781927D02*
X30642856Y-8781927D01*
X30642856Y-8781927D02*
X30604761Y-8800975D01*
X30604761Y-8800975D02*
X30585714Y-8820022D01*
X30585714Y-8820022D02*
X30566666Y-8858118D01*
X30566666Y-8858118D02*
X30566666Y-8915260D01*
X30566666Y-8915260D02*
X30585714Y-8953356D01*
X30585714Y-8953356D02*
X30604761Y-8972403D01*
X30604761Y-8972403D02*
X30642856Y-8991451D01*
X30642856Y-8991451D02*
X30795237Y-8991451D01*
X30223809Y-8915260D02*
X30223809Y-9181927D01*
X30319047Y-8762880D02*
X30414285Y-9048594D01*
X30414285Y-9048594D02*
X30166666Y-9048594D01*
D10*
X-1854819Y-91666669D02*
X-2664342Y-91666669D01*
X-2664342Y-91666669D02*
X-2759580Y-91619050D01*
X-2759580Y-91619050D02*
X-2807200Y-91571431D01*
X-2807200Y-91571431D02*
X-2854819Y-91476193D01*
X-2854819Y-91476193D02*
X-2854819Y-91285717D01*
X-2854819Y-91285717D02*
X-2807200Y-91190479D01*
X-2807200Y-91190479D02*
X-2759580Y-91142860D01*
X-2759580Y-91142860D02*
X-2664342Y-91095241D01*
X-2664342Y-91095241D02*
X-1854819Y-91095241D01*
X-2807200Y-90666669D02*
X-2854819Y-90523812D01*
X-2854819Y-90523812D02*
X-2854819Y-90285717D01*
X-2854819Y-90285717D02*
X-2807200Y-90190479D01*
X-2807200Y-90190479D02*
X-2759580Y-90142860D01*
X-2759580Y-90142860D02*
X-2664342Y-90095241D01*
X-2664342Y-90095241D02*
X-2569104Y-90095241D01*
X-2569104Y-90095241D02*
X-2473866Y-90142860D01*
X-2473866Y-90142860D02*
X-2426247Y-90190479D01*
X-2426247Y-90190479D02*
X-2378628Y-90285717D01*
X-2378628Y-90285717D02*
X-2331009Y-90476193D01*
X-2331009Y-90476193D02*
X-2283390Y-90571431D01*
X-2283390Y-90571431D02*
X-2235771Y-90619050D01*
X-2235771Y-90619050D02*
X-2140533Y-90666669D01*
X-2140533Y-90666669D02*
X-2045295Y-90666669D01*
X-2045295Y-90666669D02*
X-1950057Y-90619050D01*
X-1950057Y-90619050D02*
X-1902438Y-90571431D01*
X-1902438Y-90571431D02*
X-1854819Y-90476193D01*
X-1854819Y-90476193D02*
X-1854819Y-90238098D01*
X-1854819Y-90238098D02*
X-1902438Y-90095241D01*
X-2331009Y-89333336D02*
X-2378628Y-89190479D01*
X-2378628Y-89190479D02*
X-2426247Y-89142860D01*
X-2426247Y-89142860D02*
X-2521485Y-89095241D01*
X-2521485Y-89095241D02*
X-2664342Y-89095241D01*
X-2664342Y-89095241D02*
X-2759580Y-89142860D01*
X-2759580Y-89142860D02*
X-2807200Y-89190479D01*
X-2807200Y-89190479D02*
X-2854819Y-89285717D01*
X-2854819Y-89285717D02*
X-2854819Y-89666669D01*
X-2854819Y-89666669D02*
X-1854819Y-89666669D01*
X-1854819Y-89666669D02*
X-1854819Y-89333336D01*
X-1854819Y-89333336D02*
X-1902438Y-89238098D01*
X-1902438Y-89238098D02*
X-1950057Y-89190479D01*
X-1950057Y-89190479D02*
X-2045295Y-89142860D01*
X-2045295Y-89142860D02*
X-2140533Y-89142860D01*
X-2140533Y-89142860D02*
X-2235771Y-89190479D01*
X-2235771Y-89190479D02*
X-2283390Y-89238098D01*
X-2283390Y-89238098D02*
X-2331009Y-89333336D01*
X-2331009Y-89333336D02*
X-2331009Y-89666669D01*
X-2950057Y-88904765D02*
X-2950057Y-88142860D01*
X-2759580Y-87333336D02*
X-2807200Y-87380955D01*
X-2807200Y-87380955D02*
X-2854819Y-87523812D01*
X-2854819Y-87523812D02*
X-2854819Y-87619050D01*
X-2854819Y-87619050D02*
X-2807200Y-87761907D01*
X-2807200Y-87761907D02*
X-2711961Y-87857145D01*
X-2711961Y-87857145D02*
X-2616723Y-87904764D01*
X-2616723Y-87904764D02*
X-2426247Y-87952383D01*
X-2426247Y-87952383D02*
X-2283390Y-87952383D01*
X-2283390Y-87952383D02*
X-2092914Y-87904764D01*
X-2092914Y-87904764D02*
X-1997676Y-87857145D01*
X-1997676Y-87857145D02*
X-1902438Y-87761907D01*
X-1902438Y-87761907D02*
X-1854819Y-87619050D01*
X-1854819Y-87619050D02*
X-1854819Y-87523812D01*
X-1854819Y-87523812D02*
X-1902438Y-87380955D01*
X-1902438Y-87380955D02*
X-1950057Y-87333336D01*
X-2950057Y-87142860D02*
X-2950057Y-86380955D01*
X-2854819Y-85571431D02*
X-2378628Y-85904764D01*
X-2854819Y-86142859D02*
X-1854819Y-86142859D01*
X-1854819Y-86142859D02*
X-1854819Y-85761907D01*
X-1854819Y-85761907D02*
X-1902438Y-85666669D01*
X-1902438Y-85666669D02*
X-1950057Y-85619050D01*
X-1950057Y-85619050D02*
X-2045295Y-85571431D01*
X-2045295Y-85571431D02*
X-2188152Y-85571431D01*
X-2188152Y-85571431D02*
X-2283390Y-85619050D01*
X-2283390Y-85619050D02*
X-2331009Y-85666669D01*
X-2331009Y-85666669D02*
X-2378628Y-85761907D01*
X-2378628Y-85761907D02*
X-2378628Y-86142859D01*
X-2807200Y-84761907D02*
X-2854819Y-84857145D01*
X-2854819Y-84857145D02*
X-2854819Y-85047621D01*
X-2854819Y-85047621D02*
X-2807200Y-85142859D01*
X-2807200Y-85142859D02*
X-2711961Y-85190478D01*
X-2711961Y-85190478D02*
X-2331009Y-85190478D01*
X-2331009Y-85190478D02*
X-2235771Y-85142859D01*
X-2235771Y-85142859D02*
X-2188152Y-85047621D01*
X-2188152Y-85047621D02*
X-2188152Y-84857145D01*
X-2188152Y-84857145D02*
X-2235771Y-84761907D01*
X-2235771Y-84761907D02*
X-2331009Y-84714288D01*
X-2331009Y-84714288D02*
X-2426247Y-84714288D01*
X-2426247Y-84714288D02*
X-2521485Y-85190478D01*
X-2807200Y-83857145D02*
X-2854819Y-83952383D01*
X-2854819Y-83952383D02*
X-2854819Y-84142859D01*
X-2854819Y-84142859D02*
X-2807200Y-84238097D01*
X-2807200Y-84238097D02*
X-2759580Y-84285716D01*
X-2759580Y-84285716D02*
X-2664342Y-84333335D01*
X-2664342Y-84333335D02*
X-2378628Y-84333335D01*
X-2378628Y-84333335D02*
X-2283390Y-84285716D01*
X-2283390Y-84285716D02*
X-2235771Y-84238097D01*
X-2235771Y-84238097D02*
X-2188152Y-84142859D01*
X-2188152Y-84142859D02*
X-2188152Y-83952383D01*
X-2188152Y-83952383D02*
X-2235771Y-83857145D01*
X-2807200Y-83047621D02*
X-2854819Y-83142859D01*
X-2854819Y-83142859D02*
X-2854819Y-83333335D01*
X-2854819Y-83333335D02*
X-2807200Y-83428573D01*
X-2807200Y-83428573D02*
X-2711961Y-83476192D01*
X-2711961Y-83476192D02*
X-2331009Y-83476192D01*
X-2331009Y-83476192D02*
X-2235771Y-83428573D01*
X-2235771Y-83428573D02*
X-2188152Y-83333335D01*
X-2188152Y-83333335D02*
X-2188152Y-83142859D01*
X-2188152Y-83142859D02*
X-2235771Y-83047621D01*
X-2235771Y-83047621D02*
X-2331009Y-83000002D01*
X-2331009Y-83000002D02*
X-2426247Y-83000002D01*
X-2426247Y-83000002D02*
X-2521485Y-83476192D01*
X-2188152Y-82571430D02*
X-3188152Y-82571430D01*
X-2235771Y-82571430D02*
X-2188152Y-82476192D01*
X-2188152Y-82476192D02*
X-2188152Y-82285716D01*
X-2188152Y-82285716D02*
X-2235771Y-82190478D01*
X-2235771Y-82190478D02*
X-2283390Y-82142859D01*
X-2283390Y-82142859D02*
X-2378628Y-82095240D01*
X-2378628Y-82095240D02*
X-2664342Y-82095240D01*
X-2664342Y-82095240D02*
X-2759580Y-82142859D01*
X-2759580Y-82142859D02*
X-2807200Y-82190478D01*
X-2807200Y-82190478D02*
X-2854819Y-82285716D01*
X-2854819Y-82285716D02*
X-2854819Y-82476192D01*
X-2854819Y-82476192D02*
X-2807200Y-82571430D01*
X-2188152Y-81809525D02*
X-2188152Y-81428573D01*
X-1854819Y-81666668D02*
X-2711961Y-81666668D01*
X-2711961Y-81666668D02*
X-2807200Y-81619049D01*
X-2807200Y-81619049D02*
X-2854819Y-81523811D01*
X-2854819Y-81523811D02*
X-2854819Y-81428573D01*
X-2854819Y-80666668D02*
X-2331009Y-80666668D01*
X-2331009Y-80666668D02*
X-2235771Y-80714287D01*
X-2235771Y-80714287D02*
X-2188152Y-80809525D01*
X-2188152Y-80809525D02*
X-2188152Y-81000001D01*
X-2188152Y-81000001D02*
X-2235771Y-81095239D01*
X-2807200Y-80666668D02*
X-2854819Y-80761906D01*
X-2854819Y-80761906D02*
X-2854819Y-81000001D01*
X-2854819Y-81000001D02*
X-2807200Y-81095239D01*
X-2807200Y-81095239D02*
X-2711961Y-81142858D01*
X-2711961Y-81142858D02*
X-2616723Y-81142858D01*
X-2616723Y-81142858D02*
X-2521485Y-81095239D01*
X-2521485Y-81095239D02*
X-2473866Y-81000001D01*
X-2473866Y-81000001D02*
X-2473866Y-80761906D01*
X-2473866Y-80761906D02*
X-2426247Y-80666668D01*
X-2807200Y-79761906D02*
X-2854819Y-79857144D01*
X-2854819Y-79857144D02*
X-2854819Y-80047620D01*
X-2854819Y-80047620D02*
X-2807200Y-80142858D01*
X-2807200Y-80142858D02*
X-2759580Y-80190477D01*
X-2759580Y-80190477D02*
X-2664342Y-80238096D01*
X-2664342Y-80238096D02*
X-2378628Y-80238096D01*
X-2378628Y-80238096D02*
X-2283390Y-80190477D01*
X-2283390Y-80190477D02*
X-2235771Y-80142858D01*
X-2235771Y-80142858D02*
X-2188152Y-80047620D01*
X-2188152Y-80047620D02*
X-2188152Y-79857144D01*
X-2188152Y-79857144D02*
X-2235771Y-79761906D01*
X-2854819Y-79190477D02*
X-2807200Y-79285715D01*
X-2807200Y-79285715D02*
X-2711961Y-79333334D01*
X-2711961Y-79333334D02*
X-1854819Y-79333334D01*
X-2807200Y-78428572D02*
X-2854819Y-78523810D01*
X-2854819Y-78523810D02*
X-2854819Y-78714286D01*
X-2854819Y-78714286D02*
X-2807200Y-78809524D01*
X-2807200Y-78809524D02*
X-2711961Y-78857143D01*
X-2711961Y-78857143D02*
X-2331009Y-78857143D01*
X-2331009Y-78857143D02*
X-2235771Y-78809524D01*
X-2235771Y-78809524D02*
X-2188152Y-78714286D01*
X-2188152Y-78714286D02*
X-2188152Y-78523810D01*
X-2188152Y-78523810D02*
X-2235771Y-78428572D01*
X-2235771Y-78428572D02*
X-2331009Y-78380953D01*
X-2331009Y-78380953D02*
X-2426247Y-78380953D01*
X-2426247Y-78380953D02*
X-2521485Y-78857143D01*
X-2950057Y-78190477D02*
X-2950057Y-77428572D01*
X-1902438Y-76666667D02*
X-1854819Y-76761905D01*
X-1854819Y-76761905D02*
X-1854819Y-76904762D01*
X-1854819Y-76904762D02*
X-1902438Y-77047619D01*
X-1902438Y-77047619D02*
X-1997676Y-77142857D01*
X-1997676Y-77142857D02*
X-2092914Y-77190476D01*
X-2092914Y-77190476D02*
X-2283390Y-77238095D01*
X-2283390Y-77238095D02*
X-2426247Y-77238095D01*
X-2426247Y-77238095D02*
X-2616723Y-77190476D01*
X-2616723Y-77190476D02*
X-2711961Y-77142857D01*
X-2711961Y-77142857D02*
X-2807200Y-77047619D01*
X-2807200Y-77047619D02*
X-2854819Y-76904762D01*
X-2854819Y-76904762D02*
X-2854819Y-76809524D01*
X-2854819Y-76809524D02*
X-2807200Y-76666667D01*
X-2807200Y-76666667D02*
X-2759580Y-76619048D01*
X-2759580Y-76619048D02*
X-2426247Y-76619048D01*
X-2426247Y-76619048D02*
X-2426247Y-76809524D01*
X-2759580Y-75619048D02*
X-2807200Y-75666667D01*
X-2807200Y-75666667D02*
X-2854819Y-75809524D01*
X-2854819Y-75809524D02*
X-2854819Y-75904762D01*
X-2854819Y-75904762D02*
X-2807200Y-76047619D01*
X-2807200Y-76047619D02*
X-2711961Y-76142857D01*
X-2711961Y-76142857D02*
X-2616723Y-76190476D01*
X-2616723Y-76190476D02*
X-2426247Y-76238095D01*
X-2426247Y-76238095D02*
X-2283390Y-76238095D01*
X-2283390Y-76238095D02*
X-2092914Y-76190476D01*
X-2092914Y-76190476D02*
X-1997676Y-76142857D01*
X-1997676Y-76142857D02*
X-1902438Y-76047619D01*
X-1902438Y-76047619D02*
X-1854819Y-75904762D01*
X-1854819Y-75904762D02*
X-1854819Y-75809524D01*
X-1854819Y-75809524D02*
X-1902438Y-75666667D01*
X-1902438Y-75666667D02*
X-1950057Y-75619048D01*
X-1854819Y-75333333D02*
X-1854819Y-74761905D01*
X-2854819Y-75047619D02*
X-1854819Y-75047619D01*
X-2950057Y-74666667D02*
X-2950057Y-73904762D01*
X-1854819Y-73666666D02*
X-2664342Y-73666666D01*
X-2664342Y-73666666D02*
X-2759580Y-73619047D01*
X-2759580Y-73619047D02*
X-2807200Y-73571428D01*
X-2807200Y-73571428D02*
X-2854819Y-73476190D01*
X-2854819Y-73476190D02*
X-2854819Y-73285714D01*
X-2854819Y-73285714D02*
X-2807200Y-73190476D01*
X-2807200Y-73190476D02*
X-2759580Y-73142857D01*
X-2759580Y-73142857D02*
X-2664342Y-73095238D01*
X-2664342Y-73095238D02*
X-1854819Y-73095238D01*
X-2807200Y-72666666D02*
X-2854819Y-72523809D01*
X-2854819Y-72523809D02*
X-2854819Y-72285714D01*
X-2854819Y-72285714D02*
X-2807200Y-72190476D01*
X-2807200Y-72190476D02*
X-2759580Y-72142857D01*
X-2759580Y-72142857D02*
X-2664342Y-72095238D01*
X-2664342Y-72095238D02*
X-2569104Y-72095238D01*
X-2569104Y-72095238D02*
X-2473866Y-72142857D01*
X-2473866Y-72142857D02*
X-2426247Y-72190476D01*
X-2426247Y-72190476D02*
X-2378628Y-72285714D01*
X-2378628Y-72285714D02*
X-2331009Y-72476190D01*
X-2331009Y-72476190D02*
X-2283390Y-72571428D01*
X-2283390Y-72571428D02*
X-2235771Y-72619047D01*
X-2235771Y-72619047D02*
X-2140533Y-72666666D01*
X-2140533Y-72666666D02*
X-2045295Y-72666666D01*
X-2045295Y-72666666D02*
X-1950057Y-72619047D01*
X-1950057Y-72619047D02*
X-1902438Y-72571428D01*
X-1902438Y-72571428D02*
X-1854819Y-72476190D01*
X-1854819Y-72476190D02*
X-1854819Y-72238095D01*
X-1854819Y-72238095D02*
X-1902438Y-72095238D01*
X-2331009Y-71333333D02*
X-2378628Y-71190476D01*
X-2378628Y-71190476D02*
X-2426247Y-71142857D01*
X-2426247Y-71142857D02*
X-2521485Y-71095238D01*
X-2521485Y-71095238D02*
X-2664342Y-71095238D01*
X-2664342Y-71095238D02*
X-2759580Y-71142857D01*
X-2759580Y-71142857D02*
X-2807200Y-71190476D01*
X-2807200Y-71190476D02*
X-2854819Y-71285714D01*
X-2854819Y-71285714D02*
X-2854819Y-71666666D01*
X-2854819Y-71666666D02*
X-1854819Y-71666666D01*
X-1854819Y-71666666D02*
X-1854819Y-71333333D01*
X-1854819Y-71333333D02*
X-1902438Y-71238095D01*
X-1902438Y-71238095D02*
X-1950057Y-71190476D01*
X-1950057Y-71190476D02*
X-2045295Y-71142857D01*
X-2045295Y-71142857D02*
X-2140533Y-71142857D01*
X-2140533Y-71142857D02*
X-2235771Y-71190476D01*
X-2235771Y-71190476D02*
X-2283390Y-71238095D01*
X-2283390Y-71238095D02*
X-2331009Y-71333333D01*
X-2331009Y-71333333D02*
X-2331009Y-71666666D01*
X-2188152Y-70238095D02*
X-2854819Y-70238095D01*
X-1807200Y-70476190D02*
X-2521485Y-70714285D01*
X-2521485Y-70714285D02*
X-2521485Y-70095238D01*
X-2854819Y-69190476D02*
X-2854819Y-69761904D01*
X-2854819Y-69476190D02*
X-1854819Y-69476190D01*
X-1854819Y-69476190D02*
X-1997676Y-69571428D01*
X-1997676Y-69571428D02*
X-2092914Y-69666666D01*
X-2092914Y-69666666D02*
X-2140533Y-69761904D01*
X-1854819Y-68571428D02*
X-1854819Y-68476190D01*
X-1854819Y-68476190D02*
X-1902438Y-68380952D01*
X-1902438Y-68380952D02*
X-1950057Y-68333333D01*
X-1950057Y-68333333D02*
X-2045295Y-68285714D01*
X-2045295Y-68285714D02*
X-2235771Y-68238095D01*
X-2235771Y-68238095D02*
X-2473866Y-68238095D01*
X-2473866Y-68238095D02*
X-2664342Y-68285714D01*
X-2664342Y-68285714D02*
X-2759580Y-68333333D01*
X-2759580Y-68333333D02*
X-2807200Y-68380952D01*
X-2807200Y-68380952D02*
X-2854819Y-68476190D01*
X-2854819Y-68476190D02*
X-2854819Y-68571428D01*
X-2854819Y-68571428D02*
X-2807200Y-68666666D01*
X-2807200Y-68666666D02*
X-2759580Y-68714285D01*
X-2759580Y-68714285D02*
X-2664342Y-68761904D01*
X-2664342Y-68761904D02*
X-2473866Y-68809523D01*
X-2473866Y-68809523D02*
X-2235771Y-68809523D01*
X-2235771Y-68809523D02*
X-2045295Y-68761904D01*
X-2045295Y-68761904D02*
X-1950057Y-68714285D01*
X-1950057Y-68714285D02*
X-1902438Y-68666666D01*
X-1902438Y-68666666D02*
X-1854819Y-68571428D01*
X-1854819Y-67333333D02*
X-1854819Y-67809523D01*
X-1854819Y-67809523D02*
X-2331009Y-67857142D01*
X-2331009Y-67857142D02*
X-2283390Y-67809523D01*
X-2283390Y-67809523D02*
X-2235771Y-67714285D01*
X-2235771Y-67714285D02*
X-2235771Y-67476190D01*
X-2235771Y-67476190D02*
X-2283390Y-67380952D01*
X-2283390Y-67380952D02*
X-2331009Y-67333333D01*
X-2331009Y-67333333D02*
X-2426247Y-67285714D01*
X-2426247Y-67285714D02*
X-2664342Y-67285714D01*
X-2664342Y-67285714D02*
X-2759580Y-67333333D01*
X-2759580Y-67333333D02*
X-2807200Y-67380952D01*
X-2807200Y-67380952D02*
X-2854819Y-67476190D01*
X-2854819Y-67476190D02*
X-2854819Y-67714285D01*
X-2854819Y-67714285D02*
X-2807200Y-67809523D01*
X-2807200Y-67809523D02*
X-2759580Y-67857142D01*
X-2473866Y-66857142D02*
X-2473866Y-66095238D01*
X-2854819Y-65714285D02*
X-2188152Y-65190476D01*
X-2188152Y-65714285D02*
X-2854819Y-65190476D01*
X-2854819Y-64904761D02*
X-2188152Y-64380952D01*
X-2188152Y-64904761D02*
X-2854819Y-64380952D01*
X-2473866Y-63999999D02*
X-2473866Y-63238095D01*
X-2569104Y-62809523D02*
X-2569104Y-62333333D01*
X-2854819Y-62904761D02*
X-1854819Y-62571428D01*
X-1854819Y-62571428D02*
X-2854819Y-62238095D01*
X-2950057Y-62142857D02*
X-2950057Y-61380952D01*
X-2854819Y-60619047D02*
X-2854819Y-61190475D01*
X-2854819Y-60904761D02*
X-1854819Y-60904761D01*
X-1854819Y-60904761D02*
X-1997676Y-60999999D01*
X-1997676Y-60999999D02*
X-2092914Y-61095237D01*
X-2092914Y-61095237D02*
X-2140533Y-61190475D01*
X-1854819Y-59761904D02*
X-1854819Y-59952380D01*
X-1854819Y-59952380D02*
X-1902438Y-60047618D01*
X-1902438Y-60047618D02*
X-1950057Y-60095237D01*
X-1950057Y-60095237D02*
X-2092914Y-60190475D01*
X-2092914Y-60190475D02*
X-2283390Y-60238094D01*
X-2283390Y-60238094D02*
X-2664342Y-60238094D01*
X-2664342Y-60238094D02*
X-2759580Y-60190475D01*
X-2759580Y-60190475D02*
X-2807200Y-60142856D01*
X-2807200Y-60142856D02*
X-2854819Y-60047618D01*
X-2854819Y-60047618D02*
X-2854819Y-59857142D01*
X-2854819Y-59857142D02*
X-2807200Y-59761904D01*
X-2807200Y-59761904D02*
X-2759580Y-59714285D01*
X-2759580Y-59714285D02*
X-2664342Y-59666666D01*
X-2664342Y-59666666D02*
X-2426247Y-59666666D01*
X-2426247Y-59666666D02*
X-2331009Y-59714285D01*
X-2331009Y-59714285D02*
X-2283390Y-59761904D01*
X-2283390Y-59761904D02*
X-2235771Y-59857142D01*
X-2235771Y-59857142D02*
X-2235771Y-60047618D01*
X-2235771Y-60047618D02*
X-2283390Y-60142856D01*
X-2283390Y-60142856D02*
X-2331009Y-60190475D01*
X-2331009Y-60190475D02*
X-2426247Y-60238094D01*
X-2854819Y-59238094D02*
X-1854819Y-59238094D01*
X-1854819Y-59238094D02*
X-1854819Y-58857142D01*
X-1854819Y-58857142D02*
X-1902438Y-58761904D01*
X-1902438Y-58761904D02*
X-1950057Y-58714285D01*
X-1950057Y-58714285D02*
X-2045295Y-58666666D01*
X-2045295Y-58666666D02*
X-2188152Y-58666666D01*
X-2188152Y-58666666D02*
X-2283390Y-58714285D01*
X-2283390Y-58714285D02*
X-2331009Y-58761904D01*
X-2331009Y-58761904D02*
X-2378628Y-58857142D01*
X-2378628Y-58857142D02*
X-2378628Y-59238094D01*
X-2950057Y-58476190D02*
X-2950057Y-57714285D01*
X-1854819Y-57619046D02*
X-1854819Y-57047618D01*
X-2854819Y-57333332D02*
X-1854819Y-57333332D01*
X-2854819Y-56571427D02*
X-2807200Y-56666665D01*
X-2807200Y-56666665D02*
X-2759580Y-56714284D01*
X-2759580Y-56714284D02*
X-2664342Y-56761903D01*
X-2664342Y-56761903D02*
X-2378628Y-56761903D01*
X-2378628Y-56761903D02*
X-2283390Y-56714284D01*
X-2283390Y-56714284D02*
X-2235771Y-56666665D01*
X-2235771Y-56666665D02*
X-2188152Y-56571427D01*
X-2188152Y-56571427D02*
X-2188152Y-56428570D01*
X-2188152Y-56428570D02*
X-2235771Y-56333332D01*
X-2235771Y-56333332D02*
X-2283390Y-56285713D01*
X-2283390Y-56285713D02*
X-2378628Y-56238094D01*
X-2378628Y-56238094D02*
X-2664342Y-56238094D01*
X-2664342Y-56238094D02*
X-2759580Y-56285713D01*
X-2759580Y-56285713D02*
X-2807200Y-56333332D01*
X-2807200Y-56333332D02*
X-2854819Y-56428570D01*
X-2854819Y-56428570D02*
X-2854819Y-56571427D01*
X-2188152Y-55809522D02*
X-3188152Y-55809522D01*
X-2235771Y-55809522D02*
X-2188152Y-55714284D01*
X-2188152Y-55714284D02*
X-2188152Y-55523808D01*
X-2188152Y-55523808D02*
X-2235771Y-55428570D01*
X-2235771Y-55428570D02*
X-2283390Y-55380951D01*
X-2283390Y-55380951D02*
X-2378628Y-55333332D01*
X-2378628Y-55333332D02*
X-2664342Y-55333332D01*
X-2664342Y-55333332D02*
X-2759580Y-55380951D01*
X-2759580Y-55380951D02*
X-2807200Y-55428570D01*
X-2807200Y-55428570D02*
X-2854819Y-55523808D01*
X-2854819Y-55523808D02*
X-2854819Y-55714284D01*
X-2854819Y-55714284D02*
X-2807200Y-55809522D01*
X-2854819Y-54904760D02*
X-1854819Y-54904760D01*
X-1854819Y-54904760D02*
X-2569104Y-54571427D01*
X-2569104Y-54571427D02*
X-1854819Y-54238094D01*
X-1854819Y-54238094D02*
X-2854819Y-54238094D01*
X-2188152Y-53761903D02*
X-2854819Y-53761903D01*
X-2283390Y-53761903D02*
X-2235771Y-53714284D01*
X-2235771Y-53714284D02*
X-2188152Y-53619046D01*
X-2188152Y-53619046D02*
X-2188152Y-53476189D01*
X-2188152Y-53476189D02*
X-2235771Y-53380951D01*
X-2235771Y-53380951D02*
X-2331009Y-53333332D01*
X-2331009Y-53333332D02*
X-2854819Y-53333332D01*
X-2188152Y-52999998D02*
X-2188152Y-52619046D01*
X-1854819Y-52857141D02*
X-2711961Y-52857141D01*
X-2711961Y-52857141D02*
X-2807200Y-52809522D01*
X-2807200Y-52809522D02*
X-2854819Y-52714284D01*
X-2854819Y-52714284D02*
X-2854819Y-52619046D01*
X-2950057Y-52523808D02*
X-2950057Y-51761903D01*
X-2854819Y-51523807D02*
X-1854819Y-51523807D01*
X-2331009Y-51523807D02*
X-2331009Y-50952379D01*
X-2854819Y-50952379D02*
X-1854819Y-50952379D01*
X-2854819Y-50333331D02*
X-2807200Y-50428569D01*
X-2807200Y-50428569D02*
X-2759580Y-50476188D01*
X-2759580Y-50476188D02*
X-2664342Y-50523807D01*
X-2664342Y-50523807D02*
X-2378628Y-50523807D01*
X-2378628Y-50523807D02*
X-2283390Y-50476188D01*
X-2283390Y-50476188D02*
X-2235771Y-50428569D01*
X-2235771Y-50428569D02*
X-2188152Y-50333331D01*
X-2188152Y-50333331D02*
X-2188152Y-50190474D01*
X-2188152Y-50190474D02*
X-2235771Y-50095236D01*
X-2235771Y-50095236D02*
X-2283390Y-50047617D01*
X-2283390Y-50047617D02*
X-2378628Y-49999998D01*
X-2378628Y-49999998D02*
X-2664342Y-49999998D01*
X-2664342Y-49999998D02*
X-2759580Y-50047617D01*
X-2759580Y-50047617D02*
X-2807200Y-50095236D01*
X-2807200Y-50095236D02*
X-2854819Y-50190474D01*
X-2854819Y-50190474D02*
X-2854819Y-50333331D01*
X-2854819Y-49571426D02*
X-2188152Y-49571426D01*
X-2378628Y-49571426D02*
X-2283390Y-49523807D01*
X-2283390Y-49523807D02*
X-2235771Y-49476188D01*
X-2235771Y-49476188D02*
X-2188152Y-49380950D01*
X-2188152Y-49380950D02*
X-2188152Y-49285712D01*
X-2854819Y-48952378D02*
X-2188152Y-48952378D01*
X-1854819Y-48952378D02*
X-1902438Y-48999997D01*
X-1902438Y-48999997D02*
X-1950057Y-48952378D01*
X-1950057Y-48952378D02*
X-1902438Y-48904759D01*
X-1902438Y-48904759D02*
X-1854819Y-48952378D01*
X-1854819Y-48952378D02*
X-1950057Y-48952378D01*
X-2188152Y-48571426D02*
X-2188152Y-48047617D01*
X-2188152Y-48047617D02*
X-2854819Y-48571426D01*
X-2854819Y-48571426D02*
X-2854819Y-48047617D01*
X-2854819Y-47523807D02*
X-2807200Y-47619045D01*
X-2807200Y-47619045D02*
X-2759580Y-47666664D01*
X-2759580Y-47666664D02*
X-2664342Y-47714283D01*
X-2664342Y-47714283D02*
X-2378628Y-47714283D01*
X-2378628Y-47714283D02*
X-2283390Y-47666664D01*
X-2283390Y-47666664D02*
X-2235771Y-47619045D01*
X-2235771Y-47619045D02*
X-2188152Y-47523807D01*
X-2188152Y-47523807D02*
X-2188152Y-47380950D01*
X-2188152Y-47380950D02*
X-2235771Y-47285712D01*
X-2235771Y-47285712D02*
X-2283390Y-47238093D01*
X-2283390Y-47238093D02*
X-2378628Y-47190474D01*
X-2378628Y-47190474D02*
X-2664342Y-47190474D01*
X-2664342Y-47190474D02*
X-2759580Y-47238093D01*
X-2759580Y-47238093D02*
X-2807200Y-47285712D01*
X-2807200Y-47285712D02*
X-2854819Y-47380950D01*
X-2854819Y-47380950D02*
X-2854819Y-47523807D01*
X-2188152Y-46761902D02*
X-2854819Y-46761902D01*
X-2283390Y-46761902D02*
X-2235771Y-46714283D01*
X-2235771Y-46714283D02*
X-2188152Y-46619045D01*
X-2188152Y-46619045D02*
X-2188152Y-46476188D01*
X-2188152Y-46476188D02*
X-2235771Y-46380950D01*
X-2235771Y-46380950D02*
X-2331009Y-46333331D01*
X-2331009Y-46333331D02*
X-2854819Y-46333331D01*
X-2188152Y-45999997D02*
X-2188152Y-45619045D01*
X-1854819Y-45857140D02*
X-2711961Y-45857140D01*
X-2711961Y-45857140D02*
X-2807200Y-45809521D01*
X-2807200Y-45809521D02*
X-2854819Y-45714283D01*
X-2854819Y-45714283D02*
X-2854819Y-45619045D01*
X-2854819Y-44857140D02*
X-2331009Y-44857140D01*
X-2331009Y-44857140D02*
X-2235771Y-44904759D01*
X-2235771Y-44904759D02*
X-2188152Y-44999997D01*
X-2188152Y-44999997D02*
X-2188152Y-45190473D01*
X-2188152Y-45190473D02*
X-2235771Y-45285711D01*
X-2807200Y-44857140D02*
X-2854819Y-44952378D01*
X-2854819Y-44952378D02*
X-2854819Y-45190473D01*
X-2854819Y-45190473D02*
X-2807200Y-45285711D01*
X-2807200Y-45285711D02*
X-2711961Y-45333330D01*
X-2711961Y-45333330D02*
X-2616723Y-45333330D01*
X-2616723Y-45333330D02*
X-2521485Y-45285711D01*
X-2521485Y-45285711D02*
X-2473866Y-45190473D01*
X-2473866Y-45190473D02*
X-2473866Y-44952378D01*
X-2473866Y-44952378D02*
X-2426247Y-44857140D01*
X-2854819Y-44238092D02*
X-2807200Y-44333330D01*
X-2807200Y-44333330D02*
X-2711961Y-44380949D01*
X-2711961Y-44380949D02*
X-1854819Y-44380949D01*
X3145180Y-68333333D02*
X2430895Y-68333333D01*
X2430895Y-68333333D02*
X2288038Y-68380952D01*
X2288038Y-68380952D02*
X2192800Y-68476190D01*
X2192800Y-68476190D02*
X2145180Y-68619047D01*
X2145180Y-68619047D02*
X2145180Y-68714285D01*
X2145180Y-67333333D02*
X2145180Y-67904761D01*
X2145180Y-67619047D02*
X3145180Y-67619047D01*
X3145180Y-67619047D02*
X3002323Y-67714285D01*
X3002323Y-67714285D02*
X2907085Y-67809523D01*
X2907085Y-67809523D02*
X2859466Y-67904761D01*
X40523810Y-12289580D02*
X40571429Y-12337200D01*
X40571429Y-12337200D02*
X40714286Y-12384819D01*
X40714286Y-12384819D02*
X40809524Y-12384819D01*
X40809524Y-12384819D02*
X40952381Y-12337200D01*
X40952381Y-12337200D02*
X41047619Y-12241961D01*
X41047619Y-12241961D02*
X41095238Y-12146723D01*
X41095238Y-12146723D02*
X41142857Y-11956247D01*
X41142857Y-11956247D02*
X41142857Y-11813390D01*
X41142857Y-11813390D02*
X41095238Y-11622914D01*
X41095238Y-11622914D02*
X41047619Y-11527676D01*
X41047619Y-11527676D02*
X40952381Y-11432438D01*
X40952381Y-11432438D02*
X40809524Y-11384819D01*
X40809524Y-11384819D02*
X40714286Y-11384819D01*
X40714286Y-11384819D02*
X40571429Y-11432438D01*
X40571429Y-11432438D02*
X40523810Y-11480057D01*
X40333334Y-12480057D02*
X39571429Y-12480057D01*
X39142857Y-11384819D02*
X39047619Y-11384819D01*
X39047619Y-11384819D02*
X38952381Y-11432438D01*
X38952381Y-11432438D02*
X38904762Y-11480057D01*
X38904762Y-11480057D02*
X38857143Y-11575295D01*
X38857143Y-11575295D02*
X38809524Y-11765771D01*
X38809524Y-11765771D02*
X38809524Y-12003866D01*
X38809524Y-12003866D02*
X38857143Y-12194342D01*
X38857143Y-12194342D02*
X38904762Y-12289580D01*
X38904762Y-12289580D02*
X38952381Y-12337200D01*
X38952381Y-12337200D02*
X39047619Y-12384819D01*
X39047619Y-12384819D02*
X39142857Y-12384819D01*
X39142857Y-12384819D02*
X39238095Y-12337200D01*
X39238095Y-12337200D02*
X39285714Y-12289580D01*
X39285714Y-12289580D02*
X39333333Y-12194342D01*
X39333333Y-12194342D02*
X39380952Y-12003866D01*
X39380952Y-12003866D02*
X39380952Y-11765771D01*
X39380952Y-11765771D02*
X39333333Y-11575295D01*
X39333333Y-11575295D02*
X39285714Y-11480057D01*
X39285714Y-11480057D02*
X39238095Y-11432438D01*
X39238095Y-11432438D02*
X39142857Y-11384819D01*
X37952381Y-11384819D02*
X38142857Y-11384819D01*
X38142857Y-11384819D02*
X38238095Y-11432438D01*
X38238095Y-11432438D02*
X38285714Y-11480057D01*
X38285714Y-11480057D02*
X38380952Y-11622914D01*
X38380952Y-11622914D02*
X38428571Y-11813390D01*
X38428571Y-11813390D02*
X38428571Y-12194342D01*
X38428571Y-12194342D02*
X38380952Y-12289580D01*
X38380952Y-12289580D02*
X38333333Y-12337200D01*
X38333333Y-12337200D02*
X38238095Y-12384819D01*
X38238095Y-12384819D02*
X38047619Y-12384819D01*
X38047619Y-12384819D02*
X37952381Y-12337200D01*
X37952381Y-12337200D02*
X37904762Y-12289580D01*
X37904762Y-12289580D02*
X37857143Y-12194342D01*
X37857143Y-12194342D02*
X37857143Y-11956247D01*
X37857143Y-11956247D02*
X37904762Y-11861009D01*
X37904762Y-11861009D02*
X37952381Y-11813390D01*
X37952381Y-11813390D02*
X38047619Y-11765771D01*
X38047619Y-11765771D02*
X38238095Y-11765771D01*
X38238095Y-11765771D02*
X38333333Y-11813390D01*
X38333333Y-11813390D02*
X38380952Y-11861009D01*
X38380952Y-11861009D02*
X38428571Y-11956247D01*
X37238095Y-11384819D02*
X37142857Y-11384819D01*
X37142857Y-11384819D02*
X37047619Y-11432438D01*
X37047619Y-11432438D02*
X37000000Y-11480057D01*
X37000000Y-11480057D02*
X36952381Y-11575295D01*
X36952381Y-11575295D02*
X36904762Y-11765771D01*
X36904762Y-11765771D02*
X36904762Y-12003866D01*
X36904762Y-12003866D02*
X36952381Y-12194342D01*
X36952381Y-12194342D02*
X37000000Y-12289580D01*
X37000000Y-12289580D02*
X37047619Y-12337200D01*
X37047619Y-12337200D02*
X37142857Y-12384819D01*
X37142857Y-12384819D02*
X37238095Y-12384819D01*
X37238095Y-12384819D02*
X37333333Y-12337200D01*
X37333333Y-12337200D02*
X37380952Y-12289580D01*
X37380952Y-12289580D02*
X37428571Y-12194342D01*
X37428571Y-12194342D02*
X37476190Y-12003866D01*
X37476190Y-12003866D02*
X37476190Y-11765771D01*
X37476190Y-11765771D02*
X37428571Y-11575295D01*
X37428571Y-11575295D02*
X37380952Y-11480057D01*
X37380952Y-11480057D02*
X37333333Y-11432438D01*
X37333333Y-11432438D02*
X37238095Y-11384819D01*
X36571428Y-11384819D02*
X35952381Y-11384819D01*
X35952381Y-11384819D02*
X36285714Y-11765771D01*
X36285714Y-11765771D02*
X36142857Y-11765771D01*
X36142857Y-11765771D02*
X36047619Y-11813390D01*
X36047619Y-11813390D02*
X36000000Y-11861009D01*
X36000000Y-11861009D02*
X35952381Y-11956247D01*
X35952381Y-11956247D02*
X35952381Y-12194342D01*
X35952381Y-12194342D02*
X36000000Y-12289580D01*
X36000000Y-12289580D02*
X36047619Y-12337200D01*
X36047619Y-12337200D02*
X36142857Y-12384819D01*
X36142857Y-12384819D02*
X36428571Y-12384819D01*
X36428571Y-12384819D02*
X36523809Y-12337200D01*
X36523809Y-12337200D02*
X36571428Y-12289580D01*
X35761905Y-12480057D02*
X35000000Y-12480057D01*
X34238095Y-12384819D02*
X34809523Y-12384819D01*
X34523809Y-12384819D02*
X34523809Y-11384819D01*
X34523809Y-11384819D02*
X34619047Y-11527676D01*
X34619047Y-11527676D02*
X34714285Y-11622914D01*
X34714285Y-11622914D02*
X34809523Y-11670533D01*
X33380952Y-11384819D02*
X33571428Y-11384819D01*
X33571428Y-11384819D02*
X33666666Y-11432438D01*
X33666666Y-11432438D02*
X33714285Y-11480057D01*
X33714285Y-11480057D02*
X33809523Y-11622914D01*
X33809523Y-11622914D02*
X33857142Y-11813390D01*
X33857142Y-11813390D02*
X33857142Y-12194342D01*
X33857142Y-12194342D02*
X33809523Y-12289580D01*
X33809523Y-12289580D02*
X33761904Y-12337200D01*
X33761904Y-12337200D02*
X33666666Y-12384819D01*
X33666666Y-12384819D02*
X33476190Y-12384819D01*
X33476190Y-12384819D02*
X33380952Y-12337200D01*
X33380952Y-12337200D02*
X33333333Y-12289580D01*
X33333333Y-12289580D02*
X33285714Y-12194342D01*
X33285714Y-12194342D02*
X33285714Y-11956247D01*
X33285714Y-11956247D02*
X33333333Y-11861009D01*
X33333333Y-11861009D02*
X33380952Y-11813390D01*
X33380952Y-11813390D02*
X33476190Y-11765771D01*
X33476190Y-11765771D02*
X33666666Y-11765771D01*
X33666666Y-11765771D02*
X33761904Y-11813390D01*
X33761904Y-11813390D02*
X33809523Y-11861009D01*
X33809523Y-11861009D02*
X33857142Y-11956247D01*
X32666666Y-11384819D02*
X32571428Y-11384819D01*
X32571428Y-11384819D02*
X32476190Y-11432438D01*
X32476190Y-11432438D02*
X32428571Y-11480057D01*
X32428571Y-11480057D02*
X32380952Y-11575295D01*
X32380952Y-11575295D02*
X32333333Y-11765771D01*
X32333333Y-11765771D02*
X32333333Y-12003866D01*
X32333333Y-12003866D02*
X32380952Y-12194342D01*
X32380952Y-12194342D02*
X32428571Y-12289580D01*
X32428571Y-12289580D02*
X32476190Y-12337200D01*
X32476190Y-12337200D02*
X32571428Y-12384819D01*
X32571428Y-12384819D02*
X32666666Y-12384819D01*
X32666666Y-12384819D02*
X32761904Y-12337200D01*
X32761904Y-12337200D02*
X32809523Y-12289580D01*
X32809523Y-12289580D02*
X32857142Y-12194342D01*
X32857142Y-12194342D02*
X32904761Y-12003866D01*
X32904761Y-12003866D02*
X32904761Y-11765771D01*
X32904761Y-11765771D02*
X32857142Y-11575295D01*
X32857142Y-11575295D02*
X32809523Y-11480057D01*
X32809523Y-11480057D02*
X32761904Y-11432438D01*
X32761904Y-11432438D02*
X32666666Y-11384819D01*
X31761904Y-11813390D02*
X31857142Y-11765771D01*
X31857142Y-11765771D02*
X31904761Y-11718152D01*
X31904761Y-11718152D02*
X31952380Y-11622914D01*
X31952380Y-11622914D02*
X31952380Y-11575295D01*
X31952380Y-11575295D02*
X31904761Y-11480057D01*
X31904761Y-11480057D02*
X31857142Y-11432438D01*
X31857142Y-11432438D02*
X31761904Y-11384819D01*
X31761904Y-11384819D02*
X31571428Y-11384819D01*
X31571428Y-11384819D02*
X31476190Y-11432438D01*
X31476190Y-11432438D02*
X31428571Y-11480057D01*
X31428571Y-11480057D02*
X31380952Y-11575295D01*
X31380952Y-11575295D02*
X31380952Y-11622914D01*
X31380952Y-11622914D02*
X31428571Y-11718152D01*
X31428571Y-11718152D02*
X31476190Y-11765771D01*
X31476190Y-11765771D02*
X31571428Y-11813390D01*
X31571428Y-11813390D02*
X31761904Y-11813390D01*
X31761904Y-11813390D02*
X31857142Y-11861009D01*
X31857142Y-11861009D02*
X31904761Y-11908628D01*
X31904761Y-11908628D02*
X31952380Y-12003866D01*
X31952380Y-12003866D02*
X31952380Y-12194342D01*
X31952380Y-12194342D02*
X31904761Y-12289580D01*
X31904761Y-12289580D02*
X31857142Y-12337200D01*
X31857142Y-12337200D02*
X31761904Y-12384819D01*
X31761904Y-12384819D02*
X31571428Y-12384819D01*
X31571428Y-12384819D02*
X31476190Y-12337200D01*
X31476190Y-12337200D02*
X31428571Y-12289580D01*
X31428571Y-12289580D02*
X31380952Y-12194342D01*
X31380952Y-12194342D02*
X31380952Y-12003866D01*
X31380952Y-12003866D02*
X31428571Y-11908628D01*
X31428571Y-11908628D02*
X31476190Y-11861009D01*
X31476190Y-11861009D02*
X31571428Y-11813390D01*
X30952380Y-12384819D02*
X30952380Y-11384819D01*
X30952380Y-11384819D02*
X30619047Y-12099104D01*
X30619047Y-12099104D02*
X30285714Y-11384819D01*
X30285714Y-11384819D02*
X30285714Y-12384819D01*
X29428571Y-12337200D02*
X29523809Y-12384819D01*
X29523809Y-12384819D02*
X29714285Y-12384819D01*
X29714285Y-12384819D02*
X29809523Y-12337200D01*
X29809523Y-12337200D02*
X29857142Y-12241961D01*
X29857142Y-12241961D02*
X29857142Y-11861009D01*
X29857142Y-11861009D02*
X29809523Y-11765771D01*
X29809523Y-11765771D02*
X29714285Y-11718152D01*
X29714285Y-11718152D02*
X29523809Y-11718152D01*
X29523809Y-11718152D02*
X29428571Y-11765771D01*
X29428571Y-11765771D02*
X29380952Y-11861009D01*
X29380952Y-11861009D02*
X29380952Y-11956247D01*
X29380952Y-11956247D02*
X29857142Y-12051485D01*
X29095237Y-11718152D02*
X28714285Y-11718152D01*
X28952380Y-11384819D02*
X28952380Y-12241961D01*
X28952380Y-12241961D02*
X28904761Y-12337200D01*
X28904761Y-12337200D02*
X28809523Y-12384819D01*
X28809523Y-12384819D02*
X28714285Y-12384819D01*
X28380951Y-12384819D02*
X28380951Y-11718152D01*
X28380951Y-11908628D02*
X28333332Y-11813390D01*
X28333332Y-11813390D02*
X28285713Y-11765771D01*
X28285713Y-11765771D02*
X28190475Y-11718152D01*
X28190475Y-11718152D02*
X28095237Y-11718152D01*
X27761903Y-12384819D02*
X27761903Y-11718152D01*
X27761903Y-11384819D02*
X27809522Y-11432438D01*
X27809522Y-11432438D02*
X27761903Y-11480057D01*
X27761903Y-11480057D02*
X27714284Y-11432438D01*
X27714284Y-11432438D02*
X27761903Y-11384819D01*
X27761903Y-11384819D02*
X27761903Y-11480057D01*
X26857142Y-12337200D02*
X26952380Y-12384819D01*
X26952380Y-12384819D02*
X27142856Y-12384819D01*
X27142856Y-12384819D02*
X27238094Y-12337200D01*
X27238094Y-12337200D02*
X27285713Y-12289580D01*
X27285713Y-12289580D02*
X27333332Y-12194342D01*
X27333332Y-12194342D02*
X27333332Y-11908628D01*
X27333332Y-11908628D02*
X27285713Y-11813390D01*
X27285713Y-11813390D02*
X27238094Y-11765771D01*
X27238094Y-11765771D02*
X27142856Y-11718152D01*
X27142856Y-11718152D02*
X26952380Y-11718152D01*
X26952380Y-11718152D02*
X26857142Y-11765771D01*
D11*
X34066666Y-10643832D02*
X34085714Y-10662880D01*
X34085714Y-10662880D02*
X34142856Y-10681927D01*
X34142856Y-10681927D02*
X34180952Y-10681927D01*
X34180952Y-10681927D02*
X34238095Y-10662880D01*
X34238095Y-10662880D02*
X34276190Y-10624784D01*
X34276190Y-10624784D02*
X34295237Y-10586689D01*
X34295237Y-10586689D02*
X34314285Y-10510499D01*
X34314285Y-10510499D02*
X34314285Y-10453356D01*
X34314285Y-10453356D02*
X34295237Y-10377165D01*
X34295237Y-10377165D02*
X34276190Y-10339070D01*
X34276190Y-10339070D02*
X34238095Y-10300975D01*
X34238095Y-10300975D02*
X34180952Y-10281927D01*
X34180952Y-10281927D02*
X34142856Y-10281927D01*
X34142856Y-10281927D02*
X34085714Y-10300975D01*
X34085714Y-10300975D02*
X34066666Y-10320022D01*
X33838095Y-10453356D02*
X33876190Y-10434308D01*
X33876190Y-10434308D02*
X33895237Y-10415260D01*
X33895237Y-10415260D02*
X33914285Y-10377165D01*
X33914285Y-10377165D02*
X33914285Y-10358118D01*
X33914285Y-10358118D02*
X33895237Y-10320022D01*
X33895237Y-10320022D02*
X33876190Y-10300975D01*
X33876190Y-10300975D02*
X33838095Y-10281927D01*
X33838095Y-10281927D02*
X33761904Y-10281927D01*
X33761904Y-10281927D02*
X33723809Y-10300975D01*
X33723809Y-10300975D02*
X33704761Y-10320022D01*
X33704761Y-10320022D02*
X33685714Y-10358118D01*
X33685714Y-10358118D02*
X33685714Y-10377165D01*
X33685714Y-10377165D02*
X33704761Y-10415260D01*
X33704761Y-10415260D02*
X33723809Y-10434308D01*
X33723809Y-10434308D02*
X33761904Y-10453356D01*
X33761904Y-10453356D02*
X33838095Y-10453356D01*
X33838095Y-10453356D02*
X33876190Y-10472403D01*
X33876190Y-10472403D02*
X33895237Y-10491451D01*
X33895237Y-10491451D02*
X33914285Y-10529546D01*
X33914285Y-10529546D02*
X33914285Y-10605737D01*
X33914285Y-10605737D02*
X33895237Y-10643832D01*
X33895237Y-10643832D02*
X33876190Y-10662880D01*
X33876190Y-10662880D02*
X33838095Y-10681927D01*
X33838095Y-10681927D02*
X33761904Y-10681927D01*
X33761904Y-10681927D02*
X33723809Y-10662880D01*
X33723809Y-10662880D02*
X33704761Y-10643832D01*
X33704761Y-10643832D02*
X33685714Y-10605737D01*
X33685714Y-10605737D02*
X33685714Y-10529546D01*
X33685714Y-10529546D02*
X33704761Y-10491451D01*
X33704761Y-10491451D02*
X33723809Y-10472403D01*
X33723809Y-10472403D02*
X33761904Y-10453356D01*
D10*
X17023810Y-66289580D02*
X17071429Y-66337200D01*
X17071429Y-66337200D02*
X17214286Y-66384819D01*
X17214286Y-66384819D02*
X17309524Y-66384819D01*
X17309524Y-66384819D02*
X17452381Y-66337200D01*
X17452381Y-66337200D02*
X17547619Y-66241961D01*
X17547619Y-66241961D02*
X17595238Y-66146723D01*
X17595238Y-66146723D02*
X17642857Y-65956247D01*
X17642857Y-65956247D02*
X17642857Y-65813390D01*
X17642857Y-65813390D02*
X17595238Y-65622914D01*
X17595238Y-65622914D02*
X17547619Y-65527676D01*
X17547619Y-65527676D02*
X17452381Y-65432438D01*
X17452381Y-65432438D02*
X17309524Y-65384819D01*
X17309524Y-65384819D02*
X17214286Y-65384819D01*
X17214286Y-65384819D02*
X17071429Y-65432438D01*
X17071429Y-65432438D02*
X17023810Y-65480057D01*
X16833334Y-66480057D02*
X16071429Y-66480057D01*
X15642857Y-65384819D02*
X15547619Y-65384819D01*
X15547619Y-65384819D02*
X15452381Y-65432438D01*
X15452381Y-65432438D02*
X15404762Y-65480057D01*
X15404762Y-65480057D02*
X15357143Y-65575295D01*
X15357143Y-65575295D02*
X15309524Y-65765771D01*
X15309524Y-65765771D02*
X15309524Y-66003866D01*
X15309524Y-66003866D02*
X15357143Y-66194342D01*
X15357143Y-66194342D02*
X15404762Y-66289580D01*
X15404762Y-66289580D02*
X15452381Y-66337200D01*
X15452381Y-66337200D02*
X15547619Y-66384819D01*
X15547619Y-66384819D02*
X15642857Y-66384819D01*
X15642857Y-66384819D02*
X15738095Y-66337200D01*
X15738095Y-66337200D02*
X15785714Y-66289580D01*
X15785714Y-66289580D02*
X15833333Y-66194342D01*
X15833333Y-66194342D02*
X15880952Y-66003866D01*
X15880952Y-66003866D02*
X15880952Y-65765771D01*
X15880952Y-65765771D02*
X15833333Y-65575295D01*
X15833333Y-65575295D02*
X15785714Y-65480057D01*
X15785714Y-65480057D02*
X15738095Y-65432438D01*
X15738095Y-65432438D02*
X15642857Y-65384819D01*
X14452381Y-65384819D02*
X14642857Y-65384819D01*
X14642857Y-65384819D02*
X14738095Y-65432438D01*
X14738095Y-65432438D02*
X14785714Y-65480057D01*
X14785714Y-65480057D02*
X14880952Y-65622914D01*
X14880952Y-65622914D02*
X14928571Y-65813390D01*
X14928571Y-65813390D02*
X14928571Y-66194342D01*
X14928571Y-66194342D02*
X14880952Y-66289580D01*
X14880952Y-66289580D02*
X14833333Y-66337200D01*
X14833333Y-66337200D02*
X14738095Y-66384819D01*
X14738095Y-66384819D02*
X14547619Y-66384819D01*
X14547619Y-66384819D02*
X14452381Y-66337200D01*
X14452381Y-66337200D02*
X14404762Y-66289580D01*
X14404762Y-66289580D02*
X14357143Y-66194342D01*
X14357143Y-66194342D02*
X14357143Y-65956247D01*
X14357143Y-65956247D02*
X14404762Y-65861009D01*
X14404762Y-65861009D02*
X14452381Y-65813390D01*
X14452381Y-65813390D02*
X14547619Y-65765771D01*
X14547619Y-65765771D02*
X14738095Y-65765771D01*
X14738095Y-65765771D02*
X14833333Y-65813390D01*
X14833333Y-65813390D02*
X14880952Y-65861009D01*
X14880952Y-65861009D02*
X14928571Y-65956247D01*
X13738095Y-65384819D02*
X13642857Y-65384819D01*
X13642857Y-65384819D02*
X13547619Y-65432438D01*
X13547619Y-65432438D02*
X13500000Y-65480057D01*
X13500000Y-65480057D02*
X13452381Y-65575295D01*
X13452381Y-65575295D02*
X13404762Y-65765771D01*
X13404762Y-65765771D02*
X13404762Y-66003866D01*
X13404762Y-66003866D02*
X13452381Y-66194342D01*
X13452381Y-66194342D02*
X13500000Y-66289580D01*
X13500000Y-66289580D02*
X13547619Y-66337200D01*
X13547619Y-66337200D02*
X13642857Y-66384819D01*
X13642857Y-66384819D02*
X13738095Y-66384819D01*
X13738095Y-66384819D02*
X13833333Y-66337200D01*
X13833333Y-66337200D02*
X13880952Y-66289580D01*
X13880952Y-66289580D02*
X13928571Y-66194342D01*
X13928571Y-66194342D02*
X13976190Y-66003866D01*
X13976190Y-66003866D02*
X13976190Y-65765771D01*
X13976190Y-65765771D02*
X13928571Y-65575295D01*
X13928571Y-65575295D02*
X13880952Y-65480057D01*
X13880952Y-65480057D02*
X13833333Y-65432438D01*
X13833333Y-65432438D02*
X13738095Y-65384819D01*
X13071428Y-65384819D02*
X12452381Y-65384819D01*
X12452381Y-65384819D02*
X12785714Y-65765771D01*
X12785714Y-65765771D02*
X12642857Y-65765771D01*
X12642857Y-65765771D02*
X12547619Y-65813390D01*
X12547619Y-65813390D02*
X12500000Y-65861009D01*
X12500000Y-65861009D02*
X12452381Y-65956247D01*
X12452381Y-65956247D02*
X12452381Y-66194342D01*
X12452381Y-66194342D02*
X12500000Y-66289580D01*
X12500000Y-66289580D02*
X12547619Y-66337200D01*
X12547619Y-66337200D02*
X12642857Y-66384819D01*
X12642857Y-66384819D02*
X12928571Y-66384819D01*
X12928571Y-66384819D02*
X13023809Y-66337200D01*
X13023809Y-66337200D02*
X13071428Y-66289580D01*
X12261905Y-66480057D02*
X11500000Y-66480057D01*
X10738095Y-66384819D02*
X11309523Y-66384819D01*
X11023809Y-66384819D02*
X11023809Y-65384819D01*
X11023809Y-65384819D02*
X11119047Y-65527676D01*
X11119047Y-65527676D02*
X11214285Y-65622914D01*
X11214285Y-65622914D02*
X11309523Y-65670533D01*
X9880952Y-65384819D02*
X10071428Y-65384819D01*
X10071428Y-65384819D02*
X10166666Y-65432438D01*
X10166666Y-65432438D02*
X10214285Y-65480057D01*
X10214285Y-65480057D02*
X10309523Y-65622914D01*
X10309523Y-65622914D02*
X10357142Y-65813390D01*
X10357142Y-65813390D02*
X10357142Y-66194342D01*
X10357142Y-66194342D02*
X10309523Y-66289580D01*
X10309523Y-66289580D02*
X10261904Y-66337200D01*
X10261904Y-66337200D02*
X10166666Y-66384819D01*
X10166666Y-66384819D02*
X9976190Y-66384819D01*
X9976190Y-66384819D02*
X9880952Y-66337200D01*
X9880952Y-66337200D02*
X9833333Y-66289580D01*
X9833333Y-66289580D02*
X9785714Y-66194342D01*
X9785714Y-66194342D02*
X9785714Y-65956247D01*
X9785714Y-65956247D02*
X9833333Y-65861009D01*
X9833333Y-65861009D02*
X9880952Y-65813390D01*
X9880952Y-65813390D02*
X9976190Y-65765771D01*
X9976190Y-65765771D02*
X10166666Y-65765771D01*
X10166666Y-65765771D02*
X10261904Y-65813390D01*
X10261904Y-65813390D02*
X10309523Y-65861009D01*
X10309523Y-65861009D02*
X10357142Y-65956247D01*
X9166666Y-65384819D02*
X9071428Y-65384819D01*
X9071428Y-65384819D02*
X8976190Y-65432438D01*
X8976190Y-65432438D02*
X8928571Y-65480057D01*
X8928571Y-65480057D02*
X8880952Y-65575295D01*
X8880952Y-65575295D02*
X8833333Y-65765771D01*
X8833333Y-65765771D02*
X8833333Y-66003866D01*
X8833333Y-66003866D02*
X8880952Y-66194342D01*
X8880952Y-66194342D02*
X8928571Y-66289580D01*
X8928571Y-66289580D02*
X8976190Y-66337200D01*
X8976190Y-66337200D02*
X9071428Y-66384819D01*
X9071428Y-66384819D02*
X9166666Y-66384819D01*
X9166666Y-66384819D02*
X9261904Y-66337200D01*
X9261904Y-66337200D02*
X9309523Y-66289580D01*
X9309523Y-66289580D02*
X9357142Y-66194342D01*
X9357142Y-66194342D02*
X9404761Y-66003866D01*
X9404761Y-66003866D02*
X9404761Y-65765771D01*
X9404761Y-65765771D02*
X9357142Y-65575295D01*
X9357142Y-65575295D02*
X9309523Y-65480057D01*
X9309523Y-65480057D02*
X9261904Y-65432438D01*
X9261904Y-65432438D02*
X9166666Y-65384819D01*
X8261904Y-65813390D02*
X8357142Y-65765771D01*
X8357142Y-65765771D02*
X8404761Y-65718152D01*
X8404761Y-65718152D02*
X8452380Y-65622914D01*
X8452380Y-65622914D02*
X8452380Y-65575295D01*
X8452380Y-65575295D02*
X8404761Y-65480057D01*
X8404761Y-65480057D02*
X8357142Y-65432438D01*
X8357142Y-65432438D02*
X8261904Y-65384819D01*
X8261904Y-65384819D02*
X8071428Y-65384819D01*
X8071428Y-65384819D02*
X7976190Y-65432438D01*
X7976190Y-65432438D02*
X7928571Y-65480057D01*
X7928571Y-65480057D02*
X7880952Y-65575295D01*
X7880952Y-65575295D02*
X7880952Y-65622914D01*
X7880952Y-65622914D02*
X7928571Y-65718152D01*
X7928571Y-65718152D02*
X7976190Y-65765771D01*
X7976190Y-65765771D02*
X8071428Y-65813390D01*
X8071428Y-65813390D02*
X8261904Y-65813390D01*
X8261904Y-65813390D02*
X8357142Y-65861009D01*
X8357142Y-65861009D02*
X8404761Y-65908628D01*
X8404761Y-65908628D02*
X8452380Y-66003866D01*
X8452380Y-66003866D02*
X8452380Y-66194342D01*
X8452380Y-66194342D02*
X8404761Y-66289580D01*
X8404761Y-66289580D02*
X8357142Y-66337200D01*
X8357142Y-66337200D02*
X8261904Y-66384819D01*
X8261904Y-66384819D02*
X8071428Y-66384819D01*
X8071428Y-66384819D02*
X7976190Y-66337200D01*
X7976190Y-66337200D02*
X7928571Y-66289580D01*
X7928571Y-66289580D02*
X7880952Y-66194342D01*
X7880952Y-66194342D02*
X7880952Y-66003866D01*
X7880952Y-66003866D02*
X7928571Y-65908628D01*
X7928571Y-65908628D02*
X7976190Y-65861009D01*
X7976190Y-65861009D02*
X8071428Y-65813390D01*
X7452380Y-66384819D02*
X7452380Y-65384819D01*
X7452380Y-65384819D02*
X7119047Y-66099104D01*
X7119047Y-66099104D02*
X6785714Y-65384819D01*
X6785714Y-65384819D02*
X6785714Y-66384819D01*
X5928571Y-66337200D02*
X6023809Y-66384819D01*
X6023809Y-66384819D02*
X6214285Y-66384819D01*
X6214285Y-66384819D02*
X6309523Y-66337200D01*
X6309523Y-66337200D02*
X6357142Y-66241961D01*
X6357142Y-66241961D02*
X6357142Y-65861009D01*
X6357142Y-65861009D02*
X6309523Y-65765771D01*
X6309523Y-65765771D02*
X6214285Y-65718152D01*
X6214285Y-65718152D02*
X6023809Y-65718152D01*
X6023809Y-65718152D02*
X5928571Y-65765771D01*
X5928571Y-65765771D02*
X5880952Y-65861009D01*
X5880952Y-65861009D02*
X5880952Y-65956247D01*
X5880952Y-65956247D02*
X6357142Y-66051485D01*
X5595237Y-65718152D02*
X5214285Y-65718152D01*
X5452380Y-65384819D02*
X5452380Y-66241961D01*
X5452380Y-66241961D02*
X5404761Y-66337200D01*
X5404761Y-66337200D02*
X5309523Y-66384819D01*
X5309523Y-66384819D02*
X5214285Y-66384819D01*
X4880951Y-66384819D02*
X4880951Y-65718152D01*
X4880951Y-65908628D02*
X4833332Y-65813390D01*
X4833332Y-65813390D02*
X4785713Y-65765771D01*
X4785713Y-65765771D02*
X4690475Y-65718152D01*
X4690475Y-65718152D02*
X4595237Y-65718152D01*
X4261903Y-66384819D02*
X4261903Y-65718152D01*
X4261903Y-65384819D02*
X4309522Y-65432438D01*
X4309522Y-65432438D02*
X4261903Y-65480057D01*
X4261903Y-65480057D02*
X4214284Y-65432438D01*
X4214284Y-65432438D02*
X4261903Y-65384819D01*
X4261903Y-65384819D02*
X4261903Y-65480057D01*
X3357142Y-66337200D02*
X3452380Y-66384819D01*
X3452380Y-66384819D02*
X3642856Y-66384819D01*
X3642856Y-66384819D02*
X3738094Y-66337200D01*
X3738094Y-66337200D02*
X3785713Y-66289580D01*
X3785713Y-66289580D02*
X3833332Y-66194342D01*
X3833332Y-66194342D02*
X3833332Y-65908628D01*
X3833332Y-65908628D02*
X3785713Y-65813390D01*
X3785713Y-65813390D02*
X3738094Y-65765771D01*
X3738094Y-65765771D02*
X3642856Y-65718152D01*
X3642856Y-65718152D02*
X3452380Y-65718152D01*
X3452380Y-65718152D02*
X3357142Y-65765771D01*
D11*
X10757142Y-64643832D02*
X10776190Y-64662880D01*
X10776190Y-64662880D02*
X10833332Y-64681927D01*
X10833332Y-64681927D02*
X10871428Y-64681927D01*
X10871428Y-64681927D02*
X10928571Y-64662880D01*
X10928571Y-64662880D02*
X10966666Y-64624784D01*
X10966666Y-64624784D02*
X10985713Y-64586689D01*
X10985713Y-64586689D02*
X11004761Y-64510499D01*
X11004761Y-64510499D02*
X11004761Y-64453356D01*
X11004761Y-64453356D02*
X10985713Y-64377165D01*
X10985713Y-64377165D02*
X10966666Y-64339070D01*
X10966666Y-64339070D02*
X10928571Y-64300975D01*
X10928571Y-64300975D02*
X10871428Y-64281927D01*
X10871428Y-64281927D02*
X10833332Y-64281927D01*
X10833332Y-64281927D02*
X10776190Y-64300975D01*
X10776190Y-64300975D02*
X10757142Y-64320022D01*
X10376190Y-64681927D02*
X10604761Y-64681927D01*
X10490475Y-64681927D02*
X10490475Y-64281927D01*
X10490475Y-64281927D02*
X10528571Y-64339070D01*
X10528571Y-64339070D02*
X10566666Y-64377165D01*
X10566666Y-64377165D02*
X10604761Y-64396213D01*
X9995238Y-64681927D02*
X10223809Y-64681927D01*
X10109523Y-64681927D02*
X10109523Y-64281927D01*
X10109523Y-64281927D02*
X10147619Y-64339070D01*
X10147619Y-64339070D02*
X10185714Y-64377165D01*
X10185714Y-64377165D02*
X10223809Y-64396213D01*
D10*
X23869047Y-58854819D02*
X23869047Y-57854819D01*
X23869047Y-57854819D02*
X23630952Y-57854819D01*
X23630952Y-57854819D02*
X23488095Y-57902438D01*
X23488095Y-57902438D02*
X23392857Y-57997676D01*
X23392857Y-57997676D02*
X23345238Y-58092914D01*
X23345238Y-58092914D02*
X23297619Y-58283390D01*
X23297619Y-58283390D02*
X23297619Y-58426247D01*
X23297619Y-58426247D02*
X23345238Y-58616723D01*
X23345238Y-58616723D02*
X23392857Y-58711961D01*
X23392857Y-58711961D02*
X23488095Y-58807200D01*
X23488095Y-58807200D02*
X23630952Y-58854819D01*
X23630952Y-58854819D02*
X23869047Y-58854819D01*
X23107143Y-58950057D02*
X22345238Y-58950057D01*
X22154761Y-58807200D02*
X22011904Y-58854819D01*
X22011904Y-58854819D02*
X21773809Y-58854819D01*
X21773809Y-58854819D02*
X21678571Y-58807200D01*
X21678571Y-58807200D02*
X21630952Y-58759580D01*
X21630952Y-58759580D02*
X21583333Y-58664342D01*
X21583333Y-58664342D02*
X21583333Y-58569104D01*
X21583333Y-58569104D02*
X21630952Y-58473866D01*
X21630952Y-58473866D02*
X21678571Y-58426247D01*
X21678571Y-58426247D02*
X21773809Y-58378628D01*
X21773809Y-58378628D02*
X21964285Y-58331009D01*
X21964285Y-58331009D02*
X22059523Y-58283390D01*
X22059523Y-58283390D02*
X22107142Y-58235771D01*
X22107142Y-58235771D02*
X22154761Y-58140533D01*
X22154761Y-58140533D02*
X22154761Y-58045295D01*
X22154761Y-58045295D02*
X22107142Y-57950057D01*
X22107142Y-57950057D02*
X22059523Y-57902438D01*
X22059523Y-57902438D02*
X21964285Y-57854819D01*
X21964285Y-57854819D02*
X21726190Y-57854819D01*
X21726190Y-57854819D02*
X21583333Y-57902438D01*
X21154761Y-58854819D02*
X21154761Y-57854819D01*
X21154761Y-57854819D02*
X20821428Y-58569104D01*
X20821428Y-58569104D02*
X20488095Y-57854819D01*
X20488095Y-57854819D02*
X20488095Y-58854819D01*
X20059523Y-58569104D02*
X19583333Y-58569104D01*
X20154761Y-58854819D02*
X19821428Y-57854819D01*
X19821428Y-57854819D02*
X19488095Y-58854819D01*
X22488094Y-63954819D02*
X22488094Y-62954819D01*
X22488094Y-62954819D02*
X22249999Y-62954819D01*
X22249999Y-62954819D02*
X22107142Y-63002438D01*
X22107142Y-63002438D02*
X22011904Y-63097676D01*
X22011904Y-63097676D02*
X21964285Y-63192914D01*
X21964285Y-63192914D02*
X21916666Y-63383390D01*
X21916666Y-63383390D02*
X21916666Y-63526247D01*
X21916666Y-63526247D02*
X21964285Y-63716723D01*
X21964285Y-63716723D02*
X22011904Y-63811961D01*
X22011904Y-63811961D02*
X22107142Y-63907200D01*
X22107142Y-63907200D02*
X22249999Y-63954819D01*
X22249999Y-63954819D02*
X22488094Y-63954819D01*
X21535713Y-63050057D02*
X21488094Y-63002438D01*
X21488094Y-63002438D02*
X21392856Y-62954819D01*
X21392856Y-62954819D02*
X21154761Y-62954819D01*
X21154761Y-62954819D02*
X21059523Y-63002438D01*
X21059523Y-63002438D02*
X21011904Y-63050057D01*
X21011904Y-63050057D02*
X20964285Y-63145295D01*
X20964285Y-63145295D02*
X20964285Y-63240533D01*
X20964285Y-63240533D02*
X21011904Y-63383390D01*
X21011904Y-63383390D02*
X21583332Y-63954819D01*
X21583332Y-63954819D02*
X20964285Y-63954819D01*
X29023810Y-66789580D02*
X29071429Y-66837200D01*
X29071429Y-66837200D02*
X29214286Y-66884819D01*
X29214286Y-66884819D02*
X29309524Y-66884819D01*
X29309524Y-66884819D02*
X29452381Y-66837200D01*
X29452381Y-66837200D02*
X29547619Y-66741961D01*
X29547619Y-66741961D02*
X29595238Y-66646723D01*
X29595238Y-66646723D02*
X29642857Y-66456247D01*
X29642857Y-66456247D02*
X29642857Y-66313390D01*
X29642857Y-66313390D02*
X29595238Y-66122914D01*
X29595238Y-66122914D02*
X29547619Y-66027676D01*
X29547619Y-66027676D02*
X29452381Y-65932438D01*
X29452381Y-65932438D02*
X29309524Y-65884819D01*
X29309524Y-65884819D02*
X29214286Y-65884819D01*
X29214286Y-65884819D02*
X29071429Y-65932438D01*
X29071429Y-65932438D02*
X29023810Y-65980057D01*
X28833334Y-66980057D02*
X28071429Y-66980057D01*
X27642857Y-65884819D02*
X27547619Y-65884819D01*
X27547619Y-65884819D02*
X27452381Y-65932438D01*
X27452381Y-65932438D02*
X27404762Y-65980057D01*
X27404762Y-65980057D02*
X27357143Y-66075295D01*
X27357143Y-66075295D02*
X27309524Y-66265771D01*
X27309524Y-66265771D02*
X27309524Y-66503866D01*
X27309524Y-66503866D02*
X27357143Y-66694342D01*
X27357143Y-66694342D02*
X27404762Y-66789580D01*
X27404762Y-66789580D02*
X27452381Y-66837200D01*
X27452381Y-66837200D02*
X27547619Y-66884819D01*
X27547619Y-66884819D02*
X27642857Y-66884819D01*
X27642857Y-66884819D02*
X27738095Y-66837200D01*
X27738095Y-66837200D02*
X27785714Y-66789580D01*
X27785714Y-66789580D02*
X27833333Y-66694342D01*
X27833333Y-66694342D02*
X27880952Y-66503866D01*
X27880952Y-66503866D02*
X27880952Y-66265771D01*
X27880952Y-66265771D02*
X27833333Y-66075295D01*
X27833333Y-66075295D02*
X27785714Y-65980057D01*
X27785714Y-65980057D02*
X27738095Y-65932438D01*
X27738095Y-65932438D02*
X27642857Y-65884819D01*
X26452381Y-65884819D02*
X26642857Y-65884819D01*
X26642857Y-65884819D02*
X26738095Y-65932438D01*
X26738095Y-65932438D02*
X26785714Y-65980057D01*
X26785714Y-65980057D02*
X26880952Y-66122914D01*
X26880952Y-66122914D02*
X26928571Y-66313390D01*
X26928571Y-66313390D02*
X26928571Y-66694342D01*
X26928571Y-66694342D02*
X26880952Y-66789580D01*
X26880952Y-66789580D02*
X26833333Y-66837200D01*
X26833333Y-66837200D02*
X26738095Y-66884819D01*
X26738095Y-66884819D02*
X26547619Y-66884819D01*
X26547619Y-66884819D02*
X26452381Y-66837200D01*
X26452381Y-66837200D02*
X26404762Y-66789580D01*
X26404762Y-66789580D02*
X26357143Y-66694342D01*
X26357143Y-66694342D02*
X26357143Y-66456247D01*
X26357143Y-66456247D02*
X26404762Y-66361009D01*
X26404762Y-66361009D02*
X26452381Y-66313390D01*
X26452381Y-66313390D02*
X26547619Y-66265771D01*
X26547619Y-66265771D02*
X26738095Y-66265771D01*
X26738095Y-66265771D02*
X26833333Y-66313390D01*
X26833333Y-66313390D02*
X26880952Y-66361009D01*
X26880952Y-66361009D02*
X26928571Y-66456247D01*
X25738095Y-65884819D02*
X25642857Y-65884819D01*
X25642857Y-65884819D02*
X25547619Y-65932438D01*
X25547619Y-65932438D02*
X25500000Y-65980057D01*
X25500000Y-65980057D02*
X25452381Y-66075295D01*
X25452381Y-66075295D02*
X25404762Y-66265771D01*
X25404762Y-66265771D02*
X25404762Y-66503866D01*
X25404762Y-66503866D02*
X25452381Y-66694342D01*
X25452381Y-66694342D02*
X25500000Y-66789580D01*
X25500000Y-66789580D02*
X25547619Y-66837200D01*
X25547619Y-66837200D02*
X25642857Y-66884819D01*
X25642857Y-66884819D02*
X25738095Y-66884819D01*
X25738095Y-66884819D02*
X25833333Y-66837200D01*
X25833333Y-66837200D02*
X25880952Y-66789580D01*
X25880952Y-66789580D02*
X25928571Y-66694342D01*
X25928571Y-66694342D02*
X25976190Y-66503866D01*
X25976190Y-66503866D02*
X25976190Y-66265771D01*
X25976190Y-66265771D02*
X25928571Y-66075295D01*
X25928571Y-66075295D02*
X25880952Y-65980057D01*
X25880952Y-65980057D02*
X25833333Y-65932438D01*
X25833333Y-65932438D02*
X25738095Y-65884819D01*
X25071428Y-65884819D02*
X24452381Y-65884819D01*
X24452381Y-65884819D02*
X24785714Y-66265771D01*
X24785714Y-66265771D02*
X24642857Y-66265771D01*
X24642857Y-66265771D02*
X24547619Y-66313390D01*
X24547619Y-66313390D02*
X24500000Y-66361009D01*
X24500000Y-66361009D02*
X24452381Y-66456247D01*
X24452381Y-66456247D02*
X24452381Y-66694342D01*
X24452381Y-66694342D02*
X24500000Y-66789580D01*
X24500000Y-66789580D02*
X24547619Y-66837200D01*
X24547619Y-66837200D02*
X24642857Y-66884819D01*
X24642857Y-66884819D02*
X24928571Y-66884819D01*
X24928571Y-66884819D02*
X25023809Y-66837200D01*
X25023809Y-66837200D02*
X25071428Y-66789580D01*
X24261905Y-66980057D02*
X23500000Y-66980057D01*
X22738095Y-66884819D02*
X23309523Y-66884819D01*
X23023809Y-66884819D02*
X23023809Y-65884819D01*
X23023809Y-65884819D02*
X23119047Y-66027676D01*
X23119047Y-66027676D02*
X23214285Y-66122914D01*
X23214285Y-66122914D02*
X23309523Y-66170533D01*
X21880952Y-65884819D02*
X22071428Y-65884819D01*
X22071428Y-65884819D02*
X22166666Y-65932438D01*
X22166666Y-65932438D02*
X22214285Y-65980057D01*
X22214285Y-65980057D02*
X22309523Y-66122914D01*
X22309523Y-66122914D02*
X22357142Y-66313390D01*
X22357142Y-66313390D02*
X22357142Y-66694342D01*
X22357142Y-66694342D02*
X22309523Y-66789580D01*
X22309523Y-66789580D02*
X22261904Y-66837200D01*
X22261904Y-66837200D02*
X22166666Y-66884819D01*
X22166666Y-66884819D02*
X21976190Y-66884819D01*
X21976190Y-66884819D02*
X21880952Y-66837200D01*
X21880952Y-66837200D02*
X21833333Y-66789580D01*
X21833333Y-66789580D02*
X21785714Y-66694342D01*
X21785714Y-66694342D02*
X21785714Y-66456247D01*
X21785714Y-66456247D02*
X21833333Y-66361009D01*
X21833333Y-66361009D02*
X21880952Y-66313390D01*
X21880952Y-66313390D02*
X21976190Y-66265771D01*
X21976190Y-66265771D02*
X22166666Y-66265771D01*
X22166666Y-66265771D02*
X22261904Y-66313390D01*
X22261904Y-66313390D02*
X22309523Y-66361009D01*
X22309523Y-66361009D02*
X22357142Y-66456247D01*
X21166666Y-65884819D02*
X21071428Y-65884819D01*
X21071428Y-65884819D02*
X20976190Y-65932438D01*
X20976190Y-65932438D02*
X20928571Y-65980057D01*
X20928571Y-65980057D02*
X20880952Y-66075295D01*
X20880952Y-66075295D02*
X20833333Y-66265771D01*
X20833333Y-66265771D02*
X20833333Y-66503866D01*
X20833333Y-66503866D02*
X20880952Y-66694342D01*
X20880952Y-66694342D02*
X20928571Y-66789580D01*
X20928571Y-66789580D02*
X20976190Y-66837200D01*
X20976190Y-66837200D02*
X21071428Y-66884819D01*
X21071428Y-66884819D02*
X21166666Y-66884819D01*
X21166666Y-66884819D02*
X21261904Y-66837200D01*
X21261904Y-66837200D02*
X21309523Y-66789580D01*
X21309523Y-66789580D02*
X21357142Y-66694342D01*
X21357142Y-66694342D02*
X21404761Y-66503866D01*
X21404761Y-66503866D02*
X21404761Y-66265771D01*
X21404761Y-66265771D02*
X21357142Y-66075295D01*
X21357142Y-66075295D02*
X21309523Y-65980057D01*
X21309523Y-65980057D02*
X21261904Y-65932438D01*
X21261904Y-65932438D02*
X21166666Y-65884819D01*
X20261904Y-66313390D02*
X20357142Y-66265771D01*
X20357142Y-66265771D02*
X20404761Y-66218152D01*
X20404761Y-66218152D02*
X20452380Y-66122914D01*
X20452380Y-66122914D02*
X20452380Y-66075295D01*
X20452380Y-66075295D02*
X20404761Y-65980057D01*
X20404761Y-65980057D02*
X20357142Y-65932438D01*
X20357142Y-65932438D02*
X20261904Y-65884819D01*
X20261904Y-65884819D02*
X20071428Y-65884819D01*
X20071428Y-65884819D02*
X19976190Y-65932438D01*
X19976190Y-65932438D02*
X19928571Y-65980057D01*
X19928571Y-65980057D02*
X19880952Y-66075295D01*
X19880952Y-66075295D02*
X19880952Y-66122914D01*
X19880952Y-66122914D02*
X19928571Y-66218152D01*
X19928571Y-66218152D02*
X19976190Y-66265771D01*
X19976190Y-66265771D02*
X20071428Y-66313390D01*
X20071428Y-66313390D02*
X20261904Y-66313390D01*
X20261904Y-66313390D02*
X20357142Y-66361009D01*
X20357142Y-66361009D02*
X20404761Y-66408628D01*
X20404761Y-66408628D02*
X20452380Y-66503866D01*
X20452380Y-66503866D02*
X20452380Y-66694342D01*
X20452380Y-66694342D02*
X20404761Y-66789580D01*
X20404761Y-66789580D02*
X20357142Y-66837200D01*
X20357142Y-66837200D02*
X20261904Y-66884819D01*
X20261904Y-66884819D02*
X20071428Y-66884819D01*
X20071428Y-66884819D02*
X19976190Y-66837200D01*
X19976190Y-66837200D02*
X19928571Y-66789580D01*
X19928571Y-66789580D02*
X19880952Y-66694342D01*
X19880952Y-66694342D02*
X19880952Y-66503866D01*
X19880952Y-66503866D02*
X19928571Y-66408628D01*
X19928571Y-66408628D02*
X19976190Y-66361009D01*
X19976190Y-66361009D02*
X20071428Y-66313390D01*
X19452380Y-66884819D02*
X19452380Y-65884819D01*
X19452380Y-65884819D02*
X19119047Y-66599104D01*
X19119047Y-66599104D02*
X18785714Y-65884819D01*
X18785714Y-65884819D02*
X18785714Y-66884819D01*
X17928571Y-66837200D02*
X18023809Y-66884819D01*
X18023809Y-66884819D02*
X18214285Y-66884819D01*
X18214285Y-66884819D02*
X18309523Y-66837200D01*
X18309523Y-66837200D02*
X18357142Y-66741961D01*
X18357142Y-66741961D02*
X18357142Y-66361009D01*
X18357142Y-66361009D02*
X18309523Y-66265771D01*
X18309523Y-66265771D02*
X18214285Y-66218152D01*
X18214285Y-66218152D02*
X18023809Y-66218152D01*
X18023809Y-66218152D02*
X17928571Y-66265771D01*
X17928571Y-66265771D02*
X17880952Y-66361009D01*
X17880952Y-66361009D02*
X17880952Y-66456247D01*
X17880952Y-66456247D02*
X18357142Y-66551485D01*
X17595237Y-66218152D02*
X17214285Y-66218152D01*
X17452380Y-65884819D02*
X17452380Y-66741961D01*
X17452380Y-66741961D02*
X17404761Y-66837200D01*
X17404761Y-66837200D02*
X17309523Y-66884819D01*
X17309523Y-66884819D02*
X17214285Y-66884819D01*
X16880951Y-66884819D02*
X16880951Y-66218152D01*
X16880951Y-66408628D02*
X16833332Y-66313390D01*
X16833332Y-66313390D02*
X16785713Y-66265771D01*
X16785713Y-66265771D02*
X16690475Y-66218152D01*
X16690475Y-66218152D02*
X16595237Y-66218152D01*
X16261903Y-66884819D02*
X16261903Y-66218152D01*
X16261903Y-65884819D02*
X16309522Y-65932438D01*
X16309522Y-65932438D02*
X16261903Y-65980057D01*
X16261903Y-65980057D02*
X16214284Y-65932438D01*
X16214284Y-65932438D02*
X16261903Y-65884819D01*
X16261903Y-65884819D02*
X16261903Y-65980057D01*
X15357142Y-66837200D02*
X15452380Y-66884819D01*
X15452380Y-66884819D02*
X15642856Y-66884819D01*
X15642856Y-66884819D02*
X15738094Y-66837200D01*
X15738094Y-66837200D02*
X15785713Y-66789580D01*
X15785713Y-66789580D02*
X15833332Y-66694342D01*
X15833332Y-66694342D02*
X15833332Y-66408628D01*
X15833332Y-66408628D02*
X15785713Y-66313390D01*
X15785713Y-66313390D02*
X15738094Y-66265771D01*
X15738094Y-66265771D02*
X15642856Y-66218152D01*
X15642856Y-66218152D02*
X15452380Y-66218152D01*
X15452380Y-66218152D02*
X15357142Y-66265771D01*
D11*
X22566666Y-65143832D02*
X22585714Y-65162880D01*
X22585714Y-65162880D02*
X22642856Y-65181927D01*
X22642856Y-65181927D02*
X22680952Y-65181927D01*
X22680952Y-65181927D02*
X22738095Y-65162880D01*
X22738095Y-65162880D02*
X22776190Y-65124784D01*
X22776190Y-65124784D02*
X22795237Y-65086689D01*
X22795237Y-65086689D02*
X22814285Y-65010499D01*
X22814285Y-65010499D02*
X22814285Y-64953356D01*
X22814285Y-64953356D02*
X22795237Y-64877165D01*
X22795237Y-64877165D02*
X22776190Y-64839070D01*
X22776190Y-64839070D02*
X22738095Y-64800975D01*
X22738095Y-64800975D02*
X22680952Y-64781927D01*
X22680952Y-64781927D02*
X22642856Y-64781927D01*
X22642856Y-64781927D02*
X22585714Y-64800975D01*
X22585714Y-64800975D02*
X22566666Y-64820022D01*
X22414285Y-64820022D02*
X22395237Y-64800975D01*
X22395237Y-64800975D02*
X22357142Y-64781927D01*
X22357142Y-64781927D02*
X22261904Y-64781927D01*
X22261904Y-64781927D02*
X22223809Y-64800975D01*
X22223809Y-64800975D02*
X22204761Y-64820022D01*
X22204761Y-64820022D02*
X22185714Y-64858118D01*
X22185714Y-64858118D02*
X22185714Y-64896213D01*
X22185714Y-64896213D02*
X22204761Y-64953356D01*
X22204761Y-64953356D02*
X22433333Y-65181927D01*
X22433333Y-65181927D02*
X22185714Y-65181927D01*
D13*
%TO.C,D1*%
X8000000Y-60100000D02*
X10800000Y-60100000D01*
X8000000Y-61900000D02*
X8000000Y-60100000D01*
X8650000Y-61000000D02*
X9050000Y-61000000D01*
X9050000Y-61000000D02*
X9050000Y-60450000D01*
X9050000Y-61000000D02*
X9050000Y-61550000D01*
X9050000Y-61000000D02*
X9650000Y-60600000D01*
X9650000Y-60600000D02*
X9650000Y-61400000D01*
X9650000Y-61000000D02*
X10150000Y-61000000D01*
X9650000Y-61400000D02*
X9050000Y-61000000D01*
X10800000Y-60100000D02*
X10800000Y-61900000D01*
X10800000Y-61900000D02*
X8000000Y-61900000D01*
%TO.C,F1*%
X12700000Y-59400000D02*
X17200000Y-59400000D01*
X12700000Y-62600000D02*
X12700000Y-59400000D01*
X17200000Y-59400000D02*
X17200000Y-62600000D01*
X17200000Y-62600000D02*
X12700000Y-62600000D01*
%TO.C,R1*%
X27500000Y-60587500D02*
X29100000Y-60587500D01*
X27500000Y-61412500D02*
X27500000Y-60587500D01*
X29100000Y-60587500D02*
X29100000Y-61412500D01*
X29100000Y-61412500D02*
X27500000Y-61412500D01*
%TO.C,R3*%
X29700000Y-11587500D02*
X31300000Y-11587500D01*
X29700000Y-12412500D02*
X29700000Y-11587500D01*
X31300000Y-11587500D02*
X31300000Y-12412500D01*
X31300000Y-12412500D02*
X29700000Y-12412500D01*
%TO.C,C1*%
X13400000Y-64200000D02*
X16600000Y-64200000D01*
X13400000Y-65800000D02*
X13400000Y-64200000D01*
X16600000Y-64200000D02*
X16600000Y-65800000D01*
X16600000Y-65800000D02*
X13400000Y-65800000D01*
%TO.C,J2*%
X850000Y-8875000D02*
X850000Y-17125000D01*
X4192893Y-11125000D02*
X4900000Y-11625000D01*
X4900000Y-8875000D02*
X850000Y-8875000D01*
X4900000Y-8875000D02*
X4900000Y-17125000D01*
X4900000Y-10625000D02*
X4192893Y-11125000D01*
X4900000Y-17125000D02*
X850000Y-17125000D01*
%TO.C,R2*%
X31100000Y-60587500D02*
X32700000Y-60587500D01*
X31100000Y-61412500D02*
X31100000Y-60587500D01*
X32700000Y-60587500D02*
X32700000Y-61412500D01*
X32700000Y-61412500D02*
X31100000Y-61412500D01*
%TO.C,R4*%
X29700000Y-8587500D02*
X31300000Y-8587500D01*
X29700000Y-9412500D02*
X29700000Y-8587500D01*
X31300000Y-8587500D02*
X31300000Y-9412500D01*
X31300000Y-9412500D02*
X29700000Y-9412500D01*
%TO.C,J1*%
X6275000Y-63530000D02*
X-1075000Y-63530000D01*
X-1075000Y-72470000D01*
X6275000Y-72470000D01*
X6275000Y-63530000D01*
%TO.C,C8*%
X33200000Y-10100000D02*
X34800000Y-10100000D01*
X33200000Y-10900000D02*
X33200000Y-10100000D01*
X34800000Y-10100000D02*
X34800000Y-10900000D01*
X34800000Y-10900000D02*
X33200000Y-10900000D01*
%TO.C,C11*%
X9700000Y-64100000D02*
X11300000Y-64100000D01*
X9700000Y-64900000D02*
X9700000Y-64100000D01*
X11300000Y-64100000D02*
X11300000Y-64900000D01*
X11300000Y-64900000D02*
X9700000Y-64900000D01*
%TO.C,D2*%
X19450000Y-59500000D02*
X24050000Y-59500000D01*
X19450000Y-62500000D02*
X19450000Y-59500000D01*
X19450000Y-62500000D02*
X24050000Y-62500000D01*
X21248820Y-60249680D02*
X21248820Y-61799080D01*
X21248820Y-60998980D02*
X20250600Y-60998980D01*
X22399440Y-60998980D02*
X21248820Y-60249680D01*
X22399440Y-60998980D02*
X21248820Y-61799080D01*
X22399440Y-60998980D02*
X23301140Y-60998980D01*
X22399440Y-61799080D02*
X22399440Y-60198880D01*
X24050000Y-59500000D02*
X24050000Y-62500000D01*
%TO.C,C2*%
X21700000Y-64600000D02*
X23300000Y-64600000D01*
X21700000Y-65400000D02*
X21700000Y-64600000D01*
X23300000Y-64600000D02*
X23300000Y-65400000D01*
X23300000Y-65400000D02*
X21700000Y-65400000D01*
%TD*%
M02*
