%TF.GenerationSoftware,KiCad,Pcbnew,9.0.9.1-unknown-202605141413~ce707d0a6c~ubuntu24.04.1*%
%TF.CreationDate,2026-09-12T18:13:10+00:00*%
%TF.ProjectId,spool-sentry,73706f6f-6c2d-4736-956e-7472792e6b69,rev?*%
%TF.SameCoordinates,Original*%
%TF.FileFunction,Copper,L1,Top*%
%TF.FilePolarity,Positive*%
%FSLAX46Y46*%
G04 Gerber Fmt 4.6, Leading zero omitted, Abs format (unit mm)*
G04 Created by KiCad (PCBNEW 9.0.9.1-unknown-202605141413~ce707d0a6c~ubuntu24.04.1) date 2026-09-12 18:13:10*
%MOMM*%
%LPD*%
G01*
G04 APERTURE LIST*
G04 Aperture macros list*
%AMRoundRect*
0 Rectangle with rounded corners*
0 $1 Rounding radius*
0 $2 $3 $4 $5 $6 $7 $8 $9 X,Y pos of 4 corners*
0 Add a 4 corners polygon primitive as box body*
4,1,4,$2,$3,$4,$5,$6,$7,$8,$9,$2,$3,0*
0 Add four circle primitives for the rounded corners*
1,1,$1+$1,$2,$3*
1,1,$1+$1,$4,$5*
1,1,$1+$1,$6,$7*
1,1,$1+$1,$8,$9*
0 Add four rect primitives between the rounded corners*
20,1,$1+$1,$2,$3,$4,$5,0*
20,1,$1+$1,$4,$5,$6,$7,0*
20,1,$1+$1,$6,$7,$8,$9,0*
20,1,$1+$1,$8,$9,$2,$3,0*%
G04 Aperture macros list end*
%TA.AperFunction,SMDPad,CuDef*%
%ADD10RoundRect,0.225000X0.250000X-0.225000X0.250000X0.225000X-0.250000X0.225000X-0.250000X-0.225000X0*%
%TD*%
%TA.AperFunction,SMDPad,CuDef*%
%ADD11R,1.050000X0.650000*%
%TD*%
%TA.AperFunction,SMDPad,CuDef*%
%ADD12C,1.500000*%
%TD*%
%TA.AperFunction,ComponentPad*%
%ADD13R,1.700000X1.700000*%
%TD*%
%TA.AperFunction,ComponentPad*%
%ADD14O,1.700000X1.700000*%
%TD*%
%TA.AperFunction,SMDPad,CuDef*%
%ADD15RoundRect,0.200000X-0.200000X-0.275000X0.200000X-0.275000X0.200000X0.275000X-0.200000X0.275000X0*%
%TD*%
%TA.AperFunction,SMDPad,CuDef*%
%ADD16RoundRect,0.150000X-0.825000X-0.150000X0.825000X-0.150000X0.825000X0.150000X-0.825000X0.150000X0*%
%TD*%
%TA.AperFunction,SMDPad,CuDef*%
%ADD17R,1.600000X0.500000*%
%TD*%
%TA.AperFunction,SMDPad,CuDef*%
%ADD18RoundRect,0.225000X-0.225000X-0.250000X0.225000X-0.250000X0.225000X0.250000X-0.225000X0.250000X0*%
%TD*%
%TA.AperFunction,SMDPad,CuDef*%
%ADD19R,3.150000X1.000000*%
%TD*%
%TA.AperFunction,ComponentPad*%
%ADD20O,2.500000X1.500000*%
%TD*%
%TA.AperFunction,SMDPad,CuDef*%
%ADD21R,0.300000X0.500000*%
%TD*%
%TA.AperFunction,SMDPad,CuDef*%
%ADD22RoundRect,0.250000X-0.325000X-0.650000X0.325000X-0.650000X0.325000X0.650000X-0.325000X0.650000X0*%
%TD*%
%TA.AperFunction,SMDPad,CuDef*%
%ADD23RoundRect,0.250000X-0.300000X-0.300000X0.300000X-0.300000X0.300000X0.300000X-0.300000X0.300000X0*%
%TD*%
%TA.AperFunction,SMDPad,CuDef*%
%ADD24RoundRect,0.250000X0.312500X1.450000X-0.312500X1.450000X-0.312500X-1.450000X0.312500X-1.450000X0*%
%TD*%
%TA.AperFunction,SMDPad,CuDef*%
%ADD25RoundRect,0.150000X-0.700000X0.150000X-0.700000X-0.150000X0.700000X-0.150000X0.700000X0.150000X0*%
%TD*%
%TA.AperFunction,SMDPad,CuDef*%
%ADD26RoundRect,0.250000X-1.100000X0.250000X-1.100000X-0.250000X1.100000X-0.250000X1.100000X0.250000X0*%
%TD*%
%TA.AperFunction,SMDPad,CuDef*%
%ADD27RoundRect,0.150000X-0.425000X0.150000X-0.425000X-0.150000X0.425000X-0.150000X0.425000X0.150000X0*%
%TD*%
%TA.AperFunction,SMDPad,CuDef*%
%ADD28RoundRect,0.075000X-0.500000X0.075000X-0.500000X-0.075000X0.500000X-0.075000X0.500000X0.075000X0*%
%TD*%
%TA.AperFunction,ComponentPad*%
%ADD29O,2.100000X1.000000*%
%TD*%
%TA.AperFunction,ComponentPad*%
%ADD30O,1.800000X1.000000*%
%TD*%
%TA.AperFunction,SMDPad,CuDef*%
%ADD31RoundRect,0.250000X1.000000X0.650000X-1.000000X0.650000X-1.000000X-0.650000X1.000000X-0.650000X0*%
%TD*%
%TA.AperFunction,ViaPad*%
%ADD32C,0.600000*%
%TD*%
%TA.AperFunction,Conductor*%
%ADD33C,0.200000*%
%TD*%
G04 APERTURE END LIST*
D10*
%TO.P,C5,1*%
%TO.N,+3V3*%
X41500000Y-17275000D03*
%TO.P,C5,2*%
%TO.N,GND*%
X41500000Y-15725000D03*
%TD*%
D11*
%TO.P,SW1,1*%
%TO.N,BUTTON_N*%
X43925000Y-67925000D03*
X48075000Y-67925000D03*
%TO.P,SW1,2*%
%TO.N,GND*%
X43925000Y-70075000D03*
X48075000Y-70075000D03*
%TD*%
D12*
%TO.P,TP8,1*%
%TO.N,AIN+*%
X41000000Y-12000000D03*
%TD*%
D13*
%TO.P,J3,1*%
%TO.N,+3V3*%
X46000000Y-3500000D03*
D14*
%TO.P,J3,2*%
%TO.N,GND*%
X46000000Y-6040000D03*
%TO.P,J3,3*%
%TO.N,UART_TX*%
X46000000Y-8580000D03*
%TO.P,J3,4*%
%TO.N,UART_RX*%
X46000000Y-11120000D03*
%TD*%
D15*
%TO.P,R8,1*%
%TO.N,LED_R_GPIO*%
X53575000Y-64500000D03*
%TO.P,R8,2*%
%TO.N,LED_R_K*%
X55225000Y-64500000D03*
%TD*%
D12*
%TO.P,TP1,1*%
%TO.N,VBUS*%
X12000000Y-69500000D03*
%TD*%
D16*
%TO.P,U2,1*%
%TO.N,AVDD_3V0*%
X34025000Y-16555000D03*
%TO.P,U2,2*%
%TO.N,AIN-*%
X34025000Y-17825000D03*
%TO.P,U2,3*%
%TO.N,AIN+*%
X34025000Y-19095000D03*
%TO.P,U2,4*%
%TO.N,__unnamed_11*%
X34025000Y-20365000D03*
%TO.P,U2,5*%
%TO.N,PGA_CFILTER*%
X34025000Y-21635000D03*
%TO.P,U2,6*%
%TO.N,VBG*%
X34025000Y-22905000D03*
%TO.P,U2,7*%
%TO.N,GND*%
X34025000Y-24175000D03*
%TO.P,U2,8*%
X34025000Y-25445000D03*
%TO.P,U2,9*%
X38975000Y-25445000D03*
%TO.P,U2,10*%
%TO.N,__unnamed_12*%
X38975000Y-24175000D03*
%TO.P,U2,11*%
%TO.N,__unnamed_13*%
X38975000Y-22905000D03*
%TO.P,U2,12*%
%TO.N,__unnamed_14*%
X38975000Y-21635000D03*
%TO.P,U2,13*%
%TO.N,I2C_SCL*%
X38975000Y-20365000D03*
%TO.P,U2,14*%
%TO.N,I2C_SDA*%
X38975000Y-19095000D03*
%TO.P,U2,15*%
%TO.N,+3V3*%
X38975000Y-17825000D03*
%TO.P,U2,16*%
%TO.N,AVDD_3V0*%
X38975000Y-16555000D03*
%TD*%
D10*
%TO.P,C6,1*%
%TO.N,AVDD_3V0*%
X32000000Y-17775000D03*
%TO.P,C6,2*%
%TO.N,GND*%
X32000000Y-16225000D03*
%TD*%
D15*
%TO.P,R6,1*%
%TO.N,+3V3*%
X38175000Y-31600000D03*
%TO.P,R6,2*%
%TO.N,I2C_SCL*%
X39825000Y-31600000D03*
%TD*%
D12*
%TO.P,TP2,1*%
%TO.N,+5V_XIAO*%
X40000000Y-40500000D03*
%TD*%
D15*
%TO.P,R7,1*%
%TO.N,+3V3*%
X50675000Y-69000000D03*
%TO.P,R7,2*%
%TO.N,BUTTON_N*%
X52325000Y-69000000D03*
%TD*%
D12*
%TO.P,TP9,1*%
%TO.N,AIN-*%
X41000000Y-9000000D03*
%TD*%
D15*
%TO.P,R9,1*%
%TO.N,LED_G_GPIO*%
X56875000Y-64500000D03*
%TO.P,R9,2*%
%TO.N,LED_G_K*%
X58525000Y-64500000D03*
%TD*%
D17*
%TO.P,D3,1*%
%TO.N,LED_B_K*%
X54525000Y-67100000D03*
%TO.P,D3,2*%
%TO.N,LED_G_K*%
X54525000Y-68000000D03*
%TO.P,D3,3*%
%TO.N,LED_R_K*%
X54525000Y-68900000D03*
%TO.P,D3,4*%
%TO.N,+3V3*%
X57475000Y-68900000D03*
%TO.P,D3,5*%
X57475000Y-68000000D03*
%TO.P,D3,6*%
X57475000Y-67100000D03*
%TD*%
D12*
%TO.P,TP7,1*%
%TO.N,I2C_SCL*%
X8500000Y-34000000D03*
%TD*%
D18*
%TO.P,C10,1*%
%TO.N,BUTTON_N*%
X50725000Y-71500000D03*
%TO.P,C10,2*%
%TO.N,GND*%
X52275000Y-71500000D03*
%TD*%
D12*
%TO.P,TP4,1*%
%TO.N,GND*%
X40000000Y-47500000D03*
%TD*%
%TO.P,TP6,1*%
%TO.N,I2C_SDA*%
X6000000Y-34000000D03*
%TD*%
%TO.P,TP10,1*%
%TO.N,VBG*%
X30000000Y-21000000D03*
%TD*%
%TO.P,TP3,1*%
%TO.N,+3V3*%
X40000000Y-44000000D03*
%TD*%
%TO.P,TP5,1*%
%TO.N,AVDD_3V0*%
X27500000Y-21000000D03*
%TD*%
D19*
%TO.P,U1,1*%
%TO.N,__unnamed_8*%
X14900000Y-37580000D03*
%TO.P,U1,2*%
%TO.N,BUTTON_N*%
X14900000Y-40120000D03*
%TO.P,U1,3*%
%TO.N,LED_R_GPIO*%
X14900000Y-42660000D03*
%TO.P,U1,4*%
%TO.N,LED_G_GPIO*%
X14900000Y-45200000D03*
%TO.P,U1,5*%
%TO.N,I2C_SDA*%
X14900000Y-47740000D03*
%TO.P,U1,6*%
%TO.N,I2C_SCL*%
X14900000Y-50280000D03*
%TO.P,U1,7*%
%TO.N,UART_TX*%
X14900000Y-52820000D03*
%TO.P,U1,8*%
%TO.N,UART_RX*%
X30925000Y-52820000D03*
%TO.P,U1,9*%
%TO.N,__unnamed_10*%
X30925000Y-50280000D03*
%TO.P,U1,10*%
%TO.N,__unnamed_9*%
X30925000Y-47740000D03*
%TO.P,U1,11*%
%TO.N,LED_B_GPIO*%
X30925000Y-45200000D03*
%TO.P,U1,12*%
%TO.N,+3V3*%
X30925000Y-42660000D03*
%TO.P,U1,13*%
%TO.N,GND*%
X30925000Y-40120000D03*
%TO.P,U1,14*%
%TO.N,+5V_XIAO*%
X30925000Y-37580000D03*
D20*
%TO.P,U1,B+*%
%TO.N,__unnamed_6*%
X18560000Y-44900000D03*
%TO.P,U1,B-*%
%TO.N,__unnamed_7*%
X18571000Y-43000000D03*
%TD*%
D15*
%TO.P,R5,1*%
%TO.N,+3V3*%
X34675000Y-31600000D03*
%TO.P,R5,2*%
%TO.N,I2C_SDA*%
X36325000Y-31600000D03*
%TD*%
D10*
%TO.P,C4,1*%
%TO.N,+3V3*%
X41500000Y-20775000D03*
%TO.P,C4,2*%
%TO.N,GND*%
X41500000Y-19225000D03*
%TD*%
D21*
%TO.P,U3,1*%
%TO.N,I2C_SDA*%
X61600000Y-44700000D03*
%TO.P,U3,2*%
%TO.N,I2C_SCL*%
X62400000Y-44700000D03*
%TO.P,U3,3*%
%TO.N,+3V3*%
X62400000Y-43300000D03*
%TO.P,U3,4*%
%TO.N,GND*%
X61600000Y-43300000D03*
%TD*%
D10*
%TO.P,C9,1*%
%TO.N,PGA_CFILTER*%
X41500000Y-28275000D03*
%TO.P,C9,2*%
%TO.N,VBG*%
X41500000Y-26725000D03*
%TD*%
D22*
%TO.P,C3,1*%
%TO.N,+3V3*%
X34525000Y-40500000D03*
%TO.P,C3,2*%
%TO.N,GND*%
X37475000Y-40500000D03*
%TD*%
D15*
%TO.P,R10,1*%
%TO.N,LED_B_GPIO*%
X60175000Y-64500000D03*
%TO.P,R10,2*%
%TO.N,LED_B_K*%
X61825000Y-64500000D03*
%TD*%
D10*
%TO.P,C7,1*%
%TO.N,VBG*%
X41500000Y-24775000D03*
%TO.P,C7,2*%
%TO.N,GND*%
X41500000Y-23225000D03*
%TD*%
D23*
%TO.P,D1,1*%
%TO.N,VBUS*%
X8000000Y-61000000D03*
%TO.P,D1,2*%
%TO.N,GND*%
X10800000Y-61000000D03*
%TD*%
D24*
%TO.P,F1,1*%
%TO.N,VBUS*%
X17087500Y-61000000D03*
%TO.P,F1,2*%
%TO.N,VBUS_FUSED*%
X12812500Y-61000000D03*
%TD*%
D15*
%TO.P,R1,1*%
%TO.N,CC1*%
X27475000Y-61000000D03*
%TO.P,R1,2*%
%TO.N,GND*%
X29125000Y-61000000D03*
%TD*%
%TO.P,R3,1*%
%TO.N,LC_S+*%
X29675000Y-12000000D03*
%TO.P,R3,2*%
%TO.N,AIN+*%
X31325000Y-12000000D03*
%TD*%
D22*
%TO.P,C1,1*%
%TO.N,+5V_XIAO*%
X13525000Y-65000000D03*
%TO.P,C1,2*%
%TO.N,GND*%
X16475000Y-65000000D03*
%TD*%
D25*
%TO.P,J2,1*%
%TO.N,AVDD_3V0*%
X5150000Y-11125000D03*
%TO.P,J2,2*%
%TO.N,GND*%
X5150000Y-12375000D03*
%TO.P,J2,3*%
%TO.N,LC_S+*%
X5150000Y-13625000D03*
%TO.P,J2,4*%
%TO.N,LC_S-*%
X5150000Y-14875000D03*
D26*
%TO.P,J2,MP*%
%TO.N,GND*%
X1950000Y-9275000D03*
X1950000Y-16725000D03*
%TD*%
D15*
%TO.P,R2,1*%
%TO.N,CC2*%
X31075000Y-61000000D03*
%TO.P,R2,2*%
%TO.N,GND*%
X32725000Y-61000000D03*
%TD*%
%TO.P,R4,1*%
%TO.N,LC_S-*%
X29675000Y-9000000D03*
%TO.P,R4,2*%
%TO.N,AIN-*%
X31325000Y-9000000D03*
%TD*%
D27*
%TO.P,J1,A1*%
%TO.N,GND*%
X6280000Y-64800000D03*
%TO.P,J1,A4*%
%TO.N,VBUS*%
X6280000Y-65600000D03*
D28*
%TO.P,J1,A5*%
%TO.N,CC1*%
X6280000Y-66750000D03*
%TO.P,J1,A6*%
%TO.N,__unnamed_0*%
X6280000Y-67750000D03*
%TO.P,J1,A7*%
%TO.N,__unnamed_1*%
X6280000Y-68250000D03*
%TO.P,J1,A8*%
%TO.N,__unnamed_2*%
X6280000Y-69250000D03*
D27*
%TO.P,J1,A9*%
%TO.N,VBUS*%
X6280000Y-70400000D03*
%TO.P,J1,A12*%
%TO.N,GND*%
X6280000Y-71200000D03*
%TO.P,J1,B1*%
X6280000Y-71200000D03*
%TO.P,J1,B4*%
%TO.N,VBUS*%
X6280000Y-70400000D03*
D28*
%TO.P,J1,B5*%
%TO.N,CC2*%
X6280000Y-69750000D03*
%TO.P,J1,B6*%
%TO.N,__unnamed_3*%
X6280000Y-68750000D03*
%TO.P,J1,B7*%
%TO.N,__unnamed_4*%
X6280000Y-67250000D03*
%TO.P,J1,B8*%
%TO.N,__unnamed_5*%
X6280000Y-66250000D03*
D27*
%TO.P,J1,B9*%
%TO.N,VBUS*%
X6280000Y-65600000D03*
%TO.P,J1,B12*%
%TO.N,GND*%
X6280000Y-64800000D03*
D29*
%TO.P,J1,S1*%
X5705000Y-63680000D03*
D30*
X1525000Y-63680000D03*
D29*
X5705000Y-72320000D03*
D30*
X1525000Y-72320000D03*
%TD*%
D18*
%TO.P,C8,1*%
%TO.N,AIN+*%
X33225000Y-10500000D03*
%TO.P,C8,2*%
%TO.N,AIN-*%
X34775000Y-10500000D03*
%TD*%
%TO.P,C11,1*%
%TO.N,VBUS*%
X9725000Y-64500000D03*
%TO.P,C11,2*%
%TO.N,GND*%
X11275000Y-64500000D03*
%TD*%
D31*
%TO.P,D2,1*%
%TO.N,+5V_XIAO*%
X23750000Y-61000000D03*
%TO.P,D2,2*%
%TO.N,VBUS_FUSED*%
X19750000Y-61000000D03*
%TD*%
D18*
%TO.P,C2,1*%
%TO.N,+5V_XIAO*%
X21725000Y-65000000D03*
%TO.P,C2,2*%
%TO.N,GND*%
X23275000Y-65000000D03*
%TD*%
D32*
%TO.N,+3V3*%
X42412300Y-8942700D03*
%TO.N,+5V_XIAO*%
X41758000Y-50392000D03*
X24365600Y-53407000D03*
%TO.N,BUTTON_N*%
X27435700Y-47117000D03*
X33469800Y-49680200D03*
%TO.N,I2C_SCL*%
X39514000Y-33381500D03*
X12168300Y-41235600D03*
%TO.N,I2C_SDA*%
X18869300Y-47361800D03*
X36000000Y-41250800D03*
%TO.N,LED_G_GPIO*%
X55865100Y-62246000D03*
X16822400Y-46708000D03*
%TO.N,UART_RX*%
X35878800Y-49680200D03*
X47561000Y-44560700D03*
%TO.N,UART_TX*%
X15730700Y-15805800D03*
%TD*%
D33*
%TO.N,+3V3*%
X38731700Y-38536600D02*
X38731700Y-38291800D01*
X57475000Y-68900000D02*
X58025900Y-68900000D01*
X42276800Y-17487100D02*
X42277400Y-17486500D01*
X42276800Y-18051800D02*
X41888800Y-17663800D01*
X41888800Y-17663800D02*
X41775500Y-17550400D01*
X58576700Y-67633000D02*
X58576700Y-67883300D01*
X32801700Y-42660000D02*
X32399800Y-42660000D01*
X38731700Y-42060200D02*
X34525000Y-42060200D01*
X34525000Y-42223300D02*
X32843000Y-42223300D01*
X38731700Y-39045000D02*
X38731700Y-38536600D01*
X62527500Y-61539600D02*
X39016300Y-38028400D01*
X59969000Y-67550000D02*
X62527500Y-64991500D01*
X58576700Y-67550000D02*
X59969000Y-67550000D01*
X32801700Y-42660000D02*
X32801700Y-42223300D01*
X57133800Y-69792100D02*
X51467100Y-69792100D01*
X39016300Y-38028400D02*
X38731700Y-38028400D01*
X38975000Y-17825000D02*
X40950000Y-17825000D01*
X38731700Y-39245200D02*
X38731700Y-39045000D01*
X40950000Y-17825000D02*
X41500000Y-17275000D01*
X58025900Y-68900000D02*
X57133800Y-69792100D01*
X58576700Y-68900000D02*
X58576700Y-68000000D01*
X42277400Y-17486500D02*
X42277400Y-16168700D01*
X41694400Y-17469400D02*
X41500000Y-17275000D01*
X38731700Y-38291800D02*
X38731700Y-38028400D01*
X58576700Y-67883300D02*
X58576700Y-67966400D01*
X34525000Y-40500000D02*
X34525000Y-31750000D01*
X58025900Y-68900000D02*
X58576700Y-68900000D01*
X62527500Y-64991500D02*
X62527500Y-61539600D01*
X42277600Y-18170000D02*
X42277600Y-18052600D01*
X42277600Y-19997400D02*
X42277600Y-18170000D01*
X58576700Y-67966400D02*
X58576700Y-68000000D01*
X51467100Y-69792100D02*
X50675000Y-69000000D01*
X58576700Y-67550000D02*
X58576700Y-67633000D01*
X41500000Y-20775000D02*
X42277600Y-19997400D01*
X58576700Y-67100000D02*
X58576700Y-67550000D01*
X42277600Y-18052600D02*
X42276800Y-18051800D01*
X57475000Y-67100000D02*
X58576700Y-67100000D01*
X40000000Y-44000000D02*
X38731700Y-42731700D01*
X34525000Y-42060200D02*
X34525000Y-40500000D01*
X42277400Y-16168700D02*
X42412300Y-16033800D01*
X57475000Y-68000000D02*
X58576700Y-68000000D01*
X32843000Y-42223300D02*
X32801700Y-42223300D01*
X38731700Y-32156700D02*
X38631700Y-32056700D01*
X38731700Y-42060200D02*
X38731700Y-39245200D01*
X38731700Y-38028400D02*
X38731700Y-38028300D01*
X38731700Y-42731700D02*
X38731700Y-42060200D01*
X41775500Y-17550400D02*
X41694400Y-17469400D01*
X30925000Y-42660000D02*
X32399800Y-42660000D01*
X34525000Y-31750000D02*
X34675000Y-31600000D01*
X34525000Y-42223300D02*
X34525000Y-42060200D01*
X38631700Y-32056700D02*
X38175000Y-31600000D01*
X38731700Y-38028300D02*
X38731700Y-32156700D01*
X42276800Y-18051800D02*
X42276800Y-17487100D01*
X42412300Y-16033800D02*
X42412300Y-8942700D01*
%TO.N,+5V_XIAO*%
X14834600Y-56390200D02*
X11937900Y-59286900D01*
X23750000Y-60073100D02*
X23750000Y-61000000D01*
X23750000Y-56390200D02*
X14834600Y-56390200D01*
X23750000Y-62975000D02*
X21725000Y-65000000D01*
X23750000Y-61000000D02*
X23750000Y-62975000D01*
X11937900Y-63412900D02*
X13525000Y-65000000D01*
X23750000Y-56390200D02*
X23750000Y-60073100D01*
X24365600Y-53407000D02*
X23750000Y-54022600D01*
X23750000Y-54022600D02*
X23750000Y-56390200D01*
X40000000Y-40500000D02*
X41758000Y-42258000D01*
X41758000Y-42258000D02*
X41758000Y-50392000D01*
X11937900Y-59286900D02*
X11937900Y-63412900D01*
%TO.N,AIN+*%
X29266800Y-12777500D02*
X30547500Y-12777500D01*
X33225000Y-13348300D02*
X33225000Y-10500000D01*
X34461300Y-19095000D02*
X34025000Y-19095000D01*
X30547500Y-12777500D02*
X31325000Y-12000000D01*
X36716500Y-16839800D02*
X34461300Y-19095000D01*
X28972500Y-12483200D02*
X29266800Y-12777500D01*
X33225000Y-10484600D02*
X32416900Y-9676500D01*
X33225000Y-10500000D02*
X33225000Y-10484600D01*
X31095200Y-10499900D02*
X31095200Y-10500000D01*
X31095200Y-10500000D02*
X29989300Y-10500000D01*
X31918600Y-9676500D02*
X31095200Y-10499900D01*
X41000000Y-12000000D02*
X41000000Y-12556300D01*
X41000000Y-12556300D02*
X36716500Y-16839800D01*
X29989300Y-10500000D02*
X28972500Y-11516800D01*
X32416900Y-9676500D02*
X31918600Y-9676500D01*
X28972500Y-11516800D02*
X28972500Y-12483200D01*
X36716500Y-16839800D02*
X33225000Y-13348300D01*
%TO.N,AVDD_3V0*%
X38975000Y-16555000D02*
X38551200Y-16555000D01*
X35408900Y-19697300D02*
X32982100Y-19697300D01*
X38551200Y-16555000D02*
X35408900Y-19697300D01*
X30725000Y-17775000D02*
X32000000Y-17775000D01*
X32982100Y-19697300D02*
X32000000Y-18715200D01*
X33220000Y-16555000D02*
X34025000Y-16555000D01*
X32000000Y-17775000D02*
X33220000Y-16555000D01*
X32000000Y-18715200D02*
X32000000Y-17775000D01*
X27500000Y-21000000D02*
X30725000Y-17775000D01*
%TO.N,BUTTON_N*%
X43098300Y-67925000D02*
X33469800Y-58296500D01*
X14900000Y-40120000D02*
X15785000Y-41005000D01*
X51250000Y-67925000D02*
X48075000Y-67925000D01*
X52325000Y-69000000D02*
X51250000Y-67925000D01*
X21323700Y-41005000D02*
X27435700Y-47117000D01*
X43925000Y-67925000D02*
X43098300Y-67925000D01*
X33469800Y-58296500D02*
X33469800Y-49680200D01*
X15785000Y-41005000D02*
X21323700Y-41005000D01*
%TO.N,I2C_SCL*%
X39406500Y-20365000D02*
X38975000Y-20365000D01*
X15371000Y-53671300D02*
X16272700Y-53671300D01*
X39825000Y-33070500D02*
X39825000Y-31600000D01*
X40255100Y-31169900D02*
X40255100Y-21213600D01*
X11485000Y-41918900D02*
X12168300Y-41235600D01*
X13183400Y-53671300D02*
X8500000Y-48987900D01*
X39514000Y-33381500D02*
X39825000Y-33070500D01*
X14900000Y-50280000D02*
X16776700Y-50280000D01*
X8500000Y-41918900D02*
X11485000Y-41918900D01*
X16555500Y-53671300D02*
X16272700Y-53671300D01*
X16776700Y-50280000D02*
X16776700Y-53450100D01*
X15371000Y-53671300D02*
X13183400Y-53671300D01*
X8500000Y-48987900D02*
X8500000Y-41918900D01*
X40255100Y-21213600D02*
X39406500Y-20365000D01*
X8500000Y-41918900D02*
X8500000Y-34000000D01*
X16272700Y-53671300D02*
X15371000Y-53671300D01*
X16776700Y-53450100D02*
X16555500Y-53671300D01*
X39825000Y-31600000D02*
X40255100Y-31169900D01*
%TO.N,I2C_SDA*%
X38975000Y-19095000D02*
X38576300Y-19095000D01*
X36325000Y-26473100D02*
X36000000Y-26798100D01*
X17219900Y-53669700D02*
X16805300Y-54084300D01*
X17219900Y-48183200D02*
X17219900Y-53669700D01*
X36000000Y-26798100D02*
X36000000Y-41250800D01*
X18869300Y-47361800D02*
X18041300Y-47361800D01*
X14900000Y-47740000D02*
X16776700Y-47740000D01*
X16776700Y-47740000D02*
X17219900Y-48183200D01*
X18041300Y-47361800D02*
X17219900Y-48183200D01*
X38576300Y-19095000D02*
X36325000Y-21346300D01*
X16805300Y-54084300D02*
X12980100Y-54084300D01*
X36325000Y-21346300D02*
X36325000Y-26473100D01*
X6000000Y-47104200D02*
X6000000Y-34000000D01*
X12980100Y-54084300D02*
X6000000Y-47104200D01*
X36325000Y-26473100D02*
X36325000Y-31600000D01*
%TO.N,LED_B_GPIO*%
X35679100Y-45200000D02*
X44243200Y-53764100D01*
X44243200Y-53764100D02*
X49439100Y-53764100D01*
X49439100Y-53764100D02*
X60175000Y-64500000D01*
X30925000Y-45200000D02*
X35679100Y-45200000D01*
%TO.N,LED_G_GPIO*%
X56875000Y-63255900D02*
X56875000Y-64500000D01*
X55865100Y-62246000D02*
X56875000Y-63255900D01*
X14900000Y-45200000D02*
X16776700Y-45200000D01*
X16776700Y-45200000D02*
X16776700Y-46662300D01*
X16776700Y-46662300D02*
X16822400Y-46708000D01*
%TO.N,LED_G_K*%
X55626700Y-67398300D02*
X58525000Y-64500000D01*
X55626700Y-68000000D02*
X55626700Y-67398300D01*
X54525000Y-68000000D02*
X55626700Y-68000000D01*
%TO.N,LED_R_GPIO*%
X27297800Y-48541700D02*
X37616700Y-48541700D01*
X16776700Y-42660000D02*
X17526300Y-41910400D01*
X20666500Y-41910400D02*
X27297800Y-48541700D01*
X14900000Y-42660000D02*
X16776700Y-42660000D01*
X17526300Y-41910400D02*
X20666500Y-41910400D01*
X37616700Y-48541700D02*
X53575000Y-64500000D01*
%TO.N,LED_R_K*%
X53423300Y-66301700D02*
X53423300Y-68900000D01*
X55225000Y-64500000D02*
X53423300Y-66301700D01*
X54525000Y-68900000D02*
X53423300Y-68900000D01*
%TO.N,PGA_CFILTER*%
X40022400Y-18460000D02*
X40656800Y-19094400D01*
X34025000Y-21635000D02*
X34410800Y-21635000D01*
X40656800Y-27431800D02*
X41500000Y-28275000D01*
X40656800Y-19094400D02*
X40656800Y-27431800D01*
X34410800Y-21635000D02*
X37585800Y-18460000D01*
X37585800Y-18460000D02*
X40022400Y-18460000D01*
%TO.N,UART_RX*%
X30925000Y-52820000D02*
X32801700Y-52820000D01*
X32801700Y-52820000D02*
X32801700Y-49447800D01*
X32801700Y-49447800D02*
X33171000Y-49078500D01*
X35277100Y-49078500D02*
X35878800Y-49680200D01*
X47561000Y-13832700D02*
X46000000Y-12271700D01*
X47561000Y-44560700D02*
X47561000Y-13832700D01*
X46000000Y-11120000D02*
X46000000Y-12271700D01*
X33171000Y-49078500D02*
X35277100Y-49078500D01*
%TO.N,UART_TX*%
X13023300Y-52820000D02*
X13023300Y-18513200D01*
X13023300Y-18513200D02*
X15730700Y-15805800D01*
X14900000Y-52820000D02*
X13023300Y-52820000D01*
%TO.N,VBG*%
X34025000Y-22905000D02*
X31905000Y-22905000D01*
X31905000Y-22905000D02*
X30000000Y-21000000D01*
X41500000Y-26725000D02*
X41500000Y-24775000D01*
%TO.N,VBUS*%
X15000000Y-63087500D02*
X15000000Y-66500000D01*
X9725000Y-64500000D02*
X12000000Y-66775000D01*
X17087500Y-61000000D02*
X15000000Y-63087500D01*
X12000000Y-66775000D02*
X12000000Y-69500000D01*
X15000000Y-66500000D02*
X12000000Y-69500000D01*
%TO.N,VBUS_FUSED*%
X17707800Y-58957800D02*
X14854700Y-58957800D01*
X14854700Y-58957800D02*
X12812500Y-61000000D01*
X19750000Y-61000000D02*
X17707800Y-58957800D01*
%TD*%
%TA.AperFunction,Conductor*%
%TO.N,GND*%
G36*
X37267512Y-32147638D02*
G01*
X37271010Y-32147233D01*
X37299441Y-32161172D01*
X37328599Y-32173533D01*
X37331515Y-32176898D01*
X37333745Y-32177992D01*
X37356114Y-32205287D01*
X37406616Y-32288826D01*
X37419530Y-32310188D01*
X37539811Y-32430469D01*
X37539813Y-32430470D01*
X37539815Y-32430472D01*
X37685394Y-32518478D01*
X37847804Y-32569086D01*
X37918384Y-32575500D01*
X38007200Y-32575500D01*
X38074239Y-32595185D01*
X38119994Y-32647989D01*
X38131200Y-32699500D01*
X38131200Y-41335700D01*
X38111515Y-41402739D01*
X38058711Y-41448494D01*
X38007200Y-41459700D01*
X36924500Y-41459700D01*
X36857461Y-41440015D01*
X36811706Y-41387211D01*
X36800500Y-41335700D01*
X36800500Y-41171955D01*
X36800499Y-41171953D01*
X36797488Y-41156818D01*
X36769737Y-41017303D01*
X36753121Y-40977187D01*
X36709397Y-40871627D01*
X36709390Y-40871614D01*
X36621398Y-40739925D01*
X36600520Y-40673247D01*
X36600500Y-40671034D01*
X36600500Y-32676436D01*
X36620185Y-32609397D01*
X36672989Y-32563642D01*
X36687599Y-32558054D01*
X36814606Y-32518478D01*
X36960185Y-32430472D01*
X37080472Y-32310185D01*
X37143884Y-32205288D01*
X37146480Y-32202910D01*
X37147565Y-32199562D01*
X37172048Y-32179496D01*
X37195411Y-32158102D01*
X37198882Y-32157505D01*
X37201605Y-32155274D01*
X37233057Y-32151630D01*
X37264271Y-32146264D01*
X37267512Y-32147638D01*
G37*
%TD.AperFunction*%
%TA.AperFunction,Conductor*%
G36*
X37410326Y-21179746D02*
G01*
X37441099Y-21181947D01*
X37444609Y-21184575D01*
X37448954Y-21185187D01*
X37472331Y-21205327D01*
X37497033Y-21223818D01*
X37498566Y-21227928D01*
X37501889Y-21230791D01*
X37510666Y-21260371D01*
X37521450Y-21289283D01*
X37520869Y-21294755D01*
X37521765Y-21297773D01*
X37516843Y-21332722D01*
X37502402Y-21382429D01*
X37502401Y-21382432D01*
X37499500Y-21419298D01*
X37499500Y-21850701D01*
X37502401Y-21887567D01*
X37502402Y-21887573D01*
X37548254Y-22045393D01*
X37548255Y-22045396D01*
X37548256Y-22045398D01*
X37562524Y-22069524D01*
X37631917Y-22186862D01*
X37636702Y-22193031D01*
X37634256Y-22194927D01*
X37660857Y-22243642D01*
X37655873Y-22313334D01*
X37635069Y-22345703D01*
X37636702Y-22346969D01*
X37631917Y-22353137D01*
X37548255Y-22494603D01*
X37548254Y-22494606D01*
X37502402Y-22652426D01*
X37502401Y-22652432D01*
X37499500Y-22689298D01*
X37499500Y-23120701D01*
X37502401Y-23157567D01*
X37502402Y-23157573D01*
X37548254Y-23315393D01*
X37548255Y-23315396D01*
X37631917Y-23456862D01*
X37636702Y-23463031D01*
X37634256Y-23464927D01*
X37660857Y-23513642D01*
X37655873Y-23583334D01*
X37635069Y-23615703D01*
X37636702Y-23616969D01*
X37631917Y-23623137D01*
X37548255Y-23764603D01*
X37548254Y-23764606D01*
X37502402Y-23922426D01*
X37502401Y-23922432D01*
X37499500Y-23959298D01*
X37499500Y-24390701D01*
X37502401Y-24427567D01*
X37502402Y-24427573D01*
X37548254Y-24585393D01*
X37548255Y-24585396D01*
X37631917Y-24726862D01*
X37636702Y-24733031D01*
X37634369Y-24734840D01*
X37661210Y-24783995D01*
X37656226Y-24853687D01*
X37635470Y-24886021D01*
X37637097Y-24887283D01*
X37632313Y-24893449D01*
X37548718Y-25034801D01*
X37502899Y-25192513D01*
X37502704Y-25194998D01*
X37502705Y-25195000D01*
X38851000Y-25195000D01*
X38918039Y-25214685D01*
X38963794Y-25267489D01*
X38975000Y-25319000D01*
X38975000Y-25445000D01*
X39101000Y-25445000D01*
X39168039Y-25464685D01*
X39213794Y-25517489D01*
X39225000Y-25569000D01*
X39225000Y-26245000D01*
X39530600Y-26245000D01*
X39597639Y-26264685D01*
X39643394Y-26317489D01*
X39654600Y-26369000D01*
X39654600Y-30503423D01*
X39634915Y-30570462D01*
X39582111Y-30616217D01*
X39541822Y-30626913D01*
X39533794Y-30627643D01*
X39497807Y-30630913D01*
X39335393Y-30681522D01*
X39189811Y-30769530D01*
X39189810Y-30769531D01*
X39087681Y-30871661D01*
X39026358Y-30905146D01*
X38956666Y-30900162D01*
X38912319Y-30871661D01*
X38810188Y-30769530D01*
X38738844Y-30726401D01*
X38664606Y-30681522D01*
X38502196Y-30630914D01*
X38502194Y-30630913D01*
X38502192Y-30630913D01*
X38452778Y-30626423D01*
X38431616Y-30624500D01*
X37918384Y-30624500D01*
X37899145Y-30626248D01*
X37847807Y-30630913D01*
X37685393Y-30681522D01*
X37539811Y-30769530D01*
X37419531Y-30889810D01*
X37419528Y-30889814D01*
X37356116Y-30994710D01*
X37304588Y-31041897D01*
X37235729Y-31053735D01*
X37171400Y-31026466D01*
X37143884Y-30994710D01*
X37080471Y-30889814D01*
X37080468Y-30889810D01*
X36961819Y-30771161D01*
X36928334Y-30709838D01*
X36925500Y-30683480D01*
X36925500Y-25695001D01*
X37502704Y-25695001D01*
X37502899Y-25697486D01*
X37548718Y-25855198D01*
X37632314Y-25996552D01*
X37632321Y-25996561D01*
X37748438Y-26112678D01*
X37748447Y-26112685D01*
X37889803Y-26196282D01*
X37889806Y-26196283D01*
X38047504Y-26242099D01*
X38047510Y-26242100D01*
X38084350Y-26244999D01*
X38084366Y-26245000D01*
X38725000Y-26245000D01*
X38725000Y-25695000D01*
X37502705Y-25695000D01*
X37502704Y-25695001D01*
X36925500Y-25695001D01*
X36925500Y-21646396D01*
X36945185Y-21579357D01*
X36961815Y-21558719D01*
X37310088Y-21210446D01*
X37313933Y-21208346D01*
X37316295Y-21204649D01*
X37344332Y-21191747D01*
X37371408Y-21176963D01*
X37375781Y-21177275D01*
X37379767Y-21175442D01*
X37410326Y-21179746D01*
G37*
%TD.AperFunction*%
%TA.AperFunction,Conductor*%
G36*
X41616941Y-18245184D02*
G01*
X41637583Y-18261818D01*
X41640781Y-18265016D01*
X41652121Y-18285784D01*
X41662696Y-18297988D01*
X41664093Y-18307710D01*
X41674266Y-18326339D01*
X41677100Y-18352697D01*
X41677100Y-19697301D01*
X41657415Y-19764340D01*
X41640781Y-19784982D01*
X41637582Y-19788181D01*
X41576259Y-19821666D01*
X41549901Y-19824500D01*
X41381300Y-19824500D01*
X41314261Y-19804815D01*
X41268506Y-19752011D01*
X41257300Y-19700500D01*
X41257300Y-19015345D01*
X41257300Y-19015343D01*
X41237251Y-18940520D01*
X41216377Y-18862615D01*
X41148463Y-18744985D01*
X41137320Y-18725684D01*
X41027437Y-18615801D01*
X41025417Y-18613575D01*
X41011434Y-18584725D01*
X40996078Y-18556603D01*
X40996299Y-18553500D01*
X40994943Y-18550701D01*
X40998775Y-18518878D01*
X41001062Y-18486911D01*
X41002926Y-18484420D01*
X41003298Y-18481333D01*
X41023726Y-18456635D01*
X41042934Y-18430978D01*
X41046302Y-18429341D01*
X41047831Y-18427494D01*
X41054444Y-18425386D01*
X41085146Y-18410471D01*
X41181785Y-18384577D01*
X41231904Y-18355639D01*
X41318716Y-18305520D01*
X41346981Y-18277253D01*
X41362418Y-18261818D01*
X41389345Y-18247114D01*
X41415164Y-18230522D01*
X41421364Y-18229630D01*
X41423741Y-18228333D01*
X41450099Y-18225499D01*
X41549902Y-18225499D01*
X41616941Y-18245184D01*
G37*
%TD.AperFunction*%
%TA.AperFunction,Conductor*%
G36*
X41764915Y-13095081D02*
G01*
X41805172Y-13152188D01*
X41811800Y-13192186D01*
X41811800Y-14661838D01*
X41792115Y-14728877D01*
X41775481Y-14749519D01*
X41750000Y-14775000D01*
X41750000Y-15601000D01*
X41730315Y-15668039D01*
X41677511Y-15713794D01*
X41626000Y-15725000D01*
X41500000Y-15725000D01*
X41500000Y-15851000D01*
X41480315Y-15918039D01*
X41427511Y-15963794D01*
X41376000Y-15975000D01*
X40525001Y-15975000D01*
X40495155Y-16004846D01*
X40433832Y-16038331D01*
X40364140Y-16033347D01*
X40319793Y-16004846D01*
X40201870Y-15886923D01*
X40201862Y-15886917D01*
X40060396Y-15803255D01*
X40060393Y-15803254D01*
X39902573Y-15757402D01*
X39902567Y-15757401D01*
X39865701Y-15754500D01*
X39865694Y-15754500D01*
X38950397Y-15754500D01*
X38883358Y-15734815D01*
X38837603Y-15682011D01*
X38827659Y-15612853D01*
X38856684Y-15549297D01*
X38862716Y-15542819D01*
X38953858Y-15451677D01*
X40525000Y-15451677D01*
X40525000Y-15475000D01*
X41250000Y-15475000D01*
X41250000Y-14775000D01*
X41249999Y-14774999D01*
X41201693Y-14775000D01*
X41201675Y-14775001D01*
X41102392Y-14785144D01*
X40941518Y-14838452D01*
X40941507Y-14838457D01*
X40797271Y-14927424D01*
X40797267Y-14927427D01*
X40677427Y-15047267D01*
X40677424Y-15047271D01*
X40588457Y-15191507D01*
X40588452Y-15191518D01*
X40535144Y-15352393D01*
X40525000Y-15451677D01*
X38953858Y-15451677D01*
X39044688Y-15360847D01*
X39567083Y-14838452D01*
X41137201Y-13268332D01*
X41198522Y-13234849D01*
X41205454Y-13233546D01*
X41292826Y-13219709D01*
X41480025Y-13158884D01*
X41631506Y-13081700D01*
X41700174Y-13068805D01*
X41764915Y-13095081D01*
G37*
%TD.AperFunction*%
%TA.AperFunction,Conductor*%
G36*
X65442539Y-520185D02*
G01*
X65488294Y-572989D01*
X65499500Y-624500D01*
X65499500Y-74375500D01*
X65479815Y-74442539D01*
X65427011Y-74488294D01*
X65375500Y-74499500D01*
X8624000Y-74499500D01*
X8556961Y-74479815D01*
X8511206Y-74427011D01*
X8500000Y-74375500D01*
X8500000Y-64201647D01*
X8774500Y-64201647D01*
X8774500Y-64798337D01*
X8774501Y-64798355D01*
X8784650Y-64897707D01*
X8784651Y-64897710D01*
X8837996Y-65058694D01*
X8838001Y-65058705D01*
X8927029Y-65203040D01*
X8927032Y-65203044D01*
X9046955Y-65322967D01*
X9046959Y-65322970D01*
X9191294Y-65411998D01*
X9191297Y-65411999D01*
X9191303Y-65412003D01*
X9352292Y-65465349D01*
X9451655Y-65475500D01*
X9799902Y-65475499D01*
X9866941Y-65495183D01*
X9887583Y-65511818D01*
X11363181Y-66987416D01*
X11396666Y-67048739D01*
X11399500Y-67075097D01*
X11399500Y-68327403D01*
X11379815Y-68394442D01*
X11348386Y-68427721D01*
X11185352Y-68546173D01*
X11046174Y-68685351D01*
X11046174Y-68685352D01*
X11046172Y-68685354D01*
X11040038Y-68693797D01*
X10930476Y-68844594D01*
X10841117Y-69019970D01*
X10780290Y-69207173D01*
X10749500Y-69401577D01*
X10749500Y-69598422D01*
X10780290Y-69792826D01*
X10841117Y-69980029D01*
X10928028Y-70150601D01*
X10930476Y-70155405D01*
X11046172Y-70314646D01*
X11185354Y-70453828D01*
X11344595Y-70569524D01*
X11427455Y-70611743D01*
X11519970Y-70658882D01*
X11519972Y-70658882D01*
X11519975Y-70658884D01*
X11620317Y-70691487D01*
X11707173Y-70719709D01*
X11901578Y-70750500D01*
X11901583Y-70750500D01*
X12098422Y-70750500D01*
X12292826Y-70719709D01*
X12480025Y-70658884D01*
X12655405Y-70569524D01*
X12814646Y-70453828D01*
X12820630Y-70447844D01*
X42900000Y-70447844D01*
X42906401Y-70507372D01*
X42906403Y-70507379D01*
X42956645Y-70642086D01*
X42956649Y-70642093D01*
X43042809Y-70757187D01*
X43042812Y-70757190D01*
X43157906Y-70843350D01*
X43157913Y-70843354D01*
X43292620Y-70893596D01*
X43292627Y-70893598D01*
X43352155Y-70899999D01*
X43352172Y-70900000D01*
X43675000Y-70900000D01*
X44175000Y-70900000D01*
X44497828Y-70900000D01*
X44497844Y-70899999D01*
X44557372Y-70893598D01*
X44557379Y-70893596D01*
X44692086Y-70843354D01*
X44692093Y-70843350D01*
X44807187Y-70757190D01*
X44807190Y-70757187D01*
X44893350Y-70642093D01*
X44893354Y-70642086D01*
X44943596Y-70507379D01*
X44943598Y-70507372D01*
X44949999Y-70447844D01*
X47050000Y-70447844D01*
X47056401Y-70507372D01*
X47056403Y-70507379D01*
X47106645Y-70642086D01*
X47106649Y-70642093D01*
X47192809Y-70757187D01*
X47192812Y-70757190D01*
X47307906Y-70843350D01*
X47307913Y-70843354D01*
X47442620Y-70893596D01*
X47442627Y-70893598D01*
X47502155Y-70899999D01*
X47502172Y-70900000D01*
X47825000Y-70900000D01*
X48325000Y-70900000D01*
X48647828Y-70900000D01*
X48647844Y-70899999D01*
X48707372Y-70893598D01*
X48707379Y-70893596D01*
X48842086Y-70843354D01*
X48842093Y-70843350D01*
X48957187Y-70757190D01*
X48957190Y-70757187D01*
X49043350Y-70642093D01*
X49043354Y-70642086D01*
X49093596Y-70507379D01*
X49093598Y-70507372D01*
X49099999Y-70447844D01*
X49100000Y-70447827D01*
X49100000Y-70325000D01*
X48325000Y-70325000D01*
X48325000Y-70900000D01*
X47825000Y-70900000D01*
X47825000Y-70325000D01*
X47050000Y-70325000D01*
X47050000Y-70447844D01*
X44949999Y-70447844D01*
X44950000Y-70447827D01*
X44950000Y-70325000D01*
X44175000Y-70325000D01*
X44175000Y-70900000D01*
X43675000Y-70900000D01*
X43675000Y-70325000D01*
X42900000Y-70325000D01*
X42900000Y-70447844D01*
X12820630Y-70447844D01*
X12953828Y-70314646D01*
X13069524Y-70155405D01*
X13158884Y-69980025D01*
X13219709Y-69792826D01*
X13234070Y-69702155D01*
X42900000Y-69702155D01*
X42900000Y-69825000D01*
X43675000Y-69825000D01*
X44175000Y-69825000D01*
X44950000Y-69825000D01*
X44950000Y-69702172D01*
X44949999Y-69702155D01*
X47050000Y-69702155D01*
X47050000Y-69825000D01*
X47825000Y-69825000D01*
X48325000Y-69825000D01*
X49100000Y-69825000D01*
X49100000Y-69702172D01*
X49099999Y-69702155D01*
X49093598Y-69642627D01*
X49093596Y-69642620D01*
X49043354Y-69507913D01*
X49043350Y-69507906D01*
X48957190Y-69392812D01*
X48957187Y-69392809D01*
X48842093Y-69306649D01*
X48842086Y-69306645D01*
X48707379Y-69256403D01*
X48707372Y-69256401D01*
X48647844Y-69250000D01*
X48325000Y-69250000D01*
X48325000Y-69825000D01*
X47825000Y-69825000D01*
X47825000Y-69250000D01*
X47502155Y-69250000D01*
X47442627Y-69256401D01*
X47442620Y-69256403D01*
X47307913Y-69306645D01*
X47307906Y-69306649D01*
X47192812Y-69392809D01*
X47192809Y-69392812D01*
X47106649Y-69507906D01*
X47106645Y-69507913D01*
X47056403Y-69642620D01*
X47056401Y-69642627D01*
X47050000Y-69702155D01*
X44949999Y-69702155D01*
X44943598Y-69642627D01*
X44943596Y-69642620D01*
X44893354Y-69507913D01*
X44893350Y-69507906D01*
X44807190Y-69392812D01*
X44807187Y-69392809D01*
X44692093Y-69306649D01*
X44692086Y-69306645D01*
X44557379Y-69256403D01*
X44557372Y-69256401D01*
X44497844Y-69250000D01*
X44175000Y-69250000D01*
X44175000Y-69825000D01*
X43675000Y-69825000D01*
X43675000Y-69250000D01*
X43352155Y-69250000D01*
X43292627Y-69256401D01*
X43292620Y-69256403D01*
X43157913Y-69306645D01*
X43157906Y-69306649D01*
X43042812Y-69392809D01*
X43042809Y-69392812D01*
X42956649Y-69507906D01*
X42956645Y-69507913D01*
X42906403Y-69642620D01*
X42906401Y-69642627D01*
X42900000Y-69702155D01*
X13234070Y-69702155D01*
X13237666Y-69679453D01*
X13250500Y-69598422D01*
X13250500Y-69401578D01*
X13229455Y-69268709D01*
X13219709Y-69207174D01*
X13219707Y-69207168D01*
X13218975Y-69202546D01*
X13227929Y-69133252D01*
X13253764Y-69095469D01*
X15480520Y-66868716D01*
X15559577Y-66731784D01*
X15600501Y-66579057D01*
X15600501Y-66420942D01*
X15600501Y-66414434D01*
X15620186Y-66347395D01*
X15672990Y-66301640D01*
X15742148Y-66291696D01*
X15789599Y-66308896D01*
X15830873Y-66334355D01*
X15830880Y-66334358D01*
X15997302Y-66389505D01*
X15997309Y-66389506D01*
X16100019Y-66399999D01*
X16224999Y-66399999D01*
X16725000Y-66399999D01*
X16849972Y-66399999D01*
X16849986Y-66399998D01*
X16952697Y-66389505D01*
X17119119Y-66334358D01*
X17119124Y-66334356D01*
X17268345Y-66242315D01*
X17392315Y-66118345D01*
X17484356Y-65969124D01*
X17484358Y-65969119D01*
X17539505Y-65802697D01*
X17539506Y-65802690D01*
X17549999Y-65699986D01*
X17550000Y-65699973D01*
X17550000Y-65250000D01*
X16725000Y-65250000D01*
X16725000Y-66399999D01*
X16224999Y-66399999D01*
X16225000Y-66399998D01*
X16225000Y-64750000D01*
X16725000Y-64750000D01*
X17549999Y-64750000D01*
X17549999Y-64300028D01*
X17549998Y-64300013D01*
X17539505Y-64197302D01*
X17484358Y-64030880D01*
X17484356Y-64030875D01*
X17392315Y-63881654D01*
X17268345Y-63757684D01*
X17119124Y-63665643D01*
X17119119Y-63665641D01*
X16952697Y-63610494D01*
X16952690Y-63610493D01*
X16849986Y-63600000D01*
X16725000Y-63600000D01*
X16725000Y-64750000D01*
X16225000Y-64750000D01*
X16225000Y-63600000D01*
X16100027Y-63600000D01*
X16100012Y-63600001D01*
X15997302Y-63610494D01*
X15830880Y-63665641D01*
X15830866Y-63665648D01*
X15789595Y-63691104D01*
X15781978Y-63693188D01*
X15776011Y-63698359D01*
X15748760Y-63702277D01*
X15722203Y-63709544D01*
X15714668Y-63707179D01*
X15706853Y-63708303D01*
X15681809Y-63696865D01*
X15655540Y-63688621D01*
X15650480Y-63682558D01*
X15643297Y-63679278D01*
X15628410Y-63656113D01*
X15610771Y-63634978D01*
X15608831Y-63625648D01*
X15605523Y-63620500D01*
X15600500Y-63585565D01*
X15600500Y-63387596D01*
X15620185Y-63320557D01*
X15636815Y-63299919D01*
X16012502Y-62924231D01*
X16073825Y-62890747D01*
X16143517Y-62895731D01*
X16187864Y-62924232D01*
X16306344Y-63042712D01*
X16455666Y-63134814D01*
X16622203Y-63189999D01*
X16724991Y-63200500D01*
X17450008Y-63200499D01*
X17450016Y-63200498D01*
X17450019Y-63200498D01*
X17506302Y-63194748D01*
X17552797Y-63189999D01*
X17719334Y-63134814D01*
X17868656Y-63042712D01*
X17992712Y-62918656D01*
X18084814Y-62769334D01*
X18139999Y-62602797D01*
X18150500Y-62500009D01*
X18150499Y-62384178D01*
X18170183Y-62317141D01*
X18222987Y-62271386D01*
X18292145Y-62261442D01*
X18339592Y-62278639D01*
X18430666Y-62334814D01*
X18597203Y-62389999D01*
X18699991Y-62400500D01*
X20800008Y-62400499D01*
X20902797Y-62389999D01*
X21069334Y-62334814D01*
X21218656Y-62242712D01*
X21342712Y-62118656D01*
X21434814Y-61969334D01*
X21489999Y-61802797D01*
X21500500Y-61700009D01*
X21500499Y-60299992D01*
X21499459Y-60289815D01*
X21489999Y-60197203D01*
X21489998Y-60197200D01*
X21480961Y-60169928D01*
X21434814Y-60030666D01*
X21342712Y-59881344D01*
X21218656Y-59757288D01*
X21125888Y-59700069D01*
X21069336Y-59665187D01*
X21069331Y-59665185D01*
X21067862Y-59664698D01*
X20902797Y-59610001D01*
X20902795Y-59610000D01*
X20800016Y-59599500D01*
X20800009Y-59599500D01*
X19250097Y-59599500D01*
X19183058Y-59579815D01*
X19162416Y-59563181D01*
X18195390Y-58596155D01*
X18195388Y-58596152D01*
X18076517Y-58477281D01*
X18076516Y-58477280D01*
X17989704Y-58427160D01*
X17989704Y-58427159D01*
X17989700Y-58427158D01*
X17939585Y-58398223D01*
X17786857Y-58357299D01*
X17628743Y-58357299D01*
X17621147Y-58357299D01*
X17621131Y-58357300D01*
X14941369Y-58357300D01*
X14941353Y-58357299D01*
X14933757Y-58357299D01*
X14775643Y-58357299D01*
X14668287Y-58386065D01*
X14622910Y-58398224D01*
X14622909Y-58398225D01*
X14572796Y-58427159D01*
X14572795Y-58427160D01*
X14529389Y-58452220D01*
X14485985Y-58477279D01*
X14485982Y-58477281D01*
X13887497Y-59075767D01*
X13826174Y-59109252D01*
X13756482Y-59104268D01*
X13712135Y-59075767D01*
X13593657Y-58957289D01*
X13593656Y-58957288D01*
X13444334Y-58865186D01*
X13444326Y-58865183D01*
X13444234Y-58865140D01*
X13444176Y-58865089D01*
X13438187Y-58861395D01*
X13438818Y-58860371D01*
X13391795Y-58818968D01*
X13372642Y-58751775D01*
X13392857Y-58684893D01*
X13408952Y-58665081D01*
X15047016Y-57027019D01*
X15108339Y-56993534D01*
X15134697Y-56990700D01*
X23025500Y-56990700D01*
X23092539Y-57010385D01*
X23138294Y-57063189D01*
X23149500Y-57114700D01*
X23149500Y-59475500D01*
X23129815Y-59542539D01*
X23077011Y-59588294D01*
X23025500Y-59599500D01*
X22699999Y-59599500D01*
X22699980Y-59599501D01*
X22597203Y-59610000D01*
X22597200Y-59610001D01*
X22430668Y-59665185D01*
X22430663Y-59665187D01*
X22281342Y-59757289D01*
X22157289Y-59881342D01*
X22065187Y-60030663D01*
X22065185Y-60030668D01*
X22048334Y-60081522D01*
X22010001Y-60197203D01*
X22010001Y-60197204D01*
X22010000Y-60197204D01*
X21999500Y-60299983D01*
X21999500Y-61700001D01*
X21999501Y-61700018D01*
X22010000Y-61802796D01*
X22010001Y-61802799D01*
X22065185Y-61969331D01*
X22065187Y-61969336D01*
X22074453Y-61984358D01*
X22157288Y-62118656D01*
X22281344Y-62242712D01*
X22430666Y-62334814D01*
X22597203Y-62389999D01*
X22699991Y-62400500D01*
X23025500Y-62400499D01*
X23034186Y-62403049D01*
X23043147Y-62401761D01*
X23067183Y-62412738D01*
X23092539Y-62420183D01*
X23098467Y-62427025D01*
X23106703Y-62430786D01*
X23120989Y-62453017D01*
X23138294Y-62472987D01*
X23140581Y-62483502D01*
X23144477Y-62489564D01*
X23149500Y-62524499D01*
X23149500Y-62674902D01*
X23129815Y-62741941D01*
X23113181Y-62762583D01*
X21887582Y-63988181D01*
X21826259Y-64021666D01*
X21799901Y-64024500D01*
X21451662Y-64024500D01*
X21451644Y-64024501D01*
X21352292Y-64034650D01*
X21352289Y-64034651D01*
X21191305Y-64087996D01*
X21191294Y-64088001D01*
X21046959Y-64177029D01*
X21046955Y-64177032D01*
X20927032Y-64296955D01*
X20927029Y-64296959D01*
X20838001Y-64441294D01*
X20837996Y-64441305D01*
X20784651Y-64602290D01*
X20774500Y-64701647D01*
X20774500Y-65298337D01*
X20774501Y-65298355D01*
X20784650Y-65397707D01*
X20784651Y-65397710D01*
X20837996Y-65558694D01*
X20838001Y-65558705D01*
X20927029Y-65703040D01*
X20927032Y-65703044D01*
X21046955Y-65822967D01*
X21046959Y-65822970D01*
X21191294Y-65911998D01*
X21191297Y-65911999D01*
X21191303Y-65912003D01*
X21352292Y-65965349D01*
X21451655Y-65975500D01*
X21998344Y-65975499D01*
X21998352Y-65975498D01*
X21998355Y-65975498D01*
X22058677Y-65969336D01*
X22097708Y-65965349D01*
X22258697Y-65912003D01*
X22403044Y-65822968D01*
X22412668Y-65813343D01*
X22473987Y-65779856D01*
X22543679Y-65784835D01*
X22588034Y-65813339D01*
X22597267Y-65822572D01*
X22597271Y-65822575D01*
X22741507Y-65911542D01*
X22741518Y-65911547D01*
X22902393Y-65964855D01*
X23001683Y-65974999D01*
X23525000Y-65974999D01*
X23548308Y-65974999D01*
X23548322Y-65974998D01*
X23647607Y-65964855D01*
X23808481Y-65911547D01*
X23808492Y-65911542D01*
X23952728Y-65822575D01*
X23952732Y-65822572D01*
X24072572Y-65702732D01*
X24072575Y-65702728D01*
X24161542Y-65558492D01*
X24161547Y-65558481D01*
X24214855Y-65397606D01*
X24224999Y-65298322D01*
X24225000Y-65298309D01*
X24225000Y-65250000D01*
X23525000Y-65250000D01*
X23525000Y-65974999D01*
X23001683Y-65974999D01*
X23025000Y-65974998D01*
X23025000Y-65124000D01*
X23044685Y-65056961D01*
X23097489Y-65011206D01*
X23149000Y-65000000D01*
X23275000Y-65000000D01*
X23275000Y-64874000D01*
X23294685Y-64806961D01*
X23347489Y-64761206D01*
X23399000Y-64750000D01*
X24224999Y-64750000D01*
X24224999Y-64701692D01*
X24224998Y-64701677D01*
X24214855Y-64602392D01*
X24161547Y-64441518D01*
X24161542Y-64441507D01*
X24072575Y-64297271D01*
X24072572Y-64297267D01*
X23952732Y-64177427D01*
X23952728Y-64177424D01*
X23808492Y-64088457D01*
X23808481Y-64088452D01*
X23756927Y-64071369D01*
X23699482Y-64031596D01*
X23672659Y-63967080D01*
X23684974Y-63898304D01*
X23708244Y-63865989D01*
X24108506Y-63465728D01*
X24108511Y-63465724D01*
X24118714Y-63455520D01*
X24118716Y-63455520D01*
X24230520Y-63343716D01*
X24309577Y-63206784D01*
X24350500Y-63054057D01*
X24350500Y-62524499D01*
X24370185Y-62457460D01*
X24422989Y-62411705D01*
X24474500Y-62400499D01*
X24800002Y-62400499D01*
X24800008Y-62400499D01*
X24902797Y-62389999D01*
X25069334Y-62334814D01*
X25218656Y-62242712D01*
X25342712Y-62118656D01*
X25434814Y-61969334D01*
X25489999Y-61802797D01*
X25500500Y-61700009D01*
X25500499Y-60668384D01*
X26574500Y-60668384D01*
X26574500Y-61331616D01*
X26576172Y-61350016D01*
X26580913Y-61402192D01*
X26580913Y-61402194D01*
X26580914Y-61402196D01*
X26631522Y-61564606D01*
X26713376Y-61700009D01*
X26719530Y-61710188D01*
X26839811Y-61830469D01*
X26839813Y-61830470D01*
X26839815Y-61830472D01*
X26985394Y-61918478D01*
X27147804Y-61969086D01*
X27218384Y-61975500D01*
X27218387Y-61975500D01*
X27731613Y-61975500D01*
X27731616Y-61975500D01*
X27802196Y-61969086D01*
X27964606Y-61918478D01*
X28110185Y-61830472D01*
X28212673Y-61727983D01*
X28273994Y-61694499D01*
X28343685Y-61699483D01*
X28388034Y-61727984D01*
X28490122Y-61830072D01*
X28635604Y-61918019D01*
X28635603Y-61918019D01*
X28797894Y-61968590D01*
X28797893Y-61968590D01*
X28868408Y-61974998D01*
X28868426Y-61974999D01*
X28874999Y-61974998D01*
X28875000Y-61974998D01*
X28875000Y-60025000D01*
X29375000Y-60025000D01*
X29375000Y-61974999D01*
X29381581Y-61974999D01*
X29452102Y-61968591D01*
X29452107Y-61968590D01*
X29614396Y-61918018D01*
X29759877Y-61830072D01*
X29880072Y-61709877D01*
X29968018Y-61564397D01*
X29981351Y-61521609D01*
X30020088Y-61463460D01*
X30084112Y-61435485D01*
X30153098Y-61446566D01*
X30205142Y-61493183D01*
X30218122Y-61521606D01*
X30231456Y-61564395D01*
X30231522Y-61564606D01*
X30313381Y-61700016D01*
X30319530Y-61710188D01*
X30439811Y-61830469D01*
X30439813Y-61830470D01*
X30439815Y-61830472D01*
X30585394Y-61918478D01*
X30747804Y-61969086D01*
X30818384Y-61975500D01*
X30818387Y-61975500D01*
X31331613Y-61975500D01*
X31331616Y-61975500D01*
X31402196Y-61969086D01*
X31564606Y-61918478D01*
X31710185Y-61830472D01*
X31812673Y-61727983D01*
X31873994Y-61694499D01*
X31943685Y-61699483D01*
X31988034Y-61727984D01*
X32090122Y-61830072D01*
X32235604Y-61918019D01*
X32235603Y-61918019D01*
X32397894Y-61968590D01*
X32397893Y-61968590D01*
X32468408Y-61974998D01*
X32468426Y-61974999D01*
X32975000Y-61974999D01*
X32981581Y-61974999D01*
X33052102Y-61968591D01*
X33052107Y-61968590D01*
X33214396Y-61918018D01*
X33359877Y-61830072D01*
X33480072Y-61709877D01*
X33568019Y-61564395D01*
X33618590Y-61402106D01*
X33625000Y-61331572D01*
X33625000Y-61250000D01*
X32975000Y-61250000D01*
X32975000Y-61974999D01*
X32468426Y-61974999D01*
X32474999Y-61974998D01*
X32475000Y-61974998D01*
X32475000Y-60750000D01*
X32975000Y-60750000D01*
X33624999Y-60750000D01*
X33624999Y-60668417D01*
X33618591Y-60597897D01*
X33618590Y-60597892D01*
X33568018Y-60435603D01*
X33480072Y-60290122D01*
X33359877Y-60169927D01*
X33214395Y-60081980D01*
X33214396Y-60081980D01*
X33052105Y-60031409D01*
X33052106Y-60031409D01*
X32981572Y-60025000D01*
X32975000Y-60025000D01*
X32975000Y-60750000D01*
X32475000Y-60750000D01*
X32475000Y-60025000D01*
X32474999Y-60024999D01*
X32468436Y-60025000D01*
X32468417Y-60025001D01*
X32397897Y-60031408D01*
X32397892Y-60031409D01*
X32235603Y-60081981D01*
X32090122Y-60169927D01*
X32090121Y-60169928D01*
X31988035Y-60272015D01*
X31926712Y-60305500D01*
X31857020Y-60300516D01*
X31812673Y-60272015D01*
X31710188Y-60169530D01*
X31564606Y-60081522D01*
X31402196Y-60030914D01*
X31402194Y-60030913D01*
X31402192Y-60030913D01*
X31352778Y-60026423D01*
X31331616Y-60024500D01*
X30818384Y-60024500D01*
X30799145Y-60026248D01*
X30747807Y-60030913D01*
X30585393Y-60081522D01*
X30439811Y-60169530D01*
X30319530Y-60289811D01*
X30231522Y-60435393D01*
X30231522Y-60435394D01*
X30219976Y-60472449D01*
X30218124Y-60478392D01*
X30179386Y-60536540D01*
X30115361Y-60564514D01*
X30046375Y-60553433D01*
X29994332Y-60506814D01*
X29981353Y-60478393D01*
X29968018Y-60435603D01*
X29880072Y-60290122D01*
X29759877Y-60169927D01*
X29614395Y-60081980D01*
X29614396Y-60081980D01*
X29452105Y-60031409D01*
X29452106Y-60031409D01*
X29381572Y-60025000D01*
X29375000Y-60025000D01*
X28875000Y-60025000D01*
X28874999Y-60024999D01*
X28868436Y-60025000D01*
X28868417Y-60025001D01*
X28797897Y-60031408D01*
X28797892Y-60031409D01*
X28635603Y-60081981D01*
X28490122Y-60169927D01*
X28490121Y-60169928D01*
X28388035Y-60272015D01*
X28326712Y-60305500D01*
X28257020Y-60300516D01*
X28212673Y-60272015D01*
X28110188Y-60169530D01*
X27964606Y-60081522D01*
X27802196Y-60030914D01*
X27802194Y-60030913D01*
X27802192Y-60030913D01*
X27752778Y-60026423D01*
X27731616Y-60024500D01*
X27218384Y-60024500D01*
X27199145Y-60026248D01*
X27147807Y-60030913D01*
X26985393Y-60081522D01*
X26839811Y-60169530D01*
X26719530Y-60289811D01*
X26631522Y-60435393D01*
X26580913Y-60597807D01*
X26576172Y-60649980D01*
X26574500Y-60668384D01*
X25500499Y-60668384D01*
X25500499Y-60299992D01*
X25499459Y-60289815D01*
X25489999Y-60197203D01*
X25489998Y-60197200D01*
X25480961Y-60169928D01*
X25434814Y-60030666D01*
X25342712Y-59881344D01*
X25218656Y-59757288D01*
X25125888Y-59700069D01*
X25069336Y-59665187D01*
X25069331Y-59665185D01*
X25067862Y-59664698D01*
X24902797Y-59610001D01*
X24902795Y-59610000D01*
X24800016Y-59599500D01*
X24800009Y-59599500D01*
X24474500Y-59599500D01*
X24407461Y-59579815D01*
X24361706Y-59527011D01*
X24350500Y-59475500D01*
X24350500Y-54327950D01*
X24370185Y-54260911D01*
X24422989Y-54215156D01*
X24450309Y-54206333D01*
X24456746Y-54205052D01*
X24599097Y-54176737D01*
X24744779Y-54116394D01*
X24875889Y-54028789D01*
X24987389Y-53917289D01*
X25074994Y-53786179D01*
X25135337Y-53640497D01*
X25166100Y-53485842D01*
X25166100Y-53328158D01*
X25166100Y-53328155D01*
X25166099Y-53328153D01*
X25157232Y-53283575D01*
X25135337Y-53173503D01*
X25131235Y-53163599D01*
X25074997Y-53027827D01*
X25074990Y-53027814D01*
X24987389Y-52896711D01*
X24987386Y-52896707D01*
X24875892Y-52785213D01*
X24875888Y-52785210D01*
X24744785Y-52697609D01*
X24744772Y-52697602D01*
X24599101Y-52637264D01*
X24599089Y-52637261D01*
X24444445Y-52606500D01*
X24444442Y-52606500D01*
X24286758Y-52606500D01*
X24286755Y-52606500D01*
X24132110Y-52637261D01*
X24132098Y-52637264D01*
X23986427Y-52697602D01*
X23986414Y-52697609D01*
X23855311Y-52785210D01*
X23855307Y-52785213D01*
X23743813Y-52896707D01*
X23743810Y-52896711D01*
X23656209Y-53027814D01*
X23656202Y-53027827D01*
X23595864Y-53173498D01*
X23595861Y-53173508D01*
X23564961Y-53328849D01*
X23556195Y-53345605D01*
X23552176Y-53364084D01*
X23533431Y-53389124D01*
X23532576Y-53390760D01*
X23531026Y-53392338D01*
X23463804Y-53459559D01*
X23381286Y-53542078D01*
X23381285Y-53542078D01*
X23381284Y-53542079D01*
X23381284Y-53542080D01*
X23340334Y-53583030D01*
X23269481Y-53653882D01*
X23269480Y-53653884D01*
X23251491Y-53685043D01*
X23206024Y-53763793D01*
X23193100Y-53786179D01*
X23190423Y-53790815D01*
X23149499Y-53943543D01*
X23149499Y-53943545D01*
X23149499Y-54111646D01*
X23149500Y-54111659D01*
X23149500Y-55665700D01*
X23129815Y-55732739D01*
X23077011Y-55778494D01*
X23025500Y-55789700D01*
X14755540Y-55789700D01*
X14714619Y-55800664D01*
X14714619Y-55800665D01*
X14677351Y-55810651D01*
X14602814Y-55830623D01*
X14602809Y-55830626D01*
X14465890Y-55909675D01*
X14465882Y-55909681D01*
X11457380Y-58918183D01*
X11444346Y-58940759D01*
X11434804Y-58957288D01*
X11378323Y-59055115D01*
X11337399Y-59207843D01*
X11337399Y-59207845D01*
X11337399Y-59375946D01*
X11337400Y-59375959D01*
X11337400Y-59831833D01*
X11317715Y-59898872D01*
X11264911Y-59944627D01*
X11200799Y-59955191D01*
X11149991Y-59950000D01*
X11050000Y-59950000D01*
X11050000Y-62049999D01*
X11149972Y-62049999D01*
X11149984Y-62049998D01*
X11200797Y-62044807D01*
X11269490Y-62057576D01*
X11320375Y-62105456D01*
X11337400Y-62168165D01*
X11337400Y-63326230D01*
X11337399Y-63326248D01*
X11337399Y-63491954D01*
X11337398Y-63491954D01*
X11377202Y-63640504D01*
X11378323Y-63644685D01*
X11396999Y-63677032D01*
X11443563Y-63757684D01*
X11457379Y-63781614D01*
X11457381Y-63781617D01*
X11576249Y-63900485D01*
X11576255Y-63900490D01*
X12413181Y-64737416D01*
X12446666Y-64798739D01*
X12449500Y-64825097D01*
X12449500Y-65700001D01*
X12449501Y-65700019D01*
X12460000Y-65802796D01*
X12460001Y-65802799D01*
X12515185Y-65969331D01*
X12515187Y-65969336D01*
X12518989Y-65975500D01*
X12607288Y-66118656D01*
X12731344Y-66242712D01*
X12880666Y-66334814D01*
X13047203Y-66389999D01*
X13149991Y-66400500D01*
X13900008Y-66400499D01*
X13943373Y-66396069D01*
X14012065Y-66408838D01*
X14062949Y-66456719D01*
X14079870Y-66524509D01*
X14057455Y-66590685D01*
X14043655Y-66607108D01*
X12812181Y-67838583D01*
X12750858Y-67872068D01*
X12681166Y-67867084D01*
X12625233Y-67825212D01*
X12600816Y-67759748D01*
X12600500Y-67750902D01*
X12600500Y-66864059D01*
X12600501Y-66864046D01*
X12600501Y-66695945D01*
X12600501Y-66695943D01*
X12559577Y-66543215D01*
X12520329Y-66475236D01*
X12480520Y-66406284D01*
X12368716Y-66294480D01*
X12368715Y-66294479D01*
X12364385Y-66290149D01*
X12364374Y-66290139D01*
X10711818Y-64637583D01*
X10678333Y-64576260D01*
X10675499Y-64549902D01*
X10675499Y-64201662D01*
X10675498Y-64201644D01*
X10665349Y-64102292D01*
X10665348Y-64102289D01*
X10641923Y-64031596D01*
X10612003Y-63941303D01*
X10611999Y-63941297D01*
X10611998Y-63941294D01*
X10522970Y-63796959D01*
X10522967Y-63796955D01*
X10403044Y-63677032D01*
X10403040Y-63677029D01*
X10258705Y-63588001D01*
X10258699Y-63587998D01*
X10258697Y-63587997D01*
X10249586Y-63584978D01*
X10097709Y-63534651D01*
X9998346Y-63524500D01*
X9451662Y-63524500D01*
X9451644Y-63524501D01*
X9352292Y-63534650D01*
X9352289Y-63534651D01*
X9191305Y-63587996D01*
X9191294Y-63588001D01*
X9046959Y-63677029D01*
X9046955Y-63677032D01*
X8927032Y-63796955D01*
X8927029Y-63796959D01*
X8838001Y-63941294D01*
X8837996Y-63941305D01*
X8784651Y-64102290D01*
X8774500Y-64201647D01*
X8500000Y-64201647D01*
X8500000Y-62113898D01*
X8519685Y-62046859D01*
X8572489Y-62001104D01*
X8584989Y-61996194D01*
X8619334Y-61984814D01*
X8768656Y-61892712D01*
X8892712Y-61768656D01*
X8984814Y-61619334D01*
X9039999Y-61452797D01*
X9050500Y-61350009D01*
X9050500Y-61349986D01*
X9750001Y-61349986D01*
X9760494Y-61452697D01*
X9815641Y-61619119D01*
X9815643Y-61619124D01*
X9907684Y-61768345D01*
X10031654Y-61892315D01*
X10180875Y-61984356D01*
X10180880Y-61984358D01*
X10347302Y-62039505D01*
X10347309Y-62039506D01*
X10450019Y-62049999D01*
X10550000Y-62049998D01*
X10550000Y-61250000D01*
X9750001Y-61250000D01*
X9750001Y-61349986D01*
X9050500Y-61349986D01*
X9050499Y-60650013D01*
X9750000Y-60650013D01*
X9750000Y-60750000D01*
X10550000Y-60750000D01*
X10550000Y-59949999D01*
X10450028Y-59950000D01*
X10450012Y-59950001D01*
X10347302Y-59960494D01*
X10180880Y-60015641D01*
X10180875Y-60015643D01*
X10031654Y-60107684D01*
X9907684Y-60231654D01*
X9815643Y-60380875D01*
X9815641Y-60380880D01*
X9760494Y-60547302D01*
X9760493Y-60547309D01*
X9750000Y-60650013D01*
X9050499Y-60650013D01*
X9050499Y-60649992D01*
X9045177Y-60597897D01*
X9039999Y-60547203D01*
X9039998Y-60547200D01*
X9017834Y-60480315D01*
X8984814Y-60380666D01*
X8892712Y-60231344D01*
X8768656Y-60107288D01*
X8645634Y-60031408D01*
X8619336Y-60015187D01*
X8619331Y-60015185D01*
X8617862Y-60014698D01*
X8452797Y-59960001D01*
X8452795Y-59960000D01*
X8350010Y-59949500D01*
X7649998Y-59949500D01*
X7649980Y-59949501D01*
X7547203Y-59960000D01*
X7547200Y-59960001D01*
X7380668Y-60015185D01*
X7380663Y-60015187D01*
X7231342Y-60107289D01*
X7107289Y-60231342D01*
X7015187Y-60380663D01*
X7015185Y-60380668D01*
X7003808Y-60415004D01*
X6964035Y-60472449D01*
X6899520Y-60499272D01*
X6886102Y-60500000D01*
X624500Y-60500000D01*
X557461Y-60480315D01*
X511706Y-60427511D01*
X500500Y-60376000D01*
X500500Y-47878711D01*
X1749500Y-47878711D01*
X1749500Y-48121288D01*
X1781161Y-48361785D01*
X1843947Y-48596104D01*
X1924845Y-48791408D01*
X1936776Y-48820212D01*
X2058064Y-49030289D01*
X2058066Y-49030292D01*
X2058067Y-49030293D01*
X2205733Y-49222736D01*
X2205739Y-49222743D01*
X2377256Y-49394260D01*
X2377263Y-49394266D01*
X2414000Y-49422455D01*
X2569711Y-49541936D01*
X2779788Y-49663224D01*
X3003900Y-49756054D01*
X3238211Y-49818838D01*
X3418586Y-49842584D01*
X3478711Y-49850500D01*
X3478712Y-49850500D01*
X3721289Y-49850500D01*
X3769388Y-49844167D01*
X3961789Y-49818838D01*
X4196100Y-49756054D01*
X4420212Y-49663224D01*
X4630289Y-49541936D01*
X4822738Y-49394265D01*
X4994265Y-49222738D01*
X5141936Y-49030289D01*
X5263224Y-48820212D01*
X5356054Y-48596100D01*
X5418838Y-48361789D01*
X5450500Y-48121288D01*
X5450500Y-47878712D01*
X5449628Y-47872092D01*
X5432367Y-47740979D01*
X5426198Y-47694118D01*
X5430813Y-47664526D01*
X5432941Y-47634639D01*
X5436141Y-47630361D01*
X5436964Y-47625085D01*
X5456845Y-47602684D01*
X5474794Y-47578692D01*
X5479798Y-47576823D01*
X5483344Y-47572829D01*
X5512186Y-47564731D01*
X5540251Y-47554254D01*
X5545470Y-47555387D01*
X5550612Y-47553944D01*
X5579247Y-47562723D01*
X5608528Y-47569083D01*
X5614454Y-47573517D01*
X5617413Y-47574425D01*
X5636790Y-47590225D01*
X5638328Y-47591763D01*
X5638329Y-47591765D01*
X5638349Y-47591785D01*
X5638355Y-47591790D01*
X12495239Y-54448674D01*
X12495249Y-54448685D01*
X12499579Y-54453015D01*
X12499580Y-54453016D01*
X12611384Y-54564820D01*
X12631236Y-54576281D01*
X12698195Y-54614939D01*
X12698197Y-54614941D01*
X12736251Y-54636911D01*
X12748315Y-54643877D01*
X12901043Y-54684800D01*
X13059157Y-54684800D01*
X16718631Y-54684800D01*
X16718647Y-54684801D01*
X16726243Y-54684801D01*
X16884354Y-54684801D01*
X16884357Y-54684801D01*
X17037085Y-54643877D01*
X17087204Y-54614939D01*
X17174016Y-54564820D01*
X17285820Y-54453016D01*
X17285820Y-54453014D01*
X17296028Y-54442807D01*
X17296030Y-54442804D01*
X17588613Y-54150221D01*
X17588616Y-54150220D01*
X17700420Y-54038416D01*
X17750539Y-53951604D01*
X17779477Y-53901485D01*
X17820401Y-53748757D01*
X17820401Y-53590643D01*
X17820401Y-53583048D01*
X17820400Y-53583030D01*
X17820400Y-48483297D01*
X17840085Y-48416258D01*
X17856719Y-48395616D01*
X17997229Y-48255106D01*
X18232944Y-48019390D01*
X18294265Y-47985907D01*
X18363956Y-47990891D01*
X18389514Y-48003971D01*
X18490114Y-48071190D01*
X18490127Y-48071197D01*
X18635798Y-48131535D01*
X18635803Y-48131537D01*
X18790453Y-48162299D01*
X18790456Y-48162300D01*
X18790458Y-48162300D01*
X18948144Y-48162300D01*
X18948145Y-48162299D01*
X19102797Y-48131537D01*
X19248479Y-48071194D01*
X19379589Y-47983589D01*
X19491089Y-47872089D01*
X19578694Y-47740979D01*
X19639037Y-47595297D01*
X19669800Y-47440642D01*
X19669800Y-47282958D01*
X19669800Y-47282955D01*
X19669799Y-47282953D01*
X19651733Y-47192129D01*
X19639037Y-47128303D01*
X19617285Y-47075789D01*
X19578697Y-46982627D01*
X19578690Y-46982614D01*
X19491089Y-46851511D01*
X19491086Y-46851507D01*
X19379592Y-46740013D01*
X19379588Y-46740010D01*
X19248485Y-46652409D01*
X19248472Y-46652402D01*
X19102801Y-46592064D01*
X19102789Y-46592061D01*
X18948145Y-46561300D01*
X18948142Y-46561300D01*
X18790458Y-46561300D01*
X18790455Y-46561300D01*
X18635810Y-46592061D01*
X18635798Y-46592064D01*
X18490127Y-46652402D01*
X18490114Y-46652409D01*
X18358425Y-46740402D01*
X18340378Y-46746052D01*
X18324469Y-46756277D01*
X18293507Y-46760728D01*
X18291747Y-46761280D01*
X18289534Y-46761300D01*
X18127969Y-46761300D01*
X18127953Y-46761299D01*
X18120357Y-46761299D01*
X17962243Y-46761299D01*
X17866917Y-46786842D01*
X17809510Y-46802224D01*
X17809509Y-46802225D01*
X17808895Y-46802580D01*
X17808310Y-46802721D01*
X17802001Y-46805335D01*
X17801593Y-46804350D01*
X17740994Y-46819049D01*
X17674968Y-46796194D01*
X17631780Y-46741271D01*
X17622900Y-46695190D01*
X17622900Y-46629155D01*
X17622899Y-46629153D01*
X17609402Y-46561300D01*
X17592137Y-46474503D01*
X17585328Y-46458064D01*
X17531797Y-46328827D01*
X17531790Y-46328814D01*
X17486714Y-46261353D01*
X17465836Y-46194675D01*
X17484321Y-46127295D01*
X17536299Y-46080605D01*
X17605269Y-46069429D01*
X17628122Y-46074528D01*
X17738018Y-46110235D01*
X17767173Y-46119709D01*
X17961578Y-46150500D01*
X17961583Y-46150500D01*
X19158422Y-46150500D01*
X19352826Y-46119709D01*
X19540025Y-46058884D01*
X19715405Y-45969524D01*
X19874646Y-45853828D01*
X20013828Y-45714646D01*
X20129524Y-45555405D01*
X20218884Y-45380025D01*
X20279709Y-45192826D01*
X20285085Y-45158882D01*
X20310500Y-44998422D01*
X20310500Y-44801577D01*
X20279709Y-44607173D01*
X20238397Y-44480029D01*
X20218884Y-44419975D01*
X20218882Y-44419972D01*
X20218882Y-44419970D01*
X20135439Y-44256204D01*
X20129524Y-44244595D01*
X20013828Y-44085354D01*
X19971655Y-44043181D01*
X19938170Y-43981858D01*
X19943154Y-43912166D01*
X19971655Y-43867819D01*
X19982656Y-43856818D01*
X20024828Y-43814646D01*
X20140524Y-43655405D01*
X20229884Y-43480025D01*
X20290709Y-43292826D01*
X20298576Y-43243154D01*
X20321500Y-43098422D01*
X20321500Y-42901577D01*
X20289947Y-42702362D01*
X20291556Y-42702107D01*
X20294686Y-42639444D01*
X20335346Y-42582623D01*
X20400270Y-42556805D01*
X20468846Y-42570185D01*
X20499454Y-42592589D01*
X26812939Y-48906074D01*
X26812949Y-48906085D01*
X26817279Y-48910415D01*
X26817280Y-48910416D01*
X26929084Y-49022220D01*
X26929086Y-49022221D01*
X26929090Y-49022224D01*
X27066009Y-49101273D01*
X27066016Y-49101277D01*
X27177819Y-49131234D01*
X27218742Y-49142200D01*
X27218743Y-49142200D01*
X28994268Y-49142200D01*
X29061307Y-49161885D01*
X29107062Y-49214689D01*
X29117006Y-49283847D01*
X29087981Y-49347403D01*
X29068579Y-49365466D01*
X28992455Y-49422452D01*
X28992452Y-49422455D01*
X28906206Y-49537664D01*
X28906202Y-49537671D01*
X28855908Y-49672517D01*
X28849501Y-49732116D01*
X28849500Y-49732135D01*
X28849500Y-50827870D01*
X28849501Y-50827876D01*
X28855908Y-50887483D01*
X28906202Y-51022328D01*
X28906206Y-51022335D01*
X28992452Y-51137544D01*
X28992455Y-51137547D01*
X29107664Y-51223793D01*
X29107671Y-51223797D01*
X29242517Y-51274091D01*
X29242516Y-51274091D01*
X29249444Y-51274835D01*
X29302127Y-51280500D01*
X32077200Y-51280499D01*
X32144239Y-51300184D01*
X32189994Y-51352987D01*
X32201200Y-51404499D01*
X32201200Y-51695500D01*
X32181515Y-51762539D01*
X32128711Y-51808294D01*
X32077200Y-51819500D01*
X29302129Y-51819500D01*
X29302123Y-51819501D01*
X29242516Y-51825908D01*
X29107671Y-51876202D01*
X29107664Y-51876206D01*
X28992455Y-51962452D01*
X28992452Y-51962455D01*
X28906206Y-52077664D01*
X28906202Y-52077671D01*
X28855908Y-52212517D01*
X28849501Y-52272116D01*
X28849500Y-52272135D01*
X28849500Y-53367870D01*
X28849501Y-53367876D01*
X28855908Y-53427483D01*
X28906202Y-53562328D01*
X28906206Y-53562335D01*
X28992452Y-53677544D01*
X28992455Y-53677547D01*
X29107664Y-53763793D01*
X29107671Y-53763797D01*
X29242517Y-53814091D01*
X29242516Y-53814091D01*
X29249444Y-53814835D01*
X29302127Y-53820500D01*
X32547872Y-53820499D01*
X32607483Y-53814091D01*
X32625551Y-53807352D01*
X32701967Y-53778851D01*
X32771659Y-53773867D01*
X32832982Y-53807352D01*
X32866466Y-53868675D01*
X32869300Y-53895033D01*
X32869300Y-58209830D01*
X32869299Y-58209848D01*
X32869299Y-58375554D01*
X32869298Y-58375554D01*
X32910223Y-58528285D01*
X32939158Y-58578400D01*
X32939159Y-58578404D01*
X32939160Y-58578404D01*
X32989279Y-58665214D01*
X32989281Y-58665217D01*
X33108149Y-58784085D01*
X33108155Y-58784090D01*
X42613439Y-68289374D01*
X42613449Y-68289385D01*
X42617779Y-68293715D01*
X42617780Y-68293716D01*
X42729584Y-68405520D01*
X42794289Y-68442877D01*
X42866515Y-68484577D01*
X42938615Y-68503896D01*
X42946815Y-68507416D01*
X42967134Y-68524224D01*
X42989653Y-68537950D01*
X42997165Y-68547048D01*
X43042450Y-68607541D01*
X43042455Y-68607547D01*
X43157664Y-68693793D01*
X43157671Y-68693797D01*
X43292517Y-68744091D01*
X43292516Y-68744091D01*
X43299444Y-68744835D01*
X43352127Y-68750500D01*
X44497872Y-68750499D01*
X44557483Y-68744091D01*
X44692331Y-68693796D01*
X44807546Y-68607546D01*
X44893796Y-68492331D01*
X44944091Y-68357483D01*
X44950500Y-68297873D01*
X44950499Y-67552128D01*
X44944091Y-67492517D01*
X44926174Y-67444480D01*
X44893797Y-67357671D01*
X44893793Y-67357664D01*
X44807547Y-67242455D01*
X44807544Y-67242452D01*
X44692335Y-67156206D01*
X44692328Y-67156202D01*
X44557482Y-67105908D01*
X44557483Y-67105908D01*
X44497883Y-67099501D01*
X44497881Y-67099500D01*
X44497873Y-67099500D01*
X44497864Y-67099500D01*
X43352129Y-67099500D01*
X43352123Y-67099501D01*
X43292516Y-67105908D01*
X43247677Y-67122632D01*
X43177985Y-67127615D01*
X43116665Y-67094130D01*
X34106619Y-58084084D01*
X34073134Y-58022761D01*
X34070300Y-57996403D01*
X34070300Y-50259965D01*
X34089985Y-50192926D01*
X34091198Y-50191074D01*
X34179190Y-50059385D01*
X34179190Y-50059384D01*
X34179194Y-50059379D01*
X34239537Y-49913697D01*
X34258406Y-49818838D01*
X34266369Y-49778808D01*
X34298754Y-49716897D01*
X34359470Y-49682323D01*
X34387986Y-49679000D01*
X34960614Y-49679000D01*
X35027653Y-49698685D01*
X35073408Y-49751489D01*
X35082231Y-49778808D01*
X35109061Y-49913691D01*
X35109064Y-49913701D01*
X35169402Y-50059372D01*
X35169409Y-50059385D01*
X35257010Y-50190488D01*
X35257013Y-50190492D01*
X35368507Y-50301986D01*
X35368511Y-50301989D01*
X35499614Y-50389590D01*
X35499627Y-50389597D01*
X35645298Y-50449935D01*
X35645303Y-50449937D01*
X35799953Y-50480699D01*
X35799956Y-50480700D01*
X35799958Y-50480700D01*
X35957644Y-50480700D01*
X35957645Y-50480699D01*
X36112297Y-50449937D01*
X36257979Y-50389594D01*
X36389089Y-50301989D01*
X36500589Y-50190489D01*
X36588194Y-50059379D01*
X36648537Y-49913697D01*
X36679300Y-49759042D01*
X36679300Y-49601358D01*
X36679300Y-49601355D01*
X36679299Y-49601353D01*
X36648538Y-49446710D01*
X36648537Y-49446703D01*
X36593425Y-49313652D01*
X36585957Y-49244183D01*
X36617232Y-49181704D01*
X36677321Y-49146052D01*
X36707987Y-49142200D01*
X37316603Y-49142200D01*
X37383642Y-49161885D01*
X37404284Y-49178519D01*
X52638181Y-64412416D01*
X52671666Y-64473739D01*
X52674500Y-64500097D01*
X52674500Y-64831613D01*
X52680913Y-64902192D01*
X52680913Y-64902194D01*
X52680914Y-64902196D01*
X52731522Y-65064606D01*
X52813272Y-65199837D01*
X52819530Y-65210188D01*
X52939811Y-65330469D01*
X52939813Y-65330470D01*
X52939815Y-65330472D01*
X53085394Y-65418478D01*
X53173101Y-65445808D01*
X53176029Y-65447758D01*
X53179542Y-65448010D01*
X53204892Y-65466986D01*
X53231246Y-65484543D01*
X53232656Y-65487770D01*
X53235476Y-65489881D01*
X53246541Y-65519549D01*
X53259221Y-65548568D01*
X53258662Y-65552046D01*
X53259893Y-65555346D01*
X53253162Y-65586285D01*
X53248140Y-65617553D01*
X53245569Y-65621191D01*
X53245041Y-65623619D01*
X53223890Y-65651873D01*
X53054586Y-65821178D01*
X52942781Y-65932982D01*
X52942777Y-65932987D01*
X52892842Y-66019479D01*
X52892842Y-66019480D01*
X52863723Y-66069914D01*
X52863723Y-66069915D01*
X52822799Y-66222643D01*
X52822799Y-66222645D01*
X52822799Y-66390746D01*
X52822800Y-66390759D01*
X52822800Y-67915555D01*
X52803115Y-67982594D01*
X52750311Y-68028349D01*
X52681153Y-68038293D01*
X52661916Y-68033942D01*
X52652198Y-68030914D01*
X52623964Y-68028348D01*
X52581616Y-68024500D01*
X52581613Y-68024500D01*
X52250097Y-68024500D01*
X52183058Y-68004815D01*
X52162416Y-67988181D01*
X51737590Y-67563355D01*
X51737588Y-67563352D01*
X51618717Y-67444481D01*
X51618716Y-67444480D01*
X51531904Y-67394360D01*
X51531904Y-67394359D01*
X51531900Y-67394358D01*
X51481785Y-67365423D01*
X51329057Y-67324499D01*
X51170943Y-67324499D01*
X51163347Y-67324499D01*
X51163331Y-67324500D01*
X49081035Y-67324500D01*
X49013996Y-67304815D01*
X48981768Y-67274810D01*
X48957550Y-67242458D01*
X48957547Y-67242455D01*
X48957546Y-67242454D01*
X48957542Y-67242451D01*
X48842335Y-67156206D01*
X48842328Y-67156202D01*
X48707482Y-67105908D01*
X48707483Y-67105908D01*
X48647883Y-67099501D01*
X48647881Y-67099500D01*
X48647873Y-67099500D01*
X48647864Y-67099500D01*
X47502129Y-67099500D01*
X47502123Y-67099501D01*
X47442516Y-67105908D01*
X47307671Y-67156202D01*
X47307664Y-67156206D01*
X47192455Y-67242452D01*
X47192452Y-67242455D01*
X47106206Y-67357664D01*
X47106202Y-67357671D01*
X47055910Y-67492513D01*
X47055909Y-67492517D01*
X47049500Y-67552127D01*
X47049500Y-67552134D01*
X47049500Y-67552135D01*
X47049500Y-68297870D01*
X47049501Y-68297876D01*
X47055908Y-68357483D01*
X47106202Y-68492328D01*
X47106206Y-68492335D01*
X47192452Y-68607544D01*
X47192455Y-68607547D01*
X47307664Y-68693793D01*
X47307671Y-68693797D01*
X47442517Y-68744091D01*
X47442516Y-68744091D01*
X47449444Y-68744835D01*
X47502127Y-68750500D01*
X48647872Y-68750499D01*
X48707483Y-68744091D01*
X48842331Y-68693796D01*
X48957546Y-68607546D01*
X48964701Y-68597989D01*
X48981768Y-68575190D01*
X49037701Y-68533318D01*
X49081035Y-68525500D01*
X49651706Y-68525500D01*
X49718745Y-68545185D01*
X49764500Y-68597989D01*
X49775196Y-68660722D01*
X49774500Y-68668384D01*
X49774500Y-68668393D01*
X49774500Y-69331613D01*
X49780913Y-69402192D01*
X49780913Y-69402194D01*
X49780914Y-69402196D01*
X49831522Y-69564606D01*
X49841530Y-69581162D01*
X49919530Y-69710188D01*
X50039811Y-69830469D01*
X50039813Y-69830470D01*
X50039815Y-69830472D01*
X50185394Y-69918478D01*
X50347804Y-69969086D01*
X50418384Y-69975500D01*
X50749902Y-69975500D01*
X50816941Y-69995185D01*
X50837583Y-70011819D01*
X51098384Y-70272620D01*
X51098385Y-70272621D01*
X51098387Y-70272622D01*
X51148329Y-70301456D01*
X51196544Y-70352023D01*
X51209768Y-70420630D01*
X51183800Y-70485495D01*
X51126886Y-70526023D01*
X51073726Y-70532201D01*
X50998346Y-70524500D01*
X50451662Y-70524500D01*
X50451644Y-70524501D01*
X50352292Y-70534650D01*
X50352289Y-70534651D01*
X50191305Y-70587996D01*
X50191294Y-70588001D01*
X50046959Y-70677029D01*
X50046955Y-70677032D01*
X49927032Y-70796955D01*
X49927029Y-70796959D01*
X49838001Y-70941294D01*
X49837996Y-70941305D01*
X49784651Y-71102290D01*
X49774500Y-71201647D01*
X49774500Y-71798337D01*
X49774501Y-71798355D01*
X49784650Y-71897707D01*
X49784651Y-71897710D01*
X49837996Y-72058694D01*
X49838001Y-72058705D01*
X49927029Y-72203040D01*
X49927032Y-72203044D01*
X50046955Y-72322967D01*
X50046959Y-72322970D01*
X50191294Y-72411998D01*
X50191297Y-72411999D01*
X50191303Y-72412003D01*
X50352292Y-72465349D01*
X50451655Y-72475500D01*
X50998344Y-72475499D01*
X50998352Y-72475498D01*
X50998355Y-72475498D01*
X51052760Y-72469940D01*
X51097708Y-72465349D01*
X51258697Y-72412003D01*
X51403044Y-72322968D01*
X51412668Y-72313343D01*
X51473987Y-72279856D01*
X51543679Y-72284835D01*
X51588034Y-72313339D01*
X51597267Y-72322572D01*
X51597271Y-72322575D01*
X51741507Y-72411542D01*
X51741518Y-72411547D01*
X51902393Y-72464855D01*
X52001683Y-72474999D01*
X52525000Y-72474999D01*
X52548308Y-72474999D01*
X52548322Y-72474998D01*
X52647607Y-72464855D01*
X52808481Y-72411547D01*
X52808492Y-72411542D01*
X52952728Y-72322575D01*
X52952732Y-72322572D01*
X53072572Y-72202732D01*
X53072575Y-72202728D01*
X53161542Y-72058492D01*
X53161547Y-72058481D01*
X53214855Y-71897606D01*
X53224999Y-71798322D01*
X53225000Y-71798309D01*
X53225000Y-71750000D01*
X52525000Y-71750000D01*
X52525000Y-72474999D01*
X52001683Y-72474999D01*
X52025000Y-72474998D01*
X52025000Y-71624000D01*
X52044685Y-71556961D01*
X52097489Y-71511206D01*
X52149000Y-71500000D01*
X52275000Y-71500000D01*
X52275000Y-71374000D01*
X52294685Y-71306961D01*
X52327287Y-71278711D01*
X60549500Y-71278711D01*
X60549500Y-71521288D01*
X60581161Y-71761785D01*
X60643947Y-71996104D01*
X60729663Y-72203040D01*
X60736776Y-72220212D01*
X60858064Y-72430289D01*
X60858066Y-72430292D01*
X60858067Y-72430293D01*
X61005733Y-72622736D01*
X61005739Y-72622743D01*
X61177256Y-72794260D01*
X61177262Y-72794265D01*
X61369711Y-72941936D01*
X61579788Y-73063224D01*
X61803900Y-73156054D01*
X62038211Y-73218838D01*
X62218586Y-73242584D01*
X62278711Y-73250500D01*
X62278712Y-73250500D01*
X62521289Y-73250500D01*
X62569388Y-73244167D01*
X62761789Y-73218838D01*
X62996100Y-73156054D01*
X63220212Y-73063224D01*
X63430289Y-72941936D01*
X63622738Y-72794265D01*
X63794265Y-72622738D01*
X63941936Y-72430289D01*
X64063224Y-72220212D01*
X64156054Y-71996100D01*
X64218838Y-71761789D01*
X64250500Y-71521288D01*
X64250500Y-71278712D01*
X64218838Y-71038211D01*
X64156054Y-70803900D01*
X64063224Y-70579788D01*
X63941936Y-70369711D01*
X63867434Y-70272618D01*
X63794266Y-70177263D01*
X63794260Y-70177256D01*
X63622743Y-70005739D01*
X63622736Y-70005733D01*
X63430293Y-69858067D01*
X63430292Y-69858066D01*
X63430289Y-69858064D01*
X63220212Y-69736776D01*
X63156023Y-69710188D01*
X62996104Y-69643947D01*
X62808939Y-69593796D01*
X62761789Y-69581162D01*
X62761788Y-69581161D01*
X62761785Y-69581161D01*
X62521289Y-69549500D01*
X62521288Y-69549500D01*
X62278712Y-69549500D01*
X62278711Y-69549500D01*
X62038214Y-69581161D01*
X61803895Y-69643947D01*
X61579794Y-69736773D01*
X61579785Y-69736777D01*
X61369706Y-69858067D01*
X61177263Y-70005733D01*
X61177256Y-70005739D01*
X61005739Y-70177256D01*
X61005733Y-70177263D01*
X60858067Y-70369706D01*
X60736777Y-70579785D01*
X60736773Y-70579794D01*
X60643947Y-70803895D01*
X60581161Y-71038214D01*
X60549500Y-71278711D01*
X52327287Y-71278711D01*
X52347489Y-71261206D01*
X52399000Y-71250000D01*
X53224999Y-71250000D01*
X53224999Y-71201692D01*
X53224998Y-71201677D01*
X53214855Y-71102392D01*
X53161547Y-70941518D01*
X53161542Y-70941507D01*
X53072575Y-70797271D01*
X53072572Y-70797267D01*
X52952732Y-70677427D01*
X52952728Y-70677424D01*
X52863096Y-70622138D01*
X52816371Y-70570190D01*
X52805150Y-70501228D01*
X52832993Y-70437146D01*
X52891062Y-70398290D01*
X52928193Y-70392600D01*
X57047131Y-70392600D01*
X57047147Y-70392601D01*
X57054743Y-70392601D01*
X57212854Y-70392601D01*
X57212857Y-70392601D01*
X57365585Y-70351677D01*
X57429977Y-70314500D01*
X57502516Y-70272620D01*
X57614320Y-70160816D01*
X57614320Y-70160814D01*
X57624524Y-70150611D01*
X57624528Y-70150606D01*
X58088316Y-69686818D01*
X58149639Y-69653333D01*
X58175997Y-69650499D01*
X58322871Y-69650499D01*
X58322872Y-69650499D01*
X58382483Y-69644091D01*
X58517331Y-69593796D01*
X58615136Y-69520578D01*
X58657346Y-69500074D01*
X58808484Y-69459577D01*
X58945416Y-69380520D01*
X59057220Y-69268716D01*
X59136277Y-69131784D01*
X59177200Y-68979057D01*
X59177200Y-68274500D01*
X59196885Y-68207461D01*
X59249689Y-68161706D01*
X59301200Y-68150500D01*
X59882331Y-68150500D01*
X59882347Y-68150501D01*
X59889943Y-68150501D01*
X60048054Y-68150501D01*
X60048057Y-68150501D01*
X60200785Y-68109577D01*
X60253647Y-68079057D01*
X60253648Y-68079057D01*
X60337709Y-68030524D01*
X60337708Y-68030524D01*
X60337716Y-68030520D01*
X60449520Y-67918716D01*
X60449520Y-67918714D01*
X60459724Y-67908511D01*
X60459728Y-67908506D01*
X62886006Y-65482228D01*
X62886011Y-65482224D01*
X62896214Y-65472020D01*
X62896216Y-65472020D01*
X63008020Y-65360216D01*
X63087077Y-65223284D01*
X63119977Y-65100500D01*
X63128000Y-65070558D01*
X63128000Y-64912443D01*
X63128000Y-61628659D01*
X63128001Y-61628646D01*
X63128001Y-61460545D01*
X63128001Y-61460543D01*
X63087077Y-61307815D01*
X63087076Y-61307814D01*
X63087076Y-61307812D01*
X63087075Y-61307811D01*
X63043180Y-61231783D01*
X63043180Y-61231782D01*
X63008024Y-61170890D01*
X63008021Y-61170886D01*
X63008020Y-61170884D01*
X62896216Y-61059080D01*
X62896215Y-61059079D01*
X62891885Y-61054749D01*
X62891874Y-61054739D01*
X47410016Y-45572881D01*
X47376531Y-45511558D01*
X47381515Y-45441866D01*
X47423387Y-45385933D01*
X47488851Y-45361516D01*
X47497697Y-45361200D01*
X47639844Y-45361200D01*
X47639845Y-45361199D01*
X47794497Y-45330437D01*
X47940179Y-45270094D01*
X48071289Y-45182489D01*
X48182789Y-45070989D01*
X48270394Y-44939879D01*
X48330737Y-44794197D01*
X48361500Y-44639542D01*
X48361500Y-44481858D01*
X48361500Y-44481855D01*
X48349792Y-44422998D01*
X48349792Y-44422997D01*
X48345641Y-44402127D01*
X60949500Y-44402127D01*
X60949500Y-44402134D01*
X60949500Y-44402135D01*
X60949500Y-44997870D01*
X60949501Y-44997876D01*
X60955908Y-45057483D01*
X61006202Y-45192328D01*
X61006206Y-45192335D01*
X61092452Y-45307544D01*
X61092455Y-45307547D01*
X61207664Y-45393793D01*
X61207671Y-45393797D01*
X61229968Y-45402113D01*
X61342517Y-45444091D01*
X61402127Y-45450500D01*
X61797872Y-45450499D01*
X61857483Y-45444091D01*
X61956669Y-45407096D01*
X62026358Y-45402113D01*
X62043319Y-45407092D01*
X62133371Y-45440679D01*
X62142511Y-45444089D01*
X62142517Y-45444091D01*
X62202127Y-45450500D01*
X62597872Y-45450499D01*
X62657483Y-45444091D01*
X62792331Y-45393796D01*
X62907546Y-45307546D01*
X62993796Y-45192331D01*
X63044091Y-45057483D01*
X63050500Y-44997873D01*
X63050499Y-44402128D01*
X63044091Y-44342517D01*
X63042167Y-44337359D01*
X62993797Y-44207671D01*
X62993793Y-44207664D01*
X62907547Y-44092455D01*
X62902773Y-44087681D01*
X62869288Y-44026358D01*
X62874272Y-43956666D01*
X62902773Y-43912319D01*
X62907542Y-43907548D01*
X62907546Y-43907546D01*
X62993796Y-43792331D01*
X63044091Y-43657483D01*
X63050500Y-43597873D01*
X63050499Y-43002128D01*
X63044091Y-42942517D01*
X63028821Y-42901577D01*
X62993797Y-42807671D01*
X62993793Y-42807664D01*
X62907547Y-42692455D01*
X62907544Y-42692452D01*
X62792335Y-42606206D01*
X62792328Y-42606202D01*
X62657486Y-42555910D01*
X62657485Y-42555909D01*
X62657483Y-42555909D01*
X62597873Y-42549500D01*
X62597863Y-42549500D01*
X62202129Y-42549500D01*
X62202123Y-42549501D01*
X62142515Y-42555909D01*
X62042617Y-42593168D01*
X61972926Y-42598152D01*
X61955952Y-42593168D01*
X61857380Y-42556403D01*
X61857372Y-42556401D01*
X61797844Y-42550000D01*
X61750000Y-42550000D01*
X61750000Y-42991160D01*
X61749982Y-42997638D01*
X61749500Y-43002127D01*
X61749500Y-43176336D01*
X61739624Y-43209635D01*
X61729817Y-43243039D01*
X61729684Y-43243154D01*
X61729635Y-43243320D01*
X61703383Y-43265944D01*
X61677013Y-43288794D01*
X61676820Y-43288835D01*
X61676708Y-43288933D01*
X61675758Y-43289066D01*
X61625501Y-43300000D01*
X61574000Y-43300000D01*
X61506961Y-43280315D01*
X61461206Y-43227511D01*
X61450000Y-43176000D01*
X61450000Y-42550000D01*
X61402155Y-42550000D01*
X61342627Y-42556401D01*
X61342620Y-42556403D01*
X61207913Y-42606645D01*
X61207906Y-42606649D01*
X61092812Y-42692809D01*
X61092809Y-42692812D01*
X61006649Y-42807906D01*
X61006645Y-42807913D01*
X60956403Y-42942620D01*
X60956401Y-42942627D01*
X60950000Y-43002155D01*
X60950000Y-43150000D01*
X61126000Y-43150000D01*
X61134685Y-43152550D01*
X61143647Y-43151262D01*
X61167687Y-43162240D01*
X61193039Y-43169685D01*
X61198966Y-43176525D01*
X61207203Y-43180287D01*
X61221492Y-43202521D01*
X61238794Y-43222489D01*
X61241081Y-43233003D01*
X61244977Y-43239065D01*
X61250000Y-43274000D01*
X61250000Y-43326000D01*
X61230315Y-43393039D01*
X61177511Y-43438794D01*
X61126000Y-43450000D01*
X60950000Y-43450000D01*
X60950000Y-43597844D01*
X60956401Y-43657372D01*
X60956403Y-43657379D01*
X61006645Y-43792086D01*
X61006649Y-43792093D01*
X61092809Y-43907187D01*
X61097584Y-43911962D01*
X61131069Y-43973285D01*
X61126085Y-44042977D01*
X61097584Y-44087324D01*
X61092452Y-44092455D01*
X61006206Y-44207664D01*
X61006202Y-44207671D01*
X60955933Y-44342452D01*
X60955909Y-44342517D01*
X60949500Y-44402127D01*
X48345641Y-44402127D01*
X48333771Y-44342455D01*
X48330737Y-44327203D01*
X48330735Y-44327198D01*
X48270397Y-44181527D01*
X48270390Y-44181514D01*
X48182398Y-44049825D01*
X48161520Y-43983147D01*
X48161500Y-43980934D01*
X48161500Y-13753645D01*
X48161500Y-13753644D01*
X48161500Y-13753643D01*
X48120577Y-13600916D01*
X48108550Y-13580084D01*
X48041524Y-13463990D01*
X48041521Y-13463986D01*
X48041520Y-13463984D01*
X47929716Y-13352180D01*
X47929715Y-13352179D01*
X47925385Y-13347849D01*
X47925374Y-13347839D01*
X46891396Y-12313861D01*
X46857911Y-12252538D01*
X46862895Y-12182846D01*
X46891392Y-12138503D01*
X47030104Y-11999792D01*
X47155051Y-11827816D01*
X47251557Y-11638412D01*
X47317246Y-11436243D01*
X47350500Y-11226287D01*
X47350500Y-11013713D01*
X47317246Y-10803757D01*
X47251557Y-10601588D01*
X47155051Y-10412184D01*
X47155049Y-10412181D01*
X47155048Y-10412179D01*
X47030109Y-10240213D01*
X46879786Y-10089890D01*
X46707820Y-9964951D01*
X46707115Y-9964591D01*
X46699054Y-9960485D01*
X46648259Y-9912512D01*
X46631463Y-9844692D01*
X46653999Y-9778556D01*
X46699054Y-9739515D01*
X46707816Y-9735051D01*
X46787677Y-9677029D01*
X46879786Y-9610109D01*
X46879788Y-9610106D01*
X46879792Y-9610104D01*
X47030104Y-9459792D01*
X47030106Y-9459788D01*
X47030109Y-9459786D01*
X47140542Y-9307786D01*
X47155051Y-9287816D01*
X47251557Y-9098412D01*
X47317246Y-8896243D01*
X47350500Y-8686287D01*
X47350500Y-8473713D01*
X47317246Y-8263757D01*
X47251557Y-8061588D01*
X47155051Y-7872184D01*
X47155049Y-7872181D01*
X47155048Y-7872179D01*
X47030109Y-7700213D01*
X46879786Y-7549890D01*
X46707820Y-7424951D01*
X46518414Y-7328444D01*
X46518413Y-7328443D01*
X46518412Y-7328443D01*
X46316243Y-7262754D01*
X46316241Y-7262753D01*
X46316240Y-7262753D01*
X46154957Y-7237208D01*
X46106287Y-7229500D01*
X45893713Y-7229500D01*
X45845042Y-7237208D01*
X45683760Y-7262753D01*
X45481585Y-7328444D01*
X45292179Y-7424951D01*
X45120213Y-7549890D01*
X44969890Y-7700213D01*
X44844951Y-7872179D01*
X44748444Y-8061585D01*
X44682753Y-8263760D01*
X44649500Y-8473713D01*
X44649500Y-8686286D01*
X44677624Y-8863858D01*
X44682754Y-8896243D01*
X44734764Y-9056314D01*
X44748444Y-9098414D01*
X44844951Y-9287820D01*
X44969890Y-9459786D01*
X45120213Y-9610109D01*
X45292182Y-9735050D01*
X45300946Y-9739516D01*
X45351742Y-9787491D01*
X45368536Y-9855312D01*
X45345998Y-9921447D01*
X45300946Y-9960484D01*
X45292182Y-9964949D01*
X45120213Y-10089890D01*
X44969890Y-10240213D01*
X44844951Y-10412179D01*
X44748444Y-10601585D01*
X44682753Y-10803760D01*
X44649500Y-11013713D01*
X44649500Y-11226286D01*
X44682619Y-11435394D01*
X44682754Y-11436243D01*
X44709960Y-11519975D01*
X44748444Y-11638414D01*
X44844951Y-11827820D01*
X44969890Y-11999786D01*
X44969896Y-11999792D01*
X45120208Y-12150104D01*
X45292184Y-12275051D01*
X45327070Y-12292826D01*
X45343782Y-12301341D01*
X45364845Y-12321234D01*
X45387794Y-12338924D01*
X45391252Y-12346173D01*
X45394579Y-12349315D01*
X45404270Y-12370136D01*
X45405960Y-12374872D01*
X45440423Y-12503485D01*
X45464805Y-12545715D01*
X45475712Y-12564606D01*
X45519479Y-12640414D01*
X45519481Y-12640417D01*
X45638349Y-12759285D01*
X45638355Y-12759290D01*
X46924182Y-14045117D01*
X46957666Y-14106438D01*
X46960500Y-14132796D01*
X46960500Y-43980934D01*
X46940815Y-44047973D01*
X46939602Y-44049825D01*
X46851609Y-44181514D01*
X46851602Y-44181527D01*
X46791264Y-44327198D01*
X46791261Y-44327210D01*
X46760500Y-44481853D01*
X46760500Y-44624003D01*
X46740815Y-44691042D01*
X46688011Y-44736797D01*
X46618853Y-44746741D01*
X46555297Y-44717716D01*
X46548819Y-44711684D01*
X39504330Y-37667195D01*
X39496821Y-37659686D01*
X39496820Y-37659684D01*
X39385016Y-37547880D01*
X39379563Y-37544732D01*
X39369339Y-37534696D01*
X39355840Y-37510513D01*
X39339510Y-37488147D01*
X39337764Y-37478129D01*
X39335285Y-37473688D01*
X39335733Y-37466476D01*
X39332200Y-37446202D01*
X39332200Y-34306000D01*
X39351885Y-34238961D01*
X39404689Y-34193206D01*
X39456200Y-34182000D01*
X39592844Y-34182000D01*
X39592845Y-34181999D01*
X39747497Y-34151237D01*
X39893179Y-34090894D01*
X40024289Y-34003289D01*
X40135789Y-33891789D01*
X40223394Y-33760679D01*
X40283737Y-33614997D01*
X40314500Y-33460342D01*
X40314500Y-33456887D01*
X40315038Y-33454878D01*
X40315097Y-33454282D01*
X40315195Y-33454291D01*
X40331113Y-33394887D01*
X40384577Y-33302284D01*
X40425500Y-33149557D01*
X40425500Y-32516519D01*
X40445185Y-32449480D01*
X40461814Y-32428842D01*
X40580472Y-32310185D01*
X40668478Y-32164606D01*
X40719086Y-32002196D01*
X40725500Y-31931616D01*
X40725500Y-31589368D01*
X40729649Y-31573879D01*
X40728995Y-31560137D01*
X40742109Y-31527375D01*
X40785739Y-31451804D01*
X40814677Y-31401685D01*
X40855600Y-31248958D01*
X40855600Y-31090843D01*
X40855600Y-29305323D01*
X40875285Y-29238284D01*
X40928089Y-29192529D01*
X40997247Y-29182585D01*
X41018593Y-29187614D01*
X41102292Y-29215349D01*
X41201655Y-29225500D01*
X41798344Y-29225499D01*
X41798352Y-29225498D01*
X41798355Y-29225498D01*
X41852760Y-29219940D01*
X41897708Y-29215349D01*
X42058697Y-29162003D01*
X42203044Y-29072968D01*
X42322968Y-28953044D01*
X42412003Y-28808697D01*
X42465349Y-28647708D01*
X42475500Y-28548345D01*
X42475499Y-28001656D01*
X42465349Y-27902292D01*
X42412003Y-27741303D01*
X42411999Y-27741297D01*
X42411998Y-27741294D01*
X42322970Y-27596959D01*
X42322967Y-27596955D01*
X42313693Y-27587681D01*
X42280208Y-27526358D01*
X42285192Y-27456666D01*
X42313693Y-27412319D01*
X42322968Y-27403044D01*
X42412003Y-27258697D01*
X42465349Y-27097708D01*
X42475500Y-26998345D01*
X42475499Y-26451656D01*
X42465349Y-26352292D01*
X42412003Y-26191303D01*
X42411999Y-26191297D01*
X42411998Y-26191294D01*
X42322970Y-26046959D01*
X42322969Y-26046958D01*
X42322968Y-26046956D01*
X42203044Y-25927032D01*
X42203043Y-25927031D01*
X42203042Y-25927030D01*
X42159402Y-25900112D01*
X42152578Y-25892525D01*
X42143297Y-25888287D01*
X42129607Y-25866986D01*
X42112678Y-25848163D01*
X42110034Y-25836528D01*
X42105523Y-25829509D01*
X42100500Y-25794574D01*
X42100500Y-25705424D01*
X42120185Y-25638385D01*
X42159402Y-25599886D01*
X42203044Y-25572968D01*
X42322968Y-25453044D01*
X42412003Y-25308697D01*
X42465349Y-25147708D01*
X42475500Y-25048345D01*
X42475499Y-24501656D01*
X42467931Y-24427573D01*
X42465349Y-24402292D01*
X42465348Y-24402289D01*
X42461506Y-24390694D01*
X42412003Y-24241303D01*
X42411999Y-24241297D01*
X42411998Y-24241294D01*
X42322970Y-24096959D01*
X42322967Y-24096955D01*
X42313339Y-24087327D01*
X42279854Y-24026004D01*
X42284838Y-23956312D01*
X42313345Y-23911959D01*
X42322573Y-23902731D01*
X42411542Y-23758492D01*
X42411547Y-23758481D01*
X42464855Y-23597606D01*
X42474999Y-23498322D01*
X42475000Y-23498309D01*
X42475000Y-23475000D01*
X41624000Y-23475000D01*
X41556961Y-23455315D01*
X41511206Y-23402511D01*
X41500000Y-23351000D01*
X41500000Y-23225000D01*
X41381300Y-23225000D01*
X41314261Y-23205315D01*
X41268506Y-23152511D01*
X41257300Y-23101000D01*
X41257300Y-22975000D01*
X41750000Y-22975000D01*
X42474999Y-22975000D01*
X42474999Y-22951692D01*
X42474998Y-22951677D01*
X42464855Y-22852392D01*
X42411547Y-22691518D01*
X42411542Y-22691507D01*
X42322575Y-22547271D01*
X42322572Y-22547267D01*
X42202732Y-22427427D01*
X42202728Y-22427424D01*
X42058492Y-22338457D01*
X42058481Y-22338452D01*
X41897606Y-22285144D01*
X41798322Y-22275000D01*
X41750000Y-22275000D01*
X41750000Y-22975000D01*
X41257300Y-22975000D01*
X41257300Y-21849499D01*
X41276985Y-21782460D01*
X41329789Y-21736705D01*
X41381300Y-21725499D01*
X41798338Y-21725499D01*
X41798344Y-21725499D01*
X41798352Y-21725498D01*
X41798355Y-21725498D01*
X41852760Y-21719940D01*
X41897708Y-21715349D01*
X42058697Y-21662003D01*
X42203044Y-21572968D01*
X42322968Y-21453044D01*
X42412003Y-21308697D01*
X42465349Y-21147708D01*
X42475500Y-21048345D01*
X42475499Y-20700095D01*
X42484145Y-20670649D01*
X42490667Y-20640669D01*
X42494419Y-20635655D01*
X42495183Y-20633057D01*
X42511813Y-20612420D01*
X42636106Y-20488128D01*
X42636111Y-20488124D01*
X42646314Y-20477920D01*
X42646316Y-20477920D01*
X42758120Y-20366116D01*
X42837177Y-20229184D01*
X42878100Y-20076457D01*
X42878100Y-18090943D01*
X42878100Y-17973543D01*
X42878100Y-17971551D01*
X42877300Y-17959339D01*
X42877300Y-17578251D01*
X42877301Y-17577834D01*
X42877335Y-17567667D01*
X42877901Y-17565557D01*
X42877901Y-17407442D01*
X42877900Y-17407438D01*
X42877900Y-16461584D01*
X42894513Y-16399585D01*
X42942719Y-16316088D01*
X42971877Y-16265584D01*
X43004294Y-16144602D01*
X43012800Y-16112858D01*
X43012800Y-15954743D01*
X43012800Y-9522465D01*
X43032485Y-9455426D01*
X43033698Y-9453574D01*
X43068031Y-9402192D01*
X43121694Y-9321879D01*
X43127532Y-9307786D01*
X43173842Y-9195981D01*
X43182037Y-9176197D01*
X43212800Y-9021542D01*
X43212800Y-8863858D01*
X43212800Y-8863855D01*
X43212799Y-8863853D01*
X43182038Y-8709210D01*
X43182037Y-8709203D01*
X43165130Y-8668386D01*
X43121697Y-8563527D01*
X43121690Y-8563514D01*
X43034089Y-8432411D01*
X43034086Y-8432407D01*
X42922592Y-8320913D01*
X42922588Y-8320910D01*
X42791485Y-8233309D01*
X42791472Y-8233302D01*
X42645801Y-8172964D01*
X42645789Y-8172961D01*
X42491145Y-8142200D01*
X42491142Y-8142200D01*
X42333458Y-8142200D01*
X42333455Y-8142200D01*
X42178810Y-8172961D01*
X42178803Y-8172963D01*
X42087504Y-8210779D01*
X42018035Y-8218246D01*
X41955556Y-8186971D01*
X41952372Y-8183898D01*
X41814648Y-8046174D01*
X41814646Y-8046172D01*
X41655405Y-7930476D01*
X41480029Y-7841117D01*
X41292826Y-7780290D01*
X41098422Y-7749500D01*
X41098417Y-7749500D01*
X40901583Y-7749500D01*
X40901578Y-7749500D01*
X40707173Y-7780290D01*
X40519970Y-7841117D01*
X40344594Y-7930476D01*
X40253741Y-7996485D01*
X40185354Y-8046172D01*
X40185352Y-8046174D01*
X40185351Y-8046174D01*
X40046174Y-8185351D01*
X40046174Y-8185352D01*
X40046172Y-8185354D01*
X39996805Y-8253301D01*
X39930476Y-8344594D01*
X39841117Y-8519970D01*
X39780290Y-8707173D01*
X39749500Y-8901577D01*
X39749500Y-9098422D01*
X39780290Y-9292826D01*
X39841117Y-9480029D01*
X39930476Y-9655405D01*
X40046172Y-9814646D01*
X40185354Y-9953828D01*
X40344595Y-10069524D01*
X40408906Y-10102292D01*
X40519970Y-10158882D01*
X40519972Y-10158882D01*
X40519975Y-10158884D01*
X40594867Y-10183218D01*
X40707173Y-10219709D01*
X40901578Y-10250500D01*
X40901583Y-10250500D01*
X41098422Y-10250500D01*
X41292826Y-10219709D01*
X41480025Y-10158884D01*
X41631506Y-10081700D01*
X41700174Y-10068805D01*
X41764915Y-10095081D01*
X41805172Y-10152188D01*
X41811800Y-10192186D01*
X41811800Y-10807813D01*
X41792115Y-10874852D01*
X41739311Y-10920607D01*
X41670153Y-10930551D01*
X41631506Y-10918298D01*
X41480032Y-10841118D01*
X41292826Y-10780290D01*
X41098422Y-10749500D01*
X41098417Y-10749500D01*
X40901583Y-10749500D01*
X40901578Y-10749500D01*
X40707173Y-10780290D01*
X40519970Y-10841117D01*
X40344594Y-10930476D01*
X40253760Y-10996472D01*
X40185354Y-11046172D01*
X40185352Y-11046174D01*
X40185351Y-11046174D01*
X40046174Y-11185351D01*
X40046174Y-11185352D01*
X40046172Y-11185354D01*
X40033319Y-11203045D01*
X39930476Y-11344594D01*
X39841117Y-11519970D01*
X39780290Y-11707173D01*
X39749500Y-11901577D01*
X39749500Y-12098422D01*
X39780290Y-12292826D01*
X39841117Y-12480029D01*
X39930479Y-12655411D01*
X39943375Y-12724081D01*
X39917098Y-12788821D01*
X39907675Y-12799387D01*
X36804180Y-15902882D01*
X36742857Y-15936367D01*
X36673165Y-15931383D01*
X36628818Y-15902882D01*
X33861819Y-13135883D01*
X33828334Y-13074560D01*
X33825500Y-13048202D01*
X33825500Y-11440004D01*
X33826601Y-11436253D01*
X33825731Y-11432445D01*
X33836366Y-11402997D01*
X33845185Y-11372965D01*
X33848520Y-11369344D01*
X33849465Y-11366730D01*
X33859282Y-11357664D01*
X33874161Y-11341515D01*
X33879099Y-11337736D01*
X33903044Y-11322968D01*
X33918134Y-11307877D01*
X33924661Y-11302885D01*
X33949904Y-11293169D01*
X33973642Y-11280208D01*
X33982025Y-11280807D01*
X33989868Y-11277789D01*
X34016352Y-11283262D01*
X34043334Y-11285192D01*
X34051697Y-11290567D01*
X34058292Y-11291930D01*
X34066830Y-11300292D01*
X34087681Y-11313693D01*
X34096955Y-11322967D01*
X34096959Y-11322970D01*
X34241294Y-11411998D01*
X34241297Y-11411999D01*
X34241303Y-11412003D01*
X34402292Y-11465349D01*
X34501655Y-11475500D01*
X35048344Y-11475499D01*
X35048352Y-11475498D01*
X35048355Y-11475498D01*
X35102760Y-11469940D01*
X35147708Y-11465349D01*
X35308697Y-11412003D01*
X35453044Y-11322968D01*
X35572968Y-11203044D01*
X35662003Y-11058697D01*
X35715349Y-10897708D01*
X35725500Y-10798345D01*
X35725499Y-10201656D01*
X35715349Y-10102292D01*
X35662003Y-9941303D01*
X35661999Y-9941297D01*
X35661998Y-9941294D01*
X35572970Y-9796959D01*
X35572967Y-9796955D01*
X35453044Y-9677032D01*
X35453040Y-9677029D01*
X35308705Y-9588001D01*
X35308699Y-9587998D01*
X35308697Y-9587997D01*
X35238107Y-9564606D01*
X35147709Y-9534651D01*
X35048346Y-9524500D01*
X34501662Y-9524500D01*
X34501644Y-9524501D01*
X34402292Y-9534650D01*
X34402289Y-9534651D01*
X34241305Y-9587996D01*
X34241294Y-9588001D01*
X34096959Y-9677029D01*
X34096955Y-9677032D01*
X34087681Y-9686307D01*
X34026358Y-9719792D01*
X33956666Y-9714808D01*
X33912319Y-9686307D01*
X33903044Y-9677032D01*
X33903040Y-9677029D01*
X33758705Y-9588001D01*
X33758699Y-9587998D01*
X33758697Y-9587997D01*
X33688107Y-9564606D01*
X33597709Y-9534651D01*
X33498352Y-9524500D01*
X33498345Y-9524500D01*
X33165497Y-9524500D01*
X33136056Y-9515855D01*
X33106070Y-9509332D01*
X33101054Y-9505577D01*
X33098458Y-9504815D01*
X33077816Y-9488181D01*
X32904490Y-9314855D01*
X32904488Y-9314852D01*
X32785617Y-9195981D01*
X32785616Y-9195980D01*
X32698804Y-9145860D01*
X32698804Y-9145859D01*
X32698800Y-9145858D01*
X32648685Y-9116923D01*
X32495957Y-9075999D01*
X32349500Y-9075999D01*
X32282461Y-9056314D01*
X32236706Y-9003510D01*
X32225500Y-8951999D01*
X32225500Y-8668386D01*
X32219086Y-8597807D01*
X32219086Y-8597804D01*
X32168478Y-8435394D01*
X32080472Y-8289815D01*
X32080470Y-8289813D01*
X32080469Y-8289811D01*
X31960188Y-8169530D01*
X31814606Y-8081522D01*
X31750634Y-8061588D01*
X31652196Y-8030914D01*
X31652194Y-8030913D01*
X31652192Y-8030913D01*
X31602778Y-8026423D01*
X31581616Y-8024500D01*
X31068384Y-8024500D01*
X31049145Y-8026248D01*
X30997807Y-8030913D01*
X30835393Y-8081522D01*
X30689811Y-8169530D01*
X30689810Y-8169531D01*
X30587681Y-8271661D01*
X30526358Y-8305146D01*
X30456666Y-8300162D01*
X30412319Y-8271661D01*
X30310188Y-8169530D01*
X30164606Y-8081522D01*
X30100634Y-8061588D01*
X30002196Y-8030914D01*
X30002194Y-8030913D01*
X30002192Y-8030913D01*
X29952778Y-8026423D01*
X29931616Y-8024500D01*
X29418384Y-8024500D01*
X29399145Y-8026248D01*
X29347807Y-8030913D01*
X29185393Y-8081522D01*
X29039811Y-8169530D01*
X28919530Y-8289811D01*
X28831522Y-8435393D01*
X28780913Y-8597807D01*
X28774500Y-8668386D01*
X28774500Y-9331613D01*
X28780913Y-9402192D01*
X28780913Y-9402194D01*
X28780914Y-9402196D01*
X28831522Y-9564606D01*
X28899484Y-9677029D01*
X28919530Y-9710188D01*
X29039811Y-9830469D01*
X29039813Y-9830470D01*
X29039815Y-9830472D01*
X29185394Y-9918478D01*
X29347804Y-9969086D01*
X29380386Y-9972046D01*
X29445367Y-9997716D01*
X29486157Y-10054443D01*
X29489802Y-10124218D01*
X29456845Y-10183218D01*
X28603786Y-11036278D01*
X28491981Y-11148082D01*
X28491980Y-11148084D01*
X28460249Y-11203044D01*
X28412923Y-11285015D01*
X28371999Y-11437743D01*
X28371999Y-11437745D01*
X28371999Y-11605846D01*
X28372000Y-11605859D01*
X28372000Y-12396530D01*
X28371999Y-12396548D01*
X28371999Y-12562254D01*
X28371998Y-12562254D01*
X28411637Y-12710188D01*
X28412923Y-12714985D01*
X28434421Y-12752220D01*
X28491979Y-12851914D01*
X28491981Y-12851917D01*
X28610849Y-12970785D01*
X28610855Y-12970790D01*
X28781939Y-13141874D01*
X28781949Y-13141885D01*
X28786279Y-13146215D01*
X28786280Y-13146216D01*
X28898084Y-13258020D01*
X28984895Y-13308139D01*
X28984897Y-13308141D01*
X29022951Y-13330111D01*
X29035015Y-13337077D01*
X29187743Y-13378000D01*
X29345857Y-13378000D01*
X30460831Y-13378000D01*
X30460847Y-13378001D01*
X30468443Y-13378001D01*
X30626554Y-13378001D01*
X30626557Y-13378001D01*
X30779285Y-13337077D01*
X30829404Y-13308139D01*
X30916216Y-13258020D01*
X31028020Y-13146216D01*
X31028021Y-13146213D01*
X31162417Y-13011817D01*
X31223740Y-12978334D01*
X31250097Y-12975500D01*
X31581613Y-12975500D01*
X31581616Y-12975500D01*
X31652196Y-12969086D01*
X31814606Y-12918478D01*
X31960185Y-12830472D01*
X32080472Y-12710185D01*
X32168478Y-12564606D01*
X32219086Y-12402196D01*
X32225500Y-12331616D01*
X32225500Y-11668384D01*
X32219086Y-11597804D01*
X32168478Y-11435394D01*
X32080472Y-11289815D01*
X32080470Y-11289813D01*
X32080469Y-11289811D01*
X31960188Y-11169530D01*
X31814606Y-11081522D01*
X31665979Y-11035209D01*
X31607833Y-10996472D01*
X31579859Y-10932447D01*
X31590940Y-10863462D01*
X31615187Y-10829146D01*
X32062820Y-10381514D01*
X32124142Y-10348030D01*
X32193834Y-10353014D01*
X32249767Y-10394886D01*
X32274184Y-10460350D01*
X32274500Y-10469196D01*
X32274500Y-10798336D01*
X32274501Y-10798355D01*
X32284650Y-10897707D01*
X32284651Y-10897710D01*
X32337996Y-11058694D01*
X32338001Y-11058705D01*
X32427029Y-11203040D01*
X32427031Y-11203043D01*
X32427032Y-11203044D01*
X32546956Y-11322968D01*
X32565596Y-11334465D01*
X32612321Y-11386412D01*
X32624500Y-11440004D01*
X32624500Y-13261630D01*
X32624499Y-13261648D01*
X32624499Y-13427354D01*
X32624498Y-13427354D01*
X32624499Y-13427357D01*
X32665423Y-13580085D01*
X32665424Y-13580086D01*
X32677447Y-13600913D01*
X32677450Y-13600916D01*
X32744477Y-13717012D01*
X32744481Y-13717017D01*
X32863349Y-13835885D01*
X32863355Y-13835890D01*
X34570283Y-15542819D01*
X34603768Y-15604142D01*
X34598784Y-15673834D01*
X34556912Y-15729767D01*
X34491448Y-15754184D01*
X34482602Y-15754500D01*
X33134298Y-15754500D01*
X33097436Y-15757401D01*
X33097427Y-15757403D01*
X33062507Y-15767548D01*
X32992638Y-15767347D01*
X32933968Y-15729404D01*
X32915876Y-15697471D01*
X32914602Y-15698066D01*
X32911547Y-15691515D01*
X32822575Y-15547271D01*
X32822572Y-15547267D01*
X32702732Y-15427427D01*
X32702728Y-15427424D01*
X32558492Y-15338457D01*
X32558481Y-15338452D01*
X32397606Y-15285144D01*
X32298322Y-15275000D01*
X32250000Y-15275000D01*
X32250000Y-16101000D01*
X32230315Y-16168039D01*
X32177511Y-16213794D01*
X32126000Y-16225000D01*
X32000000Y-16225000D01*
X32000000Y-16351000D01*
X31980315Y-16418039D01*
X31927511Y-16463794D01*
X31876000Y-16475000D01*
X31025001Y-16475000D01*
X31025001Y-16498322D01*
X31035144Y-16597607D01*
X31088452Y-16758481D01*
X31088457Y-16758492D01*
X31177424Y-16902728D01*
X31177427Y-16902732D01*
X31186660Y-16911965D01*
X31187012Y-16912611D01*
X31187656Y-16912972D01*
X31203738Y-16943241D01*
X31220145Y-16973288D01*
X31220092Y-16974022D01*
X31220438Y-16974673D01*
X31217606Y-17008780D01*
X31215161Y-17042980D01*
X31214698Y-17043815D01*
X31214658Y-17044304D01*
X31213120Y-17046667D01*
X31197391Y-17075085D01*
X31192425Y-17081562D01*
X31177032Y-17096956D01*
X31162231Y-17120951D01*
X31158408Y-17125939D01*
X31135076Y-17142992D01*
X31113588Y-17162321D01*
X31106396Y-17163955D01*
X31102000Y-17167169D01*
X31088755Y-17167964D01*
X31059996Y-17174500D01*
X30811670Y-17174500D01*
X30811654Y-17174499D01*
X30804058Y-17174499D01*
X30645943Y-17174499D01*
X30588094Y-17190000D01*
X30493214Y-17215423D01*
X30493209Y-17215426D01*
X30356290Y-17294475D01*
X30356282Y-17294481D01*
X27904532Y-19746231D01*
X27843209Y-19779716D01*
X27797453Y-19781023D01*
X27598422Y-19749500D01*
X27598417Y-19749500D01*
X27401583Y-19749500D01*
X27401578Y-19749500D01*
X27207173Y-19780290D01*
X27019970Y-19841117D01*
X26844594Y-19930476D01*
X26753741Y-19996485D01*
X26685354Y-20046172D01*
X26685352Y-20046174D01*
X26685351Y-20046174D01*
X26546174Y-20185351D01*
X26546174Y-20185352D01*
X26546172Y-20185354D01*
X26514323Y-20229190D01*
X26430476Y-20344594D01*
X26341117Y-20519970D01*
X26280290Y-20707173D01*
X26249500Y-20901577D01*
X26249500Y-21098422D01*
X26280290Y-21292826D01*
X26341117Y-21480029D01*
X26399716Y-21595035D01*
X26430476Y-21655405D01*
X26546172Y-21814646D01*
X26685354Y-21953828D01*
X26844595Y-22069524D01*
X26927455Y-22111743D01*
X27019970Y-22158882D01*
X27019972Y-22158882D01*
X27019975Y-22158884D01*
X27106082Y-22186862D01*
X27207173Y-22219709D01*
X27401578Y-22250500D01*
X27401583Y-22250500D01*
X27598422Y-22250500D01*
X27792826Y-22219709D01*
X27795082Y-22218976D01*
X27980025Y-22158884D01*
X28155405Y-22069524D01*
X28314646Y-21953828D01*
X28453828Y-21814646D01*
X28569524Y-21655405D01*
X28639515Y-21518038D01*
X28687489Y-21467243D01*
X28755310Y-21450448D01*
X28821445Y-21472985D01*
X28860484Y-21518038D01*
X28930476Y-21655405D01*
X29046172Y-21814646D01*
X29185354Y-21953828D01*
X29344595Y-22069524D01*
X29427455Y-22111743D01*
X29519970Y-22158882D01*
X29519972Y-22158882D01*
X29519975Y-22158884D01*
X29606082Y-22186862D01*
X29707173Y-22219709D01*
X29901578Y-22250500D01*
X29901583Y-22250500D01*
X30098422Y-22250500D01*
X30297454Y-22218976D01*
X30366747Y-22227930D01*
X30404533Y-22253768D01*
X31420139Y-23269374D01*
X31420149Y-23269385D01*
X31424479Y-23273715D01*
X31424480Y-23273716D01*
X31536284Y-23385520D01*
X31623095Y-23435639D01*
X31623097Y-23435641D01*
X31657173Y-23455315D01*
X31673215Y-23464577D01*
X31825943Y-23505501D01*
X31825946Y-23505501D01*
X31991653Y-23505501D01*
X31991669Y-23505500D01*
X32534674Y-23505500D01*
X32601713Y-23525185D01*
X32647468Y-23577989D01*
X32657412Y-23647147D01*
X32641406Y-23692621D01*
X32598718Y-23764801D01*
X32552899Y-23922513D01*
X32552704Y-23924998D01*
X32552705Y-23925000D01*
X33901000Y-23925000D01*
X33968039Y-23944685D01*
X34013794Y-23997489D01*
X34025000Y-24049000D01*
X34025000Y-24175000D01*
X34151000Y-24175000D01*
X34218039Y-24194685D01*
X34263794Y-24247489D01*
X34275000Y-24299000D01*
X34275000Y-26245000D01*
X34915634Y-26245000D01*
X34915649Y-26244999D01*
X34952489Y-26242100D01*
X34952495Y-26242099D01*
X35110193Y-26196283D01*
X35110196Y-26196282D01*
X35251552Y-26112685D01*
X35251561Y-26112678D01*
X35367678Y-25996561D01*
X35367685Y-25996552D01*
X35451282Y-25855196D01*
X35451283Y-25855193D01*
X35481424Y-25751450D01*
X35519030Y-25692564D01*
X35582502Y-25663358D01*
X35651689Y-25673104D01*
X35704623Y-25718708D01*
X35724499Y-25785691D01*
X35724500Y-25786045D01*
X35724500Y-26173002D01*
X35704815Y-26240041D01*
X35688181Y-26260683D01*
X35519481Y-26429382D01*
X35519479Y-26429385D01*
X35469361Y-26516194D01*
X35469359Y-26516196D01*
X35440425Y-26566309D01*
X35440424Y-26566310D01*
X35440423Y-26566315D01*
X35399499Y-26719043D01*
X35399499Y-26719045D01*
X35399499Y-26887146D01*
X35399500Y-26887159D01*
X35399500Y-30603663D01*
X35379815Y-30670702D01*
X35327011Y-30716457D01*
X35257853Y-30726401D01*
X35211350Y-30709780D01*
X35164606Y-30681522D01*
X35129883Y-30670702D01*
X35002196Y-30630914D01*
X35002194Y-30630913D01*
X35002192Y-30630913D01*
X34952778Y-30626423D01*
X34931616Y-30624500D01*
X34418384Y-30624500D01*
X34399145Y-30626248D01*
X34347807Y-30630913D01*
X34185393Y-30681522D01*
X34039811Y-30769530D01*
X33919530Y-30889811D01*
X33831522Y-31035393D01*
X33780913Y-31197807D01*
X33774500Y-31268386D01*
X33774500Y-31931613D01*
X33780913Y-32002192D01*
X33780913Y-32002194D01*
X33780914Y-32002196D01*
X33831522Y-32164606D01*
X33906617Y-32288829D01*
X33924500Y-32352976D01*
X33924500Y-39068942D01*
X33904815Y-39135981D01*
X33865598Y-39174479D01*
X33779209Y-39227764D01*
X33731342Y-39257289D01*
X33607289Y-39381342D01*
X33515187Y-39530663D01*
X33515186Y-39530666D01*
X33460001Y-39697203D01*
X33460001Y-39697204D01*
X33460000Y-39697204D01*
X33449500Y-39799983D01*
X33449500Y-41200001D01*
X33449501Y-41200018D01*
X33460000Y-41302796D01*
X33470904Y-41335700D01*
X33512026Y-41459798D01*
X33514428Y-41529624D01*
X33478697Y-41589666D01*
X33416176Y-41620859D01*
X33394320Y-41622800D01*
X32722641Y-41622800D01*
X32597196Y-41656412D01*
X32551859Y-41659928D01*
X32547875Y-41659500D01*
X29302129Y-41659500D01*
X29302123Y-41659501D01*
X29242516Y-41665908D01*
X29107671Y-41716202D01*
X29107664Y-41716206D01*
X28992455Y-41802452D01*
X28992452Y-41802455D01*
X28906206Y-41917664D01*
X28906202Y-41917671D01*
X28855908Y-42052517D01*
X28849501Y-42112116D01*
X28849500Y-42112135D01*
X28849500Y-43207870D01*
X28849501Y-43207876D01*
X28855908Y-43267483D01*
X28906202Y-43402328D01*
X28906206Y-43402335D01*
X28992452Y-43517544D01*
X28992455Y-43517547D01*
X29107664Y-43603793D01*
X29107671Y-43603797D01*
X29242517Y-43654091D01*
X29242516Y-43654091D01*
X29249444Y-43654835D01*
X29302127Y-43660500D01*
X32547872Y-43660499D01*
X32607483Y-43654091D01*
X32742331Y-43603796D01*
X32857546Y-43517546D01*
X32943796Y-43402331D01*
X32990474Y-43277179D01*
X33032345Y-43221247D01*
X33044640Y-43213135D01*
X33170416Y-43140520D01*
X33282220Y-43028716D01*
X33297555Y-43002155D01*
X33364732Y-42885801D01*
X33415298Y-42837585D01*
X33472119Y-42823800D01*
X34604055Y-42823800D01*
X34604057Y-42823800D01*
X34756784Y-42782877D01*
X34893716Y-42703820D01*
X34900517Y-42697019D01*
X34961840Y-42663534D01*
X34988198Y-42660700D01*
X38007199Y-42660700D01*
X38074238Y-42680385D01*
X38119993Y-42733189D01*
X38131199Y-42784700D01*
X38131199Y-42810754D01*
X38131198Y-42810754D01*
X38172124Y-42963489D01*
X38172125Y-42963490D01*
X38194432Y-43002126D01*
X38194433Y-43002127D01*
X38251177Y-43100412D01*
X38251181Y-43100417D01*
X38370049Y-43219285D01*
X38370055Y-43219290D01*
X38746231Y-43595466D01*
X38779716Y-43656789D01*
X38781023Y-43702544D01*
X38749500Y-43901576D01*
X38749500Y-44098422D01*
X38780290Y-44292826D01*
X38841117Y-44480029D01*
X38905901Y-44607174D01*
X38930476Y-44655405D01*
X39046172Y-44814646D01*
X39185354Y-44953828D01*
X39344595Y-45069524D01*
X39427455Y-45111743D01*
X39519970Y-45158882D01*
X39519972Y-45158882D01*
X39519975Y-45158884D01*
X39620317Y-45191487D01*
X39707173Y-45219709D01*
X39901578Y-45250500D01*
X39901583Y-45250500D01*
X40098422Y-45250500D01*
X40292826Y-45219709D01*
X40480025Y-45158884D01*
X40655405Y-45069524D01*
X40814646Y-44953828D01*
X40945819Y-44822655D01*
X41007142Y-44789170D01*
X41076834Y-44794154D01*
X41132767Y-44836026D01*
X41157184Y-44901490D01*
X41157500Y-44910336D01*
X41157500Y-46684688D01*
X41137815Y-46751727D01*
X41085011Y-46797482D01*
X41049855Y-46803695D01*
X40353553Y-47499999D01*
X40353553Y-47500001D01*
X41050954Y-48197402D01*
X41092146Y-48206055D01*
X41141904Y-48255106D01*
X41157500Y-48315310D01*
X41157500Y-49529803D01*
X41137815Y-49596842D01*
X41085011Y-49642597D01*
X41015853Y-49652541D01*
X40952297Y-49623516D01*
X40945819Y-49617484D01*
X40250758Y-48922423D01*
X40217273Y-48861100D01*
X40222257Y-48791408D01*
X40264129Y-48735475D01*
X40300121Y-48716811D01*
X40479835Y-48658418D01*
X40655143Y-48569095D01*
X40690125Y-48543678D01*
X40690126Y-48543678D01*
X39823223Y-47676777D01*
X38956320Y-46809872D01*
X38956320Y-46809873D01*
X38930902Y-46844859D01*
X38930899Y-46844863D01*
X38841582Y-47020161D01*
X38783188Y-47199878D01*
X38743750Y-47257554D01*
X38679392Y-47284752D01*
X38610545Y-47272837D01*
X38577576Y-47249241D01*
X37784655Y-46456320D01*
X39309872Y-46456320D01*
X40000000Y-47146446D01*
X40000001Y-47146446D01*
X40690125Y-46456320D01*
X40690125Y-46456319D01*
X40655145Y-46430905D01*
X40479835Y-46341581D01*
X40292705Y-46280778D01*
X40098382Y-46250000D01*
X39901618Y-46250000D01*
X39707294Y-46280778D01*
X39520161Y-46341582D01*
X39344863Y-46430899D01*
X39344859Y-46430902D01*
X39309873Y-46456320D01*
X39309872Y-46456320D01*
X37784655Y-46456320D01*
X36166690Y-44838355D01*
X36166688Y-44838352D01*
X36047817Y-44719481D01*
X36047809Y-44719475D01*
X35931159Y-44652128D01*
X35931156Y-44652127D01*
X35910885Y-44640423D01*
X35907597Y-44639542D01*
X35758157Y-44599499D01*
X35600043Y-44599499D01*
X35592447Y-44599499D01*
X35592431Y-44599500D01*
X33082791Y-44599500D01*
X33015752Y-44579815D01*
X32969997Y-44527011D01*
X32966609Y-44518833D01*
X32943797Y-44457671D01*
X32943793Y-44457664D01*
X32857547Y-44342455D01*
X32857544Y-44342452D01*
X32742335Y-44256206D01*
X32742328Y-44256202D01*
X32607482Y-44205908D01*
X32607483Y-44205908D01*
X32547883Y-44199501D01*
X32547881Y-44199500D01*
X32547873Y-44199500D01*
X32547864Y-44199500D01*
X29302129Y-44199500D01*
X29302123Y-44199501D01*
X29242516Y-44205908D01*
X29107671Y-44256202D01*
X29107664Y-44256206D01*
X28992455Y-44342452D01*
X28992452Y-44342455D01*
X28906206Y-44457664D01*
X28906202Y-44457671D01*
X28855908Y-44592517D01*
X28849501Y-44652116D01*
X28849500Y-44652127D01*
X28849500Y-45747870D01*
X28849501Y-45747876D01*
X28855908Y-45807483D01*
X28906202Y-45942328D01*
X28906206Y-45942335D01*
X28992452Y-46057544D01*
X28992455Y-46057547D01*
X29107664Y-46143793D01*
X29107671Y-46143797D01*
X29242517Y-46194091D01*
X29242516Y-46194091D01*
X29247949Y-46194675D01*
X29302127Y-46200500D01*
X32547872Y-46200499D01*
X32607483Y-46194091D01*
X32742331Y-46143796D01*
X32857546Y-46057546D01*
X32943796Y-45942331D01*
X32966609Y-45881167D01*
X33008480Y-45825233D01*
X33073944Y-45800816D01*
X33082791Y-45800500D01*
X35379003Y-45800500D01*
X35446042Y-45820185D01*
X35466684Y-45836819D01*
X37359384Y-47729519D01*
X37392869Y-47790842D01*
X37387885Y-47860534D01*
X37346013Y-47916467D01*
X37280549Y-47940884D01*
X37271703Y-47941200D01*
X33124500Y-47941200D01*
X33057461Y-47921515D01*
X33011706Y-47868711D01*
X33000500Y-47817200D01*
X33000499Y-47192129D01*
X33000498Y-47192123D01*
X32994091Y-47132516D01*
X32943797Y-46997671D01*
X32943793Y-46997664D01*
X32857547Y-46882455D01*
X32857544Y-46882452D01*
X32742335Y-46796206D01*
X32742328Y-46796202D01*
X32607482Y-46745908D01*
X32607483Y-46745908D01*
X32547883Y-46739501D01*
X32547881Y-46739500D01*
X32547873Y-46739500D01*
X32547864Y-46739500D01*
X29302129Y-46739500D01*
X29302123Y-46739501D01*
X29242516Y-46745908D01*
X29107671Y-46796202D01*
X29107664Y-46796206D01*
X28992455Y-46882452D01*
X28992452Y-46882455D01*
X28906206Y-46997664D01*
X28906202Y-46997671D01*
X28857478Y-47128310D01*
X28855909Y-47132517D01*
X28849500Y-47192127D01*
X28849500Y-47564731D01*
X28849501Y-47817200D01*
X28829817Y-47884239D01*
X28777013Y-47929994D01*
X28725501Y-47941200D01*
X28042941Y-47941200D01*
X27975902Y-47921515D01*
X27930147Y-47868711D01*
X27920203Y-47799553D01*
X27949228Y-47735997D01*
X27955260Y-47729519D01*
X28057486Y-47627292D01*
X28057489Y-47627289D01*
X28145094Y-47496179D01*
X28205437Y-47350497D01*
X28236200Y-47195842D01*
X28236200Y-47038158D01*
X28236200Y-47038155D01*
X28236199Y-47038153D01*
X28231604Y-47015052D01*
X28205437Y-46883503D01*
X28205003Y-46882455D01*
X28145097Y-46737827D01*
X28145090Y-46737814D01*
X28057489Y-46606711D01*
X28057486Y-46606707D01*
X27945992Y-46495213D01*
X27945988Y-46495210D01*
X27814885Y-46407609D01*
X27814872Y-46407602D01*
X27669201Y-46347264D01*
X27669191Y-46347261D01*
X27513849Y-46316361D01*
X27451938Y-46283976D01*
X27450360Y-46282425D01*
X21879616Y-40711681D01*
X21846131Y-40650358D01*
X21851115Y-40580666D01*
X21892987Y-40524733D01*
X21958451Y-40500316D01*
X21967297Y-40500000D01*
X28726000Y-40500000D01*
X28793039Y-40519685D01*
X28838794Y-40572489D01*
X28850000Y-40624000D01*
X28850000Y-40667844D01*
X28856401Y-40727372D01*
X28856403Y-40727379D01*
X28906645Y-40862086D01*
X28906649Y-40862093D01*
X28992809Y-40977187D01*
X28992812Y-40977190D01*
X29107906Y-41063350D01*
X29107913Y-41063354D01*
X29242620Y-41113596D01*
X29242627Y-41113598D01*
X29302155Y-41119999D01*
X29302172Y-41120000D01*
X30675000Y-41120000D01*
X30675000Y-40624000D01*
X30694685Y-40556961D01*
X30747489Y-40511206D01*
X30799000Y-40500000D01*
X31051000Y-40500000D01*
X31118039Y-40519685D01*
X31163794Y-40572489D01*
X31175000Y-40624000D01*
X31175000Y-41120000D01*
X32547828Y-41120000D01*
X32547844Y-41119999D01*
X32607372Y-41113598D01*
X32607379Y-41113596D01*
X32742086Y-41063354D01*
X32742093Y-41063350D01*
X32857187Y-40977190D01*
X32857190Y-40977187D01*
X32943350Y-40862093D01*
X32943354Y-40862086D01*
X32993596Y-40727379D01*
X32993598Y-40727372D01*
X32999999Y-40667844D01*
X33000000Y-40667827D01*
X33000000Y-40370000D01*
X31124000Y-40370000D01*
X31056961Y-40350315D01*
X31011206Y-40297511D01*
X31000000Y-40246000D01*
X31000000Y-39994000D01*
X31019685Y-39926961D01*
X31072489Y-39881206D01*
X31124000Y-39870000D01*
X33000000Y-39870000D01*
X33000000Y-39572172D01*
X32999999Y-39572155D01*
X32993598Y-39512627D01*
X32993596Y-39512620D01*
X32943354Y-39377913D01*
X32943350Y-39377906D01*
X32857190Y-39262812D01*
X32857187Y-39262809D01*
X32742093Y-39176649D01*
X32742086Y-39176645D01*
X32607379Y-39126403D01*
X32607372Y-39126401D01*
X32547844Y-39120000D01*
X31124000Y-39120000D01*
X31056961Y-39100315D01*
X31011206Y-39047511D01*
X31000000Y-38996000D01*
X31000000Y-38704499D01*
X31019685Y-38637460D01*
X31072489Y-38591705D01*
X31124000Y-38580499D01*
X32547871Y-38580499D01*
X32547872Y-38580499D01*
X32607483Y-38574091D01*
X32742331Y-38523796D01*
X32857546Y-38437546D01*
X32943796Y-38322331D01*
X32994091Y-38187483D01*
X33000500Y-38127873D01*
X33000499Y-37032128D01*
X32994091Y-36972517D01*
X32943796Y-36837669D01*
X32943795Y-36837668D01*
X32943793Y-36837664D01*
X32857547Y-36722455D01*
X32857544Y-36722452D01*
X32742335Y-36636206D01*
X32742328Y-36636202D01*
X32607482Y-36585908D01*
X32607483Y-36585908D01*
X32547883Y-36579501D01*
X32547881Y-36579500D01*
X32547873Y-36579500D01*
X32547865Y-36579500D01*
X31124000Y-36579500D01*
X31056961Y-36559815D01*
X31011206Y-36507011D01*
X31000000Y-36455500D01*
X31000000Y-25695001D01*
X32552704Y-25695001D01*
X32552899Y-25697486D01*
X32598718Y-25855198D01*
X32682314Y-25996552D01*
X32682321Y-25996561D01*
X32798438Y-26112678D01*
X32798447Y-26112685D01*
X32939803Y-26196282D01*
X32939806Y-26196283D01*
X33097504Y-26242099D01*
X33097510Y-26242100D01*
X33134350Y-26244999D01*
X33134366Y-26245000D01*
X33775000Y-26245000D01*
X33775000Y-25695000D01*
X32552705Y-25695000D01*
X32552704Y-25695001D01*
X31000000Y-25695001D01*
X31000000Y-25000000D01*
X16000000Y-25000000D01*
X16000000Y-36455500D01*
X15980315Y-36522539D01*
X15927511Y-36568294D01*
X15876000Y-36579500D01*
X13747800Y-36579500D01*
X13680761Y-36559815D01*
X13635006Y-36507011D01*
X13623800Y-36455500D01*
X13623800Y-24425001D01*
X32552704Y-24425001D01*
X32552899Y-24427486D01*
X32598718Y-24585198D01*
X32682314Y-24726552D01*
X32687100Y-24732722D01*
X32684753Y-24734542D01*
X32711564Y-24783642D01*
X32706580Y-24853334D01*
X32685541Y-24886069D01*
X32687100Y-24887278D01*
X32682314Y-24893447D01*
X32598718Y-25034801D01*
X32552899Y-25192513D01*
X32552704Y-25194998D01*
X32552705Y-25195000D01*
X33775000Y-25195000D01*
X33775000Y-24425000D01*
X32552705Y-24425000D01*
X32552704Y-24425001D01*
X13623800Y-24425001D01*
X13623800Y-18813297D01*
X13643485Y-18746258D01*
X13660119Y-18725616D01*
X14426396Y-17959339D01*
X15745364Y-16640371D01*
X15806685Y-16606888D01*
X15808852Y-16606437D01*
X15809541Y-16606300D01*
X15809542Y-16606300D01*
X15964197Y-16575537D01*
X16109879Y-16515194D01*
X16240989Y-16427589D01*
X16352489Y-16316089D01*
X16440094Y-16184979D01*
X16500437Y-16039297D01*
X16517866Y-15951677D01*
X31025000Y-15951677D01*
X31025000Y-15975000D01*
X31750000Y-15975000D01*
X31750000Y-15275000D01*
X31749999Y-15274999D01*
X31701693Y-15275000D01*
X31701675Y-15275001D01*
X31602392Y-15285144D01*
X31441518Y-15338452D01*
X31441507Y-15338457D01*
X31297271Y-15427424D01*
X31297267Y-15427427D01*
X31177427Y-15547267D01*
X31177424Y-15547271D01*
X31088457Y-15691507D01*
X31088452Y-15691518D01*
X31035144Y-15852393D01*
X31025000Y-15951677D01*
X16517866Y-15951677D01*
X16523305Y-15924336D01*
X16523305Y-15924335D01*
X16531199Y-15884646D01*
X16531200Y-15884644D01*
X16531200Y-15726955D01*
X16531199Y-15726953D01*
X16500438Y-15572310D01*
X16500438Y-15572308D01*
X16500437Y-15572303D01*
X16490908Y-15549297D01*
X16440097Y-15426627D01*
X16440090Y-15426614D01*
X16352489Y-15295511D01*
X16352486Y-15295507D01*
X16240992Y-15184013D01*
X16240988Y-15184010D01*
X16109885Y-15096409D01*
X16109872Y-15096402D01*
X15964201Y-15036064D01*
X15964189Y-15036061D01*
X15809545Y-15005300D01*
X15809542Y-15005300D01*
X15651858Y-15005300D01*
X15651855Y-15005300D01*
X15497210Y-15036061D01*
X15497198Y-15036064D01*
X15351527Y-15096402D01*
X15351514Y-15096409D01*
X15220411Y-15184010D01*
X15220407Y-15184013D01*
X15108913Y-15295507D01*
X15108910Y-15295511D01*
X15021309Y-15426614D01*
X15021302Y-15426627D01*
X14960964Y-15572298D01*
X14960961Y-15572308D01*
X14930062Y-15727648D01*
X14897677Y-15789559D01*
X14896126Y-15791137D01*
X12654586Y-18032678D01*
X12542781Y-18144482D01*
X12542780Y-18144484D01*
X12497291Y-18223274D01*
X12463723Y-18281415D01*
X12422799Y-18434143D01*
X12422799Y-18434145D01*
X12422799Y-18602246D01*
X12422800Y-18602259D01*
X12422800Y-40318945D01*
X12403115Y-40385984D01*
X12350311Y-40431739D01*
X12281153Y-40441683D01*
X12274612Y-40440563D01*
X12247144Y-40435100D01*
X12247142Y-40435100D01*
X12089458Y-40435100D01*
X12089455Y-40435100D01*
X11934810Y-40465861D01*
X11934798Y-40465864D01*
X11789127Y-40526202D01*
X11789114Y-40526209D01*
X11658011Y-40613810D01*
X11658007Y-40613813D01*
X11546513Y-40725307D01*
X11546510Y-40725311D01*
X11458909Y-40856414D01*
X11458902Y-40856427D01*
X11398564Y-41002098D01*
X11398561Y-41002108D01*
X11367661Y-41157450D01*
X11358896Y-41174205D01*
X11354877Y-41192684D01*
X11336131Y-41217725D01*
X11335276Y-41219361D01*
X11333726Y-41220939D01*
X11272582Y-41282082D01*
X11211262Y-41315566D01*
X11184903Y-41318400D01*
X9224500Y-41318400D01*
X9157461Y-41298715D01*
X9111706Y-41245911D01*
X9100500Y-41194400D01*
X9100500Y-35172596D01*
X9120185Y-35105557D01*
X9151614Y-35072278D01*
X9155403Y-35069524D01*
X9155405Y-35069524D01*
X9314646Y-34953828D01*
X9453828Y-34814646D01*
X9569524Y-34655405D01*
X9658884Y-34480025D01*
X9719709Y-34292826D01*
X9737262Y-34182000D01*
X9750500Y-34098422D01*
X9750500Y-33901577D01*
X9719709Y-33707173D01*
X9668494Y-33549551D01*
X9658884Y-33519975D01*
X9658882Y-33519972D01*
X9658882Y-33519970D01*
X9569523Y-33344594D01*
X9453828Y-33185354D01*
X9314646Y-33046172D01*
X9155405Y-32930476D01*
X8980029Y-32841117D01*
X8792826Y-32780290D01*
X8598422Y-32749500D01*
X8598417Y-32749500D01*
X8401583Y-32749500D01*
X8401578Y-32749500D01*
X8207173Y-32780290D01*
X8019970Y-32841117D01*
X7844594Y-32930476D01*
X7753741Y-32996485D01*
X7685354Y-33046172D01*
X7685352Y-33046174D01*
X7685351Y-33046174D01*
X7546174Y-33185351D01*
X7546174Y-33185352D01*
X7546172Y-33185354D01*
X7496485Y-33253741D01*
X7430476Y-33344594D01*
X7360485Y-33481960D01*
X7312510Y-33532756D01*
X7244689Y-33549551D01*
X7178554Y-33527014D01*
X7139515Y-33481960D01*
X7069523Y-33344594D01*
X6953828Y-33185354D01*
X6814646Y-33046172D01*
X6655405Y-32930476D01*
X6480029Y-32841117D01*
X6292826Y-32780290D01*
X6098422Y-32749500D01*
X6098417Y-32749500D01*
X5901583Y-32749500D01*
X5901578Y-32749500D01*
X5707173Y-32780290D01*
X5519970Y-32841117D01*
X5344594Y-32930476D01*
X5253741Y-32996485D01*
X5185354Y-33046172D01*
X5185352Y-33046174D01*
X5185351Y-33046174D01*
X5046174Y-33185351D01*
X5046174Y-33185352D01*
X5046172Y-33185354D01*
X4996485Y-33253741D01*
X4930476Y-33344594D01*
X4841117Y-33519970D01*
X4780290Y-33707173D01*
X4749500Y-33901577D01*
X4749500Y-34098422D01*
X4780290Y-34292826D01*
X4841117Y-34480029D01*
X4930476Y-34655405D01*
X5046172Y-34814646D01*
X5185354Y-34953828D01*
X5344595Y-35069524D01*
X5348386Y-35072278D01*
X5391051Y-35127608D01*
X5399500Y-35172596D01*
X5399500Y-46953051D01*
X5379815Y-47020090D01*
X5327011Y-47065845D01*
X5257853Y-47075789D01*
X5194297Y-47046764D01*
X5168115Y-47015054D01*
X5141936Y-46969711D01*
X5141930Y-46969703D01*
X4994266Y-46777263D01*
X4994260Y-46777256D01*
X4822743Y-46605739D01*
X4822736Y-46605733D01*
X4630293Y-46458067D01*
X4630292Y-46458066D01*
X4630289Y-46458064D01*
X4428535Y-46341581D01*
X4420214Y-46336777D01*
X4420205Y-46336773D01*
X4196104Y-46243947D01*
X3961785Y-46181161D01*
X3721289Y-46149500D01*
X3721288Y-46149500D01*
X3478712Y-46149500D01*
X3478711Y-46149500D01*
X3238214Y-46181161D01*
X3003895Y-46243947D01*
X2779794Y-46336773D01*
X2779785Y-46336777D01*
X2616762Y-46430899D01*
X2572734Y-46456319D01*
X2569706Y-46458067D01*
X2377263Y-46605733D01*
X2377256Y-46605739D01*
X2205739Y-46777256D01*
X2205733Y-46777263D01*
X2058067Y-46969706D01*
X2058064Y-46969710D01*
X2058064Y-46969711D01*
X2050610Y-46982621D01*
X1936777Y-47179785D01*
X1936773Y-47179794D01*
X1843947Y-47403895D01*
X1781161Y-47638214D01*
X1749500Y-47878711D01*
X500500Y-47878711D01*
X500500Y-18624000D01*
X520185Y-18556961D01*
X572989Y-18511206D01*
X624500Y-18500000D01*
X10500000Y-18500000D01*
X10500000Y-5000000D01*
X5109695Y-5000000D01*
X5042656Y-4980315D01*
X4996901Y-4927511D01*
X4986957Y-4858353D01*
X5011319Y-4800514D01*
X5082656Y-4707544D01*
X5141936Y-4630289D01*
X5263224Y-4420212D01*
X5356054Y-4196100D01*
X5418838Y-3961789D01*
X5450500Y-3721288D01*
X5450500Y-3478712D01*
X5418838Y-3238211D01*
X5356054Y-3003900D01*
X5263224Y-2779788D01*
X5160656Y-2602135D01*
X44649500Y-2602135D01*
X44649500Y-4397870D01*
X44649501Y-4397876D01*
X44655908Y-4457483D01*
X44706202Y-4592328D01*
X44706206Y-4592335D01*
X44792452Y-4707544D01*
X44792455Y-4707547D01*
X44907664Y-4793793D01*
X44907671Y-4793797D01*
X45042517Y-4844091D01*
X45042516Y-4844091D01*
X45049444Y-4844835D01*
X45102127Y-4850500D01*
X46897872Y-4850499D01*
X46957483Y-4844091D01*
X47092331Y-4793796D01*
X47207546Y-4707546D01*
X47293796Y-4592331D01*
X47344091Y-4457483D01*
X47350500Y-4397873D01*
X47350499Y-3478711D01*
X60549500Y-3478711D01*
X60549500Y-3721288D01*
X60581161Y-3961785D01*
X60643947Y-4196104D01*
X60727519Y-4397864D01*
X60736776Y-4420212D01*
X60858064Y-4630289D01*
X60858066Y-4630292D01*
X60858067Y-4630293D01*
X61005733Y-4822736D01*
X61005739Y-4822743D01*
X61177256Y-4994260D01*
X61177262Y-4994265D01*
X61369711Y-5141936D01*
X61579788Y-5263224D01*
X61803900Y-5356054D01*
X62038211Y-5418838D01*
X62218586Y-5442584D01*
X62278711Y-5450500D01*
X62278712Y-5450500D01*
X62521289Y-5450500D01*
X62569388Y-5444167D01*
X62761789Y-5418838D01*
X62996100Y-5356054D01*
X63220212Y-5263224D01*
X63430289Y-5141936D01*
X63622738Y-4994265D01*
X63794265Y-4822738D01*
X63941936Y-4630289D01*
X64063224Y-4420212D01*
X64156054Y-4196100D01*
X64218838Y-3961789D01*
X64250500Y-3721288D01*
X64250500Y-3478712D01*
X64218838Y-3238211D01*
X64156054Y-3003900D01*
X64063224Y-2779788D01*
X63941936Y-2569711D01*
X63794265Y-2377262D01*
X63794260Y-2377256D01*
X63622743Y-2205739D01*
X63622736Y-2205733D01*
X63430293Y-2058067D01*
X63430292Y-2058066D01*
X63430289Y-2058064D01*
X63220212Y-1936776D01*
X63220205Y-1936773D01*
X62996104Y-1843947D01*
X62761785Y-1781161D01*
X62521289Y-1749500D01*
X62521288Y-1749500D01*
X62278712Y-1749500D01*
X62278711Y-1749500D01*
X62038214Y-1781161D01*
X61803895Y-1843947D01*
X61579794Y-1936773D01*
X61579785Y-1936777D01*
X61369706Y-2058067D01*
X61177263Y-2205733D01*
X61177256Y-2205739D01*
X61005739Y-2377256D01*
X61005733Y-2377263D01*
X60858067Y-2569706D01*
X60736777Y-2779785D01*
X60736773Y-2779794D01*
X60643947Y-3003895D01*
X60581161Y-3238214D01*
X60549500Y-3478711D01*
X47350499Y-3478711D01*
X47350499Y-2602128D01*
X47344091Y-2542517D01*
X47293796Y-2407669D01*
X47293795Y-2407668D01*
X47293793Y-2407664D01*
X47207547Y-2292455D01*
X47207544Y-2292452D01*
X47092335Y-2206206D01*
X47092328Y-2206202D01*
X46957482Y-2155908D01*
X46957483Y-2155908D01*
X46897883Y-2149501D01*
X46897881Y-2149500D01*
X46897873Y-2149500D01*
X46897864Y-2149500D01*
X45102129Y-2149500D01*
X45102123Y-2149501D01*
X45042516Y-2155908D01*
X44907671Y-2206202D01*
X44907664Y-2206206D01*
X44792455Y-2292452D01*
X44792452Y-2292455D01*
X44706206Y-2407664D01*
X44706202Y-2407671D01*
X44655908Y-2542517D01*
X44652985Y-2569711D01*
X44649501Y-2602123D01*
X44649500Y-2602135D01*
X5160656Y-2602135D01*
X5141936Y-2569711D01*
X4994265Y-2377262D01*
X4994260Y-2377256D01*
X4822743Y-2205739D01*
X4822736Y-2205733D01*
X4630293Y-2058067D01*
X4630292Y-2058066D01*
X4630289Y-2058064D01*
X4420212Y-1936776D01*
X4420205Y-1936773D01*
X4196104Y-1843947D01*
X3961785Y-1781161D01*
X3721289Y-1749500D01*
X3721288Y-1749500D01*
X3478712Y-1749500D01*
X3478711Y-1749500D01*
X3238214Y-1781161D01*
X3003895Y-1843947D01*
X2779794Y-1936773D01*
X2779785Y-1936777D01*
X2569706Y-2058067D01*
X2377263Y-2205733D01*
X2377256Y-2205739D01*
X2205739Y-2377256D01*
X2205733Y-2377263D01*
X2058067Y-2569706D01*
X1936777Y-2779785D01*
X1936773Y-2779794D01*
X1843947Y-3003895D01*
X1781161Y-3238214D01*
X1749500Y-3478711D01*
X1749500Y-3721288D01*
X1781161Y-3961785D01*
X1843947Y-4196104D01*
X1927519Y-4397864D01*
X1936776Y-4420212D01*
X2058064Y-4630289D01*
X2058066Y-4630292D01*
X2058067Y-4630293D01*
X2188681Y-4800514D01*
X2213875Y-4865683D01*
X2199836Y-4934128D01*
X2151022Y-4984118D01*
X2090305Y-5000000D01*
X624500Y-5000000D01*
X557461Y-4980315D01*
X511706Y-4927511D01*
X500500Y-4876000D01*
X500500Y-624500D01*
X520185Y-557461D01*
X572989Y-511706D01*
X624500Y-500500D01*
X65375500Y-500500D01*
X65442539Y-520185D01*
G37*
%TD.AperFunction*%
%TD*%
M02*
