M48
; DRILL file {KiCad 9.0.9.1-unknown-202605141413~ce707d0a6c~ubuntu24.04.1} date 2026-09-12T18:13:19+0000
; FORMAT={-:-/ absolute / metric / decimal}
; #@! TF.CreationDate,2026-09-12T18:13:19+00:00
; #@! TF.GenerationSoftware,Kicad,Pcbnew,9.0.9.1-unknown-202605141413~ce707d0a6c~ubuntu24.04.1
; #@! TF.FileFunction,MixedPlating,1,2
FMAT,2
METRIC
; #@! TA.AperFunction,Plated,PTH,ViaDrill
T1C0.300
; #@! TA.AperFunction,Plated,PTH,ComponentDrill
T2C0.600
; #@! TA.AperFunction,Plated,PTH,ComponentDrill
T3C1.000
; #@! TA.AperFunction,NonPlated,NPTH,ComponentDrill
T4C0.650
; #@! TA.AperFunction,NonPlated,NPTH,ComponentDrill
T5C3.200
%
G90
G05
T1
X12.168Y-41.236
X15.731Y-15.806
X16.822Y-46.708
X18.869Y-47.362
X24.366Y-53.407
X27.436Y-47.117
X33.47Y-49.68
X35.879Y-49.68
X36.0Y-41.251
X39.514Y-33.381
X41.758Y-50.392
X42.412Y-8.943
X47.561Y-44.561
X55.865Y-62.246
T3
X46.0Y-3.5
X46.0Y-6.04
X46.0Y-8.58
X46.0Y-11.12
T4
X5.205Y-65.11
X5.205Y-70.89
T5
X3.6Y-3.6
X3.6Y-48.0
X62.4Y-3.6
X62.4Y-71.4
T2
X1.925Y-63.68G85X1.125Y-63.68
G05
X1.925Y-72.32G85X1.125Y-72.32
G05
X6.255Y-63.68G85X5.155Y-63.68
G05
X6.255Y-72.32G85X5.155Y-72.32
G05
T3
X18.06Y-44.9G85X19.06Y-44.9
G05
X18.071Y-43.0G85X19.071Y-43.0
G05
M30
